<svg xmlns="http://www.w3.org/2000/svg" xmlns:xlink="http://www.w3.org/1999/xlink" xml:space="preserve" x="0" y="0" version="1.1" viewBox="0 0 263.73 263.73"><defs><circle id="a" cx="749.04" cy="-1537.37" r="129"/></defs><use xlink:href="#a" fill="#9fccd2" overflow="visible"/><clipPath id="b"><use xlink:href="#a" overflow="visible"/></clipPath><g clip-path="url(#b)"><ellipse cx="768.54" cy="-1564.13" rx="1.72" ry="2.33"/></g><defs><circle id="c" cx="795.14" cy="-5301.13" r="129"/></defs><use xlink:href="#c" fill="#eadbcb" overflow="visible"/><defs><circle id="d" cx="1096.14" cy="-5301.13" r="129"/></defs><use xlink:href="#d" fill="#e5e4d5" overflow="visible"/><clipPath id="e"><use xlink:href="#d" overflow="visible"/></clipPath><g clip-path="url(#e)"><ellipse fill="#f49a86" cx="1103.17" cy="-5330.81" opacity=".76" rx="5.66" ry="3.86" transform="rotate(-70.719 1103.242 -5330.76)"/><circle fill="#153745" cx="1121.14" cy="-5181.25" r="3.72"/><circle fill="#153745" cx="1048.96" cy="-5190.32" r="3.72"/></g><defs><circle id="f" cx="749.04" cy="-3263.23" r="129"/></defs><use xlink:href="#f" fill="#e5e4d5" overflow="visible"/><clipPath id="g"><use xlink:href="#f" overflow="visible"/></clipPath><g clip-path="url(#g)"><ellipse fill="#f49a86" cx="756.07" cy="-3292.91" opacity=".76" rx="5.66" ry="3.86" transform="rotate(-70.719 756.12 -3292.882)"/><circle fill="#153745" cx="774.05" cy="-3143.35" r="3.72"/><circle fill="#153745" cx="701.86" cy="-3152.43" r="3.72"/></g><defs><circle id="h" cx="2601.14" cy="-5301.13" r="129"/></defs><use xlink:href="#h" fill="#fdc83d" overflow="visible"/><defs><circle id="i" cx="1897.77" cy="-962.16" r="129"/></defs><use xlink:href="#i" fill="#fdc83d" overflow="visible"/><defs><circle id="j" cx="2902.14" cy="-5301.13" r="129"/></defs><use xlink:href="#j" fill="#e17765" overflow="visible"/><clipPath id="k"><use xlink:href="#j" overflow="visible"/></clipPath><g clip-path="url(#k)"><circle fill="#314f5b" cx="2903.47" cy="-5310.75" r="26.88"/><circle cx="2903.47" cy="-5310.75" r="18.24" transform="rotate(-76.714 2903.526 -5311.227)"/></g><defs><circle id="l" cx="3203.14" cy="-5301.13" r="129"/></defs><use xlink:href="#l" fill="#027888" overflow="visible"/><defs><circle id="m" cx="3504.14" cy="-5301.13" r="129"/></defs><use xlink:href="#m" fill="#df6d59" overflow="visible"/><defs><circle id="n" cx="3805.14" cy="-5301.13" r="129"/></defs><use xlink:href="#n" fill="#bab891" overflow="visible"/><clipPath id="o"><use xlink:href="#n" overflow="visible"/></clipPath><g clip-path="url(#o)"><ellipse cx="3794.71" cy="-5336.94" rx="1.43" ry="1.93"/></g><defs><circle id="p" cx="4106.14" cy="-5301.13" r="129"/></defs><use xlink:href="#p" fill="#9fccd2" overflow="visible"/><clipPath id="q"><use xlink:href="#p" overflow="visible"/></clipPath><g clip-path="url(#q)"><ellipse cx="4125.61" cy="-5333.35" rx="1.54" ry="2.08"/></g><defs><circle id="r" cx="2472.14" cy="-2687.8" r="129"/></defs><use xlink:href="#r" fill="#bab891" overflow="visible"/><clipPath id="s"><use xlink:href="#r" overflow="visible"/></clipPath><g clip-path="url(#s)"><ellipse cx="2461.71" cy="-2723.61" rx="1.43" ry="1.93"/></g><defs><circle id="t" cx="1323.41" cy="-1537.37" r="129"/></defs><use xlink:href="#t" fill="#9fccd2" overflow="visible"/><clipPath id="u"><use xlink:href="#t" overflow="visible"/></clipPath><g clip-path="url(#u)"><ellipse cx="1342.88" cy="-1569.59" rx="1.54" ry="2.08"/></g><defs><circle id="v" cx="795.14" cy="-4982.99" r="129"/></defs><use xlink:href="#v" fill="#027888" overflow="visible"/><clipPath id="w"><use xlink:href="#v" overflow="visible"/></clipPath><g clip-path="url(#w)"><ellipse cx="816.17" cy="-5019.92" rx="1.88" ry="2.54"/><ellipse fill="#f49a86" cx="821.57" cy="-5004.67" opacity=".51" rx="7.41" ry="5.06" transform="rotate(-79.216 821.528 -5005.004)"/></g><defs><circle id="x" cx="749.04" cy="-2687.8" r="129"/></defs><use xlink:href="#x" fill="#027888" overflow="visible"/><clipPath id="y"><use xlink:href="#x" overflow="visible"/></clipPath><g clip-path="url(#y)"><ellipse cx="770.08" cy="-2724.74" rx="1.88" ry="2.54"/><ellipse fill="#f49a86" cx="775.48" cy="-2709.48" opacity=".51" rx="7.41" ry="5.06" transform="rotate(-79.216 775.476 -2709.671)"/></g><defs><circle id="z" cx="1397.14" cy="-4982.99" r="129"/></defs><use xlink:href="#z" fill="#027888" overflow="visible"/><clipPath id="A"><use xlink:href="#z" overflow="visible"/></clipPath><g clip-path="url(#A)"><ellipse fill="#f49a86" cx="1419.83" cy="-5002.68" opacity=".44" rx="7.97" ry="5.44" transform="rotate(-65.669 1419.805 -5002.53)"/></g><defs><circle id="B" cx="2472.14" cy="-962.16" r="129"/></defs><use xlink:href="#B" fill="#027888" overflow="visible"/><clipPath id="C"><use xlink:href="#B" overflow="visible"/></clipPath><g clip-path="url(#C)"><ellipse fill="#f49a86" cx="2494.83" cy="-981.85" opacity=".44" rx="7.97" ry="5.44" transform="rotate(-65.669 2494.764 -981.814)"/></g><defs><circle id="D" cx="1698.14" cy="-4982.99" r="129"/></defs><use xlink:href="#D" fill="#e89789" overflow="visible"/><defs><circle id="E" cx="174.46" cy="-962.16" r="129"/></defs><use xlink:href="#E" fill="#e89789" overflow="visible"/><defs><circle id="F" cx="2300.14" cy="-4982.99" r="129"/></defs><use xlink:href="#F" fill="#eadbcb" overflow="visible"/><clipPath id="G"><use xlink:href="#F" overflow="visible"/></clipPath><g clip-path="url(#G)"><ellipse fill="#f49a86" cx="2308.91" cy="-4984.41" opacity=".52" rx="7.36" ry="5.03" transform="rotate(-76.944 2309.028 -4984.617)"/></g><defs><circle id="H" cx="174.46" cy="-2112.59" r="129"/></defs><use xlink:href="#H" fill="#eadbcb" overflow="visible"/><clipPath id="I"><use xlink:href="#H" overflow="visible"/></clipPath><g clip-path="url(#I)"><ellipse fill="#f49a86" cx="183.23" cy="-2114.01" opacity=".52" rx="7.36" ry="5.03" transform="rotate(-76.944 183.25 -2114.102)"/></g><defs><circle id="J" cx="2601.14" cy="-4982.99" r="129"/></defs><use xlink:href="#J" fill="#9fccd2" overflow="visible"/><defs><circle id="K" cx="1323.41" cy="-962.16" r="129"/></defs><use xlink:href="#K" fill="#9fccd2" overflow="visible"/><defs><circle id="L" cx="2902.14" cy="-4982.99" r="129"/></defs><use xlink:href="#L" fill="#fdcf58" overflow="visible"/><clipPath id="M"><use xlink:href="#L" overflow="visible"/></clipPath><g clip-path="url(#M)"><circle fill="#bab891" cx="2901.26" cy="-4861.93" r="32.17" transform="rotate(-22.5 2901.147 -4861.71)"/></g><defs><circle id="N" cx="174.83" cy="-1537.37" r="129"/></defs><use xlink:href="#N" fill="#fdcf58" overflow="visible"/><clipPath id="O"><use xlink:href="#N" overflow="visible"/></clipPath><g clip-path="url(#O)"><circle fill="#bab891" cx="173.95" cy="-1416.32" r="32.17" transform="rotate(-22.5 173.947 -1416.255)"/></g><defs><circle id="P" cx="3203.14" cy="-4982.99" r="129"/></defs><use xlink:href="#P" fill="#153745" overflow="visible"/><clipPath id="Q"><use xlink:href="#P" overflow="visible"/></clipPath><g clip-path="url(#Q)"><ellipse fill="#f49a86" cx="3184.92" cy="-4996.98" opacity=".41" rx="5.13" ry="7.51" transform="rotate(-14.805 3184.908 -4997.875)"/><circle fill="#fdc023" cx="3224.78" cy="-4806.81" r="9.65" transform="rotate(-22.5 3224.656 -4806.593)"/></g><defs><circle id="R" cx="749.04" cy="-962.16" r="129"/></defs><use xlink:href="#R" fill="#153745" overflow="visible"/><clipPath id="S"><use xlink:href="#R" overflow="visible"/></clipPath><g clip-path="url(#S)"><ellipse fill="#f49a86" cx="730.82" cy="-976.15" opacity=".41" rx="5.13" ry="7.51" transform="rotate(-14.805 730.834 -976.335)"/><circle fill="#fdc023" cx="770.68" cy="-785.98" r="9.65" transform="rotate(-22.5 770.653 -785.943)"/></g><defs><circle id="T" cx="3504.14" cy="-4982.99" r="129"/></defs><use xlink:href="#T" fill="#9fccd2" overflow="visible"/><clipPath id="U"><use xlink:href="#T" overflow="visible"/></clipPath><g clip-path="url(#U)"><ellipse cx="3523.63" cy="-5009.75" rx="1.72" ry="2.33"/></g><defs><circle id="V" cx="3805.14" cy="-4982.99" r="129"/></defs><use xlink:href="#V" fill="#fdc432" overflow="visible"/><clipPath id="W"><use xlink:href="#V" overflow="visible"/></clipPath><g clip-path="url(#W)"><circle fill="#fff" cx="3794.7" cy="-4818.96" r="2.14"/></g><defs><circle id="X" cx="1323.41" cy="-3263.23" r="129"/></defs><use xlink:href="#X" fill="#fdc432" overflow="visible"/><clipPath id="Y"><use xlink:href="#X" overflow="visible"/></clipPath><g clip-path="url(#Y)"><circle fill="#fff" cx="1312.97" cy="-3099.21" r="2.14"/></g><defs><circle id="Z" cx="4106.14" cy="-4982.99" r="129"/></defs><use xlink:href="#Z" fill="#df6d59" overflow="visible"/><clipPath id="aa"><use xlink:href="#Z" overflow="visible"/></clipPath><g clip-path="url(#aa)"><ellipse fill="#f49a86" cx="4094.75" cy="-5006.59" opacity=".36" rx="7.27" ry="4.96" transform="matrix(.0091 -1 1 .0091 9063.883 -866.46)"/></g><defs><circle id="ab" cx="2472.14" cy="-2112.59" r="129"/></defs><use xlink:href="#ab" fill="#df6d59" overflow="visible"/><clipPath id="ac"><use xlink:href="#ab" overflow="visible"/></clipPath><g clip-path="url(#ac)"><ellipse fill="#f49a86" cx="2460.75" cy="-2136.19" opacity=".36" rx="7.27" ry="4.96" transform="matrix(.0091 -1 1 .0091 4574.466 343.896)"/></g><defs><circle id="ad" cx="1999.14" cy="-5301.13" r="129"/></defs><use xlink:href="#ad" fill="#9fccd2" overflow="visible"/><clipPath id="ae"><use xlink:href="#ad" overflow="visible"/></clipPath><g fill="#1d1d1b" clip-path="url(#ae)"><circle cx="2008.98" cy="-5251.24" r=".59"/><circle cx="2020.76" cy="-5204.12" r=".59"/><circle cx="2014.87" cy="-5198.23" r=".59"/><circle cx="2008.98" cy="-5204.12" r=".59"/><circle cx="1973.64" cy="-5298.36" r=".59"/><circle cx="1961.86" cy="-5298.36" r=".59"/><circle cx="1973.64" cy="-5251.24" r=".59"/><circle cx="1961.86" cy="-5251.24" r=".59"/><circle cx="1973.64" cy="-5204.12" r=".59"/><circle cx="1979.53" cy="-5198.23" r=".59"/><circle cx="1967.75" cy="-5198.23" r=".59"/><circle cx="1961.86" cy="-5204.12" r=".59"/><circle cx="1973.64" cy="-5168.78" r=".59"/><circle cx="1961.86" cy="-5168.78" r=".59"/><circle cx="1967.75" cy="-5151.11" r=".59"/><circle cx="1967.75" cy="-5162.89" r=".59"/><circle cx="1961.86" cy="-5157" r=".59"/><circle cx="1955.97" cy="-5198.23" r=".59"/><circle cx="1955.97" cy="-5151.11" r=".59"/><circle cx="1955.97" cy="-5162.89" r=".59"/><circle cx="1926.52" cy="-5251.24" r=".59"/><circle cx="1914.74" cy="-5251.24" r=".59"/><circle cx="1926.52" cy="-5204.12" r=".59"/><circle cx="1932.41" cy="-5198.23" r=".59"/><circle cx="1920.63" cy="-5198.23" r=".59"/><circle cx="1914.74" cy="-5204.12" r=".59"/><circle cx="1926.52" cy="-5168.78" r=".59"/><circle cx="1914.74" cy="-5168.78" r=".59"/><circle cx="1926.52" cy="-5157" r=".59"/><circle cx="1932.41" cy="-5151.11" r=".59"/><circle cx="1920.63" cy="-5151.11" r=".59"/><circle cx="1932.41" cy="-5162.89" r=".59"/><circle cx="1920.63" cy="-5162.89" r=".59"/><circle cx="1914.74" cy="-5157" r=".59"/><circle cx="1932.41" cy="-5127.54" r=".59"/><circle cx="1908.85" cy="-5198.23" r=".59"/><circle cx="1908.85" cy="-5151.11" r=".59"/><circle cx="1908.85" cy="-5162.89" r=".59"/><circle cx="2032.54" cy="-5251.24" r=".59"/><circle cx="2032.54" cy="-5204.12" r=".59"/><circle cx="2020.76" cy="-5251.24" r=".59"/><circle cx="2008.98" cy="-5251.24" r=".59"/><circle cx="2020.76" cy="-5204.12" r=".59"/><circle cx="2026.65" cy="-5198.23" r=".59"/><circle cx="2014.87" cy="-5198.23" r=".59"/></g><defs><circle id="af" cx="1999.14" cy="-5301.13" r="129"/></defs><clipPath id="ag"><use xlink:href="#af" overflow="visible"/></clipPath><g fill="#1d1d1b" clip-path="url(#ag)"><circle cx="2008.98" cy="-5251.24" r=".59"/><circle cx="2020.76" cy="-5204.12" r=".59"/><circle cx="2014.87" cy="-5198.23" r=".59"/><circle cx="2008.98" cy="-5204.12" r=".59"/><circle cx="1973.64" cy="-5298.36" r=".59"/><circle cx="1961.86" cy="-5298.36" r=".59"/><circle cx="1973.64" cy="-5251.24" r=".59"/><circle cx="1961.86" cy="-5251.24" r=".59"/><circle cx="1973.64" cy="-5204.12" r=".59"/><circle cx="1979.53" cy="-5198.23" r=".59"/><circle cx="1967.75" cy="-5198.23" r=".59"/><circle cx="1961.86" cy="-5204.12" r=".59"/><circle cx="1973.64" cy="-5168.78" r=".59"/><circle cx="1961.86" cy="-5168.78" r=".59"/><circle cx="1967.75" cy="-5151.11" r=".59"/><circle cx="1967.75" cy="-5162.89" r=".59"/><circle cx="1961.86" cy="-5157" r=".59"/><circle cx="1955.97" cy="-5198.23" r=".59"/><circle cx="1955.97" cy="-5151.11" r=".59"/><circle cx="1955.97" cy="-5162.89" r=".59"/><circle cx="1926.52" cy="-5251.24" r=".59"/><circle cx="1914.74" cy="-5251.24" r=".59"/><circle cx="1926.52" cy="-5204.12" r=".59"/><circle cx="1932.41" cy="-5198.23" r=".59"/><circle cx="1920.63" cy="-5198.23" r=".59"/><circle cx="1914.74" cy="-5204.12" r=".59"/><circle cx="1926.52" cy="-5168.78" r=".59"/><circle cx="1914.74" cy="-5168.78" r=".59"/><circle cx="1926.52" cy="-5157" r=".59"/><circle cx="1932.41" cy="-5151.11" r=".59"/><circle cx="1920.63" cy="-5151.11" r=".59"/><circle cx="1932.41" cy="-5162.89" r=".59"/><circle cx="1920.63" cy="-5162.89" r=".59"/><circle cx="1914.74" cy="-5157" r=".59"/><circle cx="1932.41" cy="-5127.54" r=".59"/><circle cx="1908.85" cy="-5198.23" r=".59"/><circle cx="1908.85" cy="-5151.11" r=".59"/><circle cx="1908.85" cy="-5162.89" r=".59"/><circle cx="2032.54" cy="-5251.24" r=".59"/><circle cx="2032.54" cy="-5204.12" r=".59"/><circle cx="2020.76" cy="-5251.24" r=".59"/><circle cx="2008.98" cy="-5251.24" r=".59"/><circle cx="2020.76" cy="-5204.12" r=".59"/><circle cx="2026.65" cy="-5198.23" r=".59"/><circle cx="2014.87" cy="-5198.23" r=".59"/></g><defs><circle id="ah" cx="1897.77" cy="-3263.23" r="129"/></defs><use xlink:href="#ah" fill="#9fccd2" overflow="visible"/><clipPath id="ai"><use xlink:href="#ah" overflow="visible"/></clipPath><g fill="#1d1d1b" clip-path="url(#ai)"><circle cx="1907.62" cy="-3213.35" r=".59"/><circle cx="1919.4" cy="-3166.22" r=".59"/><circle cx="1913.51" cy="-3160.33" r=".59"/><circle cx="1907.62" cy="-3166.22" r=".59"/><circle cx="1872.28" cy="-3260.47" r=".59"/><circle cx="1860.5" cy="-3260.47" r=".59"/><circle cx="1872.28" cy="-3213.35" r=".59"/><circle cx="1860.5" cy="-3213.35" r=".59"/><circle cx="1872.28" cy="-3166.22" r=".59"/><circle cx="1878.17" cy="-3160.33" r=".59"/><circle cx="1866.39" cy="-3160.33" r=".59"/><circle cx="1860.5" cy="-3166.22" r=".59"/><circle cx="1872.28" cy="-3130.88" r=".59"/><circle cx="1860.5" cy="-3130.88" r=".59"/><circle cx="1866.39" cy="-3113.21" r=".59"/><circle cx="1866.39" cy="-3124.99" r=".59"/><circle cx="1860.5" cy="-3119.1" r=".59"/><circle cx="1854.6" cy="-3160.33" r=".59"/><circle cx="1854.6" cy="-3113.21" r=".59"/><circle cx="1854.6" cy="-3124.99" r=".59"/><circle cx="1825.15" cy="-3213.35" r=".59"/><circle cx="1813.37" cy="-3213.35" r=".59"/><circle cx="1825.15" cy="-3166.22" r=".59"/><circle cx="1831.04" cy="-3160.33" r=".59"/><circle cx="1819.26" cy="-3160.33" r=".59"/><circle cx="1813.37" cy="-3166.22" r=".59"/><circle cx="1825.15" cy="-3130.88" r=".59"/><circle cx="1813.37" cy="-3130.88" r=".59"/><circle cx="1825.15" cy="-3119.1" r=".59"/><circle cx="1831.04" cy="-3113.21" r=".59"/><circle cx="1819.26" cy="-3113.21" r=".59"/><circle cx="1831.04" cy="-3124.99" r=".59"/><circle cx="1819.26" cy="-3124.99" r=".59"/><circle cx="1813.37" cy="-3119.1" r=".59"/><circle cx="1831.04" cy="-3089.65" r=".59"/><circle cx="1807.48" cy="-3160.33" r=".59"/><circle cx="1807.48" cy="-3113.21" r=".59"/><circle cx="1807.48" cy="-3124.99" r=".59"/><circle cx="1931.18" cy="-3213.35" r=".59"/><circle cx="1931.18" cy="-3166.22" r=".59"/><circle cx="1919.4" cy="-3213.35" r=".59"/><circle cx="1907.62" cy="-3213.35" r=".59"/><circle cx="1919.4" cy="-3166.22" r=".59"/><circle cx="1925.29" cy="-3160.33" r=".59"/><circle cx="1913.51" cy="-3160.33" r=".59"/></g><defs><circle id="aj" cx="1897.77" cy="-3263.23" r="129"/></defs><clipPath id="ak"><use xlink:href="#aj" overflow="visible"/></clipPath><g fill="#1d1d1b" clip-path="url(#ak)"><circle cx="1907.62" cy="-3213.35" r=".59"/><circle cx="1919.4" cy="-3166.22" r=".59"/><circle cx="1913.51" cy="-3160.33" r=".59"/><circle cx="1907.62" cy="-3166.22" r=".59"/><circle cx="1872.28" cy="-3260.47" r=".59"/><circle cx="1860.5" cy="-3260.47" r=".59"/><circle cx="1872.28" cy="-3213.35" r=".59"/><circle cx="1860.5" cy="-3213.35" r=".59"/><circle cx="1872.28" cy="-3166.22" r=".59"/><circle cx="1878.17" cy="-3160.33" r=".59"/><circle cx="1866.39" cy="-3160.33" r=".59"/><circle cx="1860.5" cy="-3166.22" r=".59"/><circle cx="1872.28" cy="-3130.88" r=".59"/><circle cx="1860.5" cy="-3130.88" r=".59"/><circle cx="1866.39" cy="-3113.21" r=".59"/><circle cx="1866.39" cy="-3124.99" r=".59"/><circle cx="1860.5" cy="-3119.1" r=".59"/><circle cx="1854.6" cy="-3160.33" r=".59"/><circle cx="1854.6" cy="-3113.21" r=".59"/><circle cx="1854.6" cy="-3124.99" r=".59"/><circle cx="1825.15" cy="-3213.35" r=".59"/><circle cx="1813.37" cy="-3213.35" r=".59"/><circle cx="1825.15" cy="-3166.22" r=".59"/><circle cx="1831.04" cy="-3160.33" r=".59"/><circle cx="1819.26" cy="-3160.33" r=".59"/><circle cx="1813.37" cy="-3166.22" r=".59"/><circle cx="1825.15" cy="-3130.88" r=".59"/><circle cx="1813.37" cy="-3130.88" r=".59"/><circle cx="1825.15" cy="-3119.1" r=".59"/><circle cx="1831.04" cy="-3113.21" r=".59"/><circle cx="1819.26" cy="-3113.21" r=".59"/><circle cx="1831.04" cy="-3124.99" r=".59"/><circle cx="1819.26" cy="-3124.99" r=".59"/><circle cx="1813.37" cy="-3119.1" r=".59"/><circle cx="1831.04" cy="-3089.65" r=".59"/><circle cx="1807.48" cy="-3160.33" r=".59"/><circle cx="1807.48" cy="-3113.21" r=".59"/><circle cx="1807.48" cy="-3124.99" r=".59"/><circle cx="1931.18" cy="-3213.35" r=".59"/><circle cx="1931.18" cy="-3166.22" r=".59"/><circle cx="1919.4" cy="-3213.35" r=".59"/><circle cx="1907.62" cy="-3213.35" r=".59"/><circle cx="1919.4" cy="-3166.22" r=".59"/><circle cx="1925.29" cy="-3160.33" r=".59"/><circle cx="1913.51" cy="-3160.33" r=".59"/></g><defs><circle id="al" cx="795.14" cy="-4662.35" r="129"/></defs><use xlink:href="#al" fill="#11808f" overflow="visible"/><defs><circle id="am" cx="1096.14" cy="-4662.35" r="129"/></defs><use xlink:href="#am" fill="#fdd8d3" overflow="visible"/><defs><circle id="an" cx="2472.14" cy="-1537.37" r="129"/></defs><use xlink:href="#an" fill="#fdd8d3" overflow="visible"/><defs><circle id="ao" cx="1397.14" cy="-4662.35" r="129"/></defs><use xlink:href="#ao" fill="#eadbcb" overflow="visible"/><defs><circle id="ap" cx="2472.14" cy="-3263.23" r="129"/></defs><use xlink:href="#ap" fill="#eadbcb" overflow="visible"/><defs><circle id="aq" cx="1698.14" cy="-4662.35" r="129"/></defs><use xlink:href="#aq" fill="#fdc023" overflow="visible"/><defs><circle id="ar" cx="749.04" cy="-2112.59" r="129"/></defs><use xlink:href="#ar" fill="#fdc023" overflow="visible"/><defs><circle id="as" cx="1999.14" cy="-4662.35" r="129"/></defs><use xlink:href="#as" fill="#027888" overflow="visible"/><clipPath id="at"><use xlink:href="#as" overflow="visible"/></clipPath><g clip-path="url(#at)"><ellipse fill="#f49a86" cx="2045.59" cy="-4690.86" rx="6.14" ry="9" transform="rotate(-7.022 2046.958 -4692.457)"/></g><defs><circle id="au" cx="174.46" cy="-2687.8" r="129"/></defs><use xlink:href="#au" fill="#027888" overflow="visible"/><clipPath id="av"><use xlink:href="#au" overflow="visible"/></clipPath><g clip-path="url(#av)"><ellipse fill="#f49a86" cx="220.92" cy="-2716.31" rx="6.14" ry="9" transform="rotate(-7.022 221.33 -2717.35)"/></g><defs><circle id="aw" cx="2601.14" cy="-4662.35" r="129"/></defs><use xlink:href="#aw" fill="#fdce53" overflow="visible"/><clipPath id="ax"><use xlink:href="#aw" overflow="visible"/></clipPath><g clip-path="url(#ax)"><ellipse fill="#f49a86" cx="2593.98" cy="-4666.47" opacity=".55" rx="9.36" ry="6.39" transform="rotate(-64.004 2594.043 -4666.73)"/></g><defs><circle id="ay" cx="1323.41" cy="-2112.59" r="129"/></defs><use xlink:href="#ay" fill="#fdce53" overflow="visible"/><clipPath id="az"><use xlink:href="#ay" overflow="visible"/></clipPath><g clip-path="url(#az)"><ellipse fill="#f49a86" cx="1316.25" cy="-2116.7" opacity=".55" rx="9.36" ry="6.39" transform="rotate(-64.004 1316.289 -2116.822)"/></g><defs><circle id="aA" cx="2902.14" cy="-4662.35" r="129"/></defs><use xlink:href="#aA" fill="#df6d59" overflow="visible"/><defs><circle id="aB" cx="3203.14" cy="-4662.35" r="129"/></defs><use xlink:href="#aB" fill="#fdc023" overflow="visible"/><defs><circle id="aC" cx="3504.14" cy="-4662.35" r="129"/></defs><use xlink:href="#aC" fill="#254552" overflow="visible"/><defs><circle id="aD" cx="1897.77" cy="-2112.59" r="129"/></defs><use xlink:href="#aD" fill="#254552" overflow="visible"/><defs><circle id="aE" cx="3805.14" cy="-4662.35" r="129"/></defs><use xlink:href="#aE" fill="#eadbcb" overflow="visible"/><defs><circle id="aF" cx="4106.14" cy="-4662.35" r="129"/></defs><use xlink:href="#aF" fill="#9fccd2" overflow="visible"/><clipPath id="aG"><use xlink:href="#aF" overflow="visible"/></clipPath><g clip-path="url(#aG)"><ellipse fill="#f49a86" cx="4132.07" cy="-4664.08" opacity=".56" rx="8.23" ry="5.62" transform="rotate(-82.484 4132.109 -4664.01)"/></g><defs><circle id="aH" cx="1897.77" cy="-2687.8" r="129"/></defs><use xlink:href="#aH" fill="#9fccd2" overflow="visible"/><clipPath id="aI"><use xlink:href="#aH" overflow="visible"/></clipPath><g clip-path="url(#aI)"><ellipse fill="#f49a86" cx="1923.7" cy="-2689.53" opacity=".56" rx="8.23" ry="5.62" transform="rotate(-82.484 1923.73 -2689.493)"/></g><circle fill="#eadbcb" cx="2303.27" cy="-4662.33" r="129.21"/><circle fill="none" cx="2303.27" cy="-4662.33" r="129.21"/><circle fill="#fdc023" cx="1397.16" cy="-5301.31" r="129.21"/><circle fill="none" cx="1397.16" cy="-5301.31" r="129.21"/><circle fill="#153745" cx="1698.16" cy="-5300.32" r="129.21"/><ellipse cx="1718.1" cy="-5337.72" rx="1.45" ry="1.95"/><circle fill="#e37d6b" cx="1701.1" cy="-5288.69" r="12.52" transform="rotate(-80.781 1701.016 -5288.728)"/><circle fill="none" cx="1698.16" cy="-5300.32" r="129.21"/><circle fill="#153745" cx="1323.19" cy="-2688.02" r="129.21"/><ellipse cx="1343.14" cy="-2725.41" rx="1.45" ry="1.95"/><circle fill="#e37d6b" cx="1326.13" cy="-2676.39" r="12.52" transform="rotate(-80.781 1326.09 -2676.413)"/><circle fill="none" cx="1323.19" cy="-2688.02" r="129.21"/><circle fill="#153745" cx="2299.54" cy="-5302.12" r="129.21"/><circle fill="#153745" cx="2299.54" cy="-5302.12" r="129.21"/><circle fill="#153745" cx="2299.54" cy="-5302.12" r="129.21"/><circle fill="#2c4b58" cx="2289.48" cy="-5342.61" r="20.59"/><circle cx="2289.48" cy="-5342.61" r="13.19" transform="rotate(-45.001 2289.548 -5342.607)"/><circle fill="none" cx="2299.54" cy="-5302.12" r="129.21"/><circle fill="#fdc023" cx="1096.14" cy="-4980.84" r="129.21"/><circle fill="none" cx="1096.14" cy="-4980.84" r="129.21"/><circle fill="#fdc023" cx="1897.56" cy="-1537.59" r="129.21"/><circle fill="none" cx="1897.56" cy="-1537.59" r="129.21"/><circle fill="#fdc023" cx="152.31" cy="-4976.75" r="450"/><ellipse fill="#f49a86" cx="101.88" cy="-4946.54" rx="15.32" ry="22.43" transform="rotate(-12.539 101.845 -4947.176)"/><circle fill="none" cx="152.31" cy="-4976.75" r="450"/><circle fill="#df6d59" cx="2006.68" cy="-4983.11" r="129.21"/><circle fill="none" cx="2006.68" cy="-4983.11" r="129.21"/><circle fill="#df6d59" cx="174.68" cy="-3263.02" r="129.21"/><circle fill="none" cx="174.68" cy="-3263.02" r="129.21"/><text font-family="Gotham-Book" font-size="22" transform="translate(45.463 -3083.017)">New experiences type</text><text font-family="Gotham-Book" font-size="22" transform="translate(675.528 -3083.017)">Selfie type</text><text font-family="Gotham-Book" font-size="22" transform="translate(620.042 -1934.982)">Always positive type</text><text font-family="Gotham-Book" font-size="22" transform="translate(107.95 -1934.982)">Stylish type</text><text font-family="Gotham-Book" font-size="22" transform="translate(1204.546 -1934.982)">Overthinker type</text><text font-family="Gotham-Book" font-size="22" transform="translate(1778.1 -1934.982)">Original thinker type</text><text font-family="Gotham-Book" font-size="22" transform="translate(2328.035 -1934.982)">Always at the phone type</text><text font-family="Gotham-Book" font-size="22" transform="translate(2397.546 -1360.305)">Strategy type</text><text font-family="Gotham-Book" font-size="22" transform="translate(1805.293 -1360.305)">Iluminations type</text><text font-family="Gotham-Book" font-size="22" transform="translate(1166.833 -1360.305)">What other will think type</text><text font-family="Gotham-Book" font-size="22" transform="translate(620.042 -1360.305)">Artist’s boyfriend type</text><text font-family="Gotham-Book" font-size="22" transform="translate(78.49 -782.985)">Music &amp; Life type</text><text font-family="Gotham-Book" font-size="22" transform="translate(608.152 -782.985)">Always on schedulle type</text><text font-family="Gotham-Book" font-size="22" transform="translate(1204.545 -782.985)">Pastele colors type</text><text font-family="Gotham-Book" font-size="22" transform="translate(1787.15 -782.985)">Nature Photos type</text><text font-family="Gotham-Book" font-size="22" transform="translate(2343.137 -782.985)">Can’t be defined type</text><text font-family="Gotham-Book" font-size="22" transform="translate(107.95 -1360.305)">Artist type</text><text font-family="Gotham-Book" font-size="22" transform="translate(1166.833 -2506.714)">Let me do a photo first type</text><text font-family="Gotham-Book" font-size="22" transform="translate(1837.664 -2506.714)">Zen type</text><text font-family="Gotham-Book" font-size="22" transform="translate(2378.29 -2506.714)">Jonny Bravo type</text><text font-family="Gotham-Book" font-size="22" transform="translate(2397.546 -3094.739)">What if type</text><text font-family="Gotham-Book" font-size="22" transform="translate(1815.446 -3094.739)">Melancolic type</text><text font-family="Gotham-Book" font-size="22" transform="translate(1252.719 -3094.739)">Dooer type</text><text font-family="Gotham-Book" font-size="22" transform="translate(98.11 -2506.715)">Harmony type</text><text font-family="Gotham-Book" font-size="22" transform="translate(662.927 -2506.715)">Cofident type</text><circle fill="#df6d59" cx="131.87" cy="131.87" r="129.21"/><path d="M224.88 221.55c2.04-2.12 4.01-4.31 5.91-6.56-5.26-1.24-9.09-2.07-9.09-2.07l3.18 8.63z" fill="#9aa9af"/><path d="M162.06 119.63c-2.72 7.02-8.45 19.34-11.03 29.65-2.58 10.31-19.19-19.05-19.19-19.05l3.87-10.31 5.59-4.15 20.76 3.86z" fill="#314f5b"/><path d="M110.07 73.8s-9.17-9.74-9.88-23.35c-.72-13.61 4.3-16.61 7.73-16.9 3.44-.29 4.87 4.01 9.02 4.01s5.3-3.58 10.6-2.58 3.29 4.73 8.31 5.44c5.01.72 6.02-2.01 10.46-.57 4.44 1.43 2.29 6.02 5.59 7.3 3.29 1.29 3.87-1.86 9.17-.29 5.3 1.58 3.29 6.73 7.02 6.88 3.72.14 4.15-2.58 8.31-1 4.15 1.58 3.44 5.87 5.59 6.59 2.15.72 5.16-2.15 10.17.14s1.86 6.3 3.72 8.02c1.86 1.72 4.87-1 8.31 1.58 3.44 2.58.72 5.01 2.72 7.16 2.01 2.15 4.3.43 6.59 2.29s.86 4.87 2.29 6.16c1.43 1.29-.72 6.59-4.58 11.32-3.87 4.73-15.04 14.61-27.36 19.05-12.75 4.6-24.78 9.6-45.98 4.01s-21.48-14.75-21.48-14.75l-6.32-30.51z" fill="#153745"/><path d="M110.07 73.8s-10.89 4.87-16.04 14.32c-5.16 9.45-3.72 13.46-5.44 15.76-1.72 2.29-8.88 1.15-9.88 4.3s4.58 7.45 4.58 7.45-2.86 4.15-4.73 10.17c-1.86 6.02-3.29 14.61 1.58 21.63s20.48 7.88 22.92 11.32c2.43 3.44 4.58 16.04 6.45 28.79 1.86 12.75 3.72 32.08 3.72 32.08l44.4-50.56s-6.45-18.48-6.59-19.77c0 0-5.68-7.26-8.74-13.03-3.41-6.43-4.8-14.53-4.01-14.47 0 0 8.88-4.73 10.17-13.32 1.29-8.59-2.43-12.03-7.45-13.75-5.01-1.72-12.89 3.87-16.19 10.89 0 0-.86-5.01-.72-13.03s-2.72-12.03-5.73-13.89c-3-1.88-8.3-4.89-8.3-4.89z" fill="#824f47"/><path d="M98.66 106.95c-.45 1.31-1.18 1.8-2.14 1.46-.97-.34-1.23-1.17-.78-2.48.45-1.31 1.18-1.8 2.14-1.46.97.33 1.23 1.17.78 2.48z"/><path d="M104.5 131.32c-3.15-1.27-3.81-4.27-1.95-8.89 1.86-4.62 4.41-6.32 7.57-5.05 3.15 1.27 3.81 4.27 1.95 8.89-1.87 4.62-4.42 6.32-7.57 5.05z" fill="#f49a86" opacity=".66"/><path d="M94.32 94.14c3.29-.79 9.6.57 12.17 3.22" fill="none" stroke="#000" stroke-linecap="round" stroke-linejoin="round" stroke-miterlimit="10" stroke-width="3.8"/><path d="M77.27 131.16c2.51.43 5.37.43 9.45-.36 4.08-.79 8.95-4.37 8.81-6.3-.14-1.93-3.01-1.79-6.8-2.29-3.41-.45-7.34-1.54-8.1-1.75-.7 1.51-1.44 3.31-2.07 5.33-.5 1.62-.97 3.42-1.29 5.33v.04z" fill="#fff"/><path d="M80.49 120.42s4.44 1.29 8.24 1.79 6.66.36 6.8 2.29c.14 1.93-4.73 5.51-8.81 6.3s-6.95.79-9.45.36" fill="none" stroke="#e79081" stroke-linecap="round" stroke-linejoin="round" stroke-miterlimit="10" stroke-width="3.167"/><linearGradient id="aJ" x1="122.138" x2="138.922" y1="121.94" y2="121.94" gradientUnits="userSpaceOnUse"><stop offset=".001" stop-color="#5c3543"/><stop offset="1" stop-color="#693f39"/></linearGradient><path d="M130.93 124.21c-3.69 0-7.09-1.24-8.68-3.56a.63.63 0 0 1 .17-.88c.29-.2.68-.12.88.17 2.32 3.4 9.6 4.03 14.69 1.28.31-.17.69-.05.86.26.17.31.05.69-.26.86-2.35 1.27-5.08 1.87-7.66 1.87z" fill="url(#aJ)"/><linearGradient id="aK" x1="128.25" x2="139.829" y1="109.606" y2="109.606" gradientUnits="userSpaceOnUse"><stop offset=".001" stop-color="#5c3543"/><stop offset="1" stop-color="#693f39"/></linearGradient><path d="M128.88 115.4c-.17 0-.33-.07-.46-.2a.643.643 0 0 1 .02-.9c.07-.07 7.46-7.08 10.27-10.27.23-.26.63-.29.89-.06.26.23.29.63.06.89-2.85 3.23-10.05 10.06-10.35 10.35-.11.13-.27.19-.43.19z" fill="url(#aK)"/><path d="M227.06 219.24c-2.53-3.31-4.4-6.12-4.4-6.12s3.72.82 8.19 1.82c5.23-6.23 9.89-12.96 13.88-20.11-5.66-17.8-28.66-31.66-34.24-33.66-6.02-2.15-14.61 4.3-14.61 4.3s-1.29-10.31-6.02-12.03c-4.73-1.72-10.89.72-15.33 2.29-15.74 5.59-29.22 19.19-42.4 34.09-13.18 14.9-16.61 25.21-18.91 29.79s-3.15 12.32-2.29 16.33c0 0-2.45 10.25-4.75 22.59 8.3 1.67 16.89 2.56 25.68 2.56 37.68-.01 71.58-16.13 95.2-41.85z" fill="#ece7d5"/><path d="M146.02 207.15c-18.78 12.74-25.23 33.86-26.91 53.31 4.2.41 8.45.63 12.75.63 2.55 0 5.09-.08 7.61-.23 1.47-18.95 4.87-33.47 19.44-47.69 17.62-17.19 48.56-14.61 48.56-14.61s-25.35-15.91-61.45 8.59z" fill="#9aa9af"/><path d="M195.87 165.47c-19.77 6.88-43.4 16.33-55.43 30.94-12.03 14.61-17.62 23.63-17.62 23.63m-11.89 15.9c2.86-7.73 7.45-16.33 7.45-16.33m87.94-21.49c7.45 3.72 16.33 14.99 16.33 14.99m-29.79-19.86c13.75-2.86 31.8 2.29 38.67 5.73" fill="none" stroke="#000" stroke-linecap="round" stroke-linejoin="round" stroke-miterlimit="10" stroke-width="1.267"/><circle fill="none" cx="131.87" cy="131.87" r="129.21"/></svg>