<svg xmlns="http://www.w3.org/2000/svg" xmlns:xlink="http://www.w3.org/1999/xlink" xml:space="preserve" x="0" y="0" version="1.1" viewBox="0 0 263.73 263.73"><defs><circle id="a" cx="749.04" cy="-1537.37" r="129"/></defs><use xlink:href="#a" fill="#9fccd2" overflow="visible"/><clipPath id="b"><use xlink:href="#a" overflow="visible"/></clipPath><g clip-path="url(#b)"><ellipse cx="768.54" cy="-1564.13" rx="1.72" ry="2.33"/></g><defs><circle id="c" cx="795.14" cy="-5301.13" r="129"/></defs><use xlink:href="#c" fill="#eadbcb" overflow="visible"/><defs><circle id="d" cx="1096.14" cy="-5301.13" r="129"/></defs><use xlink:href="#d" fill="#e5e4d5" overflow="visible"/><clipPath id="e"><use xlink:href="#d" overflow="visible"/></clipPath><g clip-path="url(#e)"><ellipse fill="#f49a86" cx="1103.17" cy="-5330.81" opacity=".76" rx="5.66" ry="3.86" transform="rotate(-70.719 1103.242 -5330.76)"/><circle fill="#153745" cx="1121.14" cy="-5181.25" r="3.72"/><circle fill="#153745" cx="1048.96" cy="-5190.32" r="3.72"/></g><defs><circle id="f" cx="749.04" cy="-3263.23" r="129"/></defs><use xlink:href="#f" fill="#e5e4d5" overflow="visible"/><clipPath id="g"><use xlink:href="#f" overflow="visible"/></clipPath><g clip-path="url(#g)"><ellipse fill="#f49a86" cx="756.07" cy="-3292.91" opacity=".76" rx="5.66" ry="3.86" transform="rotate(-70.719 756.12 -3292.882)"/><circle fill="#153745" cx="774.05" cy="-3143.35" r="3.72"/><circle fill="#153745" cx="701.86" cy="-3152.43" r="3.72"/></g><defs><circle id="h" cx="2601.14" cy="-5301.13" r="129"/></defs><use xlink:href="#h" fill="#fdc83d" overflow="visible"/><defs><circle id="i" cx="1897.77" cy="-962.16" r="129"/></defs><use xlink:href="#i" fill="#fdc83d" overflow="visible"/><defs><circle id="j" cx="2902.14" cy="-5301.13" r="129"/></defs><use xlink:href="#j" fill="#e17765" overflow="visible"/><clipPath id="k"><use xlink:href="#j" overflow="visible"/></clipPath><g clip-path="url(#k)"><circle fill="#314f5b" cx="2903.47" cy="-5310.75" r="26.88"/><circle cx="2903.47" cy="-5310.75" r="18.24" transform="rotate(-76.714 2903.526 -5311.227)"/></g><defs><circle id="l" cx="3203.14" cy="-5301.13" r="129"/></defs><use xlink:href="#l" fill="#027888" overflow="visible"/><defs><circle id="m" cx="3504.14" cy="-5301.13" r="129"/></defs><use xlink:href="#m" fill="#df6d59" overflow="visible"/><defs><circle id="n" cx="3805.14" cy="-5301.13" r="129"/></defs><use xlink:href="#n" fill="#bab891" overflow="visible"/><clipPath id="o"><use xlink:href="#n" overflow="visible"/></clipPath><g clip-path="url(#o)"><ellipse cx="3794.71" cy="-5336.94" rx="1.43" ry="1.93"/></g><defs><circle id="p" cx="4106.14" cy="-5301.13" r="129"/></defs><use xlink:href="#p" fill="#9fccd2" overflow="visible"/><clipPath id="q"><use xlink:href="#p" overflow="visible"/></clipPath><g clip-path="url(#q)"><ellipse cx="4125.61" cy="-5333.35" rx="1.54" ry="2.08"/></g><defs><circle id="r" cx="2472.14" cy="-2687.8" r="129"/></defs><use xlink:href="#r" fill="#bab891" overflow="visible"/><clipPath id="s"><use xlink:href="#r" overflow="visible"/></clipPath><g clip-path="url(#s)"><ellipse cx="2461.71" cy="-2723.61" rx="1.43" ry="1.93"/></g><defs><circle id="t" cx="1323.41" cy="-1537.37" r="129"/></defs><use xlink:href="#t" fill="#9fccd2" overflow="visible"/><clipPath id="u"><use xlink:href="#t" overflow="visible"/></clipPath><g clip-path="url(#u)"><ellipse cx="1342.88" cy="-1569.59" rx="1.54" ry="2.08"/></g><defs><circle id="v" cx="795.14" cy="-4982.99" r="129"/></defs><use xlink:href="#v" fill="#027888" overflow="visible"/><clipPath id="w"><use xlink:href="#v" overflow="visible"/></clipPath><g clip-path="url(#w)"><ellipse cx="816.17" cy="-5019.92" rx="1.88" ry="2.54"/><ellipse fill="#f49a86" cx="821.57" cy="-5004.67" opacity=".51" rx="7.41" ry="5.06" transform="rotate(-79.216 821.528 -5005.004)"/></g><defs><circle id="x" cx="749.04" cy="-2687.8" r="129"/></defs><use xlink:href="#x" fill="#027888" overflow="visible"/><clipPath id="y"><use xlink:href="#x" overflow="visible"/></clipPath><g clip-path="url(#y)"><ellipse cx="770.08" cy="-2724.74" rx="1.88" ry="2.54"/><ellipse fill="#f49a86" cx="775.48" cy="-2709.48" opacity=".51" rx="7.41" ry="5.06" transform="rotate(-79.216 775.476 -2709.671)"/></g><defs><circle id="z" cx="1397.14" cy="-4982.99" r="129"/></defs><use xlink:href="#z" fill="#027888" overflow="visible"/><clipPath id="A"><use xlink:href="#z" overflow="visible"/></clipPath><g clip-path="url(#A)"><ellipse fill="#f49a86" cx="1419.83" cy="-5002.68" opacity=".44" rx="7.97" ry="5.44" transform="rotate(-65.669 1419.805 -5002.53)"/></g><defs><circle id="B" cx="2472.14" cy="-962.16" r="129"/></defs><use xlink:href="#B" fill="#027888" overflow="visible"/><clipPath id="C"><use xlink:href="#B" overflow="visible"/></clipPath><g clip-path="url(#C)"><ellipse fill="#f49a86" cx="2494.83" cy="-981.85" opacity=".44" rx="7.97" ry="5.44" transform="rotate(-65.669 2494.764 -981.814)"/></g><defs><circle id="D" cx="1698.14" cy="-4982.99" r="129"/></defs><use xlink:href="#D" fill="#e89789" overflow="visible"/><defs><circle id="E" cx="174.46" cy="-962.16" r="129"/></defs><use xlink:href="#E" fill="#e89789" overflow="visible"/><defs><circle id="F" cx="2300.14" cy="-4982.99" r="129"/></defs><use xlink:href="#F" fill="#eadbcb" overflow="visible"/><clipPath id="G"><use xlink:href="#F" overflow="visible"/></clipPath><g clip-path="url(#G)"><ellipse fill="#f49a86" cx="2308.91" cy="-4984.41" opacity=".52" rx="7.36" ry="5.03" transform="rotate(-76.944 2309.028 -4984.617)"/></g><defs><circle id="H" cx="174.46" cy="-2112.59" r="129"/></defs><use xlink:href="#H" fill="#eadbcb" overflow="visible"/><clipPath id="I"><use xlink:href="#H" overflow="visible"/></clipPath><g clip-path="url(#I)"><ellipse fill="#f49a86" cx="183.23" cy="-2114.01" opacity=".52" rx="7.36" ry="5.03" transform="rotate(-76.944 183.25 -2114.102)"/></g><defs><circle id="J" cx="2601.14" cy="-4982.99" r="129"/></defs><use xlink:href="#J" fill="#9fccd2" overflow="visible"/><defs><circle id="K" cx="1323.41" cy="-962.16" r="129"/></defs><use xlink:href="#K" fill="#9fccd2" overflow="visible"/><defs><circle id="L" cx="2902.14" cy="-4982.99" r="129"/></defs><use xlink:href="#L" fill="#fdcf58" overflow="visible"/><clipPath id="M"><use xlink:href="#L" overflow="visible"/></clipPath><g clip-path="url(#M)"><circle fill="#bab891" cx="2901.26" cy="-4861.93" r="32.17" transform="rotate(-22.5 2901.147 -4861.71)"/></g><defs><circle id="N" cx="174.83" cy="-1537.37" r="129"/></defs><use xlink:href="#N" fill="#fdcf58" overflow="visible"/><clipPath id="O"><use xlink:href="#N" overflow="visible"/></clipPath><g clip-path="url(#O)"><circle fill="#bab891" cx="173.95" cy="-1416.32" r="32.17" transform="rotate(-22.5 173.947 -1416.255)"/></g><defs><circle id="P" cx="3203.14" cy="-4982.99" r="129"/></defs><use xlink:href="#P" fill="#153745" overflow="visible"/><clipPath id="Q"><use xlink:href="#P" overflow="visible"/></clipPath><g clip-path="url(#Q)"><ellipse fill="#f49a86" cx="3184.92" cy="-4996.98" opacity=".41" rx="5.13" ry="7.51" transform="rotate(-14.805 3184.908 -4997.875)"/><circle fill="#fdc023" cx="3224.78" cy="-4806.81" r="9.65" transform="rotate(-22.5 3224.656 -4806.593)"/></g><defs><circle id="R" cx="749.04" cy="-962.16" r="129"/></defs><use xlink:href="#R" fill="#153745" overflow="visible"/><clipPath id="S"><use xlink:href="#R" overflow="visible"/></clipPath><g clip-path="url(#S)"><ellipse fill="#f49a86" cx="730.82" cy="-976.15" opacity=".41" rx="5.13" ry="7.51" transform="rotate(-14.805 730.834 -976.335)"/><circle fill="#fdc023" cx="770.68" cy="-785.98" r="9.65" transform="rotate(-22.5 770.653 -785.943)"/></g><defs><circle id="T" cx="3504.14" cy="-4982.99" r="129"/></defs><use xlink:href="#T" fill="#9fccd2" overflow="visible"/><clipPath id="U"><use xlink:href="#T" overflow="visible"/></clipPath><g clip-path="url(#U)"><ellipse cx="3523.63" cy="-5009.75" rx="1.72" ry="2.33"/></g><defs><circle id="V" cx="3805.14" cy="-4982.99" r="129"/></defs><use xlink:href="#V" fill="#fdc432" overflow="visible"/><clipPath id="W"><use xlink:href="#V" overflow="visible"/></clipPath><g clip-path="url(#W)"><circle fill="#fff" cx="3794.7" cy="-4818.96" r="2.14"/></g><defs><circle id="X" cx="1323.41" cy="-3263.23" r="129"/></defs><use xlink:href="#X" fill="#fdc432" overflow="visible"/><clipPath id="Y"><use xlink:href="#X" overflow="visible"/></clipPath><g clip-path="url(#Y)"><circle fill="#fff" cx="1312.97" cy="-3099.21" r="2.14"/></g><defs><circle id="Z" cx="4106.14" cy="-4982.99" r="129"/></defs><use xlink:href="#Z" fill="#df6d59" overflow="visible"/><clipPath id="aa"><use xlink:href="#Z" overflow="visible"/></clipPath><g clip-path="url(#aa)"><ellipse fill="#f49a86" cx="4094.75" cy="-5006.59" opacity=".36" rx="7.27" ry="4.96" transform="matrix(.0091 -1 1 .0091 9063.883 -866.46)"/></g><defs><circle id="ab" cx="2472.14" cy="-2112.59" r="129"/></defs><use xlink:href="#ab" fill="#df6d59" overflow="visible"/><clipPath id="ac"><use xlink:href="#ab" overflow="visible"/></clipPath><g clip-path="url(#ac)"><ellipse fill="#f49a86" cx="2460.75" cy="-2136.19" opacity=".36" rx="7.27" ry="4.96" transform="matrix(.0091 -1 1 .0091 4574.466 343.896)"/></g><defs><circle id="ad" cx="1999.14" cy="-5301.13" r="129"/></defs><use xlink:href="#ad" fill="#9fccd2" overflow="visible"/><clipPath id="ae"><use xlink:href="#ad" overflow="visible"/></clipPath><g fill="#1d1d1b" clip-path="url(#ae)"><circle cx="2008.98" cy="-5251.24" r=".59"/><circle cx="2020.76" cy="-5204.12" r=".59"/><circle cx="2014.87" cy="-5198.23" r=".59"/><circle cx="2008.98" cy="-5204.12" r=".59"/><circle cx="1973.64" cy="-5298.36" r=".59"/><circle cx="1961.86" cy="-5298.36" r=".59"/><circle cx="1973.64" cy="-5251.24" r=".59"/><circle cx="1961.86" cy="-5251.24" r=".59"/><circle cx="1973.64" cy="-5204.12" r=".59"/><circle cx="1979.53" cy="-5198.23" r=".59"/><circle cx="1967.75" cy="-5198.23" r=".59"/><circle cx="1961.86" cy="-5204.12" r=".59"/><circle cx="1973.64" cy="-5168.78" r=".59"/><circle cx="1961.86" cy="-5168.78" r=".59"/><circle cx="1967.75" cy="-5151.11" r=".59"/><circle cx="1967.75" cy="-5162.89" r=".59"/><circle cx="1961.86" cy="-5157" r=".59"/><circle cx="1955.97" cy="-5198.23" r=".59"/><circle cx="1955.97" cy="-5151.11" r=".59"/><circle cx="1955.97" cy="-5162.89" r=".59"/><circle cx="1926.52" cy="-5251.24" r=".59"/><circle cx="1914.74" cy="-5251.24" r=".59"/><circle cx="1926.52" cy="-5204.12" r=".59"/><circle cx="1932.41" cy="-5198.23" r=".59"/><circle cx="1920.63" cy="-5198.23" r=".59"/><circle cx="1914.74" cy="-5204.12" r=".59"/><circle cx="1926.52" cy="-5168.78" r=".59"/><circle cx="1914.74" cy="-5168.78" r=".59"/><circle cx="1926.52" cy="-5157" r=".59"/><circle cx="1932.41" cy="-5151.11" r=".59"/><circle cx="1920.63" cy="-5151.11" r=".59"/><circle cx="1932.41" cy="-5162.89" r=".59"/><circle cx="1920.63" cy="-5162.89" r=".59"/><circle cx="1914.74" cy="-5157" r=".59"/><circle cx="1932.41" cy="-5127.54" r=".59"/><circle cx="1908.85" cy="-5198.23" r=".59"/><circle cx="1908.85" cy="-5151.11" r=".59"/><circle cx="1908.85" cy="-5162.89" r=".59"/><circle cx="2032.54" cy="-5251.24" r=".59"/><circle cx="2032.54" cy="-5204.12" r=".59"/><circle cx="2020.76" cy="-5251.24" r=".59"/><circle cx="2008.98" cy="-5251.24" r=".59"/><circle cx="2020.76" cy="-5204.12" r=".59"/><circle cx="2026.65" cy="-5198.23" r=".59"/><circle cx="2014.87" cy="-5198.23" r=".59"/></g><defs><circle id="af" cx="1999.14" cy="-5301.13" r="129"/></defs><clipPath id="ag"><use xlink:href="#af" overflow="visible"/></clipPath><g fill="#1d1d1b" clip-path="url(#ag)"><circle cx="2008.98" cy="-5251.24" r=".59"/><circle cx="2020.76" cy="-5204.12" r=".59"/><circle cx="2014.87" cy="-5198.23" r=".59"/><circle cx="2008.98" cy="-5204.12" r=".59"/><circle cx="1973.64" cy="-5298.36" r=".59"/><circle cx="1961.86" cy="-5298.36" r=".59"/><circle cx="1973.64" cy="-5251.24" r=".59"/><circle cx="1961.86" cy="-5251.24" r=".59"/><circle cx="1973.64" cy="-5204.12" r=".59"/><circle cx="1979.53" cy="-5198.23" r=".59"/><circle cx="1967.75" cy="-5198.23" r=".59"/><circle cx="1961.86" cy="-5204.12" r=".59"/><circle cx="1973.64" cy="-5168.78" r=".59"/><circle cx="1961.86" cy="-5168.78" r=".59"/><circle cx="1967.75" cy="-5151.11" r=".59"/><circle cx="1967.75" cy="-5162.89" r=".59"/><circle cx="1961.86" cy="-5157" r=".59"/><circle cx="1955.97" cy="-5198.23" r=".59"/><circle cx="1955.97" cy="-5151.11" r=".59"/><circle cx="1955.97" cy="-5162.89" r=".59"/><circle cx="1926.52" cy="-5251.24" r=".59"/><circle cx="1914.74" cy="-5251.24" r=".59"/><circle cx="1926.52" cy="-5204.12" r=".59"/><circle cx="1932.41" cy="-5198.23" r=".59"/><circle cx="1920.63" cy="-5198.23" r=".59"/><circle cx="1914.74" cy="-5204.12" r=".59"/><circle cx="1926.52" cy="-5168.78" r=".59"/><circle cx="1914.74" cy="-5168.78" r=".59"/><circle cx="1926.52" cy="-5157" r=".59"/><circle cx="1932.41" cy="-5151.11" r=".59"/><circle cx="1920.63" cy="-5151.11" r=".59"/><circle cx="1932.41" cy="-5162.89" r=".59"/><circle cx="1920.63" cy="-5162.89" r=".59"/><circle cx="1914.74" cy="-5157" r=".59"/><circle cx="1932.41" cy="-5127.54" r=".59"/><circle cx="1908.85" cy="-5198.23" r=".59"/><circle cx="1908.85" cy="-5151.11" r=".59"/><circle cx="1908.85" cy="-5162.89" r=".59"/><circle cx="2032.54" cy="-5251.24" r=".59"/><circle cx="2032.54" cy="-5204.12" r=".59"/><circle cx="2020.76" cy="-5251.24" r=".59"/><circle cx="2008.98" cy="-5251.24" r=".59"/><circle cx="2020.76" cy="-5204.12" r=".59"/><circle cx="2026.65" cy="-5198.23" r=".59"/><circle cx="2014.87" cy="-5198.23" r=".59"/></g><defs><circle id="ah" cx="1897.77" cy="-3263.23" r="129"/></defs><use xlink:href="#ah" fill="#9fccd2" overflow="visible"/><clipPath id="ai"><use xlink:href="#ah" overflow="visible"/></clipPath><g fill="#1d1d1b" clip-path="url(#ai)"><circle cx="1907.62" cy="-3213.35" r=".59"/><circle cx="1919.4" cy="-3166.22" r=".59"/><circle cx="1913.51" cy="-3160.33" r=".59"/><circle cx="1907.62" cy="-3166.22" r=".59"/><circle cx="1872.28" cy="-3260.47" r=".59"/><circle cx="1860.5" cy="-3260.47" r=".59"/><circle cx="1872.28" cy="-3213.35" r=".59"/><circle cx="1860.5" cy="-3213.35" r=".59"/><circle cx="1872.28" cy="-3166.22" r=".59"/><circle cx="1878.17" cy="-3160.33" r=".59"/><circle cx="1866.39" cy="-3160.33" r=".59"/><circle cx="1860.5" cy="-3166.22" r=".59"/><circle cx="1872.28" cy="-3130.88" r=".59"/><circle cx="1860.5" cy="-3130.88" r=".59"/><circle cx="1866.39" cy="-3113.21" r=".59"/><circle cx="1866.39" cy="-3124.99" r=".59"/><circle cx="1860.5" cy="-3119.1" r=".59"/><circle cx="1854.6" cy="-3160.33" r=".59"/><circle cx="1854.6" cy="-3113.21" r=".59"/><circle cx="1854.6" cy="-3124.99" r=".59"/><circle cx="1825.15" cy="-3213.35" r=".59"/><circle cx="1813.37" cy="-3213.35" r=".59"/><circle cx="1825.15" cy="-3166.22" r=".59"/><circle cx="1831.04" cy="-3160.33" r=".59"/><circle cx="1819.26" cy="-3160.33" r=".59"/><circle cx="1813.37" cy="-3166.22" r=".59"/><circle cx="1825.15" cy="-3130.88" r=".59"/><circle cx="1813.37" cy="-3130.88" r=".59"/><circle cx="1825.15" cy="-3119.1" r=".59"/><circle cx="1831.04" cy="-3113.21" r=".59"/><circle cx="1819.26" cy="-3113.21" r=".59"/><circle cx="1831.04" cy="-3124.99" r=".59"/><circle cx="1819.26" cy="-3124.99" r=".59"/><circle cx="1813.37" cy="-3119.1" r=".59"/><circle cx="1831.04" cy="-3089.65" r=".59"/><circle cx="1807.48" cy="-3160.33" r=".59"/><circle cx="1807.48" cy="-3113.21" r=".59"/><circle cx="1807.48" cy="-3124.99" r=".59"/><circle cx="1931.18" cy="-3213.35" r=".59"/><circle cx="1931.18" cy="-3166.22" r=".59"/><circle cx="1919.4" cy="-3213.35" r=".59"/><circle cx="1907.62" cy="-3213.35" r=".59"/><circle cx="1919.4" cy="-3166.22" r=".59"/><circle cx="1925.29" cy="-3160.33" r=".59"/><circle cx="1913.51" cy="-3160.33" r=".59"/></g><defs><circle id="aj" cx="1897.77" cy="-3263.23" r="129"/></defs><clipPath id="ak"><use xlink:href="#aj" overflow="visible"/></clipPath><g fill="#1d1d1b" clip-path="url(#ak)"><circle cx="1907.62" cy="-3213.35" r=".59"/><circle cx="1919.4" cy="-3166.22" r=".59"/><circle cx="1913.51" cy="-3160.33" r=".59"/><circle cx="1907.62" cy="-3166.22" r=".59"/><circle cx="1872.28" cy="-3260.47" r=".59"/><circle cx="1860.5" cy="-3260.47" r=".59"/><circle cx="1872.28" cy="-3213.35" r=".59"/><circle cx="1860.5" cy="-3213.35" r=".59"/><circle cx="1872.28" cy="-3166.22" r=".59"/><circle cx="1878.17" cy="-3160.33" r=".59"/><circle cx="1866.39" cy="-3160.33" r=".59"/><circle cx="1860.5" cy="-3166.22" r=".59"/><circle cx="1872.28" cy="-3130.88" r=".59"/><circle cx="1860.5" cy="-3130.88" r=".59"/><circle cx="1866.39" cy="-3113.21" r=".59"/><circle cx="1866.39" cy="-3124.99" r=".59"/><circle cx="1860.5" cy="-3119.1" r=".59"/><circle cx="1854.6" cy="-3160.33" r=".59"/><circle cx="1854.6" cy="-3113.21" r=".59"/><circle cx="1854.6" cy="-3124.99" r=".59"/><circle cx="1825.15" cy="-3213.35" r=".59"/><circle cx="1813.37" cy="-3213.35" r=".59"/><circle cx="1825.15" cy="-3166.22" r=".59"/><circle cx="1831.04" cy="-3160.33" r=".59"/><circle cx="1819.26" cy="-3160.33" r=".59"/><circle cx="1813.37" cy="-3166.22" r=".59"/><circle cx="1825.15" cy="-3130.88" r=".59"/><circle cx="1813.37" cy="-3130.88" r=".59"/><circle cx="1825.15" cy="-3119.1" r=".59"/><circle cx="1831.04" cy="-3113.21" r=".59"/><circle cx="1819.26" cy="-3113.21" r=".59"/><circle cx="1831.04" cy="-3124.99" r=".59"/><circle cx="1819.26" cy="-3124.99" r=".59"/><circle cx="1813.37" cy="-3119.1" r=".59"/><circle cx="1831.04" cy="-3089.65" r=".59"/><circle cx="1807.48" cy="-3160.33" r=".59"/><circle cx="1807.48" cy="-3113.21" r=".59"/><circle cx="1807.48" cy="-3124.99" r=".59"/><circle cx="1931.18" cy="-3213.35" r=".59"/><circle cx="1931.18" cy="-3166.22" r=".59"/><circle cx="1919.4" cy="-3213.35" r=".59"/><circle cx="1907.62" cy="-3213.35" r=".59"/><circle cx="1919.4" cy="-3166.22" r=".59"/><circle cx="1925.29" cy="-3160.33" r=".59"/><circle cx="1913.51" cy="-3160.33" r=".59"/></g><defs><circle id="al" cx="795.14" cy="-4662.35" r="129"/></defs><use xlink:href="#al" fill="#11808f" overflow="visible"/><defs><circle id="am" cx="1096.14" cy="-4662.35" r="129"/></defs><use xlink:href="#am" fill="#fdd8d3" overflow="visible"/><defs><circle id="an" cx="2472.14" cy="-1537.37" r="129"/></defs><use xlink:href="#an" fill="#fdd8d3" overflow="visible"/><defs><circle id="ao" cx="1397.14" cy="-4662.35" r="129"/></defs><use xlink:href="#ao" fill="#eadbcb" overflow="visible"/><defs><circle id="ap" cx="2472.14" cy="-3263.23" r="129"/></defs><use xlink:href="#ap" fill="#eadbcb" overflow="visible"/><defs><circle id="aq" cx="1698.14" cy="-4662.35" r="129"/></defs><use xlink:href="#aq" fill="#fdc023" overflow="visible"/><defs><circle id="ar" cx="749.04" cy="-2112.59" r="129"/></defs><use xlink:href="#ar" fill="#fdc023" overflow="visible"/><defs><circle id="as" cx="1999.14" cy="-4662.35" r="129"/></defs><use xlink:href="#as" fill="#027888" overflow="visible"/><clipPath id="at"><use xlink:href="#as" overflow="visible"/></clipPath><g clip-path="url(#at)"><ellipse fill="#f49a86" cx="2045.59" cy="-4690.86" rx="6.14" ry="9" transform="rotate(-7.022 2046.958 -4692.457)"/></g><defs><circle id="au" cx="174.46" cy="-2687.8" r="129"/></defs><use xlink:href="#au" fill="#027888" overflow="visible"/><clipPath id="av"><use xlink:href="#au" overflow="visible"/></clipPath><g clip-path="url(#av)"><ellipse fill="#f49a86" cx="220.92" cy="-2716.31" rx="6.14" ry="9" transform="rotate(-7.022 221.33 -2717.35)"/></g><defs><circle id="aw" cx="2601.14" cy="-4662.35" r="129"/></defs><use xlink:href="#aw" fill="#fdce53" overflow="visible"/><clipPath id="ax"><use xlink:href="#aw" overflow="visible"/></clipPath><g clip-path="url(#ax)"><ellipse fill="#f49a86" cx="2593.98" cy="-4666.47" opacity=".55" rx="9.36" ry="6.39" transform="rotate(-64.004 2594.043 -4666.73)"/></g><defs><circle id="ay" cx="1323.41" cy="-2112.59" r="129"/></defs><use xlink:href="#ay" fill="#fdce53" overflow="visible"/><clipPath id="az"><use xlink:href="#ay" overflow="visible"/></clipPath><g clip-path="url(#az)"><ellipse fill="#f49a86" cx="1316.25" cy="-2116.7" opacity=".55" rx="9.36" ry="6.39" transform="rotate(-64.004 1316.289 -2116.822)"/></g><defs><circle id="aA" cx="2902.14" cy="-4662.35" r="129"/></defs><use xlink:href="#aA" fill="#df6d59" overflow="visible"/><defs><circle id="aB" cx="3203.14" cy="-4662.35" r="129"/></defs><use xlink:href="#aB" fill="#fdc023" overflow="visible"/><defs><circle id="aC" cx="3504.14" cy="-4662.35" r="129"/></defs><use xlink:href="#aC" fill="#254552" overflow="visible"/><defs><circle id="aD" cx="1897.77" cy="-2112.59" r="129"/></defs><use xlink:href="#aD" fill="#254552" overflow="visible"/><defs><circle id="aE" cx="3805.14" cy="-4662.35" r="129"/></defs><use xlink:href="#aE" fill="#eadbcb" overflow="visible"/><defs><circle id="aF" cx="4106.14" cy="-4662.35" r="129"/></defs><use xlink:href="#aF" fill="#9fccd2" overflow="visible"/><clipPath id="aG"><use xlink:href="#aF" overflow="visible"/></clipPath><g clip-path="url(#aG)"><ellipse fill="#f49a86" cx="4132.07" cy="-4664.08" opacity=".56" rx="8.23" ry="5.62" transform="rotate(-82.484 4132.109 -4664.01)"/></g><defs><circle id="aH" cx="1897.77" cy="-2687.8" r="129"/></defs><use xlink:href="#aH" fill="#9fccd2" overflow="visible"/><clipPath id="aI"><use xlink:href="#aH" overflow="visible"/></clipPath><g clip-path="url(#aI)"><ellipse fill="#f49a86" cx="1923.7" cy="-2689.53" opacity=".56" rx="8.23" ry="5.62" transform="rotate(-82.484 1923.73 -2689.493)"/></g><circle fill="#eadbcb" cx="2303.27" cy="-4662.33" r="129.21"/><circle fill="none" cx="2303.27" cy="-4662.33" r="129.21"/><circle fill="#fdc023" cx="1397.16" cy="-5301.31" r="129.21"/><circle fill="none" cx="1397.16" cy="-5301.31" r="129.21"/><circle fill="#153745" cx="1698.16" cy="-5300.32" r="129.21"/><ellipse cx="1718.1" cy="-5337.72" rx="1.45" ry="1.95"/><circle fill="#e37d6b" cx="1701.1" cy="-5288.69" r="12.52" transform="rotate(-80.781 1701.016 -5288.728)"/><circle fill="none" cx="1698.16" cy="-5300.32" r="129.21"/><circle fill="#153745" cx="1323.19" cy="-2688.02" r="129.21"/><ellipse cx="1343.14" cy="-2725.41" rx="1.45" ry="1.95"/><circle fill="#e37d6b" cx="1326.13" cy="-2676.39" r="12.52" transform="rotate(-80.781 1326.09 -2676.413)"/><circle fill="none" cx="1323.19" cy="-2688.02" r="129.21"/><circle fill="#153745" cx="2299.54" cy="-5302.12" r="129.21"/><circle fill="#153745" cx="2299.54" cy="-5302.12" r="129.21"/><circle fill="#153745" cx="2299.54" cy="-5302.12" r="129.21"/><circle fill="#2c4b58" cx="2289.48" cy="-5342.61" r="20.59"/><circle cx="2289.48" cy="-5342.61" r="13.19" transform="rotate(-45.001 2289.548 -5342.607)"/><circle fill="none" cx="2299.54" cy="-5302.12" r="129.21"/><circle fill="#fdc023" cx="1096.14" cy="-4980.84" r="129.21"/><circle fill="none" cx="1096.14" cy="-4980.84" r="129.21"/><circle fill="#fdc023" cx="1897.56" cy="-1537.59" r="129.21"/><circle fill="none" cx="1897.56" cy="-1537.59" r="129.21"/><circle fill="#fdc023" cx="152.31" cy="-4976.75" r="450"/><ellipse fill="#f49a86" cx="101.88" cy="-4946.54" rx="15.32" ry="22.43" transform="rotate(-12.539 101.845 -4947.176)"/><circle fill="none" cx="152.31" cy="-4976.75" r="450"/><circle fill="#df6d59" cx="2006.68" cy="-4983.11" r="129.21"/><circle fill="none" cx="2006.68" cy="-4983.11" r="129.21"/><circle fill="#df6d59" cx="174.68" cy="-3263.02" r="129.21"/><circle fill="none" cx="174.68" cy="-3263.02" r="129.21"/><text font-family="Gotham-Book" font-size="22" transform="translate(45.463 -3083.017)">New experiences type</text><text font-family="Gotham-Book" font-size="22" transform="translate(675.528 -3083.017)">Selfie type</text><text font-family="Gotham-Book" font-size="22" transform="translate(620.042 -1934.982)">Always positive type</text><text font-family="Gotham-Book" font-size="22" transform="translate(107.95 -1934.982)">Stylish type</text><text font-family="Gotham-Book" font-size="22" transform="translate(1204.546 -1934.982)">Overthinker type</text><text font-family="Gotham-Book" font-size="22" transform="translate(1778.1 -1934.982)">Original thinker type</text><text font-family="Gotham-Book" font-size="22" transform="translate(2328.035 -1934.982)">Always at the phone type</text><text font-family="Gotham-Book" font-size="22" transform="translate(2397.546 -1360.305)">Strategy type</text><text font-family="Gotham-Book" font-size="22" transform="translate(1805.293 -1360.305)">Iluminations type</text><text font-family="Gotham-Book" font-size="22" transform="translate(1166.833 -1360.305)">What other will think type</text><text font-family="Gotham-Book" font-size="22" transform="translate(620.042 -1360.305)">Artist’s boyfriend type</text><text font-family="Gotham-Book" font-size="22" transform="translate(78.49 -782.985)">Music &amp; Life type</text><text font-family="Gotham-Book" font-size="22" transform="translate(608.152 -782.985)">Always on schedulle type</text><text font-family="Gotham-Book" font-size="22" transform="translate(1204.545 -782.985)">Pastele colors type</text><text font-family="Gotham-Book" font-size="22" transform="translate(1787.15 -782.985)">Nature Photos type</text><text font-family="Gotham-Book" font-size="22" transform="translate(2343.137 -782.985)">Can’t be defined type</text><text font-family="Gotham-Book" font-size="22" transform="translate(107.95 -1360.305)">Artist type</text><text font-family="Gotham-Book" font-size="22" transform="translate(1166.833 -2506.714)">Let me do a photo first type</text><text font-family="Gotham-Book" font-size="22" transform="translate(1837.664 -2506.714)">Zen type</text><text font-family="Gotham-Book" font-size="22" transform="translate(2378.29 -2506.714)">Jonny Bravo type</text><text font-family="Gotham-Book" font-size="22" transform="translate(2397.546 -3094.739)">What if type</text><text font-family="Gotham-Book" font-size="22" transform="translate(1815.446 -3094.739)">Melancolic type</text><text font-family="Gotham-Book" font-size="22" transform="translate(1252.719 -3094.739)">Dooer type</text><text font-family="Gotham-Book" font-size="22" transform="translate(98.11 -2506.715)">Harmony type</text><text font-family="Gotham-Book" font-size="22" transform="translate(662.927 -2506.715)">Cofident type</text><circle fill="#153745" cx="131.87" cy="131.87" r="129.21"/><path d="M112.12 158.31c-1.28.49-2.79 1.29-4.51 2.09 2.94 20.61 7.01 72.16 8.98 99.78 5.01.59 10.1.9 15.27.9 3.52 0 7-.15 10.45-.42.3-7 .87-13.97 1.78-20.66 5.87-42.83 18.48-73.04 18.48-73.04l1.43-5.22c-5.52-2.3-9.35-3.43-9.35-3.43h-42.53z" fill="#fdca46"/><path d="M122.39 256.14c-2.05-40.48-11.56-73.1-14.78-95.74-9.78 4.55-26.4 13.81-45.35 23.28-14.58 7.29-27.03 18.6-33.9 25.55 13.33 17.8 31.15 32.05 51.77 41.07 2.03-8.68 2.36-14.99 2.36-14.99s.44 7.22 1.13 16.46c12.16 4.9 25.24 8 38.91 8.98-.02-1.63-.07-3.17-.14-4.61zm109.93-43c-11.75-10.63-29.52-26.62-38.65-34.44-8.71-7.46-21.18-13.42-29.66-16.95l-1.43 5.22s-12.61 30.21-18.48 73.04c-.92 6.69-1.48 13.66-1.78 20.66 36.29-2.92 68.36-20.82 90-47.53z" fill="#eadbcb"/><path d="M143.8 59.9c4.69-5.57 2.35-7.33-.29-12.61-2.64-5.28 4.4-7.33 1.17-13.79-3.23-6.45-7.33-6.75-12.91-9.39-5.57-2.64 0-9.68-5.87-13.79-5.87-4.11-7.92-1.47-12.91-3.23-1.41-.5-2.39-1.42-3.19-2.56-33.49 5.76-62.57 24.41-81.96 50.66 5.75 1.61 11.7-.21 14.45 1.48 3.81 2.35 2.93 9.65 6.06 12.78 3.13 3.13 9.39 1.69 14.08 2.74 4.69 1.04 3.91 4.43 8.6 6.78 4.69 2.35 7.56 0 14.08 1.17 6.52 1.17 4.95 3.78 10.69 5.61 5.74 1.83 10.04-1.83 10.04-1.83-.52 3.78-.13 5.35.91 10.04l6.23 8.47 50.16-10.56s.88-12.61-4.69-21.12C152.9 62.24 143.8 59.9 143.8 59.9z" fill="#fdd8d3"/><path d="M31.97 50.27c.16-.07.35-.01.4.12.07.18.14.17.28-.03.16-.22.22-.21.32.05.36.95 2.05-1.17.79-.5-.33.17-.4.15-.36-.12.1-.67 1.15-.81.47-1.66-.21-.26-.21-.29.02-.15.19.11.18-.07.06-.44-.77.89-1.52 1.79-2.26 2.7.07.05.16.08.28.03zm56.39 8.7c.45.29-.24-1.79-1.62-2.95-1.11-.93-.71-1.15-1.22-1.47-.55-.35-.05-.55-.57-1.09-.53-.54-.29-.82-.64-.75-.44.09.47.15-1.22-1.64-2.96-3.14-1.49-.35-2.31-.88-.13-.08-.16.15-.09.66.35 2.57.93 1.33.66 2.03-.15.39.85 3.54 1.12 3.54.12 0 .16.07.09.18-.15.25.36.49.78 1.51.43 1.04.73.62.73 1.01 0 .36 1.02 1.19 1.02 1.02 0-.28.52.81.81.65.28-.16.23.3.84.3.3 0 .38-.09.29-.34-.1-.28-.07-.3.19-.07.6.5.2-.46.84-.7.58-.19-.15-1.3.3-1.01zm-6.57-8.73c0 .33-.55.1-.55-.1 0-.42.79.1.55.1zm56.19-18.07c-.13-.09-.15.06-.05.43.24.86.51.16.54 1.21.03 1.04.54.88.47 1.2-.09.45.29 1.5.55 1.5.32 0 .37.24.09.53-.27.29.13 1.12.6 1.24.27.07.41.27.41.57 0 .66.64.66.11.69-.75.04.85 1 .57 1.3-.21.23.36-.08.74.63.73 1.37 2.38-.07 1.76-.28-.31-.11-.23-.18.54-1.12-.08.27-.39 1.03-.08.83.03-.02.06-.03.09-.04.16-.3.31-.61.46-.92-.02-.11-.06-.18-.14-.18-.09 0-.11-.14-.05-.3.16-.43-.58-.47-.44-.72.15-.25-1.18-1.49-.99-1.69.19-.19-.34-.04-.34-.36 0-.43-.66-1.6-.83-1.5-.1.06-.18-.08-.18-.3 0-.61-.7-.3-.52-.6.15-.24-.59-.87-.8-.68-.09.08-.1.04-.02-.11.09-.17.02-.25-.22-.25-.3 0-.32-.03-.06-.2.38-.25-.02-.02-.38-.81-.37-.83-.56-.26-.7-.81-.12-.47-.75-.55-.75-.1.05 0-.03.3-.22.18-.16-.1-.18 0-.08.33.07.3.05.42-.08.33zm-54 47.6c.05 0 .3.47.3 0 .01-.27-.46-.27-.3 0zM110 86.32c-.08-1.63-1.44-3.19-1.69-3.1-.37.13-.12-.5-.54-.5-.38 0-.38-.96-1.05-1.26-.71-.32-.29-.48-1.01-.65-.28-.07-.51-.21-.51-.33 0-.43-.76-.18-.99.33-.31.69.3 2.09.98 3.57.42-.28.65-.47.65-.47-.08.55-.13 1.05-.17 1.52.46 1.01.86 1.99.92 2.71.03.4.72.16.54.45-.27.44 2 .52 1.83.24-.22-.36.97-.15.48-.76-.24-.3-.24-.34.06-.22.24.09.31.05.23-.16-.13-.42.34.11.27-1.37zm5.99-6.86c.33.06.42 0 .34-.2-.07-.18-.02-.25.15-.19.28.1.29.08.46-1.52.09-.83.06-1.04-.14-.92-.16.1-.21.08-.12-.06.2-.32-1.12-4-2.34-5.33-.87-.95-.34-2.48-.78-1.83-.15.23-.2.13-.2-.42 0-1.01-.57-1.21-.33-1.21.2 0-.26-.65-.51-.5-.33.2.22-.39-.29-.59-.57-.23.06.35-.34.6-.39.25.42-.58-.91-.58-.4.14-.16.78-.45.96-.74.46.96 2.71.64 3.1-.11.13.45.77.61 1.79.31 1.96 1.5 2.79 1.3 3.12-.22.35.35.33.17.63-.14.25.55.58.4.84-.07.11-.04.18.07.18.27 0-.12 1.14.18.96.12-.07.18.08.15.37-.06.6.49 1.41.51.91.01-.26.04-.26.21 0 .15.22.2.23.2.04 0-.34.44-.08.33.12-.08.14.59.99.38.16-.12-.45-.08-.5.31-.43zm16.46-40.15c0-.28-1.01-.18-1.03.1-.16 1.83 5.01 12.5 4.5 9.83-.04-.21.52-.14.43.36-.08.45.4.29.26-.46-.13-.73 0-.05.48-.02.2.01.24.06.09.12-.4.16-.58.47 1.02.47-1.46-1.64-.42-.41-.17-.8.21-.33.52.13.52-.18 0-.44-1.55-.27-.65-.7.55-.26.6-.55.1-.55-.3 0-.32-.03-.07-.19.3-.2-2.83-4.64-2.89-4.73-.47-.75-.98-.47-.85-.82.14-.43-1.74-2.08-1.74-2.43zm-.81 1.26c0-.47.34.12.29.12.16.43-.29.12-.29-.12zm4.79 5.05c.21-.35.42 0 .37 0 .13.24-.51.24-.37 0zm8.16 23.72c-.08.01-.14-.16-.12-.39.02-.45-.85-1.44-1.23-1.4-.15.02-.29-.07-.36-.21-.27-.6-.92.07-.97.06-.56.51-.05.67-.02.48.02-.18 1.45-.12.89.19-.5.28-1.34-.15-1.57.12-.2.24-.1.99.12.89.1-.04.11.1.02.31-.22.56.39 1.26.32 1.86-.09.74 1.49 3.57 1.51 3.86.04.54.54 1.34.77 1.23.14-.06.16.01.05.21-.17.33.19.89.45.69.09-.07.14.01.12.17-.08.65 2.33 3.41 2.09 2.37-.06-.27-.03-.31.15-.13.49.5 1.65.1 1.5-.51-.06-.23-.01-.28.16-.14.42.34.05-.97.33-.76.29.22.36-1.08-.27-1.19-.26-.04-.24-.08.11-.19.58-.18-.09-.07-.04-.53.06-.45-.55-.49-.5-.87.04-.3-.84-1.57-1.06-1.53-.08.01-.08-.14 0-.35.22-.55-.39-.34-.17-.63.22-.28-.85-.63-.65-1.02.09-.15-1.35-2.63-1.63-2.59zm-.99-1.11c-.06.51-.68.22-.29-.14.35-.32.35-.32.29.14zm4.46 10.73c-.03.25-.36-.38-.33-.66.05-.33.45.67.33.66zm-.48.55c-.05.38-.17.4-.27-.03-.16-.7.5.06.27.03zm-14.1-6c.25-.01.33-.77.1-.95-.13-.1-.16-.06-.07.12.17.36-.4.1-.05-.41.31-.46.33-.63.05-.51-.3.14.01-.57-.49-1.18-.2-.25-.3-.44-.22-.43.19.02-.68-.73-1.59-1.86-.96-1.2-1.37-.77-1.16-1.2.2-.4-.38-.26-.18-.53.22-.28-.58-.16-.36-.45.13-.17-.07-.83-.3-1.21-.09-.16-.19-.27-.28-.28-.22-.02-.11.13-.01.28.1.16.17.31-.17.24-.46-.09-.68.64-.32 1.08.39.48-.07 1.21.33 1.11.42-.11-.19.93.18.97.32.03.03.34.49.81.2.2.22.26.04.15-.4-.24.7 1.05.67 1.38-.02.14.06.25.18.26.38.04-.16.17.66 1.25.29.38.46.73.38.79-.18.15.3.78.52.68.3-.14.03.32.36.36.12.01.17-.07.11-.19-.11-.29.46-.26 1.13-.28zm-4.13-7.62c-.19.24-.76.2-.31-.03.61-.31.36.03.31.03zm.68 2.11c.05.01-.58.83-.26-.03.19-.52.62-.47.26.03zm2.2 5.15c.24-.3 1.42.11 1.12.08-.02.22-1.24.06-1.12-.08zm2.25-12.76c0 .89 1.5 3.15 2.09 3.15.16 0 .36.14.42.3.15.4.94.4.94 0s.47-.37.3-.1c-.16.27.3.27.3.01 0-.31.76.19.54-.17-.2-.34.35-.35.14-.69-.08-.14-.04-.17.1-.08.15.09.23-.02.23-.3 0-.72.88-.94.47-1.12-.4-.17.2-.61-.38-1.03-.57-.41.22-.34-.82-1.49-1.64-1.82-1.89-2.44-2.36-2.44-.53 0-.46-.89-.88-.73-.42.16.29-.3-.88-.89-.91-.47-1.24-.52-1.24-.21.08 0-.42.07-1.18 1.04.9 1.86 1.15 1.75 1.19 1.7-.01.02-.02.05-.03.13-.06.39.24 1.42.56 1.93.16.24.22.48.14.56-.16.16.35.02.35.43zm5.75 33.57c.36.3 1.15.7 1.39.05.46-1.22.46-1.36-.01-1.79-.39-.35-.4-.4-.08-.28.89.34-.12-2.1-1.49-3.6-.05-.05-3.37-4-3.39-4.15-.38-2.56-1.98.02-1.23-.44.61-.37-.91.91.1 1.69.33.26.33.26-.02.14-.71-.25.28.94.31 1.71.02.38.36.07.36.69 0 .24.06.38.13.3.18-.18.71.92.58 1.05-.16.16.93 2.08 1.12 1.97.15-.09.09.97.71 2.13.45.85.74.63.63.45-.17-.27.55-.21.89.08zm-18.15 2.27c-.15 0-.16-.12-.01-.39.22-.41.1-1.11-.17-.95-.25.15.12-.9-.19-.9-.56 0 .71-.03-1.38-3.8-.03-.05-1.89-4.06-1.9-3.29 0 .5-.23-.28-.47-.25-.83.12-.44-.4.02-.26.38.11-.69-.79-1.38-.33.05 0-.32.2-.13.2.34 0-.45.35-.02.78.2.2.18.23-.1.12-.49-.18-.41.31-.13.31.41 0-.39.37-.07.93.16.29.01 2.5.82 2.54.64.03-.71.09.1 1.3.79 1.18 1.89 5.39 2.3 4.88.32-.4.32-.4.22.05-.05.24-.04.46.04.46.19 0 1.02.67.65.49-.18-.09-.23-.06-.13.1.2.32.52.1.52-.35 0-.56.41.21.26.44-.16.25.47.05.4-.25-.08-.35.49.06.4-.5-.04-.24.02-.32.18-.22s.2.07.1-.08c-.24-.37.46-1.03.07-1.03zm30.04-6.1c-.16 0-2.49-4.47-3.21-3.8-.16.15-.21.16-.13.01.19-.34-.91-.28-.77-.05.18.3-.37-.08-.11.79.11.37.11.61 0 .61-.55 0 .26 2.72 1.08 3.64.35.39.37.46.09.37-.29-.1.15 1.42.76 2.98l4.49-.95c-.49-.99-1.06-1.85-1.22-1.8-.12.04-.17 0-.09-.07.2-.2-.59-1.73-.89-1.73zM89.95 78.2c.52.6.8 3.32 1.47 5.08.56.5 1.19 1.02 2.09 1.5.57.09 1.24.34 1.97-1.03.95-1.78-.26-1.69-.19-2.24.07-.61-.05-.95-.27-.81-.14.09-.17.05-.08-.09.22-.36-2.74-5.99-3.01-7.18-.37-1.61-1.74-1.13-1.74-1.34 0-.42-1.76.16-1.03.16.24 0 .23.05-.03.26-.98.78-.06 2.81.05 2.71.28-.26-.35 1.69.77 2.98zm5.52 5.23c-.3.55-.5.54-.2 0 .5-.93.32 0 .2 0zm-.26-.96c.14-.06.2-.2.12-.32-.08-.13-.04-.16.1-.07.71.44-.88.66-.22.39zm-.37.69c.45-.57.48-.26.43-.26-.01.06-.97.94-.43.26zm-.51-.19c-.29.24-.49.67-.49.2 0-.63.84-.2.49-.2zm-5.22-9.87c-.15.39-.17-.54-.02-.39.07.08.07.39.02.39zm39.64 14.22c.6.88 2.74-1.19-.86-5.73-2.44-3.08-3.18-5.83-3.56-5.83-.17 0-.48.37-.5.37-.3.33-.3.41-.03.77.35.47.39.77.08.58-.4-.25.16.22.05.79-.04.22.02.32.15.24.12-.07.22-.04.22.08 0 .35-.68.1-.21.41.4.26.73-.13.54.17-.26.4-.92-.31-.58.37.26.53-.07.89.22.89.29 0-.13.59.25.9.6.47.24 1.8.83 2.52.57.69.2 2.29 1.65 3.55.47.41.6.43.87.15.16-.16.33-.12.59.13.34.33.36.33.22-.14-.09-.35-.07-.41.07-.22zm-1.13-.91c0-.56.28-.08.23-.08.15.25-.23.47-.23.08zm-25.15-14.19c.32-.15.39-.94.08-.92-.13.01-.15-.11-.05-.34.35-.8-.5-3.49-.99-3.14-.24.17-.26-.3-.03-.31.17-.01-.63-1.53-1.19-2.61-.29-.56-.52-1-.51-1.03.2-.63-2.23-4.42-2.64-4.12-.08.06-.22-.03-.29-.19-.2-.44-1.04-.13-.87-.45.27-.51-.35.14-.4.14-.68.59-.56 2-.21 2.1.14.04.26.31.28.61.05.83.48.69.62 1.49.3 1.79.75.86.66 1.45 0 .03-.01.05-.01.08-.05.25 0 .38.11.31.4-.28.2 1.82.56 1.55.1-.07.16.07.13.32-.1.84 1.84 5.05 2.54 5.01.2-.01.49.13.64.31.37.45.52-.02.54.28.02.27.62.1.58-.42-.03-.52.43-.48.29-.2-.05.11.02.15.16.08zm-1.12-.84c-.03-.45.35-.02.3-.02.19.26-.28.29-.3.02zm.76-.86c.43-.92.31-.02.26-.02-.09.55-.52.58-.26.02zm-21.25 9.27c.9-.01 1.87.02 2.94.15.01-.25.05-.49.11-.62.18-.37-1.01-2.7-1.62-3.17-.18-.14-.24-.25-.13-.25.32 0-2.13-3.21-2.32-4.47-.05-.31-.67-.07-.51-.51.17-.45-.74-.38-.74 0 .19 0-.41.31-.41.81 0 .74.37.21.29 1.22-.03.39.03.71.12.71s.13.12.07.26c-.16.41.62 2.28.91 2.21.18-.04.22.07.13.34-.2.59.29.45.29 1.04 0 .6.73.56.26.6-.34.04.24 1 .61 1.68zm31.63-36.43c.35.14.64-.15.12-.12-.42.02-.1.12-.12.12zm5.7 13.68c-.18.07-.23 0-.14-.22.09-.24.04-.29-.19-.2-.56.22.14-.45-.5-.9-.53-.38-.59-1.05-.87-.88-.31.19-.08-.53-.46-.46-.42.08-.05-.5-.2-.44-.87.35-.1.97-.5.73-.28-.17-.23.47-.08.47.18 0-.04 1.83.23 1.83s.12 1.09.35 1.31c.23.23.59 1.76.66 2.04.54 2.28 2.33 4.92 3.03 4.48.16-.1.19 0 .24.1.06.13.14.28.55.04.03-.02.05-.03.07-.04.25-.15.32-.15.27 0l-.03.09c-.14.38.13.39.8.03.09-.05.16-.09.22-.13.24-.15.22-.24 0-.46-.5-.5.33-.33.33-.1 0 .42.23-.04.33-.65.21-1.4-3.93-6.71-4.11-6.64zm-8.15 41.36 2.96 4.03 1.51-.32c-.25-.54-.51-.94-.62-.87-.12.07-.15-.02-.07-.22.09-.22.06-.3-.08-.21-.12.08-.26-.05-.33-.29-.17-.66-.39-.2-.58-.83-.18-.58-.52-.17-1.01-.93-.19-.3-.46-.48-.62-.42-.18.07-.25.02-.18-.15.25-.64-.58-.31-.63-.31-.58.23.1.07.1.4.01.25-.14.01-.45.12zm12.74-48.13c.16-.07.35-.01.4.12.07.18.14.17.28-.03.16-.22.22-.21.32.05.36.95 2.05-1.17.79-.5-.33.17-.4.15-.36-.12.1-.67 1.15-.81.47-1.66-.21-.26-.21-.29.02-.15.95.57-2.93-6.43-3.05-6.5-.16-.1-.2-.07-.1.08.07.12.04.23-.07.23-.37 0 .26-1.21-.21-.91-.17.1-.23.06-.16-.12.12-.35-.93-1.75-1.32-1.75-.31 0-.17.27-.2.27.13.35-.27.36-.39.03-.17-.46.14 3.77.73 4.51.16.2.16.24-.01.14-.51-.31 1.64 5.55 2.17 5.55.32.01.18.96.69.76zm-.59-7.05c-.27-.44.54 0 .3 0 0 .25-.13.28-.3 0zm-1.74-35.27c-1.4-.2-2.65-.09-4.05-.18.1.4.27.7.57.72.64.03-.71.09.1 1.3.79 1.18 1.89 5.39 2.3 4.88.32-.4.32-.4.22.05-.05.24-.04.46.04.46.19 0 1.02.67.65.49-.18-.09-.23-.06-.13.1.2.32.52.1.52-.35 0-.56.41.21.26.44-.16.25.47.05.4-.25-.08-.35.49.06.4-.5-.04-.24.02-.32.18-.22s.2.07.1-.08c-.24-.39.47-1.05.08-1.05-.15 0-.16-.12-.01-.39.22-.41.1-1.11-.17-.95-.25.15.12-.9-.19-.9-.56 0 .65-.03-1.27-3.57zM109.88 16c-.54.35.23.02.34 1.39.14 1.9.52.78.81 1.27.09.14.05.18-.09.09-.31-.19-.36.49.12.49.28 0 .3.03.08.17-.43.27.17.14.17 1.06 0 .33.1.6.21.6.12 0 .16.09.09.2-.18.31.22.45.28 1.34.01.18.11.25.25.16s.18-.06.11.06c-.28.46.89 2.33.88 2.38-.09.33.47 1.36.69 1.27.13-.05.36.08.49.28.35.54.86.17.75-.02-.13-.22.42-.54.23-.24-.18.29.55.55.36.2-.11-.2-.08-.2.12-.01.4.36.51.33.77-.24.38-.84-.37-.52.04-1.03.17-.21.13-.37-.17-.67-.22-.22-.36-.43-.32-.48.15-.15-.53-2.19-.73-2.19-.12 0-.19-.07-.17-.16.12-.57-1.03-3.33-1.32-3.15-.12.07-.15-.02-.07-.22.09-.22.06-.3-.08-.21-.12.08-.26-.05-.33-.29-.17-.66-.39-.2-.58-.83-.18-.58-.52-.17-1.01-.93-.19-.3-.46-.48-.62-.42-.18.07-.25.02-.18-.15.25-.64-.58-.31-.63-.31-.58.23.1.07.1.4.03.28-.17-.09-.59.19zm6.01 9.33c.28-.47.85 0 .61 0-.17.28-.77.26-.61 0z"/><path d="M139.76 62.32c0 .27.41.27.41 0 0-.28-.41-.28-.41 0zm-12.78-30.89c-.1 0-2.74-5.94-4.61-5.94-.51.35-.55 1.67-.04 1.35.12-.07.1.06-.03.3-.39.71.5.5.28.85-.18.28.11 1.83.32 1.71.09-.06.12.08.06.31-.11.45.65 1.88.67 2.55.03.97 1.02 1.75.48 1.01-.29-.4-.28-.4.12-.05.3.26.48.3.64.13.33-.33.56.22.19.22-1.07 0-.35 1.42.36 1.42.18 0 .29.1.22.2-.16.26.8.32.58-.05-.27-.45.33.42.88.05.35-.23.35-.24-.04-.12-.81.24.43-.49.55-.49.43 0-.09-2.64-.43-2.64-.26 0 .12-.81-.2-.81zm-.69 3.18c0 .34-.11-.01-.46.28-.2.17-.24.13-.19-.15.17-.89.79-.13.65-.13zm33.23 45.79c-1.38-1.43-1.86-2.29-2.13-2.12-.13.08-.15.03-.05-.13.12-.19.07-.23-.15-.14-.24.09-.29.02-.2-.3.07-.28.03-.38-.12-.28-.36.22.1-.24-1-.99-.43-.29-.69-.52-.6-.52.09 0 .03-.13-.15-.31-.46-.46-.86.1-.64-.25.49-.78-.98.52-.81.21.08-.14.04-.25-.08-.25-.72 0 .57 1.01.45 1.38-.12.37.45.15.27.43-.26.42 2.51 4.8 2.62 5.34.36 1.83 1.07 1.32 1.25 1.62.09.14.05.18-.09.09-.31-.19-.28.28-.09.3.96.1 1.3.34.87.6-.69.44 1.24-.02 1.13-.61-.11-.6.58-.13.63-.57.03-.26.4-1.03-.06-1.92-.49-.94.24-.26-1.05-1.58zm.07 11.72c-.33-.04.11.35.07.49l.29-.06c-.12-.24-.25-.42-.36-.43zM106.62 5.68c.03.4.72.16.54.45-.27.44 2 .52 1.83.24-.22-.36.97-.15.48-.76-.24-.3-.24-.34.06-.22.24.09.31.05.23-.16-.11-.29.08-.13.19-.49-.05-.06-.09-.13-.13-.19-1.1.19-2.2.39-3.29.61.04.17.07.35.09.52zm52.49 87.04.35-.07c-.02 0-.03 0-.05-.01a.383.383 0 0 0-.3.08zm-.67-21.7c.13.24.21.32.38.28-.11-.18-.22-.37-.34-.55a25.354 25.354 0 0 0-3.54-4.27l.3.54c1 1.7.21 1.47 1.26 3.14.85 1.35 1.68.75 1.36 1.12-.19.22.42.53.39-.17-.02-.42 0-.43.19-.09zm-46.8-27.6c.17 0-1.15-1.63-.67-1.25.18.15.35.21.35.13 0-.07.13-.03.27.08.44.36.34-.14.72.3.51.61 1.34.02 1.04-1.4-.01-.05-4.5-11.68-6.54-11.68-.19 0-.18.05.04.2.23.16.18.2-.22.2-.53 0-.72.5-.26.68.36.14-.02 1.27.28 1.46.12.07.15-.02.07-.22-.09-.24-.06-.3.11-.19.48.3-.1 2.14.49 2.14.52 0 .16 1.74.85 3.05.4.75.66 2.36 1.07 2.76.31.3.66 1.4.75 1.83.11.57 1.28 1.91 1.65 1.91zM88.59 14.29c.26-.48-.15.32.38 1.28.44.79.07 1.12.9.88.1-.03.12.03.07.15-.11.23 1.08 1.21 1.34 1.11.35-.14.3.69.91.01.53-.59.03-.64.33-.87.28-.21.11-1.48-.21-1.57-.19-.05-.2-.09-.04-.12.3-.06.01-.88-.26-.68-.12.1-.17.03-.11-.18.07-.26.01-.3-.24-.17-.25.13-.29.1-.15-.14.24-.41.14-1.16-.14-1.07-.04.01-.88-1.59-1.9-3.15-.81.28-1.61.56-2.41.86.49 1.83 1.23 4.24 1.53 3.66zm43.45 83.97c.84-.56-1.56.17-.72-.46.39-.29.39-.3.01-.5-1.75-.95-2.47.47-2.15.84.12.14.16.33.09.4-.18.18.35.07.29.29-.01.02 0 .06.01.11l2.34-.49c-.05-.03-.01-.1.13-.19zm-60.83-80.3c-.18.15.3.78.52.68.3-.14.03.32.36.36.12.01.17-.07.11-.19-.11-.24.31-.25.87-.26.08 0 .16 0 .24-.01.25-.01.33-.77.1-.95-.13-.1-.16-.06-.07.12.17.36-.41.1-.05-.41.31-.46.33-.63.05-.51-.09.04-.12.01-.14-.07-.68.34-1.34.7-2.01 1.06.03.08.05.16.02.18zm1.86.22c.14.05.21.09.11.07 0 .04-.05.06-.11.08-.3.08-1.11-.04-1.01-.16.16-.19.73-.08 1.01.01zM70.9 31.73c1.87-.12.52-.48.3-.3-.58.49-.63-.91-.35-.46.22.35.94.02 1.41 0 .18-.01.19-.09.02-.29-.23-.28-.03-.36.64-.27.21.03.18-.06-.1-.29-.22-.18-.29-.28-.15-.21.42.2.27-.66.01-.57-.06.02-.07-.14-.02-.35.11-.38 0-.55-1.01-1.65-.75-.81-.46-.92-.87-1.07-.49-.18-.24-1.36-1.08-.72-.45.34.05.02-.25-.34-.12-.14-.19-.34-.16-.46.06-.23-1.82-2.07-2.13-2.07-.3 0 .07-1.08-.02-1-.05.05-.28.1-.33.1-.39.11-.85 1.05-.59 1.2.11.07.13.19.06.32-.16.26.71 2.42.98 2.42.11 0 .13.08.06.2-.17.29.37.12.21.39-.22.36.83.26.28.66-.22.16-.23.24-.04.32.14.06.2.18.14.28-.17.35 1.21 4.27 2.99 4.16zm-.53-.3c-.29.29-.29-.69 0-.41.2.21.05.41 0 .41zm-.08-5.49c0 .25-.13.29-.3 0-.27-.44.54 0 .3 0zm-2.54-1.42c-.16.26-.73.28-.31.01.58-.38.37-.01.31-.01zM48.13 35.01c-.09.45.29 1.5.55 1.5.33 0 .37.24.09.53-.27.29.13 1.12.6 1.24.26.07.41.27.41.57 0 .66.64.66.11.69-.75.04.85 1 .57 1.3-.21.23.36-.08.74.63.73 1.37 2.38-.07 1.76-.28-.31-.11-.23-.18.54-1.12-.08.27-.39 1.03-.08.83.13-.08.22-.04.22.1 0 .86.61-1.24.18-1.24-.09 0-.11-.14-.05-.3.16-.43-.58-.47-.44-.72.15-.25-1.18-1.49-.99-1.69.19-.19-.34-.04-.34-.36 0-.43-.66-1.6-.83-1.5-.1.06-.18-.08-.18-.3 0-.61-.7-.3-.52-.6.15-.24-.59-.87-.8-.68-.09.08-.1.04-.02-.11.09-.17.02-.25-.22-.25-.3 0-.31-.03-.06-.2.31-.21.1-.1-.18-.48-.51.42-1.02.85-1.52 1.28.04.98.52.85.46 1.16zm-3.02 14.24c-.04-.21.52-.14.43.36-.08.45.4.29.26-.46-.13-.73 0-.05.48-.02.2.01.24.06.09.12-.4.16-.58.47 1.02.47-1.46-1.64-.42-.41-.17-.8.21-.33.52.13.52-.18 0-.44-1.55-.27-.65-.7.55-.26.6-.55.1-.55-.3 0-.32-.03-.07-.19.31-.2-2.83-4.64-2.89-4.73-.47-.75-.98-.47-.85-.82.14-.41-1.58-1.94-1.72-2.37-.31.3-.62.6-.93.91.75 3.07 4.83 11.34 4.38 8.96zm.51-3.63c.21-.35.42 0 .37 0 .14.24-.5.24-.37 0zm-4.79-5.05c0-.47.34.12.29.12.16.43-.29.12-.29-.12zm7.69 22.23c.15.09.23-.02.23-.3 0-.72.88-.94.47-1.12-.4-.17.2-.61-.38-1.03-.57-.41.22-.34-.82-1.49-1.64-1.82-1.89-2.44-2.36-2.44-.53 0-.46-.89-.88-.73-.42.16.29-.3-.88-.89-.91-.47-1.24-.52-1.24-.21.08 0-.42.07-1.18 1.04.16.34.3.61.43.83.14.06.28.13.41.21 2.1 1.29 2.78 4.09 3.49 6.87.16.02.33.15.39.3.15.4.94.4.94 0s.47-.37.3-.1c-.16.27.3.27.3.01 0-.31.76.19.54-.17-.2-.34.35-.35.14-.69-.08-.14-.04-.17.1-.09z"/><path d="M49.36 62.32c0-.27-.41-.27-.41 0 .01.27.41.27.41 0zm13.88-7.52c.06-.22.01-.41-.09-.41-.11 0-.1-.16.02-.39.52-.94-1.62-2.7-1.62-2.58 0 .18-.61-.32-.47-.55.08-.14-.22-.22-.58-.16-.08.01-.09-.12-.03-.28.16-.44-1.11-1.35-1.52-2.15-.15-.3-1.36-1.71-2.09-.85-1 1.17-.06.95-.23 1.83-.27 1.46 1.59 3.51 1.34 3.78-.3.32 3.02 4.66 3.62 2.56.07-.26.15-.35.16-.18.02.26.04.27.2.01s.22-.26.55 0c.22.18.31.2.21.04-.24-.4.38-.07.53-.67zm-1.64-.73c.5-.6.01-.69.21-.69.88 0-1.03 1.68-.21.69zm.76.73c.28 0 .32-.48-.09-.34-.49.18-.43-.44.51-.44.36 0 .08.1.03.1-.45.17.29.15-.13.73-.39.53-.57-.05-.32-.05zM50.83 70.92c1.34.46 2.88.62 4.49.71-.33-.71-1.31-2.32-1.54-2.28-.08.01-.14-.16-.12-.39.02-.45-.85-1.44-1.23-1.4-.15.02-.29-.07-.36-.21-.27-.6-.92.07-.97.06-.56.51-.05.67-.02.48.02-.18 1.45-.12.89.19-.5.28-1.34-.15-1.57.12-.2.24-.1.99.12.89.1-.04.11.1.02.31-.18.46.18 1.01.29 1.52zm1.67-2.83c.35-.32.35-.32.29.14-.06.52-.68.22-.29-.14zm15.93 1.69c.2.17 1.09-.28.73-.58-.49-.43.29-.2-.56-1.51-.27-.42-.51-.7-.52-.63-.01.08-.17-.04-.34-.26-.4-.51-.62-.22-.5-.35.22-.21-.15-.97-.45-.91-.17.03-.24-.04-.17-.17.05-.09-.07-.28-.26-.49-.38-.41-1.02-.86-.97-.56.07.39-.44.24-.28.06.19-.21-.29-1.15-.54-1.05-.29.12-.02-.4-.34-.28-.13.05-.18-.01-.13-.15.1-.25-.82-.92-1.08-.35-.25.55.18.49.12.85-.02.12-.11.14-.21.04-.38-.34-.08.47.38 1.44.35.75.8 1.6 1.1 2.12 1 1.7.21 1.47 1.26 3.14.85 1.35 1.68.75 1.36 1.12-.19.22.42.53.39-.17-.02-.42 0-.42.19-.08.18.34.27.36.63.17.54-.28.33-.84-.01-.49-.3.36-.03-1.11.2-.91zm-1.27-.94c-.33-.32.03-.29.4.07.19.03.22.52-.4-.07zm37.25-10.68c-.16.52 1.56 1.24 2.44.33 2.35-2.46-2.47-6.81-2.24-7.19.17-.27-.35-.11-.26-.47.09-.39-1.29-2.21-1.59-2.09-.15.06-.22-.02-.15-.18.12-.3-.59-.79-.82-.57-.08.07-.08-.02-.01-.2.2-.52-.36-.45-.89.12-.57.6-.2.39-.12 1.5.21 2.96 1.1 3.29.97 4.1-.06.35.03.67.22.82.18.15.27.33.2.44-.17.28.32.04.32.47 0 .38.1.04.91 1.6.81 1.55 1.17.82 1.02 1.32zm1.29-.87c.08.07-.21.45-.26.45-.69.67.15-.55.26-.45zM67.85 39.26c.76.46-.61-1.01-.61-1.24 0-.15-.25-.41-.58-.6-.31-.18-.75-.65-.94-1.02-.52-.97-.91-.75-.91-1.16 0-.51-2.64-2.61-2.64-3.24 0-.18-1.04-.1-1.38.11-.21.13-.37-.43.28-.4.53.02.7-.34.2-.44-.35-.07-.28.14-.33.14 0 .35-1.07-.16-.66.25.15.15.17.36.05.58-.21.39-.05 1.22.22 1.22.25 0 .11.88.37.72.1-.06.13.08.07.33-.08.3-.04.39.13.28.15-.09.22-.05.19.11-.08.35 1.13 2.87 1.54 3.21.18.15.92 2.84 1.97 3.8.39.35.4.35.27-.03-.08-.24.02-.17.26.17.34.49.43.53.64.27.18-.22.18-.32-.02-.4-.26-.1.56-.24.6.36.02.3-.01.34-.13.14-.11-.18-.21-.2-.31-.05-.27.41.78.16 1.08.16.21 0 .2-.06-.04-.24-.37-.27-.49-.63-.14-.42.27.17.29-.3-.05-.3-.32 0 .89-.83 1.11-.69.21.13.23-1.4-.02-1.25-.24.17-.49-.54-.22-.37zm25.93-14.93c-.36-.02-.3.25-.35.25 0 .97.73-.01.94.21.08.08.01.13-.15.13-.23 0-.22.04.02.21.24.17.22.2-.1.15-.42-.06-.42-.04-.21 1.36.39 2.52.92 2.06.92 2.6 0 .15-.08.12-.2-.06-.12-.18-.2-.21-.2-.06 0 .38.41.28.41.96 0 .67.81 1.39.81 1.73 0 .34.41.11.41.44 0 .12-.09.16-.2.08-.58-.37.84 2.31.83 2.75 0 .26.91 1.01 1.14.93.37-.14.14.29.57.29.5 0 .17-.92.48-.45.27.41.69-.32.55-.56-.08-.12-.05-.21.05-.21.26 0 .14-1.16-.16-1.52-.13-.16-.17-.3-.08-.3.1 0 .04-.08-.12-.18-.3-.19-1.04-2.18-1.29-1.93-.07.07-.07-.09 0-.34.09-.35.06-.42-.14-.29-.16.1-.21.08-.13-.06.19-.3-.08-.88-.34-.72-.04.03-1.38-3.79-1.8-3.79-.3 0 .23-.21-.37-.8-.22-.22-.35-.42-.27-.43.26-.03-.66-.37-1.02-.39zm-4.8 16.42c.45 0-.2.84.96 1.99.32.32 1.46 3.09 1.93 3.09.21 0 .15 2.3.83 1.89.18-.11.18-.06 0 .16-.28.34 0 .79.49.79.37 0 .18.48.46.31.12-.07.24-.03.32.09.12.2 1.03-.12 1.41-.51.22-.22.3-1.73.09-1.73-.07 0-.1-.27-.08-.62.07-1.03-.52-.74-.68-1.41-.14-.59-.58-1.83-.88-1.83-.38 0 .19-.22-.67-1.02-.71-.65-.22-.57-1.29-1.61-1.27-1.22-.88-1.65-1.29-1.65-.12 0-.17-.06-.1-.12.2-.2-.98-2.01-1.36-2.08-.26-.05-.32.01-.2.2.25.42-.32-.15-.49-.15.08.09 0 .3-.16.47-.55.55.08 3.74.71 3.74z"/><path d="M67.63 42c.62-.85-.51-.58-.24-.48.08 0 .21.21.13.44-.1.3-.09.31.11.04zm31.59-23.57c.51 1.47.92 1.24.92 1.82 0 .56.61.41.61.99 0 .43.62 1.05 1.1 1.56l.28-1.22c.07 1.96.55 1.28.56.55.03-1.75 1.22-.33.53-.54-.63-.19-.42.44.44.42 1.53-.05.12-1.53.16-1.81.06-.37-.53-1.6-.69-1.44-.18.18.23-.38-.32-1.35-.27-.48-1.37-3.44-1.67-3.44-.34 0 .13-.31-.19-.51-.32-.19.15-.31-.32-.78-.49-.49-.75-1.98-1.51-2.67-.49-.44-1.61-.61-1.65-.24.05 0 .06.57-.19.87-.11.12 1.17 5.59 1.94 7.79zm-18.07 1.7c.14.02.12.08-.05.17-.57.27 2.59 7.7 2.55 7.99-.05.38.78 1.19 1.08 1.06.12-.05.2.02.18.16-.03.21.01.21.18 0 .18-.21.22-.18.24.11.02.33.08.33.66-.01.86-.5.48-1.19.68-1.02.31.25.49-.9.21-1.28-.16-.21-.29-.57-.3-.8-.02-.8-1.55-3.37-2.04-3.44-.14-.02-.18-.08-.1-.14.15-.11-.85-1.43-1.11-1.47-.11-.02-.16-.09-.12-.18.11-.31-.17-.88-.4-.79-.15.06-.19.05-.09-.04.23-.2-.07-.99-.34-.87-.13.06-.18 0-.13-.14.1-.28-.97-.67-1.06-.29.07.01-.41.93-.04.98zm5.43 7.73c.62-.29.36.04.31.04-.2.23-.77.18-.31-.04zm-.49-.01c.06.08.02.39-.03.39-.21.35-.11-.57.03-.39zm-.15 1.5c.52-.51.51-.2.46-.2-.01.06-1.08.8-.46.2zm-.8-1.35c.11-.47.15.65-.11.61-.51.59-.01-.09.11-.61zm-2.8 14.15c.61-.33.73 0 .73-.71 0-.39.05-.47.17-.28.46.73.31-1.79-.05-1.59-.1.06-.21-.06-.24-.26-.14-.92-1.51-1.62-1.51-1.99 0-.48-2.62-4.04-3.05-5.02-.27-.63-.63-.12-.56-.49.09-.47-1.06.02-.61-.54.18-.22.19-.27.02-.17-.12.07-.27.05-.3-.04-.07-.18-.6.11-.65.11-.78.4-.38.49-.17 1.46.17.79.56.3.53 1.3-.07 2.25 3.68 9.32 5.69 8.22zm-1.8-.78c.21-.34.87-.1.7-.1 0 .1-.85.34-.7.1zm-23.6-14.79c-.14.1-.27.2-.4.3.01 0 .02.01.04.01.29.11.25-.05.36-.31zm14.6 27.85c-.36-.18.66 2.33 1.53 4 .42.81.81 1.42.99 1.41.33-.02.25.94.74.71.16-.08.35-.03.4.1.08.18.15.16.28-.05.14-.23.2-.23.32.03.42.92 1.97-1.3.76-.55-.31.19-.39.17-.36-.1.06-.67 1.1-.89.37-1.68-.23-.25-.23-.28.01-.15.98.51-3.32-6.23-3.45-6.3l-.06-.03c-.11-.05-.13-.02-.04.11.02.03.03.06.04.08.01.03.01.06 0 .08-.01.04-.04.07-.1.07-.37.02.18-1.22-.27-.9-.16.11-.22.08-.17-.11.1-.36-1.04-1.69-1.43-1.66-.31.02-.15.28-.19.29.15.35-.25.38-.39.06-.2-.45.37 3.75 1.02 4.46.18.19.18.23 0 .13zm2.53-.91c.02.25-.11.3-.3.02-.3-.42.53-.03.3-.02z"/><path d="M136.89 69.97c14.86.28 20.11 7.04 22.07 9.78 3.09 4.33 4.2 10.36 4.2 10.36s4.95-1.89 7.89 2.8c2.93 4.69-1.3 15.64-9.91 16.3 0 0-3.87 18.98-21.35 21.38-15.16 2.09-22.85-5.74-26.24-9.78-3.18-3.79-4.95-9.13-4.95-9.13s-14.09-1.61-14.01-12.39c.07-9.52 10.49-9.42 12.84-5.02 0 0 1.17-5.54 5.74-12.06 5.88-8.39 13.16-12.44 23.72-12.24z" fill="#8e6159"/><path d="M125.58 95.25c0 1.29-.49 1.95-1.44 1.95-.96 0-1.44-.66-1.44-1.95s.49-1.95 1.44-1.95c.96 0 1.44.66 1.44 1.95z"/><ellipse cx="151.81" cy="94.47" rx="1.45" ry="1.95"/><path d="M121.82 112.72c-2.56.4-4.15-1.31-4.73-5.05-.58-3.74.43-5.85 2.98-6.25 2.56-.4 4.15 1.31 4.73 5.05.59 3.75-.42 5.86-2.98 6.25zm31.33-.05c-2.53-.52-3.44-2.67-2.68-6.38.76-3.71 2.43-5.34 4.97-4.82 2.53.52 3.44 2.67 2.68 6.38-.76 3.71-2.44 5.34-4.97 4.82z" fill="#f49a86"/><linearGradient id="aJ" x1="138.394" x2="146.241" y1="96.906" y2="96.906" gradientUnits="userSpaceOnUse"><stop offset=".001" stop-color="#5c3543"/><stop offset="1" stop-color="#693f39"/></linearGradient><path d="M138.91 103.34c-.25 0-.46-.17-.51-.42-.05-.28.13-.55.41-.61.02 0 2.03-.4 4.48-1.53 1.15-.53 1.83-1.12 1.9-1.67.06-.46-.32-.89-.65-1.18-.56-.48-5.53-4.79-6.12-6.8-.08-.28.08-.57.35-.65.28-.08.57.08.65.35.38 1.3 3.68 4.48 5.8 6.3.96.82 1.08 1.6 1.01 2.11-.13.93-.97 1.77-2.5 2.47-2.57 1.19-4.63 1.59-4.72 1.6-.03.03-.06.03-.1.03z" fill="url(#aJ)"/><linearGradient id="aK" x1="106.441" x2="109.123" y1="103.05" y2="103.05" gradientUnits="userSpaceOnUse"><stop offset=".001" stop-color="#5c3543"/><stop offset="1" stop-color="#693f39"/></linearGradient><path d="M108.6 112.21c-.22 0-.43-.14-.5-.37-1.43-4.72-2.14-14.23-1.31-17.55.07-.28.36-.45.63-.38.28.07.45.35.38.63-.72 2.88-.17 12.16 1.3 17a.518.518 0 0 1-.5.67z" fill="url(#aK)"/><linearGradient id="aL" x1="160.622" x2="163.882" y1="99.66" y2="99.66" gradientUnits="userSpaceOnUse"><stop offset=".001" stop-color="#5c3543"/><stop offset="1" stop-color="#693f39"/></linearGradient><path d="M161.14 109.73c-.04 0-.08 0-.12-.01a.533.533 0 0 1-.39-.63c1.9-8 2.58-14.37 2.01-18.91-.04-.29.17-.55.45-.58.28-.04.54.17.58.45.58 4.67-.1 11.16-2.03 19.28-.05.24-.26.4-.5.4z" fill="url(#aL)"/><linearGradient id="aM" x1="162.154" x2="168.279" y1="99.302" y2="99.302" gradientUnits="userSpaceOnUse"><stop offset=".001" stop-color="#5c3543"/><stop offset="1" stop-color="#693f39"/></linearGradient><path d="M162.67 103.34a.521.521 0 0 1-.4-.85c.03-.03 2.75-3.34 5.05-6.99a.52.52 0 0 1 .72-.16c.24.15.32.48.16.72-2.34 3.7-5.1 7.06-5.12 7.09a.53.53 0 0 1-.41.19z" fill="url(#aM)"/><linearGradient id="aN" x1="99.38" x2="107.07" y1="101.795" y2="101.795" gradientUnits="userSpaceOnUse"><stop offset=".001" stop-color="#5c3543"/><stop offset="1" stop-color="#693f39"/></linearGradient><path d="M106.55 106.08c-.12 0-.24-.04-.34-.13-.22-.19-5.48-4.8-6.78-7.71-.12-.26 0-.57.26-.69s.57 0 .69.26c1.21 2.7 6.46 7.3 6.52 7.35.22.19.24.52.05.73-.11.13-.26.19-.4.19z" fill="url(#aN)"/><path d="M119.68 85.09c2.28-1.3 7.95-2.61 13.17-.26m11.34-.13c2.28-1.37 8.87-3.32 12.25-.26" fill="none" stroke="#000" stroke-linecap="round" stroke-linejoin="round" stroke-miterlimit="10" stroke-width="3.123"/><path d="M132.33 108.69c4.3 2.74 8.34 2.87 13.3.33" fill="none" stroke="#df6d59" stroke-linecap="round" stroke-linejoin="round" stroke-miterlimit="10" stroke-width="4.684"/><path d="M105.87 83.92c1.3-8.47 5.09-16.67 16.04-21.9 9-4.3 17.6-2.67 21.9-2.12" fill="none" stroke="#000" stroke-linecap="round" stroke-linejoin="round" stroke-miterlimit="10" stroke-width="1.041"/><path d="m236.54 207.63-49.13 16.44c1.19 7.85 2.59 15.22 4.57 22.2a129.913 129.913 0 0 0 44.56-38.64zm-210.8-2.04a129.825 129.825 0 0 0 42.84 38.95c4.24-8.2 8.11-15.42 9.81-18.61 2.35-4.4 2.64-7.33 2.64-7.33l-49.67-20.53c0-.01-2.31 2.91-5.62 7.52z" fill="#fdca46"/><path d="M110.17 122.96c3.71-2.65 1.76-6.84-1.37-8.02-3.13-1.17-9.39-2.74-15.84 1.37-6.45 4.11-11.15 7.82-13.88 12.12 0 0-10.17-2.54-19.75 1.17-9.58 3.72-17.6 8.41-21.32 20.53-3.72 12.12 3.52 24.05 2.54 30.12-.98 6.06-9.19 17.8-9.19 17.8s-1.17 20.73 19.36 25.42c20.53 4.69 30.31-4.89 30.31-4.89l6.84-15.25s10.76-6.06 14.08-13.69c3.32-7.63 4.89-14.08 9-16.23 4.11-2.15 6.84-6.45 6.06-9-.78-2.54-6.26-3.91-12.71-2.54-6.45 1.37-9 7.82-13.3 9.39-4.3 1.56-9.19-.39-9.19-4.3 0-3.91 3.72-11.54 9.97-22.49 6.26-10.95 11.93-18.97 11.93-18.97s5.09-1.56 6.46-2.54z" fill="#8e6159"/><path d="M110.95 173.42c3.91-2.05 6.57-6.04 6.15-8.61-3.71 2.56-9.39 4.98-9.15 8.67.06.93.21 1.65.41 2.2.76-.97 1.6-1.74 2.59-2.26zm.89-52.37c1.13-2.43-.59-5.19-3.04-6.11-2.07-.78-5.51-1.72-9.47-1.09 1.57 2.76 9.25 5.95 12.51 7.2z" fill="#9fccd2"/><linearGradient id="aO" x1="78.553" x2="87.037" y1="138.119" y2="138.119" gradientUnits="userSpaceOnUse"><stop offset=".001" stop-color="#5c3543"/><stop offset="1" stop-color="#693f39"/></linearGradient><path d="M86.11 148.32c-.03 0-.06 0-.09-.01a.527.527 0 0 1-.43-.6c.57-3.39 1.75-14.77-6.75-18.8a.52.52 0 0 1 .44-.94c9.16 4.35 7.93 16.34 7.33 19.92-.03.25-.25.43-.5.43z" fill="url(#aO)"/><linearGradient id="aP" x1="60.171" x2="74.767" y1="140.613" y2="140.613" gradientUnits="userSpaceOnUse"><stop offset=".001" stop-color="#5c3543"/><stop offset="1" stop-color="#693f39"/></linearGradient><path d="M74.19 152.33h-.03a.511.511 0 0 1-.49-.55c0-.09.46-9.54-1.34-14.76-1.62-4.69-5.21-6.87-11.65-7.08a.517.517 0 0 1-.5-.54c.01-.29.25-.51.54-.5 6.93.22 10.82 2.62 12.6 7.78 1.87 5.41 1.42 14.76 1.4 15.16-.03.27-.26.49-.53.49z" fill="url(#aP)"/><linearGradient id="aQ" x1="47.655" x2="62.123" y1="146.585" y2="146.585" gradientUnits="userSpaceOnUse"><stop offset=".001" stop-color="#5c3543"/><stop offset="1" stop-color="#693f39"/></linearGradient><path d="M61.38 158.59h-.05a.51.51 0 0 1-.47-.56c.01-.09.76-9.09-.58-15.1-.58-2.62-2.17-4.78-4.49-6.08-2.3-1.29-5.09-1.59-7.45-.78a.518.518 0 0 1-.66-.33c-.09-.27.05-.57.33-.66 2.64-.9 5.74-.58 8.3.86 2.57 1.45 4.34 3.85 4.99 6.76 1.37 6.17.63 15.04.6 15.41-.03.27-.26.48-.52.48z" fill="url(#aQ)"/><linearGradient id="aR" x1="48.799" x2="52.999" y1="152.591" y2="152.591" gradientUnits="userSpaceOnUse"><stop offset=".001" stop-color="#5c3543"/><stop offset="1" stop-color="#693f39"/></linearGradient><path d="M52.48 160.84c-.18 0-.35-.09-.45-.26-2.14-3.7-4.36-11.08-2.58-15.89a.523.523 0 0 1 .98.36c-1.64 4.45.52 11.59 2.5 15.01a.52.52 0 0 1-.45.78z" fill="url(#aR)"/><linearGradient id="aS" x1="42.179" x2="50.261" y1="151.912" y2="151.912" gradientUnits="userSpaceOnUse"><stop offset=".001" stop-color="#5c3543"/><stop offset="1" stop-color="#693f39"/></linearGradient><path d="M49.33 153.51c-1.13 0-4.15-.21-6.94-2.26a.525.525 0 0 1-.11-.73c.17-.23.5-.28.73-.11 3.13 2.3 6.65 2.05 6.69 2.05.28-.02.54.19.56.48.02.29-.19.54-.48.56-.03 0-.19.01-.45.01z" fill="url(#aS)"/><linearGradient id="aT" x1="54.402" x2="71.088" y1="183.342" y2="183.342" gradientUnits="userSpaceOnUse"><stop offset=".001" stop-color="#5c3543"/><stop offset="1" stop-color="#693f39"/></linearGradient><path d="M60.59 203.96c-.23 0-.44-.15-.5-.38-.08-.28.08-.56.36-.64.39-.11 9.5-2.79 9.59-13.97.08-10-8.91-18.85-13.75-23.59-.7-.68-1.3-1.28-1.76-1.76a.522.522 0 1 1 .76-.72c.45.47 1.04 1.06 1.73 1.73 4.59 4.51 14.14 13.9 14.06 24.35-.1 11.99-10.25 14.94-10.35 14.97-.04 0-.09.01-.14.01z" fill="url(#aT)"/><linearGradient id="aU" x1="78.26" x2="88.395" y1="204.218" y2="204.218" gradientUnits="userSpaceOnUse"><stop offset=".001" stop-color="#5c3543"/><stop offset="1" stop-color="#693f39"/></linearGradient><path d="M78.78 205.62c-.27 0-.5-.21-.52-.49-.02-.29.2-.53.49-.55.06 0 6.1-.4 8.91-1.71a.52.52 0 0 1 .44.94c-2.99 1.39-9.03 1.79-9.28 1.81h-.04z" fill="url(#aU)"/><path d="M86.11 147.8c-.18 2.85.16 7.03-3.45 9-2.28 1.24-4.11.98-6.19-.78-1.64-1.38-1.69-7.14.07-9.48 1.76-2.35 5.02-2.41 6.58-2.12 1.56.28 3.09 1.82 2.99 3.38zm-19.16-.33c3.59-.66 6.16.52 6.55 3.36.39 2.84.98 8.6-4.3 9.29-5.28.68-5.28-2.05-5.77-5.38-.49-3.32.85-6.78 3.52-7.27zm-12.13 4.24c5.21-1.37 6 1.89 6.13 5.74.11 3.32-1.24 6.23-4.56 5.93-3.32-.29-3.91-3.65-4.11-6-.19-2.34.52-5.14 2.54-5.67z" fill="#9fccd2"/><path d="M191.52 125.38c-5.21-8.08-7.56-11.86-11.6-15.64-4.04-3.78-8.87-5.08-11.99-3.39-3.13 1.69-3.13 6.13-1.43 9.13 1.69 3 9.65 13.17 9.65 13.17l15.37-3.27z" fill="#824f47"/><path d="M239.4 203.52c-1.63-3.72-4.43-10.09-5.25-11.72-1.17-2.35 1.68-4.51 2.35-11.93.91-10.17-.39-22.1-6.06-32.46s-15.64-8.8-15.64-8.8c-2.54-4.5-9.97-2.35-9.97-2.35s-1.17-2.15-4.69-6.06c-3.52-3.91-12.32-9.97-17.99-11.54-5.67-1.56-14.8-2.22-16.04 3.32-.39 1.76 1.17 3.26 4.04 5.35 4.03 2.93 7.89 6.58 7.89 6.58s5.48 13.1 7.43 21.12c1.96 8.02-.59 13.69-.59 13.69s-10.17-4.69-15.64-5.48c-5.48-.78-13.69-.98-16.23 2.74-2.54 3.72 1.56 8.41 8.02 9.97 6.45 1.56 9 3.13 11.93 9.19 2.93 6.06 7.63 12.12 9.39 16.43 1.76 4.3 5.08 22.49 5.08 22.49 3.39 3.39 12.22 10.6 25.72 8.25a129.84 129.84 0 0 0 26.25-28.79z" fill="#8e6159"/><path d="M152.37 169.39c.69 2.79 4.08 5.46 8.65 6.57.59.14 1.15.29 1.67.43-.38-3.95-6.19-5.64-10.32-7z" fill="#9fccd2"/><linearGradient id="aV" x1="177.505" x2="196.312" y1="140.768" y2="140.768" gradientUnits="userSpaceOnUse"><stop offset=".001" stop-color="#5c3543"/><stop offset="1" stop-color="#693f39"/></linearGradient><path d="M195.53 148.14s-3.23-3.71-5.28-6.06c-1.56-1.78-6.1-4.24-9.76-6.22-.99-.54-1.92-1.04-2.72-1.49a.524.524 0 0 1-.2-.71c.14-.25.46-.34.71-.2.8.45 1.72.95 2.71 1.48 3.72 2.02 8.36 4.52 10.04 6.45 2.05 2.35 5.28 6.06 5.28 6.06l-.78.69z" fill="url(#aV)"/><linearGradient id="aW" x1="195.216" x2="205.337" y1="146.479" y2="146.479" gradientUnits="userSpaceOnUse"><stop offset=".001" stop-color="#5c3543"/><stop offset="1" stop-color="#693f39"/></linearGradient><path d="M196.99 157.22c-.2 0-.39-.12-.48-.31-4.36-9.84 3.23-18.74 8.07-21.11.26-.13.57-.02.7.24s.02.57-.24.7c-4.53 2.22-11.65 10.55-7.58 19.76.12.26 0 .57-.26.69-.06.01-.14.03-.21.03z" fill="url(#aW)"/><linearGradient id="aX" x1="204.481" x2="215.311" y1="149.266" y2="149.266" gradientUnits="userSpaceOnUse"><stop offset=".001" stop-color="#5c3543"/><stop offset="1" stop-color="#693f39"/></linearGradient><path d="M206.09 160.44c-.21 0-.41-.13-.49-.34-2.19-5.91-.76-10.91.82-14.07 1.94-3.87 5.24-7.05 8.22-7.93.28-.08.56.08.65.35.08.28-.08.57-.35.65-2.19.64-5.49 3.23-7.58 7.4-1.49 2.97-2.84 7.68-.78 13.24a.523.523 0 0 1-.49.7z" fill="url(#aX)"/><linearGradient id="aY" x1="213.423" x2="219.124" y1="156.339" y2="156.339" gradientUnits="userSpaceOnUse"><stop offset=".001" stop-color="#5c3543"/><stop offset="1" stop-color="#693f39"/></linearGradient><path d="M213.94 165.01c-.17 0-.33-.08-.43-.22-.16-.24-.1-.56.13-.72.02-.01 2.06-1.5 2.88-5.51.78-3.81 1.02-5.82 1.41-9.14l.15-1.28c.03-.29.3-.49.58-.46.29.03.49.29.46.58l-.15 1.28c-.39 3.35-.63 5.37-1.42 9.22-.91 4.46-3.21 6.09-3.31 6.16a.53.53 0 0 1-.3.09z" fill="url(#aY)"/><linearGradient id="aZ" x1="217.301" x2="228.119" y1="156.6" y2="156.6" gradientUnits="userSpaceOnUse"><stop offset=".001" stop-color="#5c3543"/><stop offset="1" stop-color="#693f39"/></linearGradient><path d="M227.6 158.88h-.05c-.97-.08-9.49-.9-10.24-3.91-.07-.28.1-.56.38-.63.28-.07.56.1.63.38.43 1.73 5.94 2.84 9.32 3.13.29.02.5.28.47.56-.02.27-.24.47-.51.47z" fill="url(#aZ)"/><linearGradient id="ba" x1="206.503" x2="220.787" y1="177.384" y2="177.384" gradientUnits="userSpaceOnUse"><stop offset=".001" stop-color="#5c3543"/><stop offset="1" stop-color="#693f39"/></linearGradient><path d="M218.74 198.2c-1.88 0-9.68-.73-11.89-12.56-1.94-10.38 4.72-18.48 9.58-24.39 1.39-1.7 2.6-3.16 3.4-4.43.15-.24.47-.32.72-.16.24.15.32.47.16.72-.84 1.33-2.06 2.82-3.48 4.54-4.73 5.75-11.21 13.63-9.36 23.54 2.32 12.45 10.81 11.74 11.17 11.7a.518.518 0 1 1 .11 1.03c-.01 0-.16.01-.41.01z" fill="url(#ba)"/><path d="M197.12 157.12c-.52-2.61 1.3-3.65 3.26-3.65 1.96 0 3.72 2.61 4.24 4.24.52 1.63.91 3.65.91 3.65s-1.56 1.83-4.11.72c-2.54-1.11-4.3-4.96-4.3-4.96zm11.54.07c3.31-.55 4.33 2.15 4.66 3.98.33 1.83 0 2.87 0 2.87s-1.53 1.58-3.49 1.63c-2.54.07-2.87-1.96-2.87-1.96s-.65-2.67-.59-4.43c.08-1.77 1.51-1.96 2.29-2.09z" fill="#9fccd2"/><linearGradient id="bb" x1="184.349" x2="209.053" y1="182.022" y2="182.022" gradientUnits="userSpaceOnUse"><stop offset=".001" stop-color="#5c3543"/><stop offset="1" stop-color="#693f39"/></linearGradient><path d="M208.53 195.84c-.25 0-.48-.19-.51-.44-1.31-8.86-9.19-17.69-23.42-26.23a.513.513 0 0 1-.18-.71c.15-.25.47-.33.71-.18 14.51 8.71 22.55 17.78 23.91 26.97.04.28-.15.55-.44.59h-.07z" fill="url(#bb)"/><path d="M167.43 119.6c4.29 1.26 8.29 2.16 10.89 1.6 1.93-.41 3.04-1.83 3.52-2.62-4.67-1.23-11.45-1.82-14.41 1.02z" fill="#9fccd2"/><path d="M166.53 163.25h-63.45a6.61 6.61 0 0 1-6.61-6.61v-26.09a6.61 6.61 0 0 1 6.61-6.61h63.45a6.61 6.61 0 0 1 6.61 6.61v26.09a6.61 6.61 0 0 1-6.61 6.61z" fill="#df6d59"/><path d="M165.19 157.45h-3.79c-1.51 0-2.73-1.22-2.73-2.73v-3.79c0-1.51 1.22-2.73 2.73-2.73h3.79c1.51 0 2.73 1.22 2.73 2.73v3.79c0 1.5-1.22 2.73-2.73 2.73z" fill="#153745"/><circle fill="#e37d6b" cx="134.81" cy="143.5" r="12.52" transform="rotate(-80.781 134.81 143.495)"/><path d="M172.24 253.81c.4-14.59 1.32-29.38 4.42-39.33m-80.38 4.11c-5.28 14.08-3.23 22 5.87 28.75m60.43-32.56c7.04 9.68 8.21 19.95-.88 31.68m20.53-20.54c-3.81 7.04-7.92 12.03-8.8 20.24" fill="none" stroke="#000" stroke-linecap="round" stroke-linejoin="round" stroke-miterlimit="10" stroke-width="1.041"/><circle fill="none" cx="131.87" cy="131.87" r="129.21"/></svg>