<svg xmlns="http://www.w3.org/2000/svg" xmlns:xlink="http://www.w3.org/1999/xlink" xml:space="preserve" x="0" y="0" version="1.1" viewBox="0 0 263.73 263.73"><defs><circle id="a" cx="749.04" cy="-1537.37" r="129"/></defs><use xlink:href="#a" fill="#9fccd2" overflow="visible"/><clipPath id="b"><use xlink:href="#a" overflow="visible"/></clipPath><g clip-path="url(#b)"><ellipse cx="768.54" cy="-1564.13" rx="1.72" ry="2.33"/></g><defs><circle id="c" cx="795.14" cy="-5301.13" r="129"/></defs><use xlink:href="#c" fill="#eadbcb" overflow="visible"/><defs><circle id="d" cx="1096.14" cy="-5301.13" r="129"/></defs><use xlink:href="#d" fill="#e5e4d5" overflow="visible"/><clipPath id="e"><use xlink:href="#d" overflow="visible"/></clipPath><g clip-path="url(#e)"><ellipse fill="#f49a86" cx="1103.17" cy="-5330.81" opacity=".76" rx="5.66" ry="3.86" transform="rotate(-70.719 1103.242 -5330.76)"/><circle fill="#153745" cx="1121.14" cy="-5181.25" r="3.72"/><circle fill="#153745" cx="1048.96" cy="-5190.32" r="3.72"/></g><defs><circle id="f" cx="749.04" cy="-3263.23" r="129"/></defs><use xlink:href="#f" fill="#e5e4d5" overflow="visible"/><clipPath id="g"><use xlink:href="#f" overflow="visible"/></clipPath><g clip-path="url(#g)"><ellipse fill="#f49a86" cx="756.07" cy="-3292.91" opacity=".76" rx="5.66" ry="3.86" transform="rotate(-70.719 756.12 -3292.882)"/><circle fill="#153745" cx="774.05" cy="-3143.35" r="3.72"/><circle fill="#153745" cx="701.86" cy="-3152.43" r="3.72"/></g><defs><circle id="h" cx="2601.14" cy="-5301.13" r="129"/></defs><use xlink:href="#h" fill="#fdc83d" overflow="visible"/><defs><circle id="i" cx="1897.77" cy="-962.16" r="129"/></defs><use xlink:href="#i" fill="#fdc83d" overflow="visible"/><defs><circle id="j" cx="2902.14" cy="-5301.13" r="129"/></defs><use xlink:href="#j" fill="#e17765" overflow="visible"/><clipPath id="k"><use xlink:href="#j" overflow="visible"/></clipPath><g clip-path="url(#k)"><circle fill="#314f5b" cx="2903.47" cy="-5310.75" r="26.88"/><circle cx="2903.47" cy="-5310.75" r="18.24" transform="rotate(-76.714 2903.526 -5311.227)"/></g><defs><circle id="l" cx="3203.14" cy="-5301.13" r="129"/></defs><use xlink:href="#l" fill="#027888" overflow="visible"/><defs><circle id="m" cx="3504.14" cy="-5301.13" r="129"/></defs><use xlink:href="#m" fill="#df6d59" overflow="visible"/><defs><circle id="n" cx="3805.14" cy="-5301.13" r="129"/></defs><use xlink:href="#n" fill="#bab891" overflow="visible"/><clipPath id="o"><use xlink:href="#n" overflow="visible"/></clipPath><g clip-path="url(#o)"><ellipse cx="3794.71" cy="-5336.94" rx="1.43" ry="1.93"/></g><defs><circle id="p" cx="4106.14" cy="-5301.13" r="129"/></defs><use xlink:href="#p" fill="#9fccd2" overflow="visible"/><clipPath id="q"><use xlink:href="#p" overflow="visible"/></clipPath><g clip-path="url(#q)"><ellipse cx="4125.61" cy="-5333.35" rx="1.54" ry="2.08"/></g><defs><circle id="r" cx="2472.14" cy="-2687.8" r="129"/></defs><use xlink:href="#r" fill="#bab891" overflow="visible"/><clipPath id="s"><use xlink:href="#r" overflow="visible"/></clipPath><g clip-path="url(#s)"><ellipse cx="2461.71" cy="-2723.61" rx="1.43" ry="1.93"/></g><defs><circle id="t" cx="1323.41" cy="-1537.37" r="129"/></defs><use xlink:href="#t" fill="#9fccd2" overflow="visible"/><clipPath id="u"><use xlink:href="#t" overflow="visible"/></clipPath><g clip-path="url(#u)"><ellipse cx="1342.88" cy="-1569.59" rx="1.54" ry="2.08"/></g><defs><circle id="v" cx="795.14" cy="-4982.99" r="129"/></defs><use xlink:href="#v" fill="#027888" overflow="visible"/><clipPath id="w"><use xlink:href="#v" overflow="visible"/></clipPath><g clip-path="url(#w)"><ellipse cx="816.17" cy="-5019.92" rx="1.88" ry="2.54"/><ellipse fill="#f49a86" cx="821.57" cy="-5004.67" opacity=".51" rx="7.41" ry="5.06" transform="rotate(-79.216 821.528 -5005.004)"/></g><defs><circle id="x" cx="749.04" cy="-2687.8" r="129"/></defs><use xlink:href="#x" fill="#027888" overflow="visible"/><clipPath id="y"><use xlink:href="#x" overflow="visible"/></clipPath><g clip-path="url(#y)"><ellipse cx="770.08" cy="-2724.74" rx="1.88" ry="2.54"/><ellipse fill="#f49a86" cx="775.48" cy="-2709.48" opacity=".51" rx="7.41" ry="5.06" transform="rotate(-79.216 775.476 -2709.671)"/></g><defs><circle id="z" cx="1397.14" cy="-4982.99" r="129"/></defs><use xlink:href="#z" fill="#027888" overflow="visible"/><clipPath id="A"><use xlink:href="#z" overflow="visible"/></clipPath><g clip-path="url(#A)"><ellipse fill="#f49a86" cx="1419.83" cy="-5002.68" opacity=".44" rx="7.97" ry="5.44" transform="rotate(-65.669 1419.805 -5002.53)"/></g><defs><circle id="B" cx="2472.14" cy="-962.16" r="129"/></defs><use xlink:href="#B" fill="#027888" overflow="visible"/><clipPath id="C"><use xlink:href="#B" overflow="visible"/></clipPath><g clip-path="url(#C)"><ellipse fill="#f49a86" cx="2494.83" cy="-981.85" opacity=".44" rx="7.97" ry="5.44" transform="rotate(-65.669 2494.764 -981.814)"/></g><defs><circle id="D" cx="1698.14" cy="-4982.99" r="129"/></defs><use xlink:href="#D" fill="#e89789" overflow="visible"/><defs><circle id="E" cx="174.46" cy="-962.16" r="129"/></defs><use xlink:href="#E" fill="#e89789" overflow="visible"/><defs><circle id="F" cx="2300.14" cy="-4982.99" r="129"/></defs><use xlink:href="#F" fill="#eadbcb" overflow="visible"/><clipPath id="G"><use xlink:href="#F" overflow="visible"/></clipPath><g clip-path="url(#G)"><ellipse fill="#f49a86" cx="2308.91" cy="-4984.41" opacity=".52" rx="7.36" ry="5.03" transform="rotate(-76.944 2309.028 -4984.617)"/></g><defs><circle id="H" cx="174.46" cy="-2112.59" r="129"/></defs><use xlink:href="#H" fill="#eadbcb" overflow="visible"/><clipPath id="I"><use xlink:href="#H" overflow="visible"/></clipPath><g clip-path="url(#I)"><ellipse fill="#f49a86" cx="183.23" cy="-2114.01" opacity=".52" rx="7.36" ry="5.03" transform="rotate(-76.944 183.25 -2114.102)"/></g><defs><circle id="J" cx="2601.14" cy="-4982.99" r="129"/></defs><use xlink:href="#J" fill="#9fccd2" overflow="visible"/><defs><circle id="K" cx="1323.41" cy="-962.16" r="129"/></defs><use xlink:href="#K" fill="#9fccd2" overflow="visible"/><defs><circle id="L" cx="2902.14" cy="-4982.99" r="129"/></defs><use xlink:href="#L" fill="#fdcf58" overflow="visible"/><clipPath id="M"><use xlink:href="#L" overflow="visible"/></clipPath><g clip-path="url(#M)"><circle fill="#bab891" cx="2901.26" cy="-4861.93" r="32.17" transform="rotate(-22.5 2901.147 -4861.71)"/></g><defs><circle id="N" cx="174.83" cy="-1537.37" r="129"/></defs><use xlink:href="#N" fill="#fdcf58" overflow="visible"/><clipPath id="O"><use xlink:href="#N" overflow="visible"/></clipPath><g clip-path="url(#O)"><circle fill="#bab891" cx="173.95" cy="-1416.32" r="32.17" transform="rotate(-22.5 173.947 -1416.255)"/></g><defs><circle id="P" cx="3203.14" cy="-4982.99" r="129"/></defs><use xlink:href="#P" fill="#153745" overflow="visible"/><clipPath id="Q"><use xlink:href="#P" overflow="visible"/></clipPath><g clip-path="url(#Q)"><ellipse fill="#f49a86" cx="3184.92" cy="-4996.98" opacity=".41" rx="5.13" ry="7.51" transform="rotate(-14.805 3184.908 -4997.875)"/><circle fill="#fdc023" cx="3224.78" cy="-4806.81" r="9.65" transform="rotate(-22.5 3224.656 -4806.593)"/></g><defs><circle id="R" cx="749.04" cy="-962.16" r="129"/></defs><use xlink:href="#R" fill="#153745" overflow="visible"/><clipPath id="S"><use xlink:href="#R" overflow="visible"/></clipPath><g clip-path="url(#S)"><ellipse fill="#f49a86" cx="730.82" cy="-976.15" opacity=".41" rx="5.13" ry="7.51" transform="rotate(-14.805 730.834 -976.335)"/><circle fill="#fdc023" cx="770.68" cy="-785.98" r="9.65" transform="rotate(-22.5 770.653 -785.943)"/></g><defs><circle id="T" cx="3504.14" cy="-4982.99" r="129"/></defs><use xlink:href="#T" fill="#9fccd2" overflow="visible"/><clipPath id="U"><use xlink:href="#T" overflow="visible"/></clipPath><g clip-path="url(#U)"><ellipse cx="3523.63" cy="-5009.75" rx="1.72" ry="2.33"/></g><defs><circle id="V" cx="3805.14" cy="-4982.99" r="129"/></defs><use xlink:href="#V" fill="#fdc432" overflow="visible"/><clipPath id="W"><use xlink:href="#V" overflow="visible"/></clipPath><g clip-path="url(#W)"><circle fill="#fff" cx="3794.7" cy="-4818.96" r="2.14"/></g><defs><circle id="X" cx="1323.41" cy="-3263.23" r="129"/></defs><use xlink:href="#X" fill="#fdc432" overflow="visible"/><clipPath id="Y"><use xlink:href="#X" overflow="visible"/></clipPath><g clip-path="url(#Y)"><circle fill="#fff" cx="1312.97" cy="-3099.21" r="2.14"/></g><defs><circle id="Z" cx="4106.14" cy="-4982.99" r="129"/></defs><use xlink:href="#Z" fill="#df6d59" overflow="visible"/><clipPath id="aa"><use xlink:href="#Z" overflow="visible"/></clipPath><g clip-path="url(#aa)"><ellipse fill="#f49a86" cx="4094.75" cy="-5006.59" opacity=".36" rx="7.27" ry="4.96" transform="matrix(.0091 -1 1 .0091 9063.883 -866.46)"/></g><defs><circle id="ab" cx="2472.14" cy="-2112.59" r="129"/></defs><use xlink:href="#ab" fill="#df6d59" overflow="visible"/><clipPath id="ac"><use xlink:href="#ab" overflow="visible"/></clipPath><g clip-path="url(#ac)"><ellipse fill="#f49a86" cx="2460.75" cy="-2136.19" opacity=".36" rx="7.27" ry="4.96" transform="matrix(.0091 -1 1 .0091 4574.466 343.896)"/></g><defs><circle id="ad" cx="1999.14" cy="-5301.13" r="129"/></defs><use xlink:href="#ad" fill="#9fccd2" overflow="visible"/><clipPath id="ae"><use xlink:href="#ad" overflow="visible"/></clipPath><g fill="#1d1d1b" clip-path="url(#ae)"><circle cx="2008.98" cy="-5251.24" r=".59"/><circle cx="2020.76" cy="-5204.12" r=".59"/><circle cx="2014.87" cy="-5198.23" r=".59"/><circle cx="2008.98" cy="-5204.12" r=".59"/><circle cx="1973.64" cy="-5298.36" r=".59"/><circle cx="1961.86" cy="-5298.36" r=".59"/><circle cx="1973.64" cy="-5251.24" r=".59"/><circle cx="1961.86" cy="-5251.24" r=".59"/><circle cx="1973.64" cy="-5204.12" r=".59"/><circle cx="1979.53" cy="-5198.23" r=".59"/><circle cx="1967.75" cy="-5198.23" r=".59"/><circle cx="1961.86" cy="-5204.12" r=".59"/><circle cx="1973.64" cy="-5168.78" r=".59"/><circle cx="1961.86" cy="-5168.78" r=".59"/><circle cx="1967.75" cy="-5151.11" r=".59"/><circle cx="1967.75" cy="-5162.89" r=".59"/><circle cx="1961.86" cy="-5157" r=".59"/><circle cx="1955.97" cy="-5198.23" r=".59"/><circle cx="1955.97" cy="-5151.11" r=".59"/><circle cx="1955.97" cy="-5162.89" r=".59"/><circle cx="1926.52" cy="-5251.24" r=".59"/><circle cx="1914.74" cy="-5251.24" r=".59"/><circle cx="1926.52" cy="-5204.12" r=".59"/><circle cx="1932.41" cy="-5198.23" r=".59"/><circle cx="1920.63" cy="-5198.23" r=".59"/><circle cx="1914.74" cy="-5204.12" r=".59"/><circle cx="1926.52" cy="-5168.78" r=".59"/><circle cx="1914.74" cy="-5168.78" r=".59"/><circle cx="1926.52" cy="-5157" r=".59"/><circle cx="1932.41" cy="-5151.11" r=".59"/><circle cx="1920.63" cy="-5151.11" r=".59"/><circle cx="1932.41" cy="-5162.89" r=".59"/><circle cx="1920.63" cy="-5162.89" r=".59"/><circle cx="1914.74" cy="-5157" r=".59"/><circle cx="1932.41" cy="-5127.54" r=".59"/><circle cx="1908.85" cy="-5198.23" r=".59"/><circle cx="1908.85" cy="-5151.11" r=".59"/><circle cx="1908.85" cy="-5162.89" r=".59"/><circle cx="2032.54" cy="-5251.24" r=".59"/><circle cx="2032.54" cy="-5204.12" r=".59"/><circle cx="2020.76" cy="-5251.24" r=".59"/><circle cx="2008.98" cy="-5251.24" r=".59"/><circle cx="2020.76" cy="-5204.12" r=".59"/><circle cx="2026.65" cy="-5198.23" r=".59"/><circle cx="2014.87" cy="-5198.23" r=".59"/></g><defs><circle id="af" cx="1999.14" cy="-5301.13" r="129"/></defs><clipPath id="ag"><use xlink:href="#af" overflow="visible"/></clipPath><g fill="#1d1d1b" clip-path="url(#ag)"><circle cx="2008.98" cy="-5251.24" r=".59"/><circle cx="2020.76" cy="-5204.12" r=".59"/><circle cx="2014.87" cy="-5198.23" r=".59"/><circle cx="2008.98" cy="-5204.12" r=".59"/><circle cx="1973.64" cy="-5298.36" r=".59"/><circle cx="1961.86" cy="-5298.36" r=".59"/><circle cx="1973.64" cy="-5251.24" r=".59"/><circle cx="1961.86" cy="-5251.24" r=".59"/><circle cx="1973.64" cy="-5204.12" r=".59"/><circle cx="1979.53" cy="-5198.23" r=".59"/><circle cx="1967.75" cy="-5198.23" r=".59"/><circle cx="1961.86" cy="-5204.12" r=".59"/><circle cx="1973.64" cy="-5168.78" r=".59"/><circle cx="1961.86" cy="-5168.78" r=".59"/><circle cx="1967.75" cy="-5151.11" r=".59"/><circle cx="1967.75" cy="-5162.89" r=".59"/><circle cx="1961.86" cy="-5157" r=".59"/><circle cx="1955.97" cy="-5198.23" r=".59"/><circle cx="1955.97" cy="-5151.11" r=".59"/><circle cx="1955.97" cy="-5162.89" r=".59"/><circle cx="1926.52" cy="-5251.24" r=".59"/><circle cx="1914.74" cy="-5251.24" r=".59"/><circle cx="1926.52" cy="-5204.12" r=".59"/><circle cx="1932.41" cy="-5198.23" r=".59"/><circle cx="1920.63" cy="-5198.23" r=".59"/><circle cx="1914.74" cy="-5204.12" r=".59"/><circle cx="1926.52" cy="-5168.78" r=".59"/><circle cx="1914.74" cy="-5168.78" r=".59"/><circle cx="1926.52" cy="-5157" r=".59"/><circle cx="1932.41" cy="-5151.11" r=".59"/><circle cx="1920.63" cy="-5151.11" r=".59"/><circle cx="1932.41" cy="-5162.89" r=".59"/><circle cx="1920.63" cy="-5162.89" r=".59"/><circle cx="1914.74" cy="-5157" r=".59"/><circle cx="1932.41" cy="-5127.54" r=".59"/><circle cx="1908.85" cy="-5198.23" r=".59"/><circle cx="1908.85" cy="-5151.11" r=".59"/><circle cx="1908.85" cy="-5162.89" r=".59"/><circle cx="2032.54" cy="-5251.24" r=".59"/><circle cx="2032.54" cy="-5204.12" r=".59"/><circle cx="2020.76" cy="-5251.24" r=".59"/><circle cx="2008.98" cy="-5251.24" r=".59"/><circle cx="2020.76" cy="-5204.12" r=".59"/><circle cx="2026.65" cy="-5198.23" r=".59"/><circle cx="2014.87" cy="-5198.23" r=".59"/></g><defs><circle id="ah" cx="1897.77" cy="-3263.23" r="129"/></defs><use xlink:href="#ah" fill="#9fccd2" overflow="visible"/><clipPath id="ai"><use xlink:href="#ah" overflow="visible"/></clipPath><g fill="#1d1d1b" clip-path="url(#ai)"><circle cx="1907.62" cy="-3213.35" r=".59"/><circle cx="1919.4" cy="-3166.22" r=".59"/><circle cx="1913.51" cy="-3160.33" r=".59"/><circle cx="1907.62" cy="-3166.22" r=".59"/><circle cx="1872.28" cy="-3260.47" r=".59"/><circle cx="1860.5" cy="-3260.47" r=".59"/><circle cx="1872.28" cy="-3213.35" r=".59"/><circle cx="1860.5" cy="-3213.35" r=".59"/><circle cx="1872.28" cy="-3166.22" r=".59"/><circle cx="1878.17" cy="-3160.33" r=".59"/><circle cx="1866.39" cy="-3160.33" r=".59"/><circle cx="1860.5" cy="-3166.22" r=".59"/><circle cx="1872.28" cy="-3130.88" r=".59"/><circle cx="1860.5" cy="-3130.88" r=".59"/><circle cx="1866.39" cy="-3113.21" r=".59"/><circle cx="1866.39" cy="-3124.99" r=".59"/><circle cx="1860.5" cy="-3119.1" r=".59"/><circle cx="1854.6" cy="-3160.33" r=".59"/><circle cx="1854.6" cy="-3113.21" r=".59"/><circle cx="1854.6" cy="-3124.99" r=".59"/><circle cx="1825.15" cy="-3213.35" r=".59"/><circle cx="1813.37" cy="-3213.35" r=".59"/><circle cx="1825.15" cy="-3166.22" r=".59"/><circle cx="1831.04" cy="-3160.33" r=".59"/><circle cx="1819.26" cy="-3160.33" r=".59"/><circle cx="1813.37" cy="-3166.22" r=".59"/><circle cx="1825.15" cy="-3130.88" r=".59"/><circle cx="1813.37" cy="-3130.88" r=".59"/><circle cx="1825.15" cy="-3119.1" r=".59"/><circle cx="1831.04" cy="-3113.21" r=".59"/><circle cx="1819.26" cy="-3113.21" r=".59"/><circle cx="1831.04" cy="-3124.99" r=".59"/><circle cx="1819.26" cy="-3124.99" r=".59"/><circle cx="1813.37" cy="-3119.1" r=".59"/><circle cx="1831.04" cy="-3089.65" r=".59"/><circle cx="1807.48" cy="-3160.33" r=".59"/><circle cx="1807.48" cy="-3113.21" r=".59"/><circle cx="1807.48" cy="-3124.99" r=".59"/><circle cx="1931.18" cy="-3213.35" r=".59"/><circle cx="1931.18" cy="-3166.22" r=".59"/><circle cx="1919.4" cy="-3213.35" r=".59"/><circle cx="1907.62" cy="-3213.35" r=".59"/><circle cx="1919.4" cy="-3166.22" r=".59"/><circle cx="1925.29" cy="-3160.33" r=".59"/><circle cx="1913.51" cy="-3160.33" r=".59"/></g><defs><circle id="aj" cx="1897.77" cy="-3263.23" r="129"/></defs><clipPath id="ak"><use xlink:href="#aj" overflow="visible"/></clipPath><g fill="#1d1d1b" clip-path="url(#ak)"><circle cx="1907.62" cy="-3213.35" r=".59"/><circle cx="1919.4" cy="-3166.22" r=".59"/><circle cx="1913.51" cy="-3160.33" r=".59"/><circle cx="1907.62" cy="-3166.22" r=".59"/><circle cx="1872.28" cy="-3260.47" r=".59"/><circle cx="1860.5" cy="-3260.47" r=".59"/><circle cx="1872.28" cy="-3213.35" r=".59"/><circle cx="1860.5" cy="-3213.35" r=".59"/><circle cx="1872.28" cy="-3166.22" r=".59"/><circle cx="1878.17" cy="-3160.33" r=".59"/><circle cx="1866.39" cy="-3160.33" r=".59"/><circle cx="1860.5" cy="-3166.22" r=".59"/><circle cx="1872.28" cy="-3130.88" r=".59"/><circle cx="1860.5" cy="-3130.88" r=".59"/><circle cx="1866.39" cy="-3113.21" r=".59"/><circle cx="1866.39" cy="-3124.99" r=".59"/><circle cx="1860.5" cy="-3119.1" r=".59"/><circle cx="1854.6" cy="-3160.33" r=".59"/><circle cx="1854.6" cy="-3113.21" r=".59"/><circle cx="1854.6" cy="-3124.99" r=".59"/><circle cx="1825.15" cy="-3213.35" r=".59"/><circle cx="1813.37" cy="-3213.35" r=".59"/><circle cx="1825.15" cy="-3166.22" r=".59"/><circle cx="1831.04" cy="-3160.33" r=".59"/><circle cx="1819.26" cy="-3160.33" r=".59"/><circle cx="1813.37" cy="-3166.22" r=".59"/><circle cx="1825.15" cy="-3130.88" r=".59"/><circle cx="1813.37" cy="-3130.88" r=".59"/><circle cx="1825.15" cy="-3119.1" r=".59"/><circle cx="1831.04" cy="-3113.21" r=".59"/><circle cx="1819.26" cy="-3113.21" r=".59"/><circle cx="1831.04" cy="-3124.99" r=".59"/><circle cx="1819.26" cy="-3124.99" r=".59"/><circle cx="1813.37" cy="-3119.1" r=".59"/><circle cx="1831.04" cy="-3089.65" r=".59"/><circle cx="1807.48" cy="-3160.33" r=".59"/><circle cx="1807.48" cy="-3113.21" r=".59"/><circle cx="1807.48" cy="-3124.99" r=".59"/><circle cx="1931.18" cy="-3213.35" r=".59"/><circle cx="1931.18" cy="-3166.22" r=".59"/><circle cx="1919.4" cy="-3213.35" r=".59"/><circle cx="1907.62" cy="-3213.35" r=".59"/><circle cx="1919.4" cy="-3166.22" r=".59"/><circle cx="1925.29" cy="-3160.33" r=".59"/><circle cx="1913.51" cy="-3160.33" r=".59"/></g><defs><circle id="al" cx="795.14" cy="-4662.35" r="129"/></defs><use xlink:href="#al" fill="#11808f" overflow="visible"/><defs><circle id="am" cx="1096.14" cy="-4662.35" r="129"/></defs><use xlink:href="#am" fill="#fdd8d3" overflow="visible"/><defs><circle id="an" cx="2472.14" cy="-1537.37" r="129"/></defs><use xlink:href="#an" fill="#fdd8d3" overflow="visible"/><defs><circle id="ao" cx="1397.14" cy="-4662.35" r="129"/></defs><use xlink:href="#ao" fill="#eadbcb" overflow="visible"/><defs><circle id="ap" cx="2472.14" cy="-3263.23" r="129"/></defs><use xlink:href="#ap" fill="#eadbcb" overflow="visible"/><defs><circle id="aq" cx="1698.14" cy="-4662.35" r="129"/></defs><use xlink:href="#aq" fill="#fdc023" overflow="visible"/><defs><circle id="ar" cx="749.04" cy="-2112.59" r="129"/></defs><use xlink:href="#ar" fill="#fdc023" overflow="visible"/><defs><circle id="as" cx="1999.14" cy="-4662.35" r="129"/></defs><use xlink:href="#as" fill="#027888" overflow="visible"/><clipPath id="at"><use xlink:href="#as" overflow="visible"/></clipPath><g clip-path="url(#at)"><ellipse fill="#f49a86" cx="2045.59" cy="-4690.86" rx="6.14" ry="9" transform="rotate(-7.022 2046.958 -4692.457)"/></g><defs><circle id="au" cx="174.46" cy="-2687.8" r="129"/></defs><use xlink:href="#au" fill="#027888" overflow="visible"/><clipPath id="av"><use xlink:href="#au" overflow="visible"/></clipPath><g clip-path="url(#av)"><ellipse fill="#f49a86" cx="220.92" cy="-2716.31" rx="6.14" ry="9" transform="rotate(-7.022 221.33 -2717.35)"/></g><defs><circle id="aw" cx="2601.14" cy="-4662.35" r="129"/></defs><use xlink:href="#aw" fill="#fdce53" overflow="visible"/><clipPath id="ax"><use xlink:href="#aw" overflow="visible"/></clipPath><g clip-path="url(#ax)"><ellipse fill="#f49a86" cx="2593.98" cy="-4666.47" opacity=".55" rx="9.36" ry="6.39" transform="rotate(-64.004 2594.043 -4666.73)"/></g><defs><circle id="ay" cx="1323.41" cy="-2112.59" r="129"/></defs><use xlink:href="#ay" fill="#fdce53" overflow="visible"/><clipPath id="az"><use xlink:href="#ay" overflow="visible"/></clipPath><g clip-path="url(#az)"><ellipse fill="#f49a86" cx="1316.25" cy="-2116.7" opacity=".55" rx="9.36" ry="6.39" transform="rotate(-64.004 1316.289 -2116.822)"/></g><defs><circle id="aA" cx="2902.14" cy="-4662.35" r="129"/></defs><use xlink:href="#aA" fill="#df6d59" overflow="visible"/><defs><circle id="aB" cx="3203.14" cy="-4662.35" r="129"/></defs><use xlink:href="#aB" fill="#fdc023" overflow="visible"/><defs><circle id="aC" cx="3504.14" cy="-4662.35" r="129"/></defs><use xlink:href="#aC" fill="#254552" overflow="visible"/><defs><circle id="aD" cx="1897.77" cy="-2112.59" r="129"/></defs><use xlink:href="#aD" fill="#254552" overflow="visible"/><defs><circle id="aE" cx="3805.14" cy="-4662.35" r="129"/></defs><use xlink:href="#aE" fill="#eadbcb" overflow="visible"/><defs><circle id="aF" cx="4106.14" cy="-4662.35" r="129"/></defs><use xlink:href="#aF" fill="#9fccd2" overflow="visible"/><clipPath id="aG"><use xlink:href="#aF" overflow="visible"/></clipPath><g clip-path="url(#aG)"><ellipse fill="#f49a86" cx="4132.07" cy="-4664.08" opacity=".56" rx="8.23" ry="5.62" transform="rotate(-82.484 4132.109 -4664.01)"/></g><defs><circle id="aH" cx="1897.77" cy="-2687.8" r="129"/></defs><use xlink:href="#aH" fill="#9fccd2" overflow="visible"/><clipPath id="aI"><use xlink:href="#aH" overflow="visible"/></clipPath><g clip-path="url(#aI)"><ellipse fill="#f49a86" cx="1923.7" cy="-2689.53" opacity=".56" rx="8.23" ry="5.62" transform="rotate(-82.484 1923.73 -2689.493)"/></g><circle fill="#eadbcb" cx="2303.27" cy="-4662.33" r="129.21"/><circle fill="none" cx="2303.27" cy="-4662.33" r="129.21"/><circle fill="#fdc023" cx="1397.16" cy="-5301.31" r="129.21"/><circle fill="none" cx="1397.16" cy="-5301.31" r="129.21"/><circle fill="#153745" cx="1698.16" cy="-5300.32" r="129.21"/><ellipse cx="1718.1" cy="-5337.72" rx="1.45" ry="1.95"/><circle fill="#e37d6b" cx="1701.1" cy="-5288.69" r="12.52" transform="rotate(-80.781 1701.016 -5288.728)"/><circle fill="none" cx="1698.16" cy="-5300.32" r="129.21"/><circle fill="#153745" cx="1323.19" cy="-2688.02" r="129.21"/><ellipse cx="1343.14" cy="-2725.41" rx="1.45" ry="1.95"/><circle fill="#e37d6b" cx="1326.13" cy="-2676.39" r="12.52" transform="rotate(-80.781 1326.09 -2676.413)"/><circle fill="none" cx="1323.19" cy="-2688.02" r="129.21"/><circle fill="#153745" cx="2299.54" cy="-5302.12" r="129.21"/><circle fill="#153745" cx="2299.54" cy="-5302.12" r="129.21"/><circle fill="#153745" cx="2299.54" cy="-5302.12" r="129.21"/><circle fill="#2c4b58" cx="2289.48" cy="-5342.61" r="20.59"/><circle cx="2289.48" cy="-5342.61" r="13.19" transform="rotate(-45.001 2289.548 -5342.607)"/><circle fill="none" cx="2299.54" cy="-5302.12" r="129.21"/><circle fill="#fdc023" cx="1096.14" cy="-4980.84" r="129.21"/><circle fill="none" cx="1096.14" cy="-4980.84" r="129.21"/><circle fill="#fdc023" cx="1897.56" cy="-1537.59" r="129.21"/><circle fill="none" cx="1897.56" cy="-1537.59" r="129.21"/><circle fill="#fdc023" cx="152.31" cy="-4976.75" r="450"/><ellipse fill="#f49a86" cx="101.88" cy="-4946.54" rx="15.32" ry="22.43" transform="rotate(-12.539 101.845 -4947.176)"/><circle fill="none" cx="152.31" cy="-4976.75" r="450"/><circle fill="#df6d59" cx="2006.68" cy="-4983.11" r="129.21"/><circle fill="none" cx="2006.68" cy="-4983.11" r="129.21"/><circle fill="#df6d59" cx="174.68" cy="-3263.02" r="129.21"/><circle fill="none" cx="174.68" cy="-3263.02" r="129.21"/><text font-family="Gotham-Book" font-size="22" transform="translate(45.463 -3083.017)">New experiences type</text><text font-family="Gotham-Book" font-size="22" transform="translate(675.528 -3083.017)">Selfie type</text><text font-family="Gotham-Book" font-size="22" transform="translate(620.042 -1934.982)">Always positive type</text><text font-family="Gotham-Book" font-size="22" transform="translate(107.95 -1934.982)">Stylish type</text><text font-family="Gotham-Book" font-size="22" transform="translate(1204.546 -1934.982)">Overthinker type</text><text font-family="Gotham-Book" font-size="22" transform="translate(1778.1 -1934.982)">Original thinker type</text><text font-family="Gotham-Book" font-size="22" transform="translate(2328.035 -1934.982)">Always at the phone type</text><text font-family="Gotham-Book" font-size="22" transform="translate(2397.546 -1360.305)">Strategy type</text><text font-family="Gotham-Book" font-size="22" transform="translate(1805.293 -1360.305)">Iluminations type</text><text font-family="Gotham-Book" font-size="22" transform="translate(1166.833 -1360.305)">What other will think type</text><text font-family="Gotham-Book" font-size="22" transform="translate(620.042 -1360.305)">Artist’s boyfriend type</text><text font-family="Gotham-Book" font-size="22" transform="translate(78.49 -782.985)">Music &amp; Life type</text><text font-family="Gotham-Book" font-size="22" transform="translate(608.152 -782.985)">Always on schedulle type</text><text font-family="Gotham-Book" font-size="22" transform="translate(1204.545 -782.985)">Pastele colors type</text><text font-family="Gotham-Book" font-size="22" transform="translate(1787.15 -782.985)">Nature Photos type</text><text font-family="Gotham-Book" font-size="22" transform="translate(2343.137 -782.985)">Can’t be defined type</text><text font-family="Gotham-Book" font-size="22" transform="translate(107.95 -1360.305)">Artist type</text><text font-family="Gotham-Book" font-size="22" transform="translate(1166.833 -2506.714)">Let me do a photo first type</text><text font-family="Gotham-Book" font-size="22" transform="translate(1837.664 -2506.714)">Zen type</text><text font-family="Gotham-Book" font-size="22" transform="translate(2378.29 -2506.714)">Jonny Bravo type</text><text font-family="Gotham-Book" font-size="22" transform="translate(2397.546 -3094.739)">What if type</text><text font-family="Gotham-Book" font-size="22" transform="translate(1815.446 -3094.739)">Melancolic type</text><text font-family="Gotham-Book" font-size="22" transform="translate(1252.719 -3094.739)">Dooer type</text><text font-family="Gotham-Book" font-size="22" transform="translate(98.11 -2506.715)">Harmony type</text><text font-family="Gotham-Book" font-size="22" transform="translate(662.927 -2506.715)">Cofident type</text><defs><circle id="aJ" cx="131.87" cy="131.87" r="129"/></defs><use xlink:href="#aJ" fill="#fdc023" overflow="visible"/><clipPath id="aK"><use xlink:href="#aJ" overflow="visible"/></clipPath><g clip-path="url(#aK)"><path d="M99.93 45.42s-11.68-2.75-22.13 9.21c-8.83 10.11-12.78 30.65-7.42 45.77 5.36 15.12 73.4 98 73.4 98l117.66 60.07 2.47-92.64s-7.97-11.27-13.75-12.37c-5.77-1.1-9.35-7.15-8.8-10.45.55-3.3-3.02-8.71-9.62-9.44-6.6-.73-8.61-6.78-8.25-10.08.37-3.3-1.83-8.43-8.43-9.9-6.6-1.47-10.63-2.93-12.28-7.88-1.65-4.95-.37-14.11-5.5-19.61s-9.9-1.65-15.39-5.31c-5.5-3.67-7.33-4.03-11-12.28s-9.7-21.13-24.74-29.51c-12.83-7.15-25.66-5.86-33.54-3.12-7.87 2.76-12.68 9.54-12.68 9.54z" fill="#153745"/><path d="M104.56 49.46c5.13-5.13 22.73-9.71 33.9-2.93 11.18 6.78 17.41 14.11 19.61 23.28 2.2 9.16 7.33 18.14 14.66 21.26 7.33 3.12 13.93 7.33 13.56 15.39-.37 8.06 3.67 16.68 11.55 19.79 7.88 3.12 14.66 7.51 14.29 15.58-.37 8.06 8.25 8.43 13.01 10.45 4.76 2.02 10.63 7.15 9.9 14.48-.73 7.33 6.6 11.91 11.36 12.65 4.76.73 14.66 5.31 16.13 14.48M155.88 105.9c.92 3.85 4.03 10.63 11.91 13.38s11.36 8.8 11 18.33c-.37 9.53 6.41 12.83 12.46 14.66 6.05 1.83 9.9 6.05 9.9 13.75s8.06 12.46 14.84 13.01c6.78.55 14.84 5.68 15.21 15.58.37 9.9 8.98 11.91 14.84 12.46 5.86.55 11.73 8.43 10.63 15.94m-116.92-100.8c-.18 3.3.92 12.1 7.33 14.3 6.41 2.2 11.36 2.75 13.56 10.63 2.2 7.88.37 10.45 6.23 14.48 5.86 4.03 12.28 4.4 12.46 12.46.18 8.06 6.05 11.36 11.18 12.46 5.13 1.1 10.63 3.48 11.55 10.08s4.58 6.6 9.16 8.25c4.58 1.65 9.71 7.51 9.16 14.48M99.43 50.92C89.17 52.39 73.4 64.67 72.85 92.16" fill="none" stroke="#000" stroke-linecap="round" stroke-linejoin="round" stroke-miterlimit="10" stroke-width=".86"/><path d="M71.75 198.45c-10.17 7.42-41.79 19.52-56.63 38.21-14.84 18.69-25.29 42.61-28.86 63.78-3.57 21.17-3.85 31.89-3.85 31.89s11.82 7.97 21.17 10.17 15.94.82 24.19 5.77c8.25 4.95 22.54 4.67 22.54 4.67l6.6-25.57s3.3 37.11 3.85 50.58c.55 13.47-1.1 28.86-1.1 28.86s31.34-4.4 60.2-5.77c28.86-1.37 58.28 1.1 58.28 1.1s0-40.69 1.65-60.48 6.05-46.73 6.05-46.73l23.37 28.32s10.45-22.82 20.07-40.69c9.62-17.87 22.54-38.49 22.54-38.49s-16.22-20.62-41.51-33.26c-25.29-12.65-50.58-20.07-61.85-20.62-11.28-.53-76.71 8.26-76.71 8.26z" fill="#9fccd2"/><path d="M251.82 244.09s6.32-36.29 10.17-43.43l57.73-7.15s19.24 48.93 14.29 97.87c-4.95 48.93-14.84 80.27-57.18 86.87-42.34 6.6-64.88-40.14-67.63-54.98 0 0 9.07-25.29 18.97-43.71 9.9-18.43 23.65-35.47 23.65-35.47z" fill="#eadbcb"/><path d="M261.99 200.65s-3.67-49.12-5.13-63.59c-1.47-14.48-2.02-47.1.73-62.86 2.75-15.76 5.68-33.35 15.21-32.99 9.53.37 4.95 18.51 4.95 24.74s-.73 20.53-.73 20.53 3.48-7.7 8.43-7.51c4.95.18 5.86 3.85 5.86 3.85s4.4-3.12 8.98-1.1 4.03 6.41 4.03 6.41 2.57-1.83 5.86-.18c3.3 1.65 3.12 4.95 3.12 4.95s5.31-2.38 7.88 2.02c2.57 4.4.73 13.38-2.57 19.43 0 0-1.65 30.79-.92 43.98l2.02 35.19s-10.45 8.25-28.77 9.35c-18.32 1.08-28.95-2.22-28.95-2.22z" fill="#ed8f4c"/><path d="M270.78 202.3c-2.75 8.52-5.22 26.12-5.22 26.12m18.69-25.29c-.27 4.4 2.47 15.12 2.47 23.64m17.33-26.12c3.57 8.25 7.7 16.49 7.7 21.72m4.67-26.12c3.3 4.67 4.67 11.55 4.67 11.55m-69.27 36.29c-2.47 12.92-2.75 54.98-.82 73.95 1.92 18.97 10.17 35.74 10.17 35.74m-11-40.42c-2.75 5.5-8.25 25.29-6.6 34.36m5.77-60.47c-3.85 7.15-11.27 29.14-12.1 37.94m-21.16-18.7c1.92 6.05 11 17.87 11 17.87m-16.22-4.4c2.47 6.87 5.5 13.47 5.5 13.47m9.07-47.28c5.5 4.67 11 11.55 11 11.55m.82-34.09c4.4 1.37 11.27 8.52 11.27 8.52m-62.68 22.81c2.2-10.72 8.25-32.16 8.25-32.16m3.3 15.95c-1.92 3.02-10.17 16.77-10.17 16.77m-97.87-27.77c8.8 5.77 22.27 16.49 22.27 22.82 0 6.32-19.24 21.44-19.24 21.44m61.57-47.28c9.62 6.6 19.52 13.2 19.52 19.79 0 6.6-15.94 23.09-15.94 23.09M56.91 327.38c-1.1-12.65-12.37-47.28-15.67-55.26" fill="none" stroke="#000" stroke-linecap="round" stroke-linejoin="round" stroke-miterlimit="10" stroke-width=".86"/><path d="M82.75 132.75c1.37 12.92 1.65 33.54-.55 46.18-2.2 12.65-10.45 19.52-10.45 19.52s9.9 20.62 17.59 31.61c7.7 11 24.47 30.24 26.39 30.51 1.04.15 14.31-19.77 22.82-38.76 7.18-16.02 9.9-31.61 9.9-31.61s-6.46-4.26-8.52-25.57c-1.27-13.16-1.1-36.56-1.1-36.56l-56.08 4.68z" fill="#d67d3e"/><path d="M106.76 52.94c-4.03 1.47-20.34 11.18-25.47 22.36s-5.5 24.19-5.5 24.19-16.13.73-15.76 15.58c.37 14.84 19.79 14.84 19.79 14.84s10.63 22.73 32.81 20.71c22.18-2.02 29.51-26.39 29.51-26.39s6.78 0 12.46-8.8c5.68-8.8 2.57-16.68-.37-19.79s-6.41-2.75-6.41-2.75 2.75-11.73-8.43-24.01c-11.19-12.28-32.63-15.94-32.63-15.94z" fill="#ed8f4c"/><path d="M96.19 94.48c0 1.62-.61 2.44-1.81 2.44s-1.81-.82-1.81-2.44.61-2.44 1.81-2.44 1.81.82 1.81 2.44zm36.47-1.65c0 1.62-.61 2.44-1.81 2.44-1.2 0-1.81-.82-1.81-2.44s.61-2.44 1.81-2.44c1.2 0 1.81.82 1.81 2.44z"/><path d="M94.3 112.27s8.25-1.92 18.69-2.2c10.05-.26 17.73.14 18.28 2.34.55 2.2-2.47 16.08-18.14 15.53-18.97-.66-18.83-15.67-18.83-15.67z" fill="#eaa093"/><path d="M112.99 110.07c-10.45.27-18.69 2.2-18.69 2.2s-.02 2.74 1.43 5.93c6.32-1.37 11.06-1.85 20.01-2.22 6.6-.27 11.65.3 14.68 1.22.84-2.22 1.02-4.1.85-4.79-.55-2.2-8.23-2.6-18.28-2.34z" fill="#fff"/><path d="M94.3 112.27s8.25-1.92 18.69-2.2c10.05-.26 17.73.14 18.28 2.34.55 2.2-2.47 16.08-18.14 15.53-18.97-.66-18.83-15.67-18.83-15.67z" fill="none" stroke="#df6d59" stroke-linecap="round" stroke-linejoin="round" stroke-miterlimit="10" stroke-width="3.44"/><path d="M113.82 86.71c.69 3.57 9.07 6.87 9.35 9.48.27 2.61-9.07 7.97-9.07 7.97m-38.31-4.67c-.46 7.97 1.24 23.18 4.03 30.42m67.99-37.02c-.46 6.87-1.83 21.3-5.68 31.34m-72.71-11.27c2.89 4.67 5.77 8.93 5.77 8.93m77.25-17.59c-2.89 4.4-7.01 9.21-7.01 9.21" fill="none" stroke="#c4513d" stroke-linecap="round" stroke-linejoin="round" stroke-miterlimit="10" stroke-width=".86"/><path d="M86.32 78.18c3.16-2.61 11.96-5.22 19.11-2.89m14.16-.27c4.54-1.65 13.61-2.06 18.42 1.51" fill="none" stroke="#000" stroke-linecap="round" stroke-linejoin="round" stroke-miterlimit="10" stroke-width="3.01"/><path d="M86.75 116.05c-3.17.41-5.1-1.74-5.7-6.39-.6-4.65.7-7.22 3.88-7.64 3.17-.41 5.1 1.74 5.7 6.39.61 4.65-.7 7.23-3.88 7.64zm51.24.67c-3.17-.47-4.43-3.07-3.74-7.71.69-4.64 2.65-6.76 5.82-6.29 3.17.47 4.43 3.07 3.74 7.71-.69 4.64-2.65 6.76-5.82 6.29z" fill="#f49a86" opacity=".66"/></g></svg>