<svg xmlns="http://www.w3.org/2000/svg" xmlns:xlink="http://www.w3.org/1999/xlink" xml:space="preserve" x="0" y="0" version="1.1" viewBox="0 0 263.73 263.73"><defs><circle id="a" cx="749.04" cy="-1537.37" r="129"/></defs><use xlink:href="#a" fill="#9fccd2" overflow="visible"/><clipPath id="b"><use xlink:href="#a" overflow="visible"/></clipPath><g clip-path="url(#b)"><ellipse cx="768.54" cy="-1564.13" rx="1.72" ry="2.33"/></g><defs><circle id="c" cx="795.14" cy="-5301.13" r="129"/></defs><use xlink:href="#c" fill="#eadbcb" overflow="visible"/><defs><circle id="d" cx="1096.14" cy="-5301.13" r="129"/></defs><use xlink:href="#d" fill="#e5e4d5" overflow="visible"/><clipPath id="e"><use xlink:href="#d" overflow="visible"/></clipPath><g clip-path="url(#e)"><ellipse fill="#f49a86" cx="1103.17" cy="-5330.81" opacity=".76" rx="5.66" ry="3.86" transform="rotate(-70.719 1103.242 -5330.76)"/><circle fill="#153745" cx="1121.14" cy="-5181.25" r="3.72"/><circle fill="#153745" cx="1048.96" cy="-5190.32" r="3.72"/></g><defs><circle id="f" cx="749.04" cy="-3263.23" r="129"/></defs><use xlink:href="#f" fill="#e5e4d5" overflow="visible"/><clipPath id="g"><use xlink:href="#f" overflow="visible"/></clipPath><g clip-path="url(#g)"><ellipse fill="#f49a86" cx="756.07" cy="-3292.91" opacity=".76" rx="5.66" ry="3.86" transform="rotate(-70.719 756.12 -3292.882)"/><circle fill="#153745" cx="774.05" cy="-3143.35" r="3.72"/><circle fill="#153745" cx="701.86" cy="-3152.43" r="3.72"/></g><defs><circle id="h" cx="2601.14" cy="-5301.13" r="129"/></defs><use xlink:href="#h" fill="#fdc83d" overflow="visible"/><defs><circle id="i" cx="1897.77" cy="-962.16" r="129"/></defs><use xlink:href="#i" fill="#fdc83d" overflow="visible"/><defs><circle id="j" cx="2902.14" cy="-5301.13" r="129"/></defs><use xlink:href="#j" fill="#e17765" overflow="visible"/><clipPath id="k"><use xlink:href="#j" overflow="visible"/></clipPath><g clip-path="url(#k)"><circle fill="#314f5b" cx="2903.47" cy="-5310.75" r="26.88"/><circle cx="2903.47" cy="-5310.75" r="18.24" transform="rotate(-76.714 2903.526 -5311.227)"/></g><defs><circle id="l" cx="3203.14" cy="-5301.13" r="129"/></defs><use xlink:href="#l" fill="#027888" overflow="visible"/><defs><circle id="m" cx="3504.14" cy="-5301.13" r="129"/></defs><use xlink:href="#m" fill="#df6d59" overflow="visible"/><defs><circle id="n" cx="3805.14" cy="-5301.13" r="129"/></defs><use xlink:href="#n" fill="#bab891" overflow="visible"/><clipPath id="o"><use xlink:href="#n" overflow="visible"/></clipPath><g clip-path="url(#o)"><ellipse cx="3794.71" cy="-5336.94" rx="1.43" ry="1.93"/></g><defs><circle id="p" cx="4106.14" cy="-5301.13" r="129"/></defs><use xlink:href="#p" fill="#9fccd2" overflow="visible"/><clipPath id="q"><use xlink:href="#p" overflow="visible"/></clipPath><g clip-path="url(#q)"><ellipse cx="4125.61" cy="-5333.35" rx="1.54" ry="2.08"/></g><defs><circle id="r" cx="2472.14" cy="-2687.8" r="129"/></defs><use xlink:href="#r" fill="#bab891" overflow="visible"/><clipPath id="s"><use xlink:href="#r" overflow="visible"/></clipPath><g clip-path="url(#s)"><ellipse cx="2461.71" cy="-2723.61" rx="1.43" ry="1.93"/></g><defs><circle id="t" cx="1323.41" cy="-1537.37" r="129"/></defs><use xlink:href="#t" fill="#9fccd2" overflow="visible"/><clipPath id="u"><use xlink:href="#t" overflow="visible"/></clipPath><g clip-path="url(#u)"><ellipse cx="1342.88" cy="-1569.59" rx="1.54" ry="2.08"/></g><defs><circle id="v" cx="795.14" cy="-4982.99" r="129"/></defs><use xlink:href="#v" fill="#027888" overflow="visible"/><clipPath id="w"><use xlink:href="#v" overflow="visible"/></clipPath><g clip-path="url(#w)"><ellipse cx="816.17" cy="-5019.92" rx="1.88" ry="2.54"/><ellipse fill="#f49a86" cx="821.57" cy="-5004.67" opacity=".51" rx="7.41" ry="5.06" transform="rotate(-79.216 821.528 -5005.004)"/></g><defs><circle id="x" cx="749.04" cy="-2687.8" r="129"/></defs><use xlink:href="#x" fill="#027888" overflow="visible"/><clipPath id="y"><use xlink:href="#x" overflow="visible"/></clipPath><g clip-path="url(#y)"><ellipse cx="770.08" cy="-2724.74" rx="1.88" ry="2.54"/><ellipse fill="#f49a86" cx="775.48" cy="-2709.48" opacity=".51" rx="7.41" ry="5.06" transform="rotate(-79.216 775.476 -2709.671)"/></g><defs><circle id="z" cx="1397.14" cy="-4982.99" r="129"/></defs><use xlink:href="#z" fill="#027888" overflow="visible"/><clipPath id="A"><use xlink:href="#z" overflow="visible"/></clipPath><g clip-path="url(#A)"><ellipse fill="#f49a86" cx="1419.83" cy="-5002.68" opacity=".44" rx="7.97" ry="5.44" transform="rotate(-65.669 1419.805 -5002.53)"/></g><defs><circle id="B" cx="2472.14" cy="-962.16" r="129"/></defs><use xlink:href="#B" fill="#027888" overflow="visible"/><clipPath id="C"><use xlink:href="#B" overflow="visible"/></clipPath><g clip-path="url(#C)"><ellipse fill="#f49a86" cx="2494.83" cy="-981.85" opacity=".44" rx="7.97" ry="5.44" transform="rotate(-65.669 2494.764 -981.814)"/></g><defs><circle id="D" cx="1698.14" cy="-4982.99" r="129"/></defs><use xlink:href="#D" fill="#e89789" overflow="visible"/><defs><circle id="E" cx="174.46" cy="-962.16" r="129"/></defs><use xlink:href="#E" fill="#e89789" overflow="visible"/><defs><circle id="F" cx="2300.14" cy="-4982.99" r="129"/></defs><use xlink:href="#F" fill="#eadbcb" overflow="visible"/><clipPath id="G"><use xlink:href="#F" overflow="visible"/></clipPath><g clip-path="url(#G)"><ellipse fill="#f49a86" cx="2308.91" cy="-4984.41" opacity=".52" rx="7.36" ry="5.03" transform="rotate(-76.944 2309.028 -4984.617)"/></g><defs><circle id="H" cx="174.46" cy="-2112.59" r="129"/></defs><use xlink:href="#H" fill="#eadbcb" overflow="visible"/><clipPath id="I"><use xlink:href="#H" overflow="visible"/></clipPath><g clip-path="url(#I)"><ellipse fill="#f49a86" cx="183.23" cy="-2114.01" opacity=".52" rx="7.36" ry="5.03" transform="rotate(-76.944 183.25 -2114.102)"/></g><defs><circle id="J" cx="2601.14" cy="-4982.99" r="129"/></defs><use xlink:href="#J" fill="#9fccd2" overflow="visible"/><defs><circle id="K" cx="1323.41" cy="-962.16" r="129"/></defs><use xlink:href="#K" fill="#9fccd2" overflow="visible"/><defs><circle id="L" cx="2902.14" cy="-4982.99" r="129"/></defs><use xlink:href="#L" fill="#fdcf58" overflow="visible"/><clipPath id="M"><use xlink:href="#L" overflow="visible"/></clipPath><g clip-path="url(#M)"><circle fill="#bab891" cx="2901.26" cy="-4861.93" r="32.17" transform="rotate(-22.5 2901.147 -4861.71)"/></g><defs><circle id="N" cx="174.83" cy="-1537.37" r="129"/></defs><use xlink:href="#N" fill="#fdcf58" overflow="visible"/><clipPath id="O"><use xlink:href="#N" overflow="visible"/></clipPath><g clip-path="url(#O)"><circle fill="#bab891" cx="173.95" cy="-1416.32" r="32.17" transform="rotate(-22.5 173.947 -1416.255)"/></g><defs><circle id="P" cx="3203.14" cy="-4982.99" r="129"/></defs><use xlink:href="#P" fill="#153745" overflow="visible"/><clipPath id="Q"><use xlink:href="#P" overflow="visible"/></clipPath><g clip-path="url(#Q)"><ellipse fill="#f49a86" cx="3184.92" cy="-4996.98" opacity=".41" rx="5.13" ry="7.51" transform="rotate(-14.805 3184.908 -4997.875)"/><circle fill="#fdc023" cx="3224.78" cy="-4806.81" r="9.65" transform="rotate(-22.5 3224.656 -4806.593)"/></g><defs><circle id="R" cx="749.04" cy="-962.16" r="129"/></defs><use xlink:href="#R" fill="#153745" overflow="visible"/><clipPath id="S"><use xlink:href="#R" overflow="visible"/></clipPath><g clip-path="url(#S)"><ellipse fill="#f49a86" cx="730.82" cy="-976.15" opacity=".41" rx="5.13" ry="7.51" transform="rotate(-14.805 730.834 -976.335)"/><circle fill="#fdc023" cx="770.68" cy="-785.98" r="9.65" transform="rotate(-22.5 770.653 -785.943)"/></g><defs><circle id="T" cx="3504.14" cy="-4982.99" r="129"/></defs><use xlink:href="#T" fill="#9fccd2" overflow="visible"/><clipPath id="U"><use xlink:href="#T" overflow="visible"/></clipPath><g clip-path="url(#U)"><ellipse cx="3523.63" cy="-5009.75" rx="1.72" ry="2.33"/></g><defs><circle id="V" cx="3805.14" cy="-4982.99" r="129"/></defs><use xlink:href="#V" fill="#fdc432" overflow="visible"/><clipPath id="W"><use xlink:href="#V" overflow="visible"/></clipPath><g clip-path="url(#W)"><circle fill="#fff" cx="3794.7" cy="-4818.96" r="2.14"/></g><defs><circle id="X" cx="1323.41" cy="-3263.23" r="129"/></defs><use xlink:href="#X" fill="#fdc432" overflow="visible"/><clipPath id="Y"><use xlink:href="#X" overflow="visible"/></clipPath><g clip-path="url(#Y)"><circle fill="#fff" cx="1312.97" cy="-3099.21" r="2.14"/></g><defs><circle id="Z" cx="4106.14" cy="-4982.99" r="129"/></defs><use xlink:href="#Z" fill="#df6d59" overflow="visible"/><clipPath id="aa"><use xlink:href="#Z" overflow="visible"/></clipPath><g clip-path="url(#aa)"><ellipse fill="#f49a86" cx="4094.75" cy="-5006.59" opacity=".36" rx="7.27" ry="4.96" transform="matrix(.0091 -1 1 .0091 9063.883 -866.46)"/></g><defs><circle id="ab" cx="2472.14" cy="-2112.59" r="129"/></defs><use xlink:href="#ab" fill="#df6d59" overflow="visible"/><clipPath id="ac"><use xlink:href="#ab" overflow="visible"/></clipPath><g clip-path="url(#ac)"><ellipse fill="#f49a86" cx="2460.75" cy="-2136.19" opacity=".36" rx="7.27" ry="4.96" transform="matrix(.0091 -1 1 .0091 4574.466 343.896)"/></g><defs><circle id="ad" cx="1999.14" cy="-5301.13" r="129"/></defs><use xlink:href="#ad" fill="#9fccd2" overflow="visible"/><clipPath id="ae"><use xlink:href="#ad" overflow="visible"/></clipPath><g fill="#1d1d1b" clip-path="url(#ae)"><circle cx="2008.98" cy="-5251.24" r=".59"/><circle cx="2020.76" cy="-5204.12" r=".59"/><circle cx="2014.87" cy="-5198.23" r=".59"/><circle cx="2008.98" cy="-5204.12" r=".59"/><circle cx="1973.64" cy="-5298.36" r=".59"/><circle cx="1961.86" cy="-5298.36" r=".59"/><circle cx="1973.64" cy="-5251.24" r=".59"/><circle cx="1961.86" cy="-5251.24" r=".59"/><circle cx="1973.64" cy="-5204.12" r=".59"/><circle cx="1979.53" cy="-5198.23" r=".59"/><circle cx="1967.75" cy="-5198.23" r=".59"/><circle cx="1961.86" cy="-5204.12" r=".59"/><circle cx="1973.64" cy="-5168.78" r=".59"/><circle cx="1961.86" cy="-5168.78" r=".59"/><circle cx="1967.75" cy="-5151.11" r=".59"/><circle cx="1967.75" cy="-5162.89" r=".59"/><circle cx="1961.86" cy="-5157" r=".59"/><circle cx="1955.97" cy="-5198.23" r=".59"/><circle cx="1955.97" cy="-5151.11" r=".59"/><circle cx="1955.97" cy="-5162.89" r=".59"/><circle cx="1926.52" cy="-5251.24" r=".59"/><circle cx="1914.74" cy="-5251.24" r=".59"/><circle cx="1926.52" cy="-5204.12" r=".59"/><circle cx="1932.41" cy="-5198.23" r=".59"/><circle cx="1920.63" cy="-5198.23" r=".59"/><circle cx="1914.74" cy="-5204.12" r=".59"/><circle cx="1926.52" cy="-5168.78" r=".59"/><circle cx="1914.74" cy="-5168.78" r=".59"/><circle cx="1926.52" cy="-5157" r=".59"/><circle cx="1932.41" cy="-5151.11" r=".59"/><circle cx="1920.63" cy="-5151.11" r=".59"/><circle cx="1932.41" cy="-5162.89" r=".59"/><circle cx="1920.63" cy="-5162.89" r=".59"/><circle cx="1914.74" cy="-5157" r=".59"/><circle cx="1932.41" cy="-5127.54" r=".59"/><circle cx="1908.85" cy="-5198.23" r=".59"/><circle cx="1908.85" cy="-5151.11" r=".59"/><circle cx="1908.85" cy="-5162.89" r=".59"/><circle cx="2032.54" cy="-5251.24" r=".59"/><circle cx="2032.54" cy="-5204.12" r=".59"/><circle cx="2020.76" cy="-5251.24" r=".59"/><circle cx="2008.98" cy="-5251.24" r=".59"/><circle cx="2020.76" cy="-5204.12" r=".59"/><circle cx="2026.65" cy="-5198.23" r=".59"/><circle cx="2014.87" cy="-5198.23" r=".59"/></g><defs><circle id="af" cx="1999.14" cy="-5301.13" r="129"/></defs><clipPath id="ag"><use xlink:href="#af" overflow="visible"/></clipPath><g fill="#1d1d1b" clip-path="url(#ag)"><circle cx="2008.98" cy="-5251.24" r=".59"/><circle cx="2020.76" cy="-5204.12" r=".59"/><circle cx="2014.87" cy="-5198.23" r=".59"/><circle cx="2008.98" cy="-5204.12" r=".59"/><circle cx="1973.64" cy="-5298.36" r=".59"/><circle cx="1961.86" cy="-5298.36" r=".59"/><circle cx="1973.64" cy="-5251.24" r=".59"/><circle cx="1961.86" cy="-5251.24" r=".59"/><circle cx="1973.64" cy="-5204.12" r=".59"/><circle cx="1979.53" cy="-5198.23" r=".59"/><circle cx="1967.75" cy="-5198.23" r=".59"/><circle cx="1961.86" cy="-5204.12" r=".59"/><circle cx="1973.64" cy="-5168.78" r=".59"/><circle cx="1961.86" cy="-5168.78" r=".59"/><circle cx="1967.75" cy="-5151.11" r=".59"/><circle cx="1967.75" cy="-5162.89" r=".59"/><circle cx="1961.86" cy="-5157" r=".59"/><circle cx="1955.97" cy="-5198.23" r=".59"/><circle cx="1955.97" cy="-5151.11" r=".59"/><circle cx="1955.97" cy="-5162.89" r=".59"/><circle cx="1926.52" cy="-5251.24" r=".59"/><circle cx="1914.74" cy="-5251.24" r=".59"/><circle cx="1926.52" cy="-5204.12" r=".59"/><circle cx="1932.41" cy="-5198.23" r=".59"/><circle cx="1920.63" cy="-5198.23" r=".59"/><circle cx="1914.74" cy="-5204.12" r=".59"/><circle cx="1926.52" cy="-5168.78" r=".59"/><circle cx="1914.74" cy="-5168.78" r=".59"/><circle cx="1926.52" cy="-5157" r=".59"/><circle cx="1932.41" cy="-5151.11" r=".59"/><circle cx="1920.63" cy="-5151.11" r=".59"/><circle cx="1932.41" cy="-5162.89" r=".59"/><circle cx="1920.63" cy="-5162.89" r=".59"/><circle cx="1914.74" cy="-5157" r=".59"/><circle cx="1932.41" cy="-5127.54" r=".59"/><circle cx="1908.85" cy="-5198.23" r=".59"/><circle cx="1908.85" cy="-5151.11" r=".59"/><circle cx="1908.85" cy="-5162.89" r=".59"/><circle cx="2032.54" cy="-5251.24" r=".59"/><circle cx="2032.54" cy="-5204.12" r=".59"/><circle cx="2020.76" cy="-5251.24" r=".59"/><circle cx="2008.98" cy="-5251.24" r=".59"/><circle cx="2020.76" cy="-5204.12" r=".59"/><circle cx="2026.65" cy="-5198.23" r=".59"/><circle cx="2014.87" cy="-5198.23" r=".59"/></g><defs><circle id="ah" cx="1897.77" cy="-3263.23" r="129"/></defs><use xlink:href="#ah" fill="#9fccd2" overflow="visible"/><clipPath id="ai"><use xlink:href="#ah" overflow="visible"/></clipPath><g fill="#1d1d1b" clip-path="url(#ai)"><circle cx="1907.62" cy="-3213.35" r=".59"/><circle cx="1919.4" cy="-3166.22" r=".59"/><circle cx="1913.51" cy="-3160.33" r=".59"/><circle cx="1907.62" cy="-3166.22" r=".59"/><circle cx="1872.28" cy="-3260.47" r=".59"/><circle cx="1860.5" cy="-3260.47" r=".59"/><circle cx="1872.28" cy="-3213.35" r=".59"/><circle cx="1860.5" cy="-3213.35" r=".59"/><circle cx="1872.28" cy="-3166.22" r=".59"/><circle cx="1878.17" cy="-3160.33" r=".59"/><circle cx="1866.39" cy="-3160.33" r=".59"/><circle cx="1860.5" cy="-3166.22" r=".59"/><circle cx="1872.28" cy="-3130.88" r=".59"/><circle cx="1860.5" cy="-3130.88" r=".59"/><circle cx="1866.39" cy="-3113.21" r=".59"/><circle cx="1866.39" cy="-3124.99" r=".59"/><circle cx="1860.5" cy="-3119.1" r=".59"/><circle cx="1854.6" cy="-3160.33" r=".59"/><circle cx="1854.6" cy="-3113.21" r=".59"/><circle cx="1854.6" cy="-3124.99" r=".59"/><circle cx="1825.15" cy="-3213.35" r=".59"/><circle cx="1813.37" cy="-3213.35" r=".59"/><circle cx="1825.15" cy="-3166.22" r=".59"/><circle cx="1831.04" cy="-3160.33" r=".59"/><circle cx="1819.26" cy="-3160.33" r=".59"/><circle cx="1813.37" cy="-3166.22" r=".59"/><circle cx="1825.15" cy="-3130.88" r=".59"/><circle cx="1813.37" cy="-3130.88" r=".59"/><circle cx="1825.15" cy="-3119.1" r=".59"/><circle cx="1831.04" cy="-3113.21" r=".59"/><circle cx="1819.26" cy="-3113.21" r=".59"/><circle cx="1831.04" cy="-3124.99" r=".59"/><circle cx="1819.26" cy="-3124.99" r=".59"/><circle cx="1813.37" cy="-3119.1" r=".59"/><circle cx="1831.04" cy="-3089.65" r=".59"/><circle cx="1807.48" cy="-3160.33" r=".59"/><circle cx="1807.48" cy="-3113.21" r=".59"/><circle cx="1807.48" cy="-3124.99" r=".59"/><circle cx="1931.18" cy="-3213.35" r=".59"/><circle cx="1931.18" cy="-3166.22" r=".59"/><circle cx="1919.4" cy="-3213.35" r=".59"/><circle cx="1907.62" cy="-3213.35" r=".59"/><circle cx="1919.4" cy="-3166.22" r=".59"/><circle cx="1925.29" cy="-3160.33" r=".59"/><circle cx="1913.51" cy="-3160.33" r=".59"/></g><defs><circle id="aj" cx="1897.77" cy="-3263.23" r="129"/></defs><clipPath id="ak"><use xlink:href="#aj" overflow="visible"/></clipPath><g fill="#1d1d1b" clip-path="url(#ak)"><circle cx="1907.62" cy="-3213.35" r=".59"/><circle cx="1919.4" cy="-3166.22" r=".59"/><circle cx="1913.51" cy="-3160.33" r=".59"/><circle cx="1907.62" cy="-3166.22" r=".59"/><circle cx="1872.28" cy="-3260.47" r=".59"/><circle cx="1860.5" cy="-3260.47" r=".59"/><circle cx="1872.28" cy="-3213.35" r=".59"/><circle cx="1860.5" cy="-3213.35" r=".59"/><circle cx="1872.28" cy="-3166.22" r=".59"/><circle cx="1878.17" cy="-3160.33" r=".59"/><circle cx="1866.39" cy="-3160.33" r=".59"/><circle cx="1860.5" cy="-3166.22" r=".59"/><circle cx="1872.28" cy="-3130.88" r=".59"/><circle cx="1860.5" cy="-3130.88" r=".59"/><circle cx="1866.39" cy="-3113.21" r=".59"/><circle cx="1866.39" cy="-3124.99" r=".59"/><circle cx="1860.5" cy="-3119.1" r=".59"/><circle cx="1854.6" cy="-3160.33" r=".59"/><circle cx="1854.6" cy="-3113.21" r=".59"/><circle cx="1854.6" cy="-3124.99" r=".59"/><circle cx="1825.15" cy="-3213.35" r=".59"/><circle cx="1813.37" cy="-3213.35" r=".59"/><circle cx="1825.15" cy="-3166.22" r=".59"/><circle cx="1831.04" cy="-3160.33" r=".59"/><circle cx="1819.26" cy="-3160.33" r=".59"/><circle cx="1813.37" cy="-3166.22" r=".59"/><circle cx="1825.15" cy="-3130.88" r=".59"/><circle cx="1813.37" cy="-3130.88" r=".59"/><circle cx="1825.15" cy="-3119.1" r=".59"/><circle cx="1831.04" cy="-3113.21" r=".59"/><circle cx="1819.26" cy="-3113.21" r=".59"/><circle cx="1831.04" cy="-3124.99" r=".59"/><circle cx="1819.26" cy="-3124.99" r=".59"/><circle cx="1813.37" cy="-3119.1" r=".59"/><circle cx="1831.04" cy="-3089.65" r=".59"/><circle cx="1807.48" cy="-3160.33" r=".59"/><circle cx="1807.48" cy="-3113.21" r=".59"/><circle cx="1807.48" cy="-3124.99" r=".59"/><circle cx="1931.18" cy="-3213.35" r=".59"/><circle cx="1931.18" cy="-3166.22" r=".59"/><circle cx="1919.4" cy="-3213.35" r=".59"/><circle cx="1907.62" cy="-3213.35" r=".59"/><circle cx="1919.4" cy="-3166.22" r=".59"/><circle cx="1925.29" cy="-3160.33" r=".59"/><circle cx="1913.51" cy="-3160.33" r=".59"/></g><defs><circle id="al" cx="795.14" cy="-4662.35" r="129"/></defs><use xlink:href="#al" fill="#11808f" overflow="visible"/><defs><circle id="am" cx="1096.14" cy="-4662.35" r="129"/></defs><use xlink:href="#am" fill="#fdd8d3" overflow="visible"/><defs><circle id="an" cx="2472.14" cy="-1537.37" r="129"/></defs><use xlink:href="#an" fill="#fdd8d3" overflow="visible"/><defs><circle id="ao" cx="1397.14" cy="-4662.35" r="129"/></defs><use xlink:href="#ao" fill="#eadbcb" overflow="visible"/><defs><circle id="ap" cx="2472.14" cy="-3263.23" r="129"/></defs><use xlink:href="#ap" fill="#eadbcb" overflow="visible"/><defs><circle id="aq" cx="1698.14" cy="-4662.35" r="129"/></defs><use xlink:href="#aq" fill="#fdc023" overflow="visible"/><defs><circle id="ar" cx="749.04" cy="-2112.59" r="129"/></defs><use xlink:href="#ar" fill="#fdc023" overflow="visible"/><defs><circle id="as" cx="1999.14" cy="-4662.35" r="129"/></defs><use xlink:href="#as" fill="#027888" overflow="visible"/><clipPath id="at"><use xlink:href="#as" overflow="visible"/></clipPath><g clip-path="url(#at)"><ellipse fill="#f49a86" cx="2045.59" cy="-4690.86" rx="6.14" ry="9" transform="rotate(-7.022 2046.958 -4692.457)"/></g><defs><circle id="au" cx="174.46" cy="-2687.8" r="129"/></defs><use xlink:href="#au" fill="#027888" overflow="visible"/><clipPath id="av"><use xlink:href="#au" overflow="visible"/></clipPath><g clip-path="url(#av)"><ellipse fill="#f49a86" cx="220.92" cy="-2716.31" rx="6.14" ry="9" transform="rotate(-7.022 221.33 -2717.35)"/></g><defs><circle id="aw" cx="2601.14" cy="-4662.35" r="129"/></defs><use xlink:href="#aw" fill="#fdce53" overflow="visible"/><clipPath id="ax"><use xlink:href="#aw" overflow="visible"/></clipPath><g clip-path="url(#ax)"><ellipse fill="#f49a86" cx="2593.98" cy="-4666.47" opacity=".55" rx="9.36" ry="6.39" transform="rotate(-64.004 2594.043 -4666.73)"/></g><defs><circle id="ay" cx="1323.41" cy="-2112.59" r="129"/></defs><use xlink:href="#ay" fill="#fdce53" overflow="visible"/><clipPath id="az"><use xlink:href="#ay" overflow="visible"/></clipPath><g clip-path="url(#az)"><ellipse fill="#f49a86" cx="1316.25" cy="-2116.7" opacity=".55" rx="9.36" ry="6.39" transform="rotate(-64.004 1316.289 -2116.822)"/></g><defs><circle id="aA" cx="2902.14" cy="-4662.35" r="129"/></defs><use xlink:href="#aA" fill="#df6d59" overflow="visible"/><defs><circle id="aB" cx="3203.14" cy="-4662.35" r="129"/></defs><use xlink:href="#aB" fill="#fdc023" overflow="visible"/><defs><circle id="aC" cx="3504.14" cy="-4662.35" r="129"/></defs><use xlink:href="#aC" fill="#254552" overflow="visible"/><defs><circle id="aD" cx="1897.77" cy="-2112.59" r="129"/></defs><use xlink:href="#aD" fill="#254552" overflow="visible"/><defs><circle id="aE" cx="3805.14" cy="-4662.35" r="129"/></defs><use xlink:href="#aE" fill="#eadbcb" overflow="visible"/><defs><circle id="aF" cx="4106.14" cy="-4662.35" r="129"/></defs><use xlink:href="#aF" fill="#9fccd2" overflow="visible"/><clipPath id="aG"><use xlink:href="#aF" overflow="visible"/></clipPath><g clip-path="url(#aG)"><ellipse fill="#f49a86" cx="4132.07" cy="-4664.08" opacity=".56" rx="8.23" ry="5.62" transform="rotate(-82.484 4132.109 -4664.01)"/></g><defs><circle id="aH" cx="1897.77" cy="-2687.8" r="129"/></defs><use xlink:href="#aH" fill="#9fccd2" overflow="visible"/><clipPath id="aI"><use xlink:href="#aH" overflow="visible"/></clipPath><g clip-path="url(#aI)"><ellipse fill="#f49a86" cx="1923.7" cy="-2689.53" opacity=".56" rx="8.23" ry="5.62" transform="rotate(-82.484 1923.73 -2689.493)"/></g><circle fill="#eadbcb" cx="2303.27" cy="-4662.33" r="129.21"/><circle fill="none" cx="2303.27" cy="-4662.33" r="129.21"/><circle fill="#fdc023" cx="1397.16" cy="-5301.31" r="129.21"/><circle fill="none" cx="1397.16" cy="-5301.31" r="129.21"/><circle fill="#153745" cx="1698.16" cy="-5300.32" r="129.21"/><ellipse cx="1718.1" cy="-5337.72" rx="1.45" ry="1.95"/><circle fill="#e37d6b" cx="1701.1" cy="-5288.69" r="12.52" transform="rotate(-80.781 1701.016 -5288.728)"/><circle fill="none" cx="1698.16" cy="-5300.32" r="129.21"/><circle fill="#153745" cx="1323.19" cy="-2688.02" r="129.21"/><ellipse cx="1343.14" cy="-2725.41" rx="1.45" ry="1.95"/><circle fill="#e37d6b" cx="1326.13" cy="-2676.39" r="12.52" transform="rotate(-80.781 1326.09 -2676.413)"/><circle fill="none" cx="1323.19" cy="-2688.02" r="129.21"/><circle fill="#153745" cx="2299.54" cy="-5302.12" r="129.21"/><circle fill="#153745" cx="2299.54" cy="-5302.12" r="129.21"/><circle fill="#153745" cx="2299.54" cy="-5302.12" r="129.21"/><circle fill="#2c4b58" cx="2289.48" cy="-5342.61" r="20.59"/><circle cx="2289.48" cy="-5342.61" r="13.19" transform="rotate(-45.001 2289.548 -5342.607)"/><circle fill="none" cx="2299.54" cy="-5302.12" r="129.21"/><circle fill="#fdc023" cx="1096.14" cy="-4980.84" r="129.21"/><circle fill="none" cx="1096.14" cy="-4980.84" r="129.21"/><circle fill="#fdc023" cx="1897.56" cy="-1537.59" r="129.21"/><circle fill="none" cx="1897.56" cy="-1537.59" r="129.21"/><circle fill="#fdc023" cx="152.31" cy="-4976.75" r="450"/><ellipse fill="#f49a86" cx="101.88" cy="-4946.54" rx="15.32" ry="22.43" transform="rotate(-12.539 101.845 -4947.176)"/><circle fill="none" cx="152.31" cy="-4976.75" r="450"/><circle fill="#df6d59" cx="2006.68" cy="-4983.11" r="129.21"/><circle fill="none" cx="2006.68" cy="-4983.11" r="129.21"/><circle fill="#df6d59" cx="174.68" cy="-3263.02" r="129.21"/><circle fill="none" cx="174.68" cy="-3263.02" r="129.21"/><text font-family="Gotham-Book" font-size="22" transform="translate(45.463 -3083.017)">New experiences type</text><text font-family="Gotham-Book" font-size="22" transform="translate(675.528 -3083.017)">Selfie type</text><text font-family="Gotham-Book" font-size="22" transform="translate(620.042 -1934.982)">Always positive type</text><text font-family="Gotham-Book" font-size="22" transform="translate(107.95 -1934.982)">Stylish type</text><text font-family="Gotham-Book" font-size="22" transform="translate(1204.546 -1934.982)">Overthinker type</text><text font-family="Gotham-Book" font-size="22" transform="translate(1778.1 -1934.982)">Original thinker type</text><text font-family="Gotham-Book" font-size="22" transform="translate(2328.035 -1934.982)">Always at the phone type</text><text font-family="Gotham-Book" font-size="22" transform="translate(2397.546 -1360.305)">Strategy type</text><text font-family="Gotham-Book" font-size="22" transform="translate(1805.293 -1360.305)">Iluminations type</text><text font-family="Gotham-Book" font-size="22" transform="translate(1166.833 -1360.305)">What other will think type</text><text font-family="Gotham-Book" font-size="22" transform="translate(620.042 -1360.305)">Artist’s boyfriend type</text><text font-family="Gotham-Book" font-size="22" transform="translate(78.49 -782.985)">Music &amp; Life type</text><text font-family="Gotham-Book" font-size="22" transform="translate(608.152 -782.985)">Always on schedulle type</text><text font-family="Gotham-Book" font-size="22" transform="translate(1204.545 -782.985)">Pastele colors type</text><text font-family="Gotham-Book" font-size="22" transform="translate(1787.15 -782.985)">Nature Photos type</text><text font-family="Gotham-Book" font-size="22" transform="translate(2343.137 -782.985)">Can’t be defined type</text><text font-family="Gotham-Book" font-size="22" transform="translate(107.95 -1360.305)">Artist type</text><text font-family="Gotham-Book" font-size="22" transform="translate(1166.833 -2506.714)">Let me do a photo first type</text><text font-family="Gotham-Book" font-size="22" transform="translate(1837.664 -2506.714)">Zen type</text><text font-family="Gotham-Book" font-size="22" transform="translate(2378.29 -2506.714)">Jonny Bravo type</text><text font-family="Gotham-Book" font-size="22" transform="translate(2397.546 -3094.739)">What if type</text><text font-family="Gotham-Book" font-size="22" transform="translate(1815.446 -3094.739)">Melancolic type</text><text font-family="Gotham-Book" font-size="22" transform="translate(1252.719 -3094.739)">Dooer type</text><text font-family="Gotham-Book" font-size="22" transform="translate(98.11 -2506.715)">Harmony type</text><text font-family="Gotham-Book" font-size="22" transform="translate(662.927 -2506.715)">Cofident type</text><defs><circle id="aJ" cx="131.87" cy="131.87" r="129"/></defs><use xlink:href="#aJ" fill="#9fccd2" overflow="visible"/><clipPath id="aK"><use xlink:href="#aJ" overflow="visible"/></clipPath><g clip-path="url(#aK)"><path d="m207.24 158.2 23.6-1.56c2.56-.17 6.34 2.83 5.93 5.36l-11.83 61.18a8.596 8.596 0 0 1-7.57 7.17l-24.82 2.66c-2.62.28-4.79-2.02-4.36-4.62l10.32-62.26a9.47 9.47 0 0 1 8.73-7.93z" fill="#df6d59"/><path d="m208.38 159.66 24.31-1.61c2.56-.17 4.62 2.09 4.2 4.63l-10.11 61.92a8.596 8.596 0 0 1-7.57 7.17l-24.82 2.66c-2.62.28-4.79-2.02-4.36-4.62l10.43-62.96c.66-3.95 3.94-6.93 7.92-7.19z" fill="#9fccd2"/><path d="M213.01 170.76c-.33 2.13-2.2 3.61-4.19 3.31-1.99-.3-3.34-2.28-3.01-4.41.33-2.13 2.2-3.61 4.19-3.31 1.99.31 3.33 2.28 3.01 4.41z" fill="#153745"/><path d="M155.01 36.06c5.66 10.88 11.97 6.75 20.89 14.58s8.49 16.98 5.88 25.46c0 0 11.1 2.61 11.32 15.89.22 13.28-11.1 19.81-10.01 31.78 1.09 11.97 9.79 30.47-4.14 45.05-13.93 14.58-28.08 18.28-28.08 18.28l-90.54-28.73s-29.16 2.61-43.31-10.66C2.87 134.43 7.01 125.29 4.18 118.54s-12.79-10.8-19.37-20.46c-6.96-10.23-3.26-22.2.65-28.73 3.92-6.53 13.06-11.97 11.75-21.76C-4.1 37.8-.83 22.56 12.66 19.95c13.49-2.61 16.11 4.14 24.81 3.92 8.72-.22 10.89-11.97 23.73-14.15 12.84-2.18 18.5 5.22 25.03 10.45 6.53 5.22 15.89 4.35 23.29-1.09 7.4-5.44 23.51-5.44 28.51 4.57 5.01 10.01 11.97 2.79 16.98 12.41z" fill="#e4833c"/><path d="M170.62 81.3c5.2-6.15 3.02-16.38-1.66-19.63-8.52-5.91-14.67 1.89-22-4.97-7.33-6.86-11.83-11.12-21.76-8.75-9.94 2.37-11.83 6.39-18.69 1.89-6.86-4.49-8.7-7.57-18.45-5.44-7.57 1.66-7.81 8.75-19.4 8.28s-9.23-7.33-18.21-7.33c-10.74 0-8.28 6.39-17.74 8.75-9.46 2.37-12.77-5.91-21.76-4.97-8.99.94-7.34 12.06-18.22 15.61" fill="none" stroke="#000" stroke-linecap="round" stroke-linejoin="round" stroke-miterlimit="10" stroke-width=".654"/><path d="M151.07 74.25c-1.4-6.98-11.4-11.63-18.38-8.84-6.98 2.79-11.4 8.14-20.24 4.65-8.84-3.49-15.82-1.86-21.17 3.49-5.34 5.35-16.28 6.05-23.49-.23-8.71-7.58-16.05-2.79-21.63 4.19-5.58 6.98-12.79 8.37-20.24 5.12-7.44-3.26-18.14-2.79-24.66 6.51-6.51 9.3-16.28 6.28-16.28 6.28m22.89 26.93c13.33 4.28 19.04-7.86 24.28-13.33 5.24-5.48 12-6.87 24.28-2.38 12.38 4.52 19.28-.71 25.23-11.43 5.4-9.71 16.04-10.11 23.33-8.09 6.9 1.9 12.85 6.67 21.9 5.48m-12.61 15.81c-5.21.39-13.51-5.06-20.93 6.14-7.46 11.25-19.42 12.6-29.83 12.69-13.3.11-14.9 10.93-18.23 19.03-3.33 8.1-8.97 8.52-8.97 8.52M23.67 34.61c9.75 4.12 20.59 3.25 27.31-1.73 6.72-4.98 16.25-8.89 24.06-2.6 7.8 6.29 16.9 8.89 26.22 5.2 9.32-3.68 16.25-9.32 24.92-4.55s6.72 9.1 17.56 9.75c10.84.65 10.62 7.8 12.14 12.57m25.9 22.85c-1.74 7.62-6.09 11.75-6.09 11.75" fill="none" stroke="#000" stroke-linecap="round" stroke-linejoin="round" stroke-miterlimit="10" stroke-width=".654"/><path d="M99.58 122.69c-5.62 2.92-11.08 5.41-18.68 8.15-8.16 2.94-22.85 9.14-31.34 26.77-9.13 18.96-12.73 38.2-16.32 64.64-3.59 26.44-16 68.23-16 68.23s17.3 15.67 43.09 15.67 35.91-6.53 35.91-6.53 8.81-28.73 12.08-34.6c0 0 15.02 1.96 29.06-.65s24.16-4.9 24.16-4.9l-5.88-47.66-24.16-71.17-31.92-17.95z" fill="#148190"/><path d="M147.6 188.23c.02 0 .04 0 .05-.01l-.37-1.08a.58.58 0 0 0-.28.5c.01.33.28.59.6.59zm-5.89 4.71c-.33 0-.59.26-.59.59a.591.591 0 1 0 .59-.59z" fill="#1d1d1b"/><circle fill="#1d1d1b" cx="141.71" cy="181.75" r=".59"/><path d="M153.49 216.51c-.33 0-.59.26-.59.59 0 .33.26.59.59.59.33 0 .59-.26.59-.59 0-.33-.26-.59-.59-.59zm0-10.61c.05 0 .11-.01.16-.02l-.38-1.11a.59.59 0 0 0-.37.55c0 .32.27.58.59.58zm-5.89 4.71c-.33 0-.59.26-.59.59a.591.591 0 1 0 .59-.59zm0-11.78c-.33 0-.59.26-.59.59a.591.591 0 1 0 .59-.59zm-5.89 17.68c-.33 0-.59.26-.59.59a.591.591 0 1 0 .59-.59zm0-11.79c-.33 0-.59.26-.59.59a.591.591 0 1 0 .59-.59zm11.78 35.35c-.33 0-.59.26-.59.59 0 .33.26.59.59.59.33 0 .59-.26.59-.59 0-.33-.26-.59-.59-.59z" fill="#1d1d1b"/><circle fill="#1d1d1b" cx="153.49" cy="228.87" r=".59"/><circle fill="#1d1d1b" cx="147.6" cy="234.77" r=".59"/><path d="M147.6 222.4c-.33 0-.59.26-.59.59a.591.591 0 1 0 .59-.59zm-5.89 17.67c-.33 0-.59.26-.59.59a.591.591 0 1 0 .59-.59z" fill="#1d1d1b"/><circle fill="#1d1d1b" cx="141.71" cy="228.87" r=".59"/><path d="M153.49 251.85c-.33 0-.59.26-.59.59 0 .33.26.59.59.59.33 0 .59-.26.59-.59 0-.33-.26-.59-.59-.59zm5.89 5.89c-.33 0-.59.26-.59.59a.591.591 0 1 0 .59-.59zm-11.78 0c-.33 0-.59.26-.59.59a.591.591 0 1 0 .59-.59zm11.78-10.6c.28 0 .52-.2.57-.46l-.05-.38a.59.59 0 0 0-.53-.33c-.33 0-.59.26-.59.59.01.31.28.58.6.58zm-11.78-1.18c-.33 0-.59.26-.59.59a.591.591 0 1 0 .59-.59zm-5.89 5.89c-.33 0-.59.26-.59.59a.591.591 0 1 0 .59-.59zm-11.78-106.03c-.33 0-.59.26-.59.59a.591.591 0 1 0 .59-.59zm-5.89-5.89c-.33 0-.59.26-.59.59a.591.591 0 1 0 .59-.59zm-5.89 5.89c-.33 0-.59.26-.59.59a.591.591 0 1 0 .59-.59zm0-11.78c-.33 0-.59.26-.59.59a.591.591 0 1 0 .59-.59zm11.78 35.34c-.33 0-.59.26-.59.59a.591.591 0 1 0 .59-.59zm0-11.78c-.33 0-.59.26-.59.59a.591.591 0 1 0 .59-.59zm5.89 5.89c-.33 0-.59.26-.59.59 0 .33.26.59.59.59a.591.591 0 0 0 0-1.18zm-11.78 0c-.33 0-.59.26-.59.59a.591.591 0 1 0 .59-.59zm11.61-10.63-.31-.9a.582.582 0 0 0 .31.9zm-11.61-1.15c-.33 0-.59.26-.59.59a.591.591 0 1 0 .59-.59zm-5.89 17.67c-.33 0-.59.26-.59.59a.591.591 0 1 0 .59-.59zm0-11.78c-.33 0-.59.26-.59.59a.591.591 0 1 0 .59-.59zm11.78 35.34c-.33 0-.59.26-.59.59a.591.591 0 1 0 .59-.59zm0-11.78c-.33 0-.59.26-.59.59a.591.591 0 1 0 .59-.59zm5.89 5.89c-.33 0-.59.26-.59.59 0 .33.26.59.59.59a.591.591 0 0 0 0-1.18zm-11.78 0c-.33 0-.59.26-.59.59a.591.591 0 1 0 .59-.59zm11.78-11.78c-.33 0-.59.26-.59.59 0 .33.26.59.59.59a.591.591 0 0 0 0-1.18zm-11.78 0c-.33 0-.59.26-.59.59a.591.591 0 1 0 .59-.59zm-5.89 17.67c-.33 0-.59.26-.59.59a.591.591 0 1 0 .59-.59zm0-11.78c-.33 0-.59.26-.59.59a.591.591 0 1 0 .59-.59zm23.51-10.6-.34-1.01c-.12.11-.19.26-.19.43-.01.3.23.55.53.58zm-11.73 45.95c-.33 0-.59.26-.59.59a.591.591 0 1 0 .59-.59zm0-11.79c-.33 0-.59.26-.59.59a.591.591 0 1 0 .59-.59zm5.89 5.89c-.33 0-.59.26-.59.59 0 .33.26.59.59.59a.591.591 0 0 0 0-1.18zm-11.78 0c-.33 0-.59.26-.59.59a.591.591 0 1 0 .59-.59zm11.78-11.78c-.33 0-.59.26-.59.59 0 .33.26.59.59.59a.591.591 0 0 0 0-1.18zm-11.78 0c-.33 0-.59.26-.59.59a.591.591 0 1 0 .59-.59zm-5.89 17.68c-.33 0-.59.26-.59.59a.591.591 0 1 0 .59-.59zm0-11.79c-.33 0-.59.26-.59.59a.591.591 0 1 0 .59-.59zm11.78 35.35c-.33 0-.59.26-.59.59a.591.591 0 1 0 .59-.59zm0-11.78c-.33 0-.59.26-.59.59a.591.591 0 1 0 .59-.59zm5.89 5.89c-.33 0-.59.26-.59.59 0 .33.26.59.59.59.33 0 .59-.26.59-.59 0-.33-.26-.59-.59-.59zm-11.78 0c-.33 0-.59.26-.59.59a.591.591 0 1 0 .59-.59zm11.78-11.78c-.33 0-.59.26-.59.59 0 .33.26.59.59.59.33 0 .59-.26.59-.59 0-.33-.26-.59-.59-.59zm-11.78 0c-.33 0-.59.26-.59.59a.591.591 0 1 0 .59-.59zm-5.89 17.67c-.33 0-.59.26-.59.59a.591.591 0 1 0 .59-.59zm0-11.78c-.33 0-.59.26-.59.59a.591.591 0 1 0 .59-.59zm11.78 35.34c-.33 0-.59.26-.59.59a.591.591 0 1 0 .59-.59zm0-11.78c-.33 0-.59.26-.59.59a.591.591 0 1 0 .59-.59zm5.89 5.89c-.33 0-.59.26-.59.59 0 .33.26.59.59.59.33 0 .59-.26.59-.59 0-.33-.26-.59-.59-.59zm-11.78 0c-.33 0-.59.26-.59.59a.591.591 0 1 0 .59-.59zm11.78-11.78c-.33 0-.59.26-.59.59 0 .33.26.59.59.59.33 0 .59-.26.59-.59 0-.33-.26-.59-.59-.59zm-11.78 0c-.33 0-.59.26-.59.59a.591.591 0 1 0 .59-.59zm-5.89 17.67c-.33 0-.59.26-.59.59a.591.591 0 1 0 .59-.59zm0-11.78c-.33 0-.59.26-.59.59a.591.591 0 1 0 .59-.59zm-11.78-106.03c-.33 0-.59.26-.59.59a.591.591 0 1 0 .59-.59z" fill="#1d1d1b"/><circle fill="#1d1d1b" cx="106.37" cy="134.63" r=".59"/><path d="M112.26 139.93c-.33 0-.59.26-.59.59a.591.591 0 1 0 .59-.59zm-11.78 0c-.33 0-.59.26-.59.59a.591.591 0 0 0 1.18 0c0-.32-.27-.59-.59-.59zm0-11.78c-.33 0-.59.26-.59.59a.591.591 0 1 0 .59-.59zm-5.89 17.67c-.33 0-.59.26-.59.59a.591.591 0 0 0 1.18 0c0-.32-.27-.59-.59-.59z" fill="#1d1d1b"/><circle fill="#1d1d1b" cx="94.59" cy="134.63" r=".59"/><path d="M106.37 169.38c-.33 0-.59.26-.59.59a.591.591 0 1 0 .59-.59zm0-11.78c-.33 0-.59.26-.59.59a.591.591 0 1 0 .59-.59zm5.89 5.89c-.33 0-.59.26-.59.59a.591.591 0 1 0 .59-.59zm-11.78 0c-.33 0-.59.26-.59.59a.591.591 0 0 0 1.18 0c0-.32-.27-.59-.59-.59zm11.78-11.78c-.33 0-.59.26-.59.59a.591.591 0 1 0 .59-.59zm-11.78 0c-.33 0-.59.26-.59.59a.591.591 0 0 0 1.18 0c0-.32-.27-.59-.59-.59zm-5.89 17.67c-.33 0-.59.26-.59.59a.591.591 0 0 0 1.18 0c0-.32-.27-.59-.59-.59zm0-11.78c-.33 0-.59.26-.59.59a.591.591 0 0 0 1.18 0c0-.32-.27-.59-.59-.59zm11.78 35.34c-.33 0-.59.26-.59.59a.591.591 0 1 0 .59-.59z" fill="#1d1d1b"/><circle fill="#1d1d1b" cx="106.37" cy="181.75" r=".59"/><path d="M112.26 187.05c-.33 0-.59.26-.59.59a.591.591 0 1 0 .59-.59zm-11.78 0c-.33 0-.59.26-.59.59a.591.591 0 0 0 1.18 0c0-.32-.27-.59-.59-.59zm11.78-11.78c-.33 0-.59.26-.59.59a.591.591 0 1 0 .59-.59zm-11.78 0c-.33 0-.59.26-.59.59a.591.591 0 0 0 1.18 0c0-.32-.27-.59-.59-.59zm-5.89 17.67c-.33 0-.59.26-.59.59a.591.591 0 0 0 1.18 0c0-.32-.27-.59-.59-.59z" fill="#1d1d1b"/><circle fill="#1d1d1b" cx="94.59" cy="181.75" r=".59"/><path d="M106.37 216.51c-.33 0-.59.26-.59.59a.591.591 0 1 0 .59-.59zm0-11.79c-.33 0-.59.26-.59.59a.591.591 0 1 0 .59-.59zm5.89 5.89c-.33 0-.59.26-.59.59a.591.591 0 1 0 .59-.59zm-11.78 0c-.33 0-.59.26-.59.59a.591.591 0 0 0 1.18 0c0-.32-.27-.59-.59-.59zm11.78-11.78c-.33 0-.59.26-.59.59a.591.591 0 1 0 .59-.59zm-11.78 0c-.33 0-.59.26-.59.59a.591.591 0 0 0 1.18 0c0-.32-.27-.59-.59-.59zm-5.89 17.68c-.33 0-.59.26-.59.59a.591.591 0 1 0 .59-.59zm0-11.79c-.33 0-.59.26-.59.59a.591.591 0 0 0 1.18 0c0-.32-.27-.59-.59-.59zm11.78 35.35c-.33 0-.59.26-.59.59a.591.591 0 1 0 .59-.59z" fill="#1d1d1b"/><circle fill="#1d1d1b" cx="106.37" cy="228.87" r=".59"/><circle fill="#1d1d1b" cx="112.26" cy="234.77" r=".59"/><circle fill="#1d1d1b" cx="100.48" cy="234.77" r=".59"/><path d="M112.26 222.4c-.33 0-.59.26-.59.59a.591.591 0 1 0 .59-.59zm-11.78 0c-.33 0-.59.26-.59.59a.591.591 0 1 0 .59-.59zm-5.89 17.67c-.33 0-.59.26-.59.59a.591.591 0 1 0 .59-.59z" fill="#1d1d1b"/><circle fill="#1d1d1b" cx="94.59" cy="228.87" r=".59"/><circle fill="#1d1d1b" cx="106.37" cy="264.22" r=".59"/><path d="M106.37 251.85c-.33 0-.59.26-.59.59a.591.591 0 1 0 .59-.59zm5.89 5.89c-.33 0-.59.26-.59.59a.591.591 0 1 0 .59-.59zm-11.78 0c-.33 0-.59.26-.59.59a.591.591 0 1 0 .59-.59zm11.78-11.78c-.33 0-.59.26-.59.59a.591.591 0 1 0 .59-.59zm-11.78 0c-.33 0-.59.26-.59.59a.591.591 0 1 0 .59-.59z" fill="#1d1d1b"/><circle fill="#1d1d1b" cx="94.59" cy="264.22" r=".59"/><path d="M94.59 251.85c-.33 0-.59.26-.59.59a.591.591 0 1 0 .59-.59z" fill="#1d1d1b"/><circle fill="#1d1d1b" cx="100.48" cy="281.89" r=".59"/><circle fill="#1d1d1b" cx="100.48" cy="270.11" r=".59"/><circle fill="#1d1d1b" cx="94.59" cy="276" r=".59"/><path d="M94.59 298.97c-.33 0-.59.26-.59.59a.591.591 0 1 0 .59-.59zM82.81 145.82c-.33 0-.59.26-.59.59a.591.591 0 0 0 1.18 0c0-.32-.27-.59-.59-.59zm0-11.78c-.33 0-.59.26-.59.59a.591.591 0 1 0 .59-.59zm5.89 5.89c-.33 0-.59.26-.59.59 0 .33.26.59.59.59.33 0 .59-.26.59-.59 0-.32-.27-.59-.59-.59zm-11.78 0c-.33 0-.59.26-.59.59 0 .33.26.59.59.59.33 0 .59-.26.59-.59 0-.32-.27-.59-.59-.59zm11.78-11.78c-.33 0-.59.26-.59.59 0 .33.26.59.59.59a.591.591 0 0 0 0-1.18zm-17.67 17.67c-.33 0-.59.26-.59.59a.591.591 0 0 0 1.18 0c0-.32-.27-.59-.59-.59zm.52-10.93-.6.32c.02 0 .05.01.07.01.24 0 .44-.14.53-.33zm11.26 34.49c-.33 0-.59.26-.59.59a.591.591 0 0 0 1.18 0c0-.32-.27-.59-.59-.59zm0-11.78c-.33 0-.59.26-.59.59a.591.591 0 0 0 1.18 0c0-.32-.27-.59-.59-.59zm5.89 5.89c-.33 0-.59.26-.59.59 0 .33.26.59.59.59.33 0 .59-.26.59-.59 0-.32-.27-.59-.59-.59zm-11.78 0c-.33 0-.59.26-.59.59 0 .33.26.59.59.59.33 0 .59-.26.59-.59 0-.32-.27-.59-.59-.59zm11.78-11.78c-.33 0-.59.26-.59.59 0 .33.26.59.59.59.33 0 .59-.26.59-.59 0-.32-.27-.59-.59-.59zm-11.78 0c-.33 0-.59.26-.59.59 0 .33.26.59.59.59.33 0 .59-.26.59-.59 0-.32-.27-.59-.59-.59zm-5.89 17.67c-.33 0-.59.26-.59.59a.591.591 0 0 0 1.18 0c0-.32-.27-.59-.59-.59zm0-11.78c-.33 0-.59.26-.59.59a.591.591 0 0 0 1.18 0c0-.32-.27-.59-.59-.59zm11.78 35.34c-.33 0-.59.26-.59.59a.591.591 0 0 0 1.18 0c0-.32-.27-.59-.59-.59zm0-11.78c-.33 0-.59.26-.59.59a.591.591 0 0 0 1.18 0c0-.32-.27-.59-.59-.59zm5.89 5.89c-.33 0-.59.26-.59.59 0 .33.26.59.59.59.33 0 .59-.26.59-.59 0-.32-.27-.59-.59-.59zm-11.78 0c-.33 0-.59.26-.59.59 0 .33.26.59.59.59.33 0 .59-.26.59-.59 0-.32-.27-.59-.59-.59zm11.78-11.78c-.33 0-.59.26-.59.59 0 .33.26.59.59.59.33 0 .59-.26.59-.59 0-.32-.27-.59-.59-.59zm-11.78 0c-.33 0-.59.26-.59.59 0 .33.26.59.59.59.33 0 .59-.26.59-.59 0-.32-.27-.59-.59-.59zm-5.89 17.67c-.33 0-.59.26-.59.59a.591.591 0 0 0 1.18 0c0-.32-.27-.59-.59-.59zm0-11.78c-.33 0-.59.26-.59.59a.591.591 0 0 0 1.18 0c0-.32-.27-.59-.59-.59zm11.78 35.35c-.33 0-.59.26-.59.59a.591.591 0 1 0 .59-.59zm0-11.79c-.33 0-.59.26-.59.59a.591.591 0 0 0 1.18 0c0-.32-.27-.59-.59-.59zm5.89 5.89c-.33 0-.59.26-.59.59 0 .33.26.59.59.59.33 0 .59-.26.59-.59 0-.32-.27-.59-.59-.59zm-11.78 0c-.33 0-.59.26-.59.59 0 .33.26.59.59.59.33 0 .59-.26.59-.59 0-.32-.27-.59-.59-.59zm11.78-11.78c-.33 0-.59.26-.59.59 0 .33.26.59.59.59.33 0 .59-.26.59-.59 0-.32-.27-.59-.59-.59zm-11.78 0c-.33 0-.59.26-.59.59 0 .33.26.59.59.59.33 0 .59-.26.59-.59 0-.32-.27-.59-.59-.59zm-5.89 17.68c-.33 0-.59.26-.59.59a.591.591 0 1 0 .59-.59zm0-11.79c-.33 0-.59.26-.59.59a.591.591 0 0 0 1.18 0c0-.32-.27-.59-.59-.59zm11.78 35.35c-.33 0-.59.26-.59.59a.591.591 0 1 0 .59-.59zm0-11.78c-.33 0-.59.26-.59.59a.591.591 0 1 0 .59-.59z" fill="#1d1d1b"/><circle fill="#1d1d1b" cx="88.7" cy="234.77" r=".59"/><path d="M76.92 234.18c-.33 0-.59.26-.59.59 0 .33.26.59.59.59a.591.591 0 0 0 0-1.18zM88.7 222.4c-.33 0-.59.26-.59.59 0 .33.26.59.59.59a.591.591 0 0 0 0-1.18zm-11.78 0c-.33 0-.59.26-.59.59 0 .33.26.59.59.59a.591.591 0 0 0 0-1.18zm-5.89 17.67c-.33 0-.59.26-.59.59a.591.591 0 1 0 .59-.59zm0-11.78c-.33 0-.59.26-.59.59a.591.591 0 1 0 .59-.59zm11.78 35.34c-.33 0-.59.26-.59.59a.591.591 0 1 0 .59-.59zm0-11.78c-.33 0-.59.26-.59.59a.591.591 0 1 0 .59-.59zm5.89 5.89c-.33 0-.59.26-.59.59 0 .33.26.59.59.59a.591.591 0 0 0 0-1.18zm-11.78 0c-.33 0-.59.26-.59.59 0 .33.26.59.59.59a.591.591 0 0 0 0-1.18zm11.78-11.78c-.33 0-.59.26-.59.59 0 .33.26.59.59.59a.591.591 0 0 0 0-1.18zm-11.78 0c-.33 0-.59.26-.59.59 0 .33.26.59.59.59a.591.591 0 0 0 0-1.18zm-5.89 17.67c-.33 0-.59.26-.59.59a.591.591 0 1 0 .59-.59zm0-11.78c-.33 0-.59.26-.59.59a.591.591 0 1 0 .59-.59zm11.78 35.34c-.33 0-.59.26-.59.59a.591.591 0 1 0 .59-.59zm0-11.78c-.33 0-.59.26-.59.59a.591.591 0 1 0 .59-.59z" fill="#1d1d1b"/><circle fill="#1d1d1b" cx="88.7" cy="281.89" r=".59"/><circle fill="#1d1d1b" cx="88.7" cy="270.11" r=".59"/><path d="M76.92 269.52c-.33 0-.59.26-.59.59 0 .33.26.59.59.59a.591.591 0 0 0 0-1.18zm-5.89 17.67c-.33 0-.59.26-.59.59a.591.591 0 1 0 .59-.59zm0-11.78c-.33 0-.59.26-.59.59a.591.591 0 1 0 .59-.59zm11.78 23.56c-.33 0-.59.26-.59.59a.591.591 0 1 0 .59-.59zm-6.41 6.21c.32-.04.64-.08.96-.13a.584.584 0 0 0-.43-.2c-.24.01-.44.14-.53.33zm12.3-12.1c-.33 0-.59.26-.59.59 0 .33.26.59.59.59a.591.591 0 0 0 0-1.18zm-11.78 0c-.33 0-.59.26-.59.59 0 .33.26.59.59.59a.591.591 0 0 0 0-1.18zm-5.89 5.89c-.33 0-.59.26-.59.59a.591.591 0 1 0 .59-.59zM59.25 145.82c-.33 0-.59.26-.59.59 0 .33.26.59.59.59.33 0 .59-.26.59-.59 0-.32-.27-.59-.59-.59zm5.89-5.89c-.33 0-.59.26-.59.59a.591.591 0 0 0 1.18 0c0-.32-.27-.59-.59-.59zm-5.89 29.45c-.33 0-.59.26-.59.59 0 .33.26.59.59.59.33 0 .59-.26.59-.59 0-.32-.27-.59-.59-.59zm0-11.78c-.33 0-.59.26-.59.59 0 .33.26.59.59.59.33 0 .59-.26.59-.59 0-.32-.27-.59-.59-.59zm5.89 5.89c-.33 0-.59.26-.59.59a.591.591 0 0 0 1.18 0c0-.32-.27-.59-.59-.59zm-11.78 0c-.33 0-.59.26-.59.59a.591.591 0 0 0 1.18 0c0-.32-.27-.59-.59-.59zm11.78-11.78c-.33 0-.59.26-.59.59a.591.591 0 0 0 1.18 0c0-.32-.27-.59-.59-.59zm-11.78 0c-.33 0-.59.26-.59.59a.591.591 0 0 0 1.18 0c0-.32-.27-.59-.59-.59zm-5.89 17.67c-.33 0-.59.26-.59.59 0 .33.26.59.59.59.33 0 .59-.26.59-.59 0-.32-.27-.59-.59-.59zm11.78 23.56c-.33 0-.59.26-.59.59 0 .33.26.59.59.59.33 0 .59-.26.59-.59 0-.32-.27-.59-.59-.59z" fill="#1d1d1b"/><circle fill="#1d1d1b" cx="59.25" cy="181.75" r=".59"/><path d="M65.14 187.05c-.33 0-.59.26-.59.59a.591.591 0 0 0 1.18 0c0-.32-.27-.59-.59-.59zm-11.78 0c-.33 0-.59.26-.59.59a.591.591 0 0 0 1.18 0c0-.32-.27-.59-.59-.59zm11.78-11.78c-.33 0-.59.26-.59.59a.591.591 0 0 0 1.18 0c0-.32-.27-.59-.59-.59zm-11.78 0c-.33 0-.59.26-.59.59a.591.591 0 0 0 1.18 0c0-.32-.27-.59-.59-.59zm-5.89 17.67c-.33 0-.59.26-.59.59 0 .33.26.59.59.59.33 0 .59-.26.59-.59 0-.32-.27-.59-.59-.59z" fill="#1d1d1b"/><circle fill="#1d1d1b" cx="47.47" cy="181.75" r=".59"/><path d="M59.25 216.51c-.33 0-.59.26-.59.59 0 .33.26.59.59.59a.591.591 0 0 0 0-1.18zm0-11.79c-.33 0-.59.26-.59.59 0 .33.26.59.59.59.33 0 .59-.26.59-.59 0-.32-.27-.59-.59-.59zm5.89 5.89c-.33 0-.59.26-.59.59a.591.591 0 0 0 1.18 0c0-.32-.27-.59-.59-.59zm-11.78 0c-.33 0-.59.26-.59.59a.591.591 0 0 0 1.18 0c0-.32-.27-.59-.59-.59zm11.78-11.78c-.33 0-.59.26-.59.59a.591.591 0 0 0 1.18 0c0-.32-.27-.59-.59-.59zm-11.78 0c-.33 0-.59.26-.59.59a.591.591 0 0 0 1.18 0c0-.32-.27-.59-.59-.59zm-5.89 17.68c-.33 0-.59.26-.59.59 0 .33.26.59.59.59a.591.591 0 0 0 0-1.18zm0-11.79c-.33 0-.59.26-.59.59 0 .33.26.59.59.59.33 0 .59-.26.59-.59 0-.32-.27-.59-.59-.59zm11.78 35.35c-.33 0-.59.26-.59.59 0 .33.26.59.59.59a.591.591 0 0 0 0-1.18z" fill="#1d1d1b"/><circle fill="#1d1d1b" cx="59.25" cy="228.87" r=".59"/><circle fill="#1d1d1b" cx="65.14" cy="234.77" r=".59"/><circle fill="#1d1d1b" cx="53.36" cy="234.77" r=".59"/><path d="M65.14 222.4c-.33 0-.59.26-.59.59a.591.591 0 1 0 .59-.59zm-11.78 0c-.33 0-.59.26-.59.59a.591.591 0 1 0 .59-.59zm-5.89 17.67c-.33 0-.59.26-.59.59 0 .33.26.59.59.59a.591.591 0 0 0 0-1.18z" fill="#1d1d1b"/><circle fill="#1d1d1b" cx="47.47" cy="228.87" r=".59"/><circle fill="#1d1d1b" cx="59.25" cy="264.22" r=".59"/><path d="M59.25 251.85c-.33 0-.59.26-.59.59 0 .33.26.59.59.59a.591.591 0 0 0 0-1.18zm5.89 5.89c-.33 0-.59.26-.59.59a.591.591 0 1 0 .59-.59zm-11.78 0c-.33 0-.59.26-.59.59a.591.591 0 1 0 .59-.59zm11.78-11.78c-.33 0-.59.26-.59.59a.591.591 0 1 0 .59-.59zm-11.78 0c-.33 0-.59.26-.59.59a.591.591 0 1 0 .59-.59z" fill="#1d1d1b"/><circle fill="#1d1d1b" cx="47.47" cy="264.22" r=".59"/><path d="M47.47 251.85c-.33 0-.59.26-.59.59 0 .33.26.59.59.59a.591.591 0 0 0 0-1.18zm11.78 35.34c-.33 0-.59.26-.59.59 0 .33.26.59.59.59a.591.591 0 0 0 0-1.18z" fill="#1d1d1b"/><circle fill="#1d1d1b" cx="59.25" cy="276" r=".59"/><circle fill="#1d1d1b" cx="65.14" cy="281.89" r=".59"/><circle fill="#1d1d1b" cx="53.36" cy="281.89" r=".59"/><circle fill="#1d1d1b" cx="65.14" cy="270.11" r=".59"/><circle fill="#1d1d1b" cx="53.36" cy="270.11" r=".59"/><circle fill="#1d1d1b" cx="47.47" cy="276" r=".59"/><circle fill="#1d1d1b" cx="65.14" cy="305.45" r=".59"/><path d="M53.36 304.86a.585.585 0 0 0-.53.84c.33.04.66.07.99.11.08-.1.13-.23.13-.36 0-.33-.27-.59-.59-.59zm11.78-11.78c-.33 0-.59.26-.59.59a.591.591 0 1 0 .59-.59zm-11.78 0c-.33 0-.59.26-.59.59a.591.591 0 1 0 .59-.59zm-5.89 5.89c-.33 0-.59.26-.59.59 0 .33.26.59.59.59a.591.591 0 0 0 0-1.18zm-5.89-111.92c-.33 0-.59.26-.59.59 0 .33.26.59.59.59.33 0 .59-.26.59-.59 0-.32-.27-.59-.59-.59zm-5.89 29.46c-.33 0-.59.26-.59.59 0 .33.26.59.59.59a.591.591 0 0 0 0-1.18zm.15-11.76c-.06.38-.13.77-.19 1.15h.04a.585.585 0 0 0 .15-1.15zm5.74 5.86c-.33 0-.59.26-.59.59 0 .33.26.59.59.59.33 0 .59-.26.59-.59 0-.32-.27-.59-.59-.59zm0-11.78c-.33 0-.59.26-.59.59 0 .33.26.59.59.59.33 0 .59-.26.59-.59 0-.32-.27-.59-.59-.59zm-5.89 41.24c-.33 0-.59.26-.59.59 0 .33.26.59.59.59a.591.591 0 0 0 0-1.18zm0-11.78c-.33 0-.59.26-.59.59 0 .33.26.59.59.59a.591.591 0 0 0 0-1.18z" fill="#1d1d1b"/><circle fill="#1d1d1b" cx="41.58" cy="234.77" r=".59"/><path d="M41.58 222.4c-.33 0-.59.26-.59.59 0 .33.26.59.59.59a.591.591 0 0 0 0-1.18zm-5.89 41.23c-.33 0-.59.26-.59.59 0 .33.26.59.59.59a.591.591 0 0 0 0-1.18zm0-11.78c-.33 0-.59.26-.59.59 0 .33.26.59.59.59a.591.591 0 0 0 0-1.18zm5.89 5.89c-.33 0-.59.26-.59.59 0 .33.26.59.59.59a.591.591 0 0 0 0-1.18zm-11.78 0c-.33 0-.59.26-.59.59a.591.591 0 1 0 .59-.59zm11.78-11.78c-.33 0-.59.26-.59.59 0 .33.26.59.59.59a.591.591 0 0 0 0-1.18zm-11.78 0c-.33 0-.59.26-.59.59a.591.591 0 1 0 .59-.59zm-5.38 18.26-.11.43c.11-.11.18-.26.18-.43 0-.06-.01-.12-.03-.18l-.04.18zm11.27 22.97c-.33 0-.59.26-.59.59 0 .33.26.59.59.59a.591.591 0 0 0 0-1.18zm0-11.78c-.33 0-.59.26-.59.59 0 .33.26.59.59.59a.591.591 0 0 0 0-1.18z" fill="#1d1d1b"/><circle fill="#1d1d1b" cx="41.58" cy="281.89" r=".59"/><circle fill="#1d1d1b" cx="41.58" cy="270.11" r=".59"/><path d="M138.45 81.65c-1.27-4.7-8.5-8.32-14.1-3.8-5.61 4.52-5.97 11.21-2.17 16.82 0 0-2.34 5.84-8.31 13.97-5.97 8.14-14.29 14.05-14.29 14.05s1.99 8.79 7.77 18.27c8.16 13.38 18.61 50.6 18.61 50.6-2.33-28.38 2.29-52.23 11.96-63.62 0 0 8.5 1.81 18.08-4.16 11.41-7.1 15.55-16.82 17.9-24.41 2.35-7.59 1.79-11.51 1.79-11.51s-5.48-.43-13-4.58c-5.24-2.89-10.49-3.98-13.92-.9-3.45 3.07-10.32-.73-10.32-.73z" fill="#fcebe0"/><path d="M146.24 97.63c-.85.87-1.61.99-2.25.36-.64-.63-.54-1.39.31-2.26.85-.87 1.61-.99 2.25-.36.65.63.54 1.39-.31 2.26zm16.82 15.52c-.85.87-1.61.99-2.25.36-.64-.63-.54-1.39.31-2.26.85-.87 1.61-.99 2.25-.36.64.63.54 1.39-.31 2.26z"/><path d="M129.04 105.74c-2.09-1.55-2-3.89.27-6.94 2.26-3.06 4.48-3.82 6.56-2.28 2.09 1.55 2 3.89-.27 6.94-2.26 3.06-4.47 3.82-6.56 2.28zm18.63 17.37c-.99-2.4.3-4.36 3.82-5.8 3.52-1.44 5.81-.96 6.8 1.45.99 2.4-.3 4.36-3.82 5.8-3.52 1.43-5.81.95-6.8-1.45z" fill="#f49a86"/><path d="M122.18 94.67c3.98-6.6 11.57-11.93 16.27-13.02m.56 47.23c-4.97-.54-11.5-3.13-14.69-10.45-3.56-8.16-1.63-18.61-1.63-18.61m30.95 2.8c-1.45 2.35-2.17 7.5-1.9 9.58s-3.62.63-7.05-1.45" fill="none" stroke="#e89687" stroke-linecap="round" stroke-linejoin="round" stroke-miterlimit="10" stroke-width=".654"/><path d="M145.97 86.49c4.07 1.65 8.08 4.79 9.75 8.08m5.44 6.81c3.39-.06 7.07 2.17 8.82 4.93" fill="none" stroke="#000" stroke-linecap="round" stroke-linejoin="round" stroke-miterlimit="10" stroke-width="1.963"/><path d="M136.82 110.13c1.36 2.44 5.61 5.88 8.95 6.87" fill="none" stroke="#df6d59" stroke-linecap="round" stroke-linejoin="round" stroke-miterlimit="10" stroke-width="1.963"/><path d="M128.45 79.48c-1.93 2.77-2.89 10.73-2.89 10.73" fill="none" stroke="#e89687" stroke-linecap="round" stroke-linejoin="round" stroke-miterlimit="10" stroke-width=".654"/><path d="M127 170.85c2.21 14.84 12.66 51.4 19.52 66.09 6.86 14.69 25.14 16.98 34.61 9.79 9.47-7.18 7.18-26.44.65-41.79s-19.08-42.37-19.08-42.37l-35.7 8.28z" fill="#148190"/><path d="M165.27 169.38c-.33 0-.59.26-.59.59a.591.591 0 1 0 .59-.59zm5.89 17.67c-.33 0-.59.26-.59.59a.591.591 0 1 0 .59-.59zm-5.89 5.89c-.33 0-.59.26-.59.59a.591.591 0 1 0 .59-.59z" fill="#1d1d1b"/><circle fill="#1d1d1b" cx="165.27" cy="181.75" r=".59"/><path d="M177.05 216.51c-.33 0-.59.26-.59.59a.591.591 0 1 0 .59-.59zm0-11.79c-.33 0-.59.26-.59.59a.591.591 0 1 0 .59-.59zm5.89 7.07a.591.591 0 1 0-.59-.59c0 .33.27.59.59.59zm-11.78-1.18c-.33 0-.59.26-.59.59a.591.591 0 1 0 .59-.59zm0-11.78c-.33 0-.59.26-.59.59a.591.591 0 1 0 .59-.59zm-5.89 17.68c-.33 0-.59.26-.59.59a.591.591 0 1 0 .59-.59zm0-11.79c-.33 0-.59.26-.59.59a.591.591 0 1 0 .59-.59zm11.78-10.6-.44-.98a.59.59 0 0 0-.15.39c0 .33.27.59.59.59zm0 45.95c-.33 0-.59.26-.59.59a.591.591 0 1 0 .59-.59zm0-11.78c-.33 0-.59.26-.59.59a.591.591 0 1 0 .59-.59zm5.89 5.89c-.33 0-.59.26-.59.59 0 .33.26.59.59.59.33 0 .59-.26.59-.59 0-.33-.26-.59-.59-.59zm-11.78 0c-.33 0-.59.26-.59.59a.591.591 0 1 0 .59-.59zm11.78-11.78c-.33 0-.59.26-.59.59 0 .33.26.59.59.59.33 0 .59-.26.59-.59 0-.33-.26-.59-.59-.59zm-11.78 0c-.33 0-.59.26-.59.59a.591.591 0 1 0 .59-.59zm-5.89 17.67c-.33 0-.59.26-.59.59a.591.591 0 1 0 .59-.59z" fill="#1d1d1b"/><circle fill="#1d1d1b" cx="165.27" cy="228.87" r=".59"/><path d="M171.16 245.96c-.33 0-.59.26-.59.59a.591.591 0 1 0 .59-.59zm-17.67-76.58c-.33 0-.59.26-.59.59 0 .33.26.59.59.59a.591.591 0 0 0 0-1.18zm5.89-5.89c-.33 0-.59.26-.59.59a.591.591 0 1 0 .59-.59zm-17.67 5.89c-.33 0-.59.26-.59.59a.591.591 0 1 0 .59-.59zm11.78 23.56c-.33 0-.59.26-.59.59 0 .33.26.59.59.59a.591.591 0 0 0 0-1.18z" fill="#1d1d1b"/><circle fill="#1d1d1b" cx="153.49" cy="181.75" r=".59"/><path d="M159.38 187.05c-.33 0-.59.26-.59.59a.591.591 0 1 0 .59-.59zm-11.78 0c-.33 0-.59.26-.59.59a.591.591 0 1 0 .59-.59zm11.78-11.78c-.33 0-.59.26-.59.59a.591.591 0 1 0 .59-.59zm-11.78 0c-.33 0-.59.26-.59.59a.591.591 0 1 0 .59-.59zm-5.89 17.67c-.33 0-.59.26-.59.59a.591.591 0 1 0 .59-.59z" fill="#1d1d1b"/><circle fill="#1d1d1b" cx="141.71" cy="181.75" r=".59"/><path d="M153.49 216.51c-.33 0-.59.26-.59.59 0 .33.26.59.59.59.33 0 .59-.26.59-.59 0-.33-.26-.59-.59-.59zm0-11.79c-.33 0-.59.26-.59.59 0 .33.26.59.59.59a.591.591 0 0 0 0-1.18zm5.89 5.89c-.33 0-.59.26-.59.59a.591.591 0 1 0 .59-.59zm-11.78 0c-.33 0-.59.26-.59.59a.591.591 0 1 0 .59-.59zm11.78-11.78c-.33 0-.59.26-.59.59a.591.591 0 1 0 .59-.59zm-11.78 0c-.33 0-.59.26-.59.59a.591.591 0 1 0 .59-.59zm-5.89 17.68c-.33 0-.59.26-.59.59a.591.591 0 1 0 .59-.59zm0-11.79c-.33 0-.59.26-.59.59a.591.591 0 1 0 .59-.59zm11.78 35.35c-.33 0-.59.26-.59.59 0 .33.26.59.59.59.33 0 .59-.26.59-.59 0-.33-.26-.59-.59-.59z" fill="#1d1d1b"/><circle fill="#1d1d1b" cx="153.49" cy="228.87" r=".59"/><circle fill="#1d1d1b" cx="159.38" cy="234.77" r=".59"/><circle fill="#1d1d1b" cx="147.6" cy="234.77" r=".59"/><path d="M159.38 222.4c-.33 0-.59.26-.59.59a.591.591 0 1 0 .59-.59zm-11.78 0c-.33 0-.59.26-.59.59a.591.591 0 1 0 .59-.59zm11.78 23.56c-.33 0-.59.26-.59.59a.591.591 0 1 0 .59-.59zm-29.45-64.8c-.33 0-.59.26-.59.59a.591.591 0 1 0 .59-.59zm5.89 5.89c-.33 0-.59.26-.59.59 0 .33.26.59.59.59a.591.591 0 0 0 0-1.18zm0-11.78c-.33 0-.59.26-.59.59 0 .33.26.59.59.59a.591.591 0 0 0 0-1.18zm-5.89-4.71c.3 0 .55-.23.58-.53l-1.08.25c.11.17.29.28.5.28zm5.89 28.27c-.33 0-.59.26-.59.59 0 .33.26.59.59.59a.591.591 0 0 0 0-1.18z" fill="#1d1d1b"/><path d="M153.41 130.37s-13.78-4.06-20.17-1.45c-6.38 2.61-8.13 8.42-9.14 17.85-1.02 9.43 2.9 24.09 2.9 24.09s9.58 2.47 19.59-.44c10.01-2.9 16.11-7.84 16.11-7.84s-1.31-5.51-.73-8.42c0 0 9.2-.07 13.93-4.5 5.11-4.79 8.6-10.41 10.34-14.91 1.74-4.5 4.03-9.58 2.61-13.49-.78-2.16-1.96-2.5-1.96-2.5s-.54-4.79-4.46-5.33-5.66-.11-5.66-.11-3.26-1.85-6.2-.33-3.92 2.94-3.92 2.94-3.81-1.74-7.84 1.2c-4.03 2.94-5.22 6.03-4.35 7.42.87 1.39 2.17 2.04 2.17 2.04l-3.22 3.78z" fill="#f2ded0"/><path d="M154.46 124.55c.1.17.21.32.33.47 1.24-1.41 4.65-5.57 4.02-7.89-4.02 2.94-5.21 6.03-4.35 7.42z" fill="#df6d59"/><path d="M166.65 115.93c3.7 2.07 3.59 4.68 2.29 8.49-1.31 3.81-4.14 7.29-5.11 8.6m-7.19-6.43c2.83-3.16 5.33-5.01 5.33-5.01m14.8-8.26c2.07 2.61 3.37 5.01 1.85 9.58s-3.16 7.62-5.22 10.66m13.49-14.8c.44 3.05-1.2 8.49-3.05 11.75-1.85 3.26-2.83 4.9-2.83 4.9m-19.04 18.75c-4.24.07-8.81-.69-8.81-.69" fill="none" stroke="#e89687" stroke-linecap="round" stroke-linejoin="round" stroke-miterlimit="10" stroke-width=".654"/><path d="M155.66 211.8c-7.84 2.07-30.69 4.03-46.79 8.81M96.9 147.49c6.96 4.79 13.28 13.28 16.76 26.55 3.48 13.28 10.66 42.66 10.66 42.66" fill="none" stroke="#000" stroke-linecap="round" stroke-linejoin="round" stroke-miterlimit="10" stroke-width=".654"/><path d="M123.01 212.35c-7.18-.87-13.28 1.09-15.89 2.18m2.62-60.3c2.39 5.01 2.18 14.36 2.18 14.36m-3.6 96.42C89.06 262.62 76 251.52 67.51 236.5c-8.49-15.02-12.84-44.18-13.49-56.59" fill="none" stroke="#000" stroke-linecap="round" stroke-linejoin="round" stroke-miterlimit="10" stroke-width=".654"/><path d="M48.58 186.45c.65 6.75 7.62 14.8 7.62 14.8m70.8-30.4c1.89 10.59 6.46 33.66 11.24 43.89" fill="none" stroke="#000" stroke-linecap="round" stroke-linejoin="round" stroke-miterlimit="10" stroke-width=".654"/><path d="M155.66 211.8s8.05-1.41 11.53-4.24c3.48-2.83 6.09-8.71 8.05-13.93 1.96-5.22 4.35-9.36 8.71-11.32 4.35-1.96 13.28-5.01 13.49-2.39.22 2.61.44 8.05-3.48 10.88l-3.92 2.83s0 7.62-1.31 10.66c0 0 9.14-2.61 14.15-5.88 5.01-3.26 10.88-11.1 15.02-16.11 4.14-5.01 10.01-10.01 13.06-8.05s1.09 8.71-3.26 15.67c-4.35 6.96-11.54 14.8-11.54 14.8s5.01-2.18 9.14-4.14c4.14-1.96 5.88-4.35 5.88-4.35s5.01.65 4.79 4.79c-.22 4.14-3.26 7.18-3.26 7.18s2.83 1.74.87 7.4-9.58 11.32-9.58 11.32 3.92.22 3.48 4.35c-.44 4.14-3.48 6.96-12.19 11.97-8.71 5.01-44.18 14.58-53.76 16.21 0 0-8.49-9.03-10.01-23.18-1.52-14.13 4.14-24.47 4.14-24.47z" fill="#fcebe0"/><path d="M197.53 182.97c.05-1.18-.01-2.25-.08-3.05-.18-2.17-6.37-.43-10.96 1.34 3.73 2.95 8.71 2.26 11.04 1.71zm28.72 2.1c1.61.8 2.94.74 3.9.44 2.5-5.2 3.2-9.67.85-11.23l-.9-.38c-.98-.22-2.15.05-3.41.67-2.4 4.36-3.52 8.96-.44 10.5z" fill="#df6d59"/><path d="M216.16 204.73c-3.05 3.05-5.22 4.14-5.22 4.14m21.76-.66c-3.48 5.22-18.5 12.84-18.5 12.84m9.8 5.88c-5.22 3.92-9.14 5.66-11.75 6.96" fill="none" stroke="#e89687" stroke-linecap="round" stroke-linejoin="round" stroke-miterlimit="10" stroke-width=".654"/></g><defs><circle id="aL" cx="131.87" cy="131.87" r="129"/></defs><clipPath id="aM"><use xlink:href="#aL" overflow="visible"/></clipPath><g clip-path="url(#aM)"><path d="m207.24 158.2 23.6-1.56c2.56-.17 6.34 2.83 5.93 5.36l-11.83 61.18a8.596 8.596 0 0 1-7.57 7.17l-24.82 2.66c-2.62.28-4.79-2.02-4.36-4.62l10.32-62.26a9.47 9.47 0 0 1 8.73-7.93z" fill="#df6d59"/><path d="m208.38 159.66 24.31-1.61c2.56-.17 4.62 2.09 4.2 4.63l-10.11 61.92a8.596 8.596 0 0 1-7.57 7.17l-24.82 2.66c-2.62.28-4.79-2.02-4.36-4.62l10.43-62.96c.66-3.95 3.94-6.93 7.92-7.19z" fill="#9fccd2"/><path d="M213.01 170.76c-.33 2.13-2.2 3.61-4.19 3.31-1.99-.3-3.34-2.28-3.01-4.41.33-2.13 2.2-3.61 4.19-3.31 1.99.31 3.33 2.28 3.01 4.41z" fill="#153745"/><path d="M155.01 36.06c5.66 10.88 11.97 6.75 20.89 14.58s8.49 16.98 5.88 25.46c0 0 11.1 2.61 11.32 15.89.22 13.28-11.1 19.81-10.01 31.78 1.09 11.97 9.79 30.47-4.14 45.05-13.93 14.58-28.08 18.28-28.08 18.28l-90.54-28.73s-29.16 2.61-43.31-10.66C2.87 134.43 7.01 125.29 4.18 118.54s-12.79-10.8-19.37-20.46c-6.96-10.23-3.26-22.2.65-28.73 3.92-6.53 13.06-11.97 11.75-21.76C-4.1 37.8-.83 22.56 12.66 19.95c13.49-2.61 16.11 4.14 24.81 3.92 8.72-.22 10.89-11.97 23.73-14.15 12.84-2.18 18.5 5.22 25.03 10.45 6.53 5.22 15.89 4.35 23.29-1.09 7.4-5.44 23.51-5.44 28.51 4.57 5.01 10.01 11.97 2.79 16.98 12.41z" fill="#e4833c"/><path d="M170.62 81.3c5.2-6.15 3.02-16.38-1.66-19.63-8.52-5.91-14.67 1.89-22-4.97-7.33-6.86-11.83-11.12-21.76-8.75-9.94 2.37-11.83 6.39-18.69 1.89-6.86-4.49-8.7-7.57-18.45-5.44-7.57 1.66-7.81 8.75-19.4 8.28s-9.23-7.33-18.21-7.33c-10.74 0-8.28 6.39-17.74 8.75-9.46 2.37-12.77-5.91-21.76-4.97-8.99.94-7.34 12.06-18.22 15.61" fill="none" stroke="#000" stroke-linecap="round" stroke-linejoin="round" stroke-miterlimit="10" stroke-width=".654"/><path d="M151.07 74.25c-1.4-6.98-11.4-11.63-18.38-8.84-6.98 2.79-11.4 8.14-20.24 4.65-8.84-3.49-15.82-1.86-21.17 3.49-5.34 5.35-16.28 6.05-23.49-.23-8.71-7.58-16.05-2.79-21.63 4.19-5.58 6.98-12.79 8.37-20.24 5.12-7.44-3.26-18.14-2.79-24.66 6.51-6.51 9.3-16.28 6.28-16.28 6.28m22.89 26.93c13.33 4.28 19.04-7.86 24.28-13.33 5.24-5.48 12-6.87 24.28-2.38 12.38 4.52 19.28-.71 25.23-11.43 5.4-9.71 16.04-10.11 23.33-8.09 6.9 1.9 12.85 6.67 21.9 5.48m-12.61 15.81c-5.21.39-13.51-5.06-20.93 6.14-7.46 11.25-19.42 12.6-29.83 12.69-13.3.11-14.9 10.93-18.23 19.03-3.33 8.1-8.97 8.52-8.97 8.52M23.67 34.61c9.75 4.12 20.59 3.25 27.31-1.73 6.72-4.98 16.25-8.89 24.06-2.6 7.8 6.29 16.9 8.89 26.22 5.2 9.32-3.68 16.25-9.32 24.92-4.55s6.72 9.1 17.56 9.75c10.84.65 10.62 7.8 12.14 12.57m25.9 22.85c-1.74 7.62-6.09 11.75-6.09 11.75" fill="none" stroke="#000" stroke-linecap="round" stroke-linejoin="round" stroke-miterlimit="10" stroke-width=".654"/><path d="M99.58 122.69c-5.62 2.92-11.08 5.41-18.68 8.15-8.16 2.94-22.85 9.14-31.34 26.77-9.13 18.96-12.73 38.2-16.32 64.64-3.59 26.44-16 68.23-16 68.23s17.3 15.67 43.09 15.67 35.91-6.53 35.91-6.53 8.81-28.73 12.08-34.6c0 0 15.02 1.96 29.06-.65s24.16-4.9 24.16-4.9l-5.88-47.66-24.16-71.17-31.92-17.95z" fill="#148190"/><path d="M147.6 188.23c.02 0 .04 0 .05-.01l-.37-1.08a.58.58 0 0 0-.28.5c.01.33.28.59.6.59zm-5.89 4.71c-.33 0-.59.26-.59.59a.591.591 0 1 0 .59-.59z" fill="#1d1d1b"/><circle fill="#1d1d1b" cx="141.71" cy="181.75" r=".59"/><path d="M153.49 216.51c-.33 0-.59.26-.59.59 0 .33.26.59.59.59.33 0 .59-.26.59-.59 0-.33-.26-.59-.59-.59zm0-10.61c.05 0 .11-.01.16-.02l-.38-1.11a.59.59 0 0 0-.37.55c0 .32.27.58.59.58zm-5.89 4.71c-.33 0-.59.26-.59.59a.591.591 0 1 0 .59-.59zm0-11.78c-.33 0-.59.26-.59.59a.591.591 0 1 0 .59-.59zm-5.89 17.68c-.33 0-.59.26-.59.59a.591.591 0 1 0 .59-.59zm0-11.79c-.33 0-.59.26-.59.59a.591.591 0 1 0 .59-.59zm11.78 35.35c-.33 0-.59.26-.59.59 0 .33.26.59.59.59.33 0 .59-.26.59-.59 0-.33-.26-.59-.59-.59z" fill="#1d1d1b"/><circle fill="#1d1d1b" cx="153.49" cy="228.87" r=".59"/><circle fill="#1d1d1b" cx="147.6" cy="234.77" r=".59"/><path d="M147.6 222.4c-.33 0-.59.26-.59.59a.591.591 0 1 0 .59-.59zm-5.89 17.67c-.33 0-.59.26-.59.59a.591.591 0 1 0 .59-.59z" fill="#1d1d1b"/><circle fill="#1d1d1b" cx="141.71" cy="228.87" r=".59"/><path d="M153.49 251.85c-.33 0-.59.26-.59.59 0 .33.26.59.59.59.33 0 .59-.26.59-.59 0-.33-.26-.59-.59-.59zm5.89 5.89c-.33 0-.59.26-.59.59a.591.591 0 1 0 .59-.59zm-11.78 0c-.33 0-.59.26-.59.59a.591.591 0 1 0 .59-.59zm11.78-10.6c.28 0 .52-.2.57-.46l-.05-.38a.59.59 0 0 0-.53-.33c-.33 0-.59.26-.59.59.01.31.28.58.6.58zm-11.78-1.18c-.33 0-.59.26-.59.59a.591.591 0 1 0 .59-.59zm-5.89 5.89c-.33 0-.59.26-.59.59a.591.591 0 1 0 .59-.59zm-11.78-106.03c-.33 0-.59.26-.59.59a.591.591 0 1 0 .59-.59zm-5.89-5.89c-.33 0-.59.26-.59.59a.591.591 0 1 0 .59-.59zm-5.89 5.89c-.33 0-.59.26-.59.59a.591.591 0 1 0 .59-.59zm0-11.78c-.33 0-.59.26-.59.59a.591.591 0 1 0 .59-.59zm11.78 35.34c-.33 0-.59.26-.59.59a.591.591 0 1 0 .59-.59zm0-11.78c-.33 0-.59.26-.59.59a.591.591 0 1 0 .59-.59zm5.89 5.89c-.33 0-.59.26-.59.59 0 .33.26.59.59.59a.591.591 0 0 0 0-1.18zm-11.78 0c-.33 0-.59.26-.59.59a.591.591 0 1 0 .59-.59zm11.61-10.63-.31-.9a.582.582 0 0 0 .31.9zm-11.61-1.15c-.33 0-.59.26-.59.59a.591.591 0 1 0 .59-.59zm-5.89 17.67c-.33 0-.59.26-.59.59a.591.591 0 1 0 .59-.59zm0-11.78c-.33 0-.59.26-.59.59a.591.591 0 1 0 .59-.59zm11.78 35.34c-.33 0-.59.26-.59.59a.591.591 0 1 0 .59-.59zm0-11.78c-.33 0-.59.26-.59.59a.591.591 0 1 0 .59-.59zm5.89 5.89c-.33 0-.59.26-.59.59 0 .33.26.59.59.59a.591.591 0 0 0 0-1.18zm-11.78 0c-.33 0-.59.26-.59.59a.591.591 0 1 0 .59-.59zm11.78-11.78c-.33 0-.59.26-.59.59 0 .33.26.59.59.59a.591.591 0 0 0 0-1.18zm-11.78 0c-.33 0-.59.26-.59.59a.591.591 0 1 0 .59-.59zm-5.89 17.67c-.33 0-.59.26-.59.59a.591.591 0 1 0 .59-.59zm0-11.78c-.33 0-.59.26-.59.59a.591.591 0 1 0 .59-.59zm23.51-10.6-.34-1.01c-.12.11-.19.26-.19.43-.01.3.23.55.53.58zm-11.73 45.95c-.33 0-.59.26-.59.59a.591.591 0 1 0 .59-.59zm0-11.79c-.33 0-.59.26-.59.59a.591.591 0 1 0 .59-.59zm5.89 5.89c-.33 0-.59.26-.59.59 0 .33.26.59.59.59a.591.591 0 0 0 0-1.18zm-11.78 0c-.33 0-.59.26-.59.59a.591.591 0 1 0 .59-.59zm11.78-11.78c-.33 0-.59.26-.59.59 0 .33.26.59.59.59a.591.591 0 0 0 0-1.18zm-11.78 0c-.33 0-.59.26-.59.59a.591.591 0 1 0 .59-.59zm-5.89 17.68c-.33 0-.59.26-.59.59a.591.591 0 1 0 .59-.59zm0-11.79c-.33 0-.59.26-.59.59a.591.591 0 1 0 .59-.59zm11.78 35.35c-.33 0-.59.26-.59.59a.591.591 0 1 0 .59-.59zm0-11.78c-.33 0-.59.26-.59.59a.591.591 0 1 0 .59-.59zm5.89 5.89c-.33 0-.59.26-.59.59 0 .33.26.59.59.59.33 0 .59-.26.59-.59 0-.33-.26-.59-.59-.59zm-11.78 0c-.33 0-.59.26-.59.59a.591.591 0 1 0 .59-.59zm11.78-11.78c-.33 0-.59.26-.59.59 0 .33.26.59.59.59.33 0 .59-.26.59-.59 0-.33-.26-.59-.59-.59zm-11.78 0c-.33 0-.59.26-.59.59a.591.591 0 1 0 .59-.59zm-5.89 17.67c-.33 0-.59.26-.59.59a.591.591 0 1 0 .59-.59zm0-11.78c-.33 0-.59.26-.59.59a.591.591 0 1 0 .59-.59zm11.78 35.34c-.33 0-.59.26-.59.59a.591.591 0 1 0 .59-.59zm0-11.78c-.33 0-.59.26-.59.59a.591.591 0 1 0 .59-.59zm5.89 5.89c-.33 0-.59.26-.59.59 0 .33.26.59.59.59.33 0 .59-.26.59-.59 0-.33-.26-.59-.59-.59zm-11.78 0c-.33 0-.59.26-.59.59a.591.591 0 1 0 .59-.59zm11.78-11.78c-.33 0-.59.26-.59.59 0 .33.26.59.59.59.33 0 .59-.26.59-.59 0-.33-.26-.59-.59-.59zm-11.78 0c-.33 0-.59.26-.59.59a.591.591 0 1 0 .59-.59zm-5.89 17.67c-.33 0-.59.26-.59.59a.591.591 0 1 0 .59-.59zm0-11.78c-.33 0-.59.26-.59.59a.591.591 0 1 0 .59-.59zm-11.78-106.03c-.33 0-.59.26-.59.59a.591.591 0 1 0 .59-.59z" fill="#1d1d1b"/><circle fill="#1d1d1b" cx="106.37" cy="134.63" r=".59"/><path d="M112.26 139.93c-.33 0-.59.26-.59.59a.591.591 0 1 0 .59-.59zm-11.78 0c-.33 0-.59.26-.59.59a.591.591 0 0 0 1.18 0c0-.32-.27-.59-.59-.59zm0-11.78c-.33 0-.59.26-.59.59a.591.591 0 1 0 .59-.59zm-5.89 17.67c-.33 0-.59.26-.59.59a.591.591 0 0 0 1.18 0c0-.32-.27-.59-.59-.59z" fill="#1d1d1b"/><circle fill="#1d1d1b" cx="94.59" cy="134.63" r=".59"/><path d="M106.37 169.38c-.33 0-.59.26-.59.59a.591.591 0 1 0 .59-.59zm0-11.78c-.33 0-.59.26-.59.59a.591.591 0 1 0 .59-.59zm5.89 5.89c-.33 0-.59.26-.59.59a.591.591 0 1 0 .59-.59zm-11.78 0c-.33 0-.59.26-.59.59a.591.591 0 0 0 1.18 0c0-.32-.27-.59-.59-.59zm11.78-11.78c-.33 0-.59.26-.59.59a.591.591 0 1 0 .59-.59zm-11.78 0c-.33 0-.59.26-.59.59a.591.591 0 0 0 1.18 0c0-.32-.27-.59-.59-.59zm-5.89 17.67c-.33 0-.59.26-.59.59a.591.591 0 0 0 1.18 0c0-.32-.27-.59-.59-.59zm0-11.78c-.33 0-.59.26-.59.59a.591.591 0 0 0 1.18 0c0-.32-.27-.59-.59-.59zm11.78 35.34c-.33 0-.59.26-.59.59a.591.591 0 1 0 .59-.59z" fill="#1d1d1b"/><circle fill="#1d1d1b" cx="106.37" cy="181.75" r=".59"/><path d="M112.26 187.05c-.33 0-.59.26-.59.59a.591.591 0 1 0 .59-.59zm-11.78 0c-.33 0-.59.26-.59.59a.591.591 0 0 0 1.18 0c0-.32-.27-.59-.59-.59zm11.78-11.78c-.33 0-.59.26-.59.59a.591.591 0 1 0 .59-.59zm-11.78 0c-.33 0-.59.26-.59.59a.591.591 0 0 0 1.18 0c0-.32-.27-.59-.59-.59zm-5.89 17.67c-.33 0-.59.26-.59.59a.591.591 0 0 0 1.18 0c0-.32-.27-.59-.59-.59z" fill="#1d1d1b"/><circle fill="#1d1d1b" cx="94.59" cy="181.75" r=".59"/><path d="M106.37 216.51c-.33 0-.59.26-.59.59a.591.591 0 1 0 .59-.59zm0-11.79c-.33 0-.59.26-.59.59a.591.591 0 1 0 .59-.59zm5.89 5.89c-.33 0-.59.26-.59.59a.591.591 0 1 0 .59-.59zm-11.78 0c-.33 0-.59.26-.59.59a.591.591 0 0 0 1.18 0c0-.32-.27-.59-.59-.59zm11.78-11.78c-.33 0-.59.26-.59.59a.591.591 0 1 0 .59-.59zm-11.78 0c-.33 0-.59.26-.59.59a.591.591 0 0 0 1.18 0c0-.32-.27-.59-.59-.59zm-5.89 17.68c-.33 0-.59.26-.59.59a.591.591 0 1 0 .59-.59zm0-11.79c-.33 0-.59.26-.59.59a.591.591 0 0 0 1.18 0c0-.32-.27-.59-.59-.59zm11.78 35.35c-.33 0-.59.26-.59.59a.591.591 0 1 0 .59-.59z" fill="#1d1d1b"/><circle fill="#1d1d1b" cx="106.37" cy="228.87" r=".59"/><circle fill="#1d1d1b" cx="112.26" cy="234.77" r=".59"/><circle fill="#1d1d1b" cx="100.48" cy="234.77" r=".59"/><path d="M112.26 222.4c-.33 0-.59.26-.59.59a.591.591 0 1 0 .59-.59zm-11.78 0c-.33 0-.59.26-.59.59a.591.591 0 1 0 .59-.59zm-5.89 17.67c-.33 0-.59.26-.59.59a.591.591 0 1 0 .59-.59z" fill="#1d1d1b"/><circle fill="#1d1d1b" cx="94.59" cy="228.87" r=".59"/><circle fill="#1d1d1b" cx="106.37" cy="264.22" r=".59"/><path d="M106.37 251.85c-.33 0-.59.26-.59.59a.591.591 0 1 0 .59-.59zm5.89 5.89c-.33 0-.59.26-.59.59a.591.591 0 1 0 .59-.59zm-11.78 0c-.33 0-.59.26-.59.59a.591.591 0 1 0 .59-.59zm11.78-11.78c-.33 0-.59.26-.59.59a.591.591 0 1 0 .59-.59zm-11.78 0c-.33 0-.59.26-.59.59a.591.591 0 1 0 .59-.59z" fill="#1d1d1b"/><circle fill="#1d1d1b" cx="94.59" cy="264.22" r=".59"/><path d="M94.59 251.85c-.33 0-.59.26-.59.59a.591.591 0 1 0 .59-.59z" fill="#1d1d1b"/><circle fill="#1d1d1b" cx="100.48" cy="281.89" r=".59"/><circle fill="#1d1d1b" cx="100.48" cy="270.11" r=".59"/><circle fill="#1d1d1b" cx="94.59" cy="276" r=".59"/><path d="M94.59 298.97c-.33 0-.59.26-.59.59a.591.591 0 1 0 .59-.59zM82.81 145.82c-.33 0-.59.26-.59.59a.591.591 0 0 0 1.18 0c0-.32-.27-.59-.59-.59zm0-11.78c-.33 0-.59.26-.59.59a.591.591 0 1 0 .59-.59zm5.89 5.89c-.33 0-.59.26-.59.59 0 .33.26.59.59.59.33 0 .59-.26.59-.59 0-.32-.27-.59-.59-.59zm-11.78 0c-.33 0-.59.26-.59.59 0 .33.26.59.59.59.33 0 .59-.26.59-.59 0-.32-.27-.59-.59-.59zm11.78-11.78c-.33 0-.59.26-.59.59 0 .33.26.59.59.59a.591.591 0 0 0 0-1.18zm-17.67 17.67c-.33 0-.59.26-.59.59a.591.591 0 0 0 1.18 0c0-.32-.27-.59-.59-.59zm.52-10.93-.6.32c.02 0 .05.01.07.01.24 0 .44-.14.53-.33zm11.26 34.49c-.33 0-.59.26-.59.59a.591.591 0 0 0 1.18 0c0-.32-.27-.59-.59-.59zm0-11.78c-.33 0-.59.26-.59.59a.591.591 0 0 0 1.18 0c0-.32-.27-.59-.59-.59zm5.89 5.89c-.33 0-.59.26-.59.59 0 .33.26.59.59.59.33 0 .59-.26.59-.59 0-.32-.27-.59-.59-.59zm-11.78 0c-.33 0-.59.26-.59.59 0 .33.26.59.59.59.33 0 .59-.26.59-.59 0-.32-.27-.59-.59-.59zm11.78-11.78c-.33 0-.59.26-.59.59 0 .33.26.59.59.59.33 0 .59-.26.59-.59 0-.32-.27-.59-.59-.59zm-11.78 0c-.33 0-.59.26-.59.59 0 .33.26.59.59.59.33 0 .59-.26.59-.59 0-.32-.27-.59-.59-.59zm-5.89 17.67c-.33 0-.59.26-.59.59a.591.591 0 0 0 1.18 0c0-.32-.27-.59-.59-.59zm0-11.78c-.33 0-.59.26-.59.59a.591.591 0 0 0 1.18 0c0-.32-.27-.59-.59-.59zm11.78 35.34c-.33 0-.59.26-.59.59a.591.591 0 0 0 1.18 0c0-.32-.27-.59-.59-.59zm0-11.78c-.33 0-.59.26-.59.59a.591.591 0 0 0 1.18 0c0-.32-.27-.59-.59-.59zm5.89 5.89c-.33 0-.59.26-.59.59 0 .33.26.59.59.59.33 0 .59-.26.59-.59 0-.32-.27-.59-.59-.59zm-11.78 0c-.33 0-.59.26-.59.59 0 .33.26.59.59.59.33 0 .59-.26.59-.59 0-.32-.27-.59-.59-.59zm11.78-11.78c-.33 0-.59.26-.59.59 0 .33.26.59.59.59.33 0 .59-.26.59-.59 0-.32-.27-.59-.59-.59zm-11.78 0c-.33 0-.59.26-.59.59 0 .33.26.59.59.59.33 0 .59-.26.59-.59 0-.32-.27-.59-.59-.59zm-5.89 17.67c-.33 0-.59.26-.59.59a.591.591 0 0 0 1.18 0c0-.32-.27-.59-.59-.59zm0-11.78c-.33 0-.59.26-.59.59a.591.591 0 0 0 1.18 0c0-.32-.27-.59-.59-.59zm11.78 35.35c-.33 0-.59.26-.59.59a.591.591 0 1 0 .59-.59zm0-11.79c-.33 0-.59.26-.59.59a.591.591 0 0 0 1.18 0c0-.32-.27-.59-.59-.59zm5.89 5.89c-.33 0-.59.26-.59.59 0 .33.26.59.59.59.33 0 .59-.26.59-.59 0-.32-.27-.59-.59-.59zm-11.78 0c-.33 0-.59.26-.59.59 0 .33.26.59.59.59.33 0 .59-.26.59-.59 0-.32-.27-.59-.59-.59zm11.78-11.78c-.33 0-.59.26-.59.59 0 .33.26.59.59.59.33 0 .59-.26.59-.59 0-.32-.27-.59-.59-.59zm-11.78 0c-.33 0-.59.26-.59.59 0 .33.26.59.59.59.33 0 .59-.26.59-.59 0-.32-.27-.59-.59-.59zm-5.89 17.68c-.33 0-.59.26-.59.59a.591.591 0 1 0 .59-.59zm0-11.79c-.33 0-.59.26-.59.59a.591.591 0 0 0 1.18 0c0-.32-.27-.59-.59-.59zm11.78 35.35c-.33 0-.59.26-.59.59a.591.591 0 1 0 .59-.59zm0-11.78c-.33 0-.59.26-.59.59a.591.591 0 1 0 .59-.59z" fill="#1d1d1b"/><circle fill="#1d1d1b" cx="88.7" cy="234.77" r=".59"/><path d="M76.92 234.18c-.33 0-.59.26-.59.59 0 .33.26.59.59.59a.591.591 0 0 0 0-1.18zM88.7 222.4c-.33 0-.59.26-.59.59 0 .33.26.59.59.59a.591.591 0 0 0 0-1.18zm-11.78 0c-.33 0-.59.26-.59.59 0 .33.26.59.59.59a.591.591 0 0 0 0-1.18zm-5.89 17.67c-.33 0-.59.26-.59.59a.591.591 0 1 0 .59-.59zm0-11.78c-.33 0-.59.26-.59.59a.591.591 0 1 0 .59-.59zm11.78 35.34c-.33 0-.59.26-.59.59a.591.591 0 1 0 .59-.59zm0-11.78c-.33 0-.59.26-.59.59a.591.591 0 1 0 .59-.59zm5.89 5.89c-.33 0-.59.26-.59.59 0 .33.26.59.59.59a.591.591 0 0 0 0-1.18zm-11.78 0c-.33 0-.59.26-.59.59 0 .33.26.59.59.59a.591.591 0 0 0 0-1.18zm11.78-11.78c-.33 0-.59.26-.59.59 0 .33.26.59.59.59a.591.591 0 0 0 0-1.18zm-11.78 0c-.33 0-.59.26-.59.59 0 .33.26.59.59.59a.591.591 0 0 0 0-1.18zm-5.89 17.67c-.33 0-.59.26-.59.59a.591.591 0 1 0 .59-.59zm0-11.78c-.33 0-.59.26-.59.59a.591.591 0 1 0 .59-.59zm11.78 35.34c-.33 0-.59.26-.59.59a.591.591 0 1 0 .59-.59zm0-11.78c-.33 0-.59.26-.59.59a.591.591 0 1 0 .59-.59z" fill="#1d1d1b"/><circle fill="#1d1d1b" cx="88.7" cy="281.89" r=".59"/><circle fill="#1d1d1b" cx="88.7" cy="270.11" r=".59"/><path d="M76.92 269.52c-.33 0-.59.26-.59.59 0 .33.26.59.59.59a.591.591 0 0 0 0-1.18zm-5.89 17.67c-.33 0-.59.26-.59.59a.591.591 0 1 0 .59-.59zm0-11.78c-.33 0-.59.26-.59.59a.591.591 0 1 0 .59-.59zm11.78 23.56c-.33 0-.59.26-.59.59a.591.591 0 1 0 .59-.59zm-6.41 6.21c.32-.04.64-.08.96-.13a.584.584 0 0 0-.43-.2c-.24.01-.44.14-.53.33zm12.3-12.1c-.33 0-.59.26-.59.59 0 .33.26.59.59.59a.591.591 0 0 0 0-1.18zm-11.78 0c-.33 0-.59.26-.59.59 0 .33.26.59.59.59a.591.591 0 0 0 0-1.18zm-5.89 5.89c-.33 0-.59.26-.59.59a.591.591 0 1 0 .59-.59zM59.25 145.82c-.33 0-.59.26-.59.59 0 .33.26.59.59.59.33 0 .59-.26.59-.59 0-.32-.27-.59-.59-.59zm5.89-5.89c-.33 0-.59.26-.59.59a.591.591 0 0 0 1.18 0c0-.32-.27-.59-.59-.59zm-5.89 29.45c-.33 0-.59.26-.59.59 0 .33.26.59.59.59.33 0 .59-.26.59-.59 0-.32-.27-.59-.59-.59zm0-11.78c-.33 0-.59.26-.59.59 0 .33.26.59.59.59.33 0 .59-.26.59-.59 0-.32-.27-.59-.59-.59zm5.89 5.89c-.33 0-.59.26-.59.59a.591.591 0 0 0 1.18 0c0-.32-.27-.59-.59-.59zm-11.78 0c-.33 0-.59.26-.59.59a.591.591 0 0 0 1.18 0c0-.32-.27-.59-.59-.59zm11.78-11.78c-.33 0-.59.26-.59.59a.591.591 0 0 0 1.18 0c0-.32-.27-.59-.59-.59zm-11.78 0c-.33 0-.59.26-.59.59a.591.591 0 0 0 1.18 0c0-.32-.27-.59-.59-.59zm-5.89 17.67c-.33 0-.59.26-.59.59 0 .33.26.59.59.59.33 0 .59-.26.59-.59 0-.32-.27-.59-.59-.59zm11.78 23.56c-.33 0-.59.26-.59.59 0 .33.26.59.59.59.33 0 .59-.26.59-.59 0-.32-.27-.59-.59-.59z" fill="#1d1d1b"/><circle fill="#1d1d1b" cx="59.25" cy="181.75" r=".59"/><path d="M65.14 187.05c-.33 0-.59.26-.59.59a.591.591 0 0 0 1.18 0c0-.32-.27-.59-.59-.59zm-11.78 0c-.33 0-.59.26-.59.59a.591.591 0 0 0 1.18 0c0-.32-.27-.59-.59-.59zm11.78-11.78c-.33 0-.59.26-.59.59a.591.591 0 0 0 1.18 0c0-.32-.27-.59-.59-.59zm-11.78 0c-.33 0-.59.26-.59.59a.591.591 0 0 0 1.18 0c0-.32-.27-.59-.59-.59zm-5.89 17.67c-.33 0-.59.26-.59.59 0 .33.26.59.59.59.33 0 .59-.26.59-.59 0-.32-.27-.59-.59-.59z" fill="#1d1d1b"/><circle fill="#1d1d1b" cx="47.47" cy="181.75" r=".59"/><path d="M59.25 216.51c-.33 0-.59.26-.59.59 0 .33.26.59.59.59a.591.591 0 0 0 0-1.18zm0-11.79c-.33 0-.59.26-.59.59 0 .33.26.59.59.59.33 0 .59-.26.59-.59 0-.32-.27-.59-.59-.59zm5.89 5.89c-.33 0-.59.26-.59.59a.591.591 0 0 0 1.18 0c0-.32-.27-.59-.59-.59zm-11.78 0c-.33 0-.59.26-.59.59a.591.591 0 0 0 1.18 0c0-.32-.27-.59-.59-.59zm11.78-11.78c-.33 0-.59.26-.59.59a.591.591 0 0 0 1.18 0c0-.32-.27-.59-.59-.59zm-11.78 0c-.33 0-.59.26-.59.59a.591.591 0 0 0 1.18 0c0-.32-.27-.59-.59-.59zm-5.89 17.68c-.33 0-.59.26-.59.59 0 .33.26.59.59.59a.591.591 0 0 0 0-1.18zm0-11.79c-.33 0-.59.26-.59.59 0 .33.26.59.59.59.33 0 .59-.26.59-.59 0-.32-.27-.59-.59-.59zm11.78 35.35c-.33 0-.59.26-.59.59 0 .33.26.59.59.59a.591.591 0 0 0 0-1.18z" fill="#1d1d1b"/><circle fill="#1d1d1b" cx="59.25" cy="228.87" r=".59"/><circle fill="#1d1d1b" cx="65.14" cy="234.77" r=".59"/><circle fill="#1d1d1b" cx="53.36" cy="234.77" r=".59"/><path d="M65.14 222.4c-.33 0-.59.26-.59.59a.591.591 0 1 0 .59-.59zm-11.78 0c-.33 0-.59.26-.59.59a.591.591 0 1 0 .59-.59zm-5.89 17.67c-.33 0-.59.26-.59.59 0 .33.26.59.59.59a.591.591 0 0 0 0-1.18z" fill="#1d1d1b"/><circle fill="#1d1d1b" cx="47.47" cy="228.87" r=".59"/><circle fill="#1d1d1b" cx="59.25" cy="264.22" r=".59"/><path d="M59.25 251.85c-.33 0-.59.26-.59.59 0 .33.26.59.59.59a.591.591 0 0 0 0-1.18zm5.89 5.89c-.33 0-.59.26-.59.59a.591.591 0 1 0 .59-.59zm-11.78 0c-.33 0-.59.26-.59.59a.591.591 0 1 0 .59-.59zm11.78-11.78c-.33 0-.59.26-.59.59a.591.591 0 1 0 .59-.59zm-11.78 0c-.33 0-.59.26-.59.59a.591.591 0 1 0 .59-.59z" fill="#1d1d1b"/><circle fill="#1d1d1b" cx="47.47" cy="264.22" r=".59"/><path d="M47.47 251.85c-.33 0-.59.26-.59.59 0 .33.26.59.59.59a.591.591 0 0 0 0-1.18zm11.78 35.34c-.33 0-.59.26-.59.59 0 .33.26.59.59.59a.591.591 0 0 0 0-1.18z" fill="#1d1d1b"/><circle fill="#1d1d1b" cx="59.25" cy="276" r=".59"/><circle fill="#1d1d1b" cx="65.14" cy="281.89" r=".59"/><circle fill="#1d1d1b" cx="53.36" cy="281.89" r=".59"/><circle fill="#1d1d1b" cx="65.14" cy="270.11" r=".59"/><circle fill="#1d1d1b" cx="53.36" cy="270.11" r=".59"/><circle fill="#1d1d1b" cx="47.47" cy="276" r=".59"/><circle fill="#1d1d1b" cx="65.14" cy="305.45" r=".59"/><path d="M53.36 304.86a.585.585 0 0 0-.53.84c.33.04.66.07.99.11.08-.1.13-.23.13-.36 0-.33-.27-.59-.59-.59zm11.78-11.78c-.33 0-.59.26-.59.59a.591.591 0 1 0 .59-.59zm-11.78 0c-.33 0-.59.26-.59.59a.591.591 0 1 0 .59-.59zm-5.89 5.89c-.33 0-.59.26-.59.59 0 .33.26.59.59.59a.591.591 0 0 0 0-1.18zm-5.89-111.92c-.33 0-.59.26-.59.59 0 .33.26.59.59.59.33 0 .59-.26.59-.59 0-.32-.27-.59-.59-.59zm-5.89 29.46c-.33 0-.59.26-.59.59 0 .33.26.59.59.59a.591.591 0 0 0 0-1.18zm.15-11.76c-.06.38-.13.77-.19 1.15h.04a.585.585 0 0 0 .15-1.15zm5.74 5.86c-.33 0-.59.26-.59.59 0 .33.26.59.59.59.33 0 .59-.26.59-.59 0-.32-.27-.59-.59-.59zm0-11.78c-.33 0-.59.26-.59.59 0 .33.26.59.59.59.33 0 .59-.26.59-.59 0-.32-.27-.59-.59-.59zm-5.89 41.24c-.33 0-.59.26-.59.59 0 .33.26.59.59.59a.591.591 0 0 0 0-1.18zm0-11.78c-.33 0-.59.26-.59.59 0 .33.26.59.59.59a.591.591 0 0 0 0-1.18z" fill="#1d1d1b"/><circle fill="#1d1d1b" cx="41.58" cy="234.77" r=".59"/><path d="M41.58 222.4c-.33 0-.59.26-.59.59 0 .33.26.59.59.59a.591.591 0 0 0 0-1.18zm-5.89 41.23c-.33 0-.59.26-.59.59 0 .33.26.59.59.59a.591.591 0 0 0 0-1.18zm0-11.78c-.33 0-.59.26-.59.59 0 .33.26.59.59.59a.591.591 0 0 0 0-1.18zm5.89 5.89c-.33 0-.59.26-.59.59 0 .33.26.59.59.59a.591.591 0 0 0 0-1.18zm-11.78 0c-.33 0-.59.26-.59.59a.591.591 0 1 0 .59-.59zm11.78-11.78c-.33 0-.59.26-.59.59 0 .33.26.59.59.59a.591.591 0 0 0 0-1.18zm-11.78 0c-.33 0-.59.26-.59.59a.591.591 0 1 0 .59-.59zm-5.38 18.26-.11.43c.11-.11.18-.26.18-.43 0-.06-.01-.12-.03-.18l-.04.18zm11.27 22.97c-.33 0-.59.26-.59.59 0 .33.26.59.59.59a.591.591 0 0 0 0-1.18zm0-11.78c-.33 0-.59.26-.59.59 0 .33.26.59.59.59a.591.591 0 0 0 0-1.18z" fill="#1d1d1b"/><circle fill="#1d1d1b" cx="41.58" cy="281.89" r=".59"/><circle fill="#1d1d1b" cx="41.58" cy="270.11" r=".59"/><path d="M138.45 81.65c-1.27-4.7-8.5-8.32-14.1-3.8-5.61 4.52-5.97 11.21-2.17 16.82 0 0-2.34 5.84-8.31 13.97-5.97 8.14-14.29 14.05-14.29 14.05s1.99 8.79 7.77 18.27c8.16 13.38 18.61 50.6 18.61 50.6-2.33-28.38 2.29-52.23 11.96-63.62 0 0 8.5 1.81 18.08-4.16 11.41-7.1 15.55-16.82 17.9-24.41 2.35-7.59 1.79-11.51 1.79-11.51s-5.48-.43-13-4.58c-5.24-2.89-10.49-3.98-13.92-.9-3.45 3.07-10.32-.73-10.32-.73z" fill="#fcebe0"/><path d="M146.24 97.63c-.85.87-1.61.99-2.25.36-.64-.63-.54-1.39.31-2.26.85-.87 1.61-.99 2.25-.36.65.63.54 1.39-.31 2.26zm16.82 15.52c-.85.87-1.61.99-2.25.36-.64-.63-.54-1.39.31-2.26.85-.87 1.61-.99 2.25-.36.64.63.54 1.39-.31 2.26z"/><path d="M129.04 105.74c-2.09-1.55-2-3.89.27-6.94 2.26-3.06 4.48-3.82 6.56-2.28 2.09 1.55 2 3.89-.27 6.94-2.26 3.06-4.47 3.82-6.56 2.28zm18.63 17.37c-.99-2.4.3-4.36 3.82-5.8 3.52-1.44 5.81-.96 6.8 1.45.99 2.4-.3 4.36-3.82 5.8-3.52 1.43-5.81.95-6.8-1.45z" fill="#f49a86"/><path d="M122.18 94.67c3.98-6.6 11.57-11.93 16.27-13.02m.56 47.23c-4.97-.54-11.5-3.13-14.69-10.45-3.56-8.16-1.63-18.61-1.63-18.61m30.95 2.8c-1.45 2.35-2.17 7.5-1.9 9.58s-3.62.63-7.05-1.45" fill="none" stroke="#e89687" stroke-linecap="round" stroke-linejoin="round" stroke-miterlimit="10" stroke-width=".654"/><path d="M145.97 86.49c4.07 1.65 8.08 4.79 9.75 8.08m5.44 6.81c3.39-.06 7.07 2.17 8.82 4.93" fill="none" stroke="#000" stroke-linecap="round" stroke-linejoin="round" stroke-miterlimit="10" stroke-width="1.963"/><path d="M136.82 110.13c1.36 2.44 5.61 5.88 8.95 6.87" fill="none" stroke="#df6d59" stroke-linecap="round" stroke-linejoin="round" stroke-miterlimit="10" stroke-width="1.963"/><path d="M128.45 79.48c-1.93 2.77-2.89 10.73-2.89 10.73" fill="none" stroke="#e89687" stroke-linecap="round" stroke-linejoin="round" stroke-miterlimit="10" stroke-width=".654"/><path d="M127 170.85c2.21 14.84 12.66 51.4 19.52 66.09 6.86 14.69 25.14 16.98 34.61 9.79 9.47-7.18 7.18-26.44.65-41.79s-19.08-42.37-19.08-42.37l-35.7 8.28z" fill="#148190"/><path d="M165.27 169.38c-.33 0-.59.26-.59.59a.591.591 0 1 0 .59-.59zm5.89 17.67c-.33 0-.59.26-.59.59a.591.591 0 1 0 .59-.59zm-5.89 5.89c-.33 0-.59.26-.59.59a.591.591 0 1 0 .59-.59z" fill="#1d1d1b"/><circle fill="#1d1d1b" cx="165.27" cy="181.75" r=".59"/><path d="M177.05 216.51c-.33 0-.59.26-.59.59a.591.591 0 1 0 .59-.59zm0-11.79c-.33 0-.59.26-.59.59a.591.591 0 1 0 .59-.59zm5.89 7.07a.591.591 0 1 0-.59-.59c0 .33.27.59.59.59zm-11.78-1.18c-.33 0-.59.26-.59.59a.591.591 0 1 0 .59-.59zm0-11.78c-.33 0-.59.26-.59.59a.591.591 0 1 0 .59-.59zm-5.89 17.68c-.33 0-.59.26-.59.59a.591.591 0 1 0 .59-.59zm0-11.79c-.33 0-.59.26-.59.59a.591.591 0 1 0 .59-.59zm11.78-10.6-.44-.98a.59.59 0 0 0-.15.39c0 .33.27.59.59.59zm0 45.95c-.33 0-.59.26-.59.59a.591.591 0 1 0 .59-.59zm0-11.78c-.33 0-.59.26-.59.59a.591.591 0 1 0 .59-.59zm5.89 5.89c-.33 0-.59.26-.59.59 0 .33.26.59.59.59.33 0 .59-.26.59-.59 0-.33-.26-.59-.59-.59zm-11.78 0c-.33 0-.59.26-.59.59a.591.591 0 1 0 .59-.59zm11.78-11.78c-.33 0-.59.26-.59.59 0 .33.26.59.59.59.33 0 .59-.26.59-.59 0-.33-.26-.59-.59-.59zm-11.78 0c-.33 0-.59.26-.59.59a.591.591 0 1 0 .59-.59zm-5.89 17.67c-.33 0-.59.26-.59.59a.591.591 0 1 0 .59-.59z" fill="#1d1d1b"/><circle fill="#1d1d1b" cx="165.27" cy="228.87" r=".59"/><path d="M171.16 245.96c-.33 0-.59.26-.59.59a.591.591 0 1 0 .59-.59zm-17.67-76.58c-.33 0-.59.26-.59.59 0 .33.26.59.59.59a.591.591 0 0 0 0-1.18zm5.89-5.89c-.33 0-.59.26-.59.59a.591.591 0 1 0 .59-.59zm-17.67 5.89c-.33 0-.59.26-.59.59a.591.591 0 1 0 .59-.59zm11.78 23.56c-.33 0-.59.26-.59.59 0 .33.26.59.59.59a.591.591 0 0 0 0-1.18z" fill="#1d1d1b"/><circle fill="#1d1d1b" cx="153.49" cy="181.75" r=".59"/><path d="M159.38 187.05c-.33 0-.59.26-.59.59a.591.591 0 1 0 .59-.59zm-11.78 0c-.33 0-.59.26-.59.59a.591.591 0 1 0 .59-.59zm11.78-11.78c-.33 0-.59.26-.59.59a.591.591 0 1 0 .59-.59zm-11.78 0c-.33 0-.59.26-.59.59a.591.591 0 1 0 .59-.59zm-5.89 17.67c-.33 0-.59.26-.59.59a.591.591 0 1 0 .59-.59z" fill="#1d1d1b"/><circle fill="#1d1d1b" cx="141.71" cy="181.75" r=".59"/><path d="M153.49 216.51c-.33 0-.59.26-.59.59 0 .33.26.59.59.59.33 0 .59-.26.59-.59 0-.33-.26-.59-.59-.59zm0-11.79c-.33 0-.59.26-.59.59 0 .33.26.59.59.59a.591.591 0 0 0 0-1.18zm5.89 5.89c-.33 0-.59.26-.59.59a.591.591 0 1 0 .59-.59zm-11.78 0c-.33 0-.59.26-.59.59a.591.591 0 1 0 .59-.59zm11.78-11.78c-.33 0-.59.26-.59.59a.591.591 0 1 0 .59-.59zm-11.78 0c-.33 0-.59.26-.59.59a.591.591 0 1 0 .59-.59zm-5.89 17.68c-.33 0-.59.26-.59.59a.591.591 0 1 0 .59-.59zm0-11.79c-.33 0-.59.26-.59.59a.591.591 0 1 0 .59-.59zm11.78 35.35c-.33 0-.59.26-.59.59 0 .33.26.59.59.59.33 0 .59-.26.59-.59 0-.33-.26-.59-.59-.59z" fill="#1d1d1b"/><circle fill="#1d1d1b" cx="153.49" cy="228.87" r=".59"/><circle fill="#1d1d1b" cx="159.38" cy="234.77" r=".59"/><circle fill="#1d1d1b" cx="147.6" cy="234.77" r=".59"/><path d="M159.38 222.4c-.33 0-.59.26-.59.59a.591.591 0 1 0 .59-.59zm-11.78 0c-.33 0-.59.26-.59.59a.591.591 0 1 0 .59-.59zm11.78 23.56c-.33 0-.59.26-.59.59a.591.591 0 1 0 .59-.59zm-29.45-64.8c-.33 0-.59.26-.59.59a.591.591 0 1 0 .59-.59zm5.89 5.89c-.33 0-.59.26-.59.59 0 .33.26.59.59.59a.591.591 0 0 0 0-1.18zm0-11.78c-.33 0-.59.26-.59.59 0 .33.26.59.59.59a.591.591 0 0 0 0-1.18zm-5.89-4.71c.3 0 .55-.23.58-.53l-1.08.25c.11.17.29.28.5.28zm5.89 28.27c-.33 0-.59.26-.59.59 0 .33.26.59.59.59a.591.591 0 0 0 0-1.18z" fill="#1d1d1b"/><path d="M153.41 130.37s-13.78-4.06-20.17-1.45c-6.38 2.61-8.13 8.42-9.14 17.85-1.02 9.43 2.9 24.09 2.9 24.09s9.58 2.47 19.59-.44c10.01-2.9 16.11-7.84 16.11-7.84s-1.31-5.51-.73-8.42c0 0 9.2-.07 13.93-4.5 5.11-4.79 8.6-10.41 10.34-14.91 1.74-4.5 4.03-9.58 2.61-13.49-.78-2.16-1.96-2.5-1.96-2.5s-.54-4.79-4.46-5.33-5.66-.11-5.66-.11-3.26-1.85-6.2-.33-3.92 2.94-3.92 2.94-3.81-1.74-7.84 1.2c-4.03 2.94-5.22 6.03-4.35 7.42.87 1.39 2.17 2.04 2.17 2.04l-3.22 3.78z" fill="#f2ded0"/><path d="M154.46 124.55c.1.17.21.32.33.47 1.24-1.41 4.65-5.57 4.02-7.89-4.02 2.94-5.21 6.03-4.35 7.42z" fill="#df6d59"/><path d="M166.65 115.93c3.7 2.07 3.59 4.68 2.29 8.49-1.31 3.81-4.14 7.29-5.11 8.6m-7.19-6.43c2.83-3.16 5.33-5.01 5.33-5.01m14.8-8.26c2.07 2.61 3.37 5.01 1.85 9.58s-3.16 7.62-5.22 10.66m13.49-14.8c.44 3.05-1.2 8.49-3.05 11.75-1.85 3.26-2.83 4.9-2.83 4.9m-19.04 18.75c-4.24.07-8.81-.69-8.81-.69" fill="none" stroke="#e89687" stroke-linecap="round" stroke-linejoin="round" stroke-miterlimit="10" stroke-width=".654"/><path d="M155.66 211.8c-7.84 2.07-30.69 4.03-46.79 8.81M96.9 147.49c6.96 4.79 13.28 13.28 16.76 26.55 3.48 13.28 10.66 42.66 10.66 42.66" fill="none" stroke="#000" stroke-linecap="round" stroke-linejoin="round" stroke-miterlimit="10" stroke-width=".654"/><path d="M123.01 212.35c-7.18-.87-13.28 1.09-15.89 2.18m2.62-60.3c2.39 5.01 2.18 14.36 2.18 14.36m-3.6 96.42C89.06 262.62 76 251.52 67.51 236.5c-8.49-15.02-12.84-44.18-13.49-56.59" fill="none" stroke="#000" stroke-linecap="round" stroke-linejoin="round" stroke-miterlimit="10" stroke-width=".654"/><path d="M48.58 186.45c.65 6.75 7.62 14.8 7.62 14.8m70.8-30.4c1.89 10.59 6.46 33.66 11.24 43.89" fill="none" stroke="#000" stroke-linecap="round" stroke-linejoin="round" stroke-miterlimit="10" stroke-width=".654"/><path d="M155.66 211.8s8.05-1.41 11.53-4.24c3.48-2.83 6.09-8.71 8.05-13.93 1.96-5.22 4.35-9.36 8.71-11.32 4.35-1.96 13.28-5.01 13.49-2.39.22 2.61.44 8.05-3.48 10.88l-3.92 2.83s0 7.62-1.31 10.66c0 0 9.14-2.61 14.15-5.88 5.01-3.26 10.88-11.1 15.02-16.11 4.14-5.01 10.01-10.01 13.06-8.05s1.09 8.71-3.26 15.67c-4.35 6.96-11.54 14.8-11.54 14.8s5.01-2.18 9.14-4.14c4.14-1.96 5.88-4.35 5.88-4.35s5.01.65 4.79 4.79c-.22 4.14-3.26 7.18-3.26 7.18s2.83 1.74.87 7.4-9.58 11.32-9.58 11.32 3.92.22 3.48 4.35c-.44 4.14-3.48 6.96-12.19 11.97-8.71 5.01-44.18 14.58-53.76 16.21 0 0-8.49-9.03-10.01-23.18-1.52-14.13 4.14-24.47 4.14-24.47z" fill="#fcebe0"/><path d="M197.53 182.97c.05-1.18-.01-2.25-.08-3.05-.18-2.17-6.37-.43-10.96 1.34 3.73 2.95 8.71 2.26 11.04 1.71zm28.72 2.1c1.61.8 2.94.74 3.9.44 2.5-5.2 3.2-9.67.85-11.23l-.9-.38c-.98-.22-2.15.05-3.41.67-2.4 4.36-3.52 8.96-.44 10.5z" fill="#df6d59"/><path d="M216.16 204.73c-3.05 3.05-5.22 4.14-5.22 4.14m21.76-.66c-3.48 5.22-18.5 12.84-18.5 12.84m9.8 5.88c-5.22 3.92-9.14 5.66-11.75 6.96" fill="none" stroke="#e89687" stroke-linecap="round" stroke-linejoin="round" stroke-miterlimit="10" stroke-width=".654"/></g></svg>