<svg xmlns="http://www.w3.org/2000/svg" xmlns:xlink="http://www.w3.org/1999/xlink" xml:space="preserve" x="0" y="0" version="1.1" viewBox="0 0 263.73 263.73"><defs><circle id="a" cx="749.04" cy="-1537.37" r="129"/></defs><use xlink:href="#a" fill="#9fccd2" overflow="visible"/><clipPath id="b"><use xlink:href="#a" overflow="visible"/></clipPath><g clip-path="url(#b)"><ellipse cx="768.54" cy="-1564.13" rx="1.72" ry="2.33"/></g><defs><circle id="c" cx="795.14" cy="-5301.13" r="129"/></defs><use xlink:href="#c" fill="#eadbcb" overflow="visible"/><defs><circle id="d" cx="1096.14" cy="-5301.13" r="129"/></defs><use xlink:href="#d" fill="#e5e4d5" overflow="visible"/><clipPath id="e"><use xlink:href="#d" overflow="visible"/></clipPath><g clip-path="url(#e)"><ellipse fill="#f49a86" cx="1103.17" cy="-5330.81" opacity=".76" rx="5.66" ry="3.86" transform="rotate(-70.719 1103.242 -5330.76)"/><circle fill="#153745" cx="1121.14" cy="-5181.25" r="3.72"/><circle fill="#153745" cx="1048.96" cy="-5190.32" r="3.72"/></g><defs><circle id="f" cx="749.04" cy="-3263.23" r="129"/></defs><use xlink:href="#f" fill="#e5e4d5" overflow="visible"/><clipPath id="g"><use xlink:href="#f" overflow="visible"/></clipPath><g clip-path="url(#g)"><ellipse fill="#f49a86" cx="756.07" cy="-3292.91" opacity=".76" rx="5.66" ry="3.86" transform="rotate(-70.719 756.12 -3292.882)"/><circle fill="#153745" cx="774.05" cy="-3143.35" r="3.72"/><circle fill="#153745" cx="701.86" cy="-3152.43" r="3.72"/></g><defs><circle id="h" cx="2601.14" cy="-5301.13" r="129"/></defs><use xlink:href="#h" fill="#fdc83d" overflow="visible"/><defs><circle id="i" cx="1897.77" cy="-962.16" r="129"/></defs><use xlink:href="#i" fill="#fdc83d" overflow="visible"/><defs><circle id="j" cx="2902.14" cy="-5301.13" r="129"/></defs><use xlink:href="#j" fill="#e17765" overflow="visible"/><clipPath id="k"><use xlink:href="#j" overflow="visible"/></clipPath><g clip-path="url(#k)"><circle fill="#314f5b" cx="2903.47" cy="-5310.75" r="26.88"/><circle cx="2903.47" cy="-5310.75" r="18.24" transform="rotate(-76.714 2903.526 -5311.227)"/></g><defs><circle id="l" cx="3203.14" cy="-5301.13" r="129"/></defs><use xlink:href="#l" fill="#027888" overflow="visible"/><defs><circle id="m" cx="3504.14" cy="-5301.13" r="129"/></defs><use xlink:href="#m" fill="#df6d59" overflow="visible"/><defs><circle id="n" cx="3805.14" cy="-5301.13" r="129"/></defs><use xlink:href="#n" fill="#bab891" overflow="visible"/><clipPath id="o"><use xlink:href="#n" overflow="visible"/></clipPath><g clip-path="url(#o)"><ellipse cx="3794.71" cy="-5336.94" rx="1.43" ry="1.93"/></g><defs><circle id="p" cx="4106.14" cy="-5301.13" r="129"/></defs><use xlink:href="#p" fill="#9fccd2" overflow="visible"/><clipPath id="q"><use xlink:href="#p" overflow="visible"/></clipPath><g clip-path="url(#q)"><ellipse cx="4125.61" cy="-5333.35" rx="1.54" ry="2.08"/></g><defs><circle id="r" cx="2472.14" cy="-2687.8" r="129"/></defs><use xlink:href="#r" fill="#bab891" overflow="visible"/><clipPath id="s"><use xlink:href="#r" overflow="visible"/></clipPath><g clip-path="url(#s)"><ellipse cx="2461.71" cy="-2723.61" rx="1.43" ry="1.93"/></g><defs><circle id="t" cx="1323.41" cy="-1537.37" r="129"/></defs><use xlink:href="#t" fill="#9fccd2" overflow="visible"/><clipPath id="u"><use xlink:href="#t" overflow="visible"/></clipPath><g clip-path="url(#u)"><ellipse cx="1342.88" cy="-1569.59" rx="1.54" ry="2.08"/></g><defs><circle id="v" cx="795.14" cy="-4982.99" r="129"/></defs><use xlink:href="#v" fill="#027888" overflow="visible"/><clipPath id="w"><use xlink:href="#v" overflow="visible"/></clipPath><g clip-path="url(#w)"><ellipse cx="816.17" cy="-5019.92" rx="1.88" ry="2.54"/><ellipse fill="#f49a86" cx="821.57" cy="-5004.67" opacity=".51" rx="7.41" ry="5.06" transform="rotate(-79.216 821.528 -5005.004)"/></g><defs><circle id="x" cx="749.04" cy="-2687.8" r="129"/></defs><use xlink:href="#x" fill="#027888" overflow="visible"/><clipPath id="y"><use xlink:href="#x" overflow="visible"/></clipPath><g clip-path="url(#y)"><ellipse cx="770.08" cy="-2724.74" rx="1.88" ry="2.54"/><ellipse fill="#f49a86" cx="775.48" cy="-2709.48" opacity=".51" rx="7.41" ry="5.06" transform="rotate(-79.216 775.476 -2709.671)"/></g><defs><circle id="z" cx="1397.14" cy="-4982.99" r="129"/></defs><use xlink:href="#z" fill="#027888" overflow="visible"/><clipPath id="A"><use xlink:href="#z" overflow="visible"/></clipPath><g clip-path="url(#A)"><ellipse fill="#f49a86" cx="1419.83" cy="-5002.68" opacity=".44" rx="7.97" ry="5.44" transform="rotate(-65.669 1419.805 -5002.53)"/></g><defs><circle id="B" cx="2472.14" cy="-962.16" r="129"/></defs><use xlink:href="#B" fill="#027888" overflow="visible"/><clipPath id="C"><use xlink:href="#B" overflow="visible"/></clipPath><g clip-path="url(#C)"><ellipse fill="#f49a86" cx="2494.83" cy="-981.85" opacity=".44" rx="7.97" ry="5.44" transform="rotate(-65.669 2494.764 -981.814)"/></g><defs><circle id="D" cx="1698.14" cy="-4982.99" r="129"/></defs><use xlink:href="#D" fill="#e89789" overflow="visible"/><defs><circle id="E" cx="174.46" cy="-962.16" r="129"/></defs><use xlink:href="#E" fill="#e89789" overflow="visible"/><defs><circle id="F" cx="2300.14" cy="-4982.99" r="129"/></defs><use xlink:href="#F" fill="#eadbcb" overflow="visible"/><clipPath id="G"><use xlink:href="#F" overflow="visible"/></clipPath><g clip-path="url(#G)"><ellipse fill="#f49a86" cx="2308.91" cy="-4984.41" opacity=".52" rx="7.36" ry="5.03" transform="rotate(-76.944 2309.028 -4984.617)"/></g><defs><circle id="H" cx="174.46" cy="-2112.59" r="129"/></defs><use xlink:href="#H" fill="#eadbcb" overflow="visible"/><clipPath id="I"><use xlink:href="#H" overflow="visible"/></clipPath><g clip-path="url(#I)"><ellipse fill="#f49a86" cx="183.23" cy="-2114.01" opacity=".52" rx="7.36" ry="5.03" transform="rotate(-76.944 183.25 -2114.102)"/></g><defs><circle id="J" cx="2601.14" cy="-4982.99" r="129"/></defs><use xlink:href="#J" fill="#9fccd2" overflow="visible"/><defs><circle id="K" cx="1323.41" cy="-962.16" r="129"/></defs><use xlink:href="#K" fill="#9fccd2" overflow="visible"/><defs><circle id="L" cx="2902.14" cy="-4982.99" r="129"/></defs><use xlink:href="#L" fill="#fdcf58" overflow="visible"/><clipPath id="M"><use xlink:href="#L" overflow="visible"/></clipPath><g clip-path="url(#M)"><circle fill="#bab891" cx="2901.26" cy="-4861.93" r="32.17" transform="rotate(-22.5 2901.147 -4861.71)"/></g><defs><circle id="N" cx="174.83" cy="-1537.37" r="129"/></defs><use xlink:href="#N" fill="#fdcf58" overflow="visible"/><clipPath id="O"><use xlink:href="#N" overflow="visible"/></clipPath><g clip-path="url(#O)"><circle fill="#bab891" cx="173.95" cy="-1416.32" r="32.17" transform="rotate(-22.5 173.947 -1416.255)"/></g><defs><circle id="P" cx="3203.14" cy="-4982.99" r="129"/></defs><use xlink:href="#P" fill="#153745" overflow="visible"/><clipPath id="Q"><use xlink:href="#P" overflow="visible"/></clipPath><g clip-path="url(#Q)"><ellipse fill="#f49a86" cx="3184.92" cy="-4996.98" opacity=".41" rx="5.13" ry="7.51" transform="rotate(-14.805 3184.908 -4997.875)"/><circle fill="#fdc023" cx="3224.78" cy="-4806.81" r="9.65" transform="rotate(-22.5 3224.656 -4806.593)"/></g><defs><circle id="R" cx="749.04" cy="-962.16" r="129"/></defs><use xlink:href="#R" fill="#153745" overflow="visible"/><clipPath id="S"><use xlink:href="#R" overflow="visible"/></clipPath><g clip-path="url(#S)"><ellipse fill="#f49a86" cx="730.82" cy="-976.15" opacity=".41" rx="5.13" ry="7.51" transform="rotate(-14.805 730.834 -976.335)"/><circle fill="#fdc023" cx="770.68" cy="-785.98" r="9.65" transform="rotate(-22.5 770.653 -785.943)"/></g><defs><circle id="T" cx="3504.14" cy="-4982.99" r="129"/></defs><use xlink:href="#T" fill="#9fccd2" overflow="visible"/><clipPath id="U"><use xlink:href="#T" overflow="visible"/></clipPath><g clip-path="url(#U)"><ellipse cx="3523.63" cy="-5009.75" rx="1.72" ry="2.33"/></g><defs><circle id="V" cx="3805.14" cy="-4982.99" r="129"/></defs><use xlink:href="#V" fill="#fdc432" overflow="visible"/><clipPath id="W"><use xlink:href="#V" overflow="visible"/></clipPath><g clip-path="url(#W)"><circle fill="#fff" cx="3794.7" cy="-4818.96" r="2.14"/></g><defs><circle id="X" cx="1323.41" cy="-3263.23" r="129"/></defs><use xlink:href="#X" fill="#fdc432" overflow="visible"/><clipPath id="Y"><use xlink:href="#X" overflow="visible"/></clipPath><g clip-path="url(#Y)"><circle fill="#fff" cx="1312.97" cy="-3099.21" r="2.14"/></g><defs><circle id="Z" cx="4106.14" cy="-4982.99" r="129"/></defs><use xlink:href="#Z" fill="#df6d59" overflow="visible"/><clipPath id="aa"><use xlink:href="#Z" overflow="visible"/></clipPath><g clip-path="url(#aa)"><ellipse fill="#f49a86" cx="4094.75" cy="-5006.59" opacity=".36" rx="7.27" ry="4.96" transform="matrix(.0091 -1 1 .0091 9063.883 -866.46)"/></g><defs><circle id="ab" cx="2472.14" cy="-2112.59" r="129"/></defs><use xlink:href="#ab" fill="#df6d59" overflow="visible"/><clipPath id="ac"><use xlink:href="#ab" overflow="visible"/></clipPath><g clip-path="url(#ac)"><ellipse fill="#f49a86" cx="2460.75" cy="-2136.19" opacity=".36" rx="7.27" ry="4.96" transform="matrix(.0091 -1 1 .0091 4574.466 343.896)"/></g><defs><circle id="ad" cx="1999.14" cy="-5301.13" r="129"/></defs><use xlink:href="#ad" fill="#9fccd2" overflow="visible"/><clipPath id="ae"><use xlink:href="#ad" overflow="visible"/></clipPath><g fill="#1d1d1b" clip-path="url(#ae)"><circle cx="2008.98" cy="-5251.24" r=".59"/><circle cx="2020.76" cy="-5204.12" r=".59"/><circle cx="2014.87" cy="-5198.23" r=".59"/><circle cx="2008.98" cy="-5204.12" r=".59"/><circle cx="1973.64" cy="-5298.36" r=".59"/><circle cx="1961.86" cy="-5298.36" r=".59"/><circle cx="1973.64" cy="-5251.24" r=".59"/><circle cx="1961.86" cy="-5251.24" r=".59"/><circle cx="1973.64" cy="-5204.12" r=".59"/><circle cx="1979.53" cy="-5198.23" r=".59"/><circle cx="1967.75" cy="-5198.23" r=".59"/><circle cx="1961.86" cy="-5204.12" r=".59"/><circle cx="1973.64" cy="-5168.78" r=".59"/><circle cx="1961.86" cy="-5168.78" r=".59"/><circle cx="1967.75" cy="-5151.11" r=".59"/><circle cx="1967.75" cy="-5162.89" r=".59"/><circle cx="1961.86" cy="-5157" r=".59"/><circle cx="1955.97" cy="-5198.23" r=".59"/><circle cx="1955.97" cy="-5151.11" r=".59"/><circle cx="1955.97" cy="-5162.89" r=".59"/><circle cx="1926.52" cy="-5251.24" r=".59"/><circle cx="1914.74" cy="-5251.24" r=".59"/><circle cx="1926.52" cy="-5204.12" r=".59"/><circle cx="1932.41" cy="-5198.23" r=".59"/><circle cx="1920.63" cy="-5198.23" r=".59"/><circle cx="1914.74" cy="-5204.12" r=".59"/><circle cx="1926.52" cy="-5168.78" r=".59"/><circle cx="1914.74" cy="-5168.78" r=".59"/><circle cx="1926.52" cy="-5157" r=".59"/><circle cx="1932.41" cy="-5151.11" r=".59"/><circle cx="1920.63" cy="-5151.11" r=".59"/><circle cx="1932.41" cy="-5162.89" r=".59"/><circle cx="1920.63" cy="-5162.89" r=".59"/><circle cx="1914.74" cy="-5157" r=".59"/><circle cx="1932.41" cy="-5127.54" r=".59"/><circle cx="1908.85" cy="-5198.23" r=".59"/><circle cx="1908.85" cy="-5151.11" r=".59"/><circle cx="1908.85" cy="-5162.89" r=".59"/><circle cx="2032.54" cy="-5251.24" r=".59"/><circle cx="2032.54" cy="-5204.12" r=".59"/><circle cx="2020.76" cy="-5251.24" r=".59"/><circle cx="2008.98" cy="-5251.24" r=".59"/><circle cx="2020.76" cy="-5204.12" r=".59"/><circle cx="2026.65" cy="-5198.23" r=".59"/><circle cx="2014.87" cy="-5198.23" r=".59"/></g><defs><circle id="af" cx="1999.14" cy="-5301.13" r="129"/></defs><clipPath id="ag"><use xlink:href="#af" overflow="visible"/></clipPath><g fill="#1d1d1b" clip-path="url(#ag)"><circle cx="2008.98" cy="-5251.24" r=".59"/><circle cx="2020.76" cy="-5204.12" r=".59"/><circle cx="2014.87" cy="-5198.23" r=".59"/><circle cx="2008.98" cy="-5204.12" r=".59"/><circle cx="1973.64" cy="-5298.36" r=".59"/><circle cx="1961.86" cy="-5298.36" r=".59"/><circle cx="1973.64" cy="-5251.24" r=".59"/><circle cx="1961.86" cy="-5251.24" r=".59"/><circle cx="1973.64" cy="-5204.12" r=".59"/><circle cx="1979.53" cy="-5198.23" r=".59"/><circle cx="1967.75" cy="-5198.23" r=".59"/><circle cx="1961.86" cy="-5204.12" r=".59"/><circle cx="1973.64" cy="-5168.78" r=".59"/><circle cx="1961.86" cy="-5168.78" r=".59"/><circle cx="1967.75" cy="-5151.11" r=".59"/><circle cx="1967.75" cy="-5162.89" r=".59"/><circle cx="1961.86" cy="-5157" r=".59"/><circle cx="1955.97" cy="-5198.23" r=".59"/><circle cx="1955.97" cy="-5151.11" r=".59"/><circle cx="1955.97" cy="-5162.89" r=".59"/><circle cx="1926.52" cy="-5251.24" r=".59"/><circle cx="1914.74" cy="-5251.24" r=".59"/><circle cx="1926.52" cy="-5204.12" r=".59"/><circle cx="1932.41" cy="-5198.23" r=".59"/><circle cx="1920.63" cy="-5198.23" r=".59"/><circle cx="1914.74" cy="-5204.12" r=".59"/><circle cx="1926.52" cy="-5168.78" r=".59"/><circle cx="1914.74" cy="-5168.78" r=".59"/><circle cx="1926.52" cy="-5157" r=".59"/><circle cx="1932.41" cy="-5151.11" r=".59"/><circle cx="1920.63" cy="-5151.11" r=".59"/><circle cx="1932.41" cy="-5162.89" r=".59"/><circle cx="1920.63" cy="-5162.89" r=".59"/><circle cx="1914.74" cy="-5157" r=".59"/><circle cx="1932.41" cy="-5127.54" r=".59"/><circle cx="1908.85" cy="-5198.23" r=".59"/><circle cx="1908.85" cy="-5151.11" r=".59"/><circle cx="1908.85" cy="-5162.89" r=".59"/><circle cx="2032.54" cy="-5251.24" r=".59"/><circle cx="2032.54" cy="-5204.12" r=".59"/><circle cx="2020.76" cy="-5251.24" r=".59"/><circle cx="2008.98" cy="-5251.24" r=".59"/><circle cx="2020.76" cy="-5204.12" r=".59"/><circle cx="2026.65" cy="-5198.23" r=".59"/><circle cx="2014.87" cy="-5198.23" r=".59"/></g><defs><circle id="ah" cx="1897.77" cy="-3263.23" r="129"/></defs><use xlink:href="#ah" fill="#9fccd2" overflow="visible"/><clipPath id="ai"><use xlink:href="#ah" overflow="visible"/></clipPath><g fill="#1d1d1b" clip-path="url(#ai)"><circle cx="1907.62" cy="-3213.35" r=".59"/><circle cx="1919.4" cy="-3166.22" r=".59"/><circle cx="1913.51" cy="-3160.33" r=".59"/><circle cx="1907.62" cy="-3166.22" r=".59"/><circle cx="1872.28" cy="-3260.47" r=".59"/><circle cx="1860.5" cy="-3260.47" r=".59"/><circle cx="1872.28" cy="-3213.35" r=".59"/><circle cx="1860.5" cy="-3213.35" r=".59"/><circle cx="1872.28" cy="-3166.22" r=".59"/><circle cx="1878.17" cy="-3160.33" r=".59"/><circle cx="1866.39" cy="-3160.33" r=".59"/><circle cx="1860.5" cy="-3166.22" r=".59"/><circle cx="1872.28" cy="-3130.88" r=".59"/><circle cx="1860.5" cy="-3130.88" r=".59"/><circle cx="1866.39" cy="-3113.21" r=".59"/><circle cx="1866.39" cy="-3124.99" r=".59"/><circle cx="1860.5" cy="-3119.1" r=".59"/><circle cx="1854.6" cy="-3160.33" r=".59"/><circle cx="1854.6" cy="-3113.21" r=".59"/><circle cx="1854.6" cy="-3124.99" r=".59"/><circle cx="1825.15" cy="-3213.35" r=".59"/><circle cx="1813.37" cy="-3213.35" r=".59"/><circle cx="1825.15" cy="-3166.22" r=".59"/><circle cx="1831.04" cy="-3160.33" r=".59"/><circle cx="1819.26" cy="-3160.33" r=".59"/><circle cx="1813.37" cy="-3166.22" r=".59"/><circle cx="1825.15" cy="-3130.88" r=".59"/><circle cx="1813.37" cy="-3130.88" r=".59"/><circle cx="1825.15" cy="-3119.1" r=".59"/><circle cx="1831.04" cy="-3113.21" r=".59"/><circle cx="1819.26" cy="-3113.21" r=".59"/><circle cx="1831.04" cy="-3124.99" r=".59"/><circle cx="1819.26" cy="-3124.99" r=".59"/><circle cx="1813.37" cy="-3119.1" r=".59"/><circle cx="1831.04" cy="-3089.65" r=".59"/><circle cx="1807.48" cy="-3160.33" r=".59"/><circle cx="1807.48" cy="-3113.21" r=".59"/><circle cx="1807.48" cy="-3124.99" r=".59"/><circle cx="1931.18" cy="-3213.35" r=".59"/><circle cx="1931.18" cy="-3166.22" r=".59"/><circle cx="1919.4" cy="-3213.35" r=".59"/><circle cx="1907.62" cy="-3213.35" r=".59"/><circle cx="1919.4" cy="-3166.22" r=".59"/><circle cx="1925.29" cy="-3160.33" r=".59"/><circle cx="1913.51" cy="-3160.33" r=".59"/></g><defs><circle id="aj" cx="1897.77" cy="-3263.23" r="129"/></defs><clipPath id="ak"><use xlink:href="#aj" overflow="visible"/></clipPath><g fill="#1d1d1b" clip-path="url(#ak)"><circle cx="1907.62" cy="-3213.35" r=".59"/><circle cx="1919.4" cy="-3166.22" r=".59"/><circle cx="1913.51" cy="-3160.33" r=".59"/><circle cx="1907.62" cy="-3166.22" r=".59"/><circle cx="1872.28" cy="-3260.47" r=".59"/><circle cx="1860.5" cy="-3260.47" r=".59"/><circle cx="1872.28" cy="-3213.35" r=".59"/><circle cx="1860.5" cy="-3213.35" r=".59"/><circle cx="1872.28" cy="-3166.22" r=".59"/><circle cx="1878.17" cy="-3160.33" r=".59"/><circle cx="1866.39" cy="-3160.33" r=".59"/><circle cx="1860.5" cy="-3166.22" r=".59"/><circle cx="1872.28" cy="-3130.88" r=".59"/><circle cx="1860.5" cy="-3130.88" r=".59"/><circle cx="1866.39" cy="-3113.21" r=".59"/><circle cx="1866.39" cy="-3124.99" r=".59"/><circle cx="1860.5" cy="-3119.1" r=".59"/><circle cx="1854.6" cy="-3160.33" r=".59"/><circle cx="1854.6" cy="-3113.21" r=".59"/><circle cx="1854.6" cy="-3124.99" r=".59"/><circle cx="1825.15" cy="-3213.35" r=".59"/><circle cx="1813.37" cy="-3213.35" r=".59"/><circle cx="1825.15" cy="-3166.22" r=".59"/><circle cx="1831.04" cy="-3160.33" r=".59"/><circle cx="1819.26" cy="-3160.33" r=".59"/><circle cx="1813.37" cy="-3166.22" r=".59"/><circle cx="1825.15" cy="-3130.88" r=".59"/><circle cx="1813.37" cy="-3130.88" r=".59"/><circle cx="1825.15" cy="-3119.1" r=".59"/><circle cx="1831.04" cy="-3113.21" r=".59"/><circle cx="1819.26" cy="-3113.21" r=".59"/><circle cx="1831.04" cy="-3124.99" r=".59"/><circle cx="1819.26" cy="-3124.99" r=".59"/><circle cx="1813.37" cy="-3119.1" r=".59"/><circle cx="1831.04" cy="-3089.65" r=".59"/><circle cx="1807.48" cy="-3160.33" r=".59"/><circle cx="1807.48" cy="-3113.21" r=".59"/><circle cx="1807.48" cy="-3124.99" r=".59"/><circle cx="1931.18" cy="-3213.35" r=".59"/><circle cx="1931.18" cy="-3166.22" r=".59"/><circle cx="1919.4" cy="-3213.35" r=".59"/><circle cx="1907.62" cy="-3213.35" r=".59"/><circle cx="1919.4" cy="-3166.22" r=".59"/><circle cx="1925.29" cy="-3160.33" r=".59"/><circle cx="1913.51" cy="-3160.33" r=".59"/></g><defs><circle id="al" cx="795.14" cy="-4662.35" r="129"/></defs><use xlink:href="#al" fill="#11808f" overflow="visible"/><defs><circle id="am" cx="1096.14" cy="-4662.35" r="129"/></defs><use xlink:href="#am" fill="#fdd8d3" overflow="visible"/><defs><circle id="an" cx="2472.14" cy="-1537.37" r="129"/></defs><use xlink:href="#an" fill="#fdd8d3" overflow="visible"/><defs><circle id="ao" cx="1397.14" cy="-4662.35" r="129"/></defs><use xlink:href="#ao" fill="#eadbcb" overflow="visible"/><defs><circle id="ap" cx="2472.14" cy="-3263.23" r="129"/></defs><use xlink:href="#ap" fill="#eadbcb" overflow="visible"/><defs><circle id="aq" cx="1698.14" cy="-4662.35" r="129"/></defs><use xlink:href="#aq" fill="#fdc023" overflow="visible"/><defs><circle id="ar" cx="749.04" cy="-2112.59" r="129"/></defs><use xlink:href="#ar" fill="#fdc023" overflow="visible"/><defs><circle id="as" cx="1999.14" cy="-4662.35" r="129"/></defs><use xlink:href="#as" fill="#027888" overflow="visible"/><clipPath id="at"><use xlink:href="#as" overflow="visible"/></clipPath><g clip-path="url(#at)"><ellipse fill="#f49a86" cx="2045.59" cy="-4690.86" rx="6.14" ry="9" transform="rotate(-7.022 2046.958 -4692.457)"/></g><defs><circle id="au" cx="174.46" cy="-2687.8" r="129"/></defs><use xlink:href="#au" fill="#027888" overflow="visible"/><clipPath id="av"><use xlink:href="#au" overflow="visible"/></clipPath><g clip-path="url(#av)"><ellipse fill="#f49a86" cx="220.92" cy="-2716.31" rx="6.14" ry="9" transform="rotate(-7.022 221.33 -2717.35)"/></g><defs><circle id="aw" cx="2601.14" cy="-4662.35" r="129"/></defs><use xlink:href="#aw" fill="#fdce53" overflow="visible"/><clipPath id="ax"><use xlink:href="#aw" overflow="visible"/></clipPath><g clip-path="url(#ax)"><ellipse fill="#f49a86" cx="2593.98" cy="-4666.47" opacity=".55" rx="9.36" ry="6.39" transform="rotate(-64.004 2594.043 -4666.73)"/></g><defs><circle id="ay" cx="1323.41" cy="-2112.59" r="129"/></defs><use xlink:href="#ay" fill="#fdce53" overflow="visible"/><clipPath id="az"><use xlink:href="#ay" overflow="visible"/></clipPath><g clip-path="url(#az)"><ellipse fill="#f49a86" cx="1316.25" cy="-2116.7" opacity=".55" rx="9.36" ry="6.39" transform="rotate(-64.004 1316.289 -2116.822)"/></g><defs><circle id="aA" cx="2902.14" cy="-4662.35" r="129"/></defs><use xlink:href="#aA" fill="#df6d59" overflow="visible"/><defs><circle id="aB" cx="3203.14" cy="-4662.35" r="129"/></defs><use xlink:href="#aB" fill="#fdc023" overflow="visible"/><defs><circle id="aC" cx="3504.14" cy="-4662.35" r="129"/></defs><use xlink:href="#aC" fill="#254552" overflow="visible"/><defs><circle id="aD" cx="1897.77" cy="-2112.59" r="129"/></defs><use xlink:href="#aD" fill="#254552" overflow="visible"/><defs><circle id="aE" cx="3805.14" cy="-4662.35" r="129"/></defs><use xlink:href="#aE" fill="#eadbcb" overflow="visible"/><defs><circle id="aF" cx="4106.14" cy="-4662.35" r="129"/></defs><use xlink:href="#aF" fill="#9fccd2" overflow="visible"/><clipPath id="aG"><use xlink:href="#aF" overflow="visible"/></clipPath><g clip-path="url(#aG)"><ellipse fill="#f49a86" cx="4132.07" cy="-4664.08" opacity=".56" rx="8.23" ry="5.62" transform="rotate(-82.484 4132.109 -4664.01)"/></g><defs><circle id="aH" cx="1897.77" cy="-2687.8" r="129"/></defs><use xlink:href="#aH" fill="#9fccd2" overflow="visible"/><clipPath id="aI"><use xlink:href="#aH" overflow="visible"/></clipPath><g clip-path="url(#aI)"><ellipse fill="#f49a86" cx="1923.7" cy="-2689.53" opacity=".56" rx="8.23" ry="5.62" transform="rotate(-82.484 1923.73 -2689.493)"/></g><circle fill="#eadbcb" cx="2303.27" cy="-4662.33" r="129.21"/><circle fill="none" cx="2303.27" cy="-4662.33" r="129.21"/><circle fill="#fdc023" cx="1397.16" cy="-5301.31" r="129.21"/><circle fill="none" cx="1397.16" cy="-5301.31" r="129.21"/><circle fill="#153745" cx="1698.16" cy="-5300.32" r="129.21"/><ellipse cx="1718.1" cy="-5337.72" rx="1.45" ry="1.95"/><circle fill="#e37d6b" cx="1701.1" cy="-5288.69" r="12.52" transform="rotate(-80.781 1701.016 -5288.728)"/><circle fill="none" cx="1698.16" cy="-5300.32" r="129.21"/><circle fill="#153745" cx="1323.19" cy="-2688.02" r="129.21"/><ellipse cx="1343.14" cy="-2725.41" rx="1.45" ry="1.95"/><circle fill="#e37d6b" cx="1326.13" cy="-2676.39" r="12.52" transform="rotate(-80.781 1326.09 -2676.413)"/><circle fill="none" cx="1323.19" cy="-2688.02" r="129.21"/><circle fill="#153745" cx="2299.54" cy="-5302.12" r="129.21"/><circle fill="#153745" cx="2299.54" cy="-5302.12" r="129.21"/><circle fill="#153745" cx="2299.54" cy="-5302.12" r="129.21"/><circle fill="#2c4b58" cx="2289.48" cy="-5342.61" r="20.59"/><circle cx="2289.48" cy="-5342.61" r="13.19" transform="rotate(-45.001 2289.548 -5342.607)"/><circle fill="none" cx="2299.54" cy="-5302.12" r="129.21"/><circle fill="#fdc023" cx="1096.14" cy="-4980.84" r="129.21"/><circle fill="none" cx="1096.14" cy="-4980.84" r="129.21"/><circle fill="#fdc023" cx="1897.56" cy="-1537.59" r="129.21"/><circle fill="none" cx="1897.56" cy="-1537.59" r="129.21"/><circle fill="#fdc023" cx="152.31" cy="-4976.75" r="450"/><ellipse fill="#f49a86" cx="101.88" cy="-4946.54" rx="15.32" ry="22.43" transform="rotate(-12.539 101.845 -4947.176)"/><circle fill="none" cx="152.31" cy="-4976.75" r="450"/><circle fill="#df6d59" cx="2006.68" cy="-4983.11" r="129.21"/><circle fill="none" cx="2006.68" cy="-4983.11" r="129.21"/><circle fill="#df6d59" cx="174.68" cy="-3263.02" r="129.21"/><circle fill="none" cx="174.68" cy="-3263.02" r="129.21"/><text font-family="Gotham-Book" font-size="22" transform="translate(45.463 -3083.017)">New experiences type</text><text font-family="Gotham-Book" font-size="22" transform="translate(675.528 -3083.017)">Selfie type</text><text font-family="Gotham-Book" font-size="22" transform="translate(620.042 -1934.982)">Always positive type</text><text font-family="Gotham-Book" font-size="22" transform="translate(107.95 -1934.982)">Stylish type</text><text font-family="Gotham-Book" font-size="22" transform="translate(1204.546 -1934.982)">Overthinker type</text><text font-family="Gotham-Book" font-size="22" transform="translate(1778.1 -1934.982)">Original thinker type</text><text font-family="Gotham-Book" font-size="22" transform="translate(2328.035 -1934.982)">Always at the phone type</text><text font-family="Gotham-Book" font-size="22" transform="translate(2397.546 -1360.305)">Strategy type</text><text font-family="Gotham-Book" font-size="22" transform="translate(1805.293 -1360.305)">Iluminations type</text><text font-family="Gotham-Book" font-size="22" transform="translate(1166.833 -1360.305)">What other will think type</text><text font-family="Gotham-Book" font-size="22" transform="translate(620.042 -1360.305)">Artist’s boyfriend type</text><text font-family="Gotham-Book" font-size="22" transform="translate(78.49 -782.985)">Music &amp; Life type</text><text font-family="Gotham-Book" font-size="22" transform="translate(608.152 -782.985)">Always on schedulle type</text><text font-family="Gotham-Book" font-size="22" transform="translate(1204.545 -782.985)">Pastele colors type</text><text font-family="Gotham-Book" font-size="22" transform="translate(1787.15 -782.985)">Nature Photos type</text><text font-family="Gotham-Book" font-size="22" transform="translate(2343.137 -782.985)">Can’t be defined type</text><text font-family="Gotham-Book" font-size="22" transform="translate(107.95 -1360.305)">Artist type</text><text font-family="Gotham-Book" font-size="22" transform="translate(1166.833 -2506.714)">Let me do a photo first type</text><text font-family="Gotham-Book" font-size="22" transform="translate(1837.664 -2506.714)">Zen type</text><text font-family="Gotham-Book" font-size="22" transform="translate(2378.29 -2506.714)">Jonny Bravo type</text><text font-family="Gotham-Book" font-size="22" transform="translate(2397.546 -3094.739)">What if type</text><text font-family="Gotham-Book" font-size="22" transform="translate(1815.446 -3094.739)">Melancolic type</text><text font-family="Gotham-Book" font-size="22" transform="translate(1252.719 -3094.739)">Dooer type</text><text font-family="Gotham-Book" font-size="22" transform="translate(98.11 -2506.715)">Harmony type</text><text font-family="Gotham-Book" font-size="22" transform="translate(662.927 -2506.715)">Cofident type</text><defs><circle id="aJ" cx="131.87" cy="131.87" r="129"/></defs><use xlink:href="#aJ" fill="#fdc432" overflow="visible"/><clipPath id="aK"><use xlink:href="#aJ" overflow="visible"/></clipPath><g clip-path="url(#aK)"><path d="M106.87 180.09c-4.6-.92-12.87 13.33-21.6 18.84-8.73 5.51-46.41 22.06-64.33 46.41s-38.6 68.47-34.92 100.64c3.68 32.17 17.92 52.85 40.9 57.44 22.98 4.6 57.9-9.19 76.28-18.38 18.38-9.19 30.79-15.62 30.79-15.62l-16.08 31.25s31.71 22.06 73.07 16.54c41.36-5.51 57.48-46.95 61.12-69.85 4.6-28.95-9.65-75.36-22.98-95.58-12.49-18.95-27.57-29.41-41.82-39.52-14.25-10.11-19.3-14.25-19.3-14.25s-14.25-19.3-19.76-19.3c-5.52 0-41.37 1.38-41.37 1.38z" fill="#9fccd2"/><path d="M69.86-1.48c11.03.41 9.8-3.06 14.5-4.7 4.7-1.63 7.76-1.84 12.87 1.43 5.11 3.27 12.05-1.84 16.95 2.65 4.9 4.49 2.45 8.58 5.92 12.46s8.17 3.88 8.37 10.82c.2 6.94-2.66 8.58.2 12.66s4.08 4.29 3.68 11.23c-.29 4.9-4.69 9.58-3.47 13.07 2.86 8.17-7.56 11.44-7.56 11.44l-14.5 14.3s-6.54 2.25-9.39 4.29c-2.86 2.04-8.99 1.84-12.05-.41-3.06-2.25-5.92-4.9-10.01-4.7-4.08.2-10.21-1.63-12.46-6.13-2.25-4.49-5.11-6.33-9.39-8.58-4.29-2.25-4.9-7.15-4.29-11.23s-6.54-3.88-6.33-12.05c.16-6.54 4.29-7.35 3.68-11.85-.61-4.49-2.35-9.93.41-13.48 4.29-5.51 8.78-4.7 10.21-9.8C58.62 4.86 61.04-1.8 69.86-1.48z" fill="#153745"/><path d="M96.59 13.25c-.05.1-.12.04-.15-.14-.05-.27-.3-.27-.63.02-.15.13-.19-.31.16-.36.52-.08-.39-.78-.7-.6-.18.11.05.19.03.2.34.18-.96 0-.25 1.2.14.24.27.3.36.15.08-.12.09-.06.01.15-.13.37.13 1.17.4 1.39l1.69-1.01c-.37-.68-.76-1.31-.92-1zm10.99-5.1c.09-.36-.71-1.8-.85-1.52-.06.12-.15-.05-.23-.39-.21-1-.8-.62-.7-.96.13-.45-1.38-.65-1.27.14.02-.01.75 1.79 1.61 3.66l1.43-.86c0-.03 0-.04.01-.07zM106 7.96c-.26-.39.09-.31.15.04.04-.02.06.28-.15-.04zm5.39-5.63c-.83-.31-1.04.65-1.08.67.03.53.9.52.39.53-.37.01-.01.61.17.29.19-.32-.2.46.41 1.55 0 .01.08.21.2.5l1.91-1.15c-.63-1.14-1.39-2.15-2-2.39zM85.82 18.52c-.06-.1-.01-.16.12-.16.53 0-.37-.62-.7.01-.15.28-.19-.3.16-.36.74-.13-1.37-.93-1.06.12.11-.06-.12.54.13 1.01.1.19.55 1.33.97 2.38l1.84-1.1c-1.45-2.76-1.11-1.32-1.46-1.9zm5.51-1.66c-.47-.01.35-.14-.59-1.16-.43-.46-.57-.51-.95-.3-.59.33-.11.13-.34.67-.14.32-.11.38.25.51.23.08.29.15.15.15-.35 0-.08.74.17.74.26 0 0 .25.35 1.07l1.59-.96c-.27-.4-.56-.72-.63-.72zm-.03 1.05c-.29.17.2-.84.19-.34.05-.02-.03.24-.19.34zm10.73-6.75c0-.12.1-.22.23-.22.33 0-1.26-1.89-1.46-1.52-.08.15-.1.1-.07-.13.14-.96-.72-.05-.76-.03-.25.34.25 1.65.93 2.95l1.47-.88c-.36-.29-.34.08-.34-.17zM115.68.6c.09.14.2.15.28.01.1-.18.12-.16.06.09-.08.4.72 1.84.87 1.55.13-.26.38.09.07.28-.02.01-.04.04-.05.06l.26-.15A9.74 9.74 0 0 0 116 .02c-.17.15-.54.21-.32.58zm-28.18.76c.23.01.23.06 0 .22-.17.12-.2.19-.06.17.48-.08.06.9.52.63.55-.33.47.66.06.35-.26-.2.45 1.09.77 1.73 2.05 4.27 3.78 5.04 3.5 4.54-.15-.26.31-.34.43.16.22.94.6-.57.19-.79-.26-.13.25-.26-.06-.51-.33-.27.18-.2-.2-.81C92.6 6.97 88.92.23 88.3.81c-.1.09-.18.07-.18-.05 0-.4-.75-.2-.84.22-.08.32-.05.37.22.38zm3.89 5.06c.12.2-.48.29-.53.2-.13-.21.74-.33.53-.2zM83.47-5.7c-.36.08-.02.91.44 1.07.23.08.27.15.13.23-.23.14.4.94.86 1.1.16.06.28.18.26.26-.05.2.88.63 1 .47.86-1.22-.55-1.65-.05-1.64.2 0 .13-.54-.07-.6-.23-.06-.62-.64-.43-.64.15 0-.22-.72-.46-.99-.07.02-.14.05-.21.07-.01.06-.03.07-.06.02-.17.06-.34.11-.52.18-.34.12-.64.24-.92.38.16.03.18.06.03.09zm2.41 2.38c.04-.02.17.11-.1.15-.66.11-.25-.34.1-.15zm-7.06 1.51c.1-.17.11-.15.07.08-.13.62 1.25 1.75 1.45 2.05.29.42.3-.01.65.17.57.29.38-1.5.06-1.3-.13.08-.15.02-.06-.16.19-.38-.03-.88-.36-.82-.33.06-.59-.73-.08-.35.48.35-.08-.67-.61-1.2-.47.33-.99.63-1.63.9.19.43.43.78.51.63zm-5.56 3.46c.06-.12.16-.14.21-.05.2.33-.41-.03.36 1.15.85 1.3.93 1.39 1.05 1.16.09-.16.14-.12.19.13.06.36.07.35.21-.1.21-.68.64-.23.36-.23-.13 0-.21.07-.17.14.15.25 1.64-.2 1.01-.7-.33-.26.22-.04.09-.55-.21-.84-.83-.97-1.7-2.49-.98-1.71-.94-.83-.94-1.16 0-.1-.05-.27-.13-.47-.61.04-1.28.07-2.01.08.6 1.62 1.36 3.31 1.47 3.09zM92.89-.47c.29.29.3.35.07.25-.72-.32 3.36 5.91 3.67 5.51.19-.24.2-.21.05.16-.34.89 3.6.59-2.59-7.08-.05-.06-.15-.01-.21.11-.08.15-.14.12-.18-.1-.1-.52-1.01.37-1.1.54.1-.06-.24.08.29.61zm4.18 4.73c.04-.02-.03.15-.35.07-.51-.13.39-.26.35-.07zm-.84-1.24c.04-.02-.18.19-.44.12-.41-.1.66-.37.44-.12zm-6.08-9.29c.19-.24.2-.21.05.16-.21.54 1.19.64.87-1.14a8.13 8.13 0 0 0-.49-.05c-.01.03-.11.12-.36.06-.11-.03-.15-.05-.15-.08-.32-.01-.64 0-.96.02.53.69.95 1.14 1.04 1.03zm16.14 3.97c.18.48.81.3.55.46-.24.14.43.87.53.65.12-.25.74.61.88.35.14-.27.11.16.58.08.18-.03.23-.1.11-.16-.11-.06-.09-.17.06-.25.45-.27-.37-1.9-1.06-2.86-.83.03-1.67.11-2.51.2.22.47.39.86.37.88-.19.1.31.18.49.65zM98.5-4.11c-.03-.01-.07-.03-.1-.04-.05.04-.03.06.1.04zm.16.39c-.19.57.85 3.39 1.23 2.92.12-.15.12-.03 0 .28-.19.49-.17.56.2.69.32.12.34.15.11.15-.54 0 .45.3.38.58-.06.24.88 1.17.98.98.2-.39.26.93 1.11-.22.35-.47.35-.57.02-.76-.26-.15-.32-.25-.21-.32.1-.06.11-.21.02-.35-.24-.39.34-.47-.12-1.2-.51-.83-.82-1.87-1.4-2.39a1.48 1.48 0 0 1-.23-.25 8.56 8.56 0 0 1-.73-.09c-.03.15-.38.31-.38.08 0-.06.01-.11.02-.15-.33-.07-.65-.15-.97-.26a.57.57 0 0 1-.03.31zm-15.1 9.94c-.22-.02-.43.85-.23.95.34.18-.05.8.51.96.24.07.26.09.05.1-.16 0-.22.1-.14.22.21.35 1.02.4.51.41-.39.01-.03.13.19.93.22.82.97.92.87 1.32-.1.39.75.35.68.59-.04.15.89.51.64.1-.09-.14-.2-.22-.28-.17-.17.1-.49-.49-.42-.77.11-.45.15.71.75.38.39-.21-.1.13.16.56.4.66.75-.4 1-1.06l-.8.48c.76-1.2.21-2.08-.05-1.93-.13.08-.15.04-.06-.13.2-.41-2.72-4.32-2.95-4.18-.22.13-.89-.25-.98-.57-.11-.37-.39.34-.43.37-.16.42.34 1.61.61 1.45.27-.16.57.01.37-.01zm-2.36 6.7c-.18.21-.19.2-.07-.08.18-.42.28-.47.75-.36.9.21-.79-1.3-.95-1.86-.28-.98-1.78-2.59-2.71-3.76-.08-.1-.73 0-.27.6.04-.02.27.43.13.48-.22.08 1.92 4.13 1.9 4.23-.06.23.81.41.44.63-.15.09-.13.13.09.13.15 0 .26.09.21.18-.24.47 1.39 1.93 1.42 1.96.1.12.61.24.31.06s-.05-.58.1-.32c.17.29.46-.92.08-1.6-.31-.53-1.08-.69-1.43-.29zm-1.78-3.76c-.26-.06-.06-.98.07-.26.04-.03.03.28-.07.26zm.64 1.07c-.11-.09-.25-.06-.31.05-.06.12-.1.1-.1-.06 0-.3.36-.33.51-.04.04-.03.12.21-.1.05zm42.86 46.85c-.05.1-.12.04-.15-.14-.05-.28-.3-.27-.63.02-.15.13-.19-.31.16-.36.52-.08-.39-.78-.7-.6-.18.11.05.19.03.2.34.18-.96 0-.25 1.2.14.24.27.3.36.16.08-.12.09-.06.01.15-.13.37.13 1.17.4 1.39l1.69-1.01c-.36-.7-.76-1.32-.92-1.01zm7.95-7.84c.01 0 .09.19.23.53.15-.35.29-.71.42-1.06-.35-.02-.71.13-.65.53zm-18.71 13.1c-.06-.1-.01-.16.12-.16.53 0-.37-.62-.7.01-.15.28-.19-.3.15-.36.74-.13-1.37-.93-1.06.12.11-.06-.12.54.13 1.01.1.19.55 1.33.97 2.38l1.84-1.1c-1.44-2.76-1.1-1.32-1.45-1.9zm5.5-1.65c-.47-.01.35-.14-.59-1.16-.43-.46-.57-.51-.95-.3-.59.33-.11.13-.34.67-.14.32-.11.38.25.51.23.08.29.15.15.15-.35 0-.08.74.17.74.26 0 0 .25.35 1.07l1.6-.96c-.28-.4-.57-.72-.64-.72zm-.02 1.04c-.29.17.2-.84.19-.34.04-.02-.03.25-.19.34zm10.73-6.74c0-.12.1-.22.23-.22.33 0-1.26-1.89-1.46-1.52-.08.15-.1.1-.07-.13.14-.96-.72-.05-.76-.03-.25.34.25 1.65.93 2.95l1.47-.88c-.36-.29-.34.08-.34-.17z"/><path d="M96.07 15.59c-.19.43.52.7.18.7-.29 0-.04.34.13.78.21.55 1.05.6.54.6-.73 0 .86 1.08 1.29.82.22-.13.22-.15-.09-.17-.18-.01-.26-.06-.17-.12.33-.2.89.24.62-.22-.25-.41.78-.56-.38-2.43-.14-.23-.4-.78-.68-1.3l-1.69 1.01c.05.04.1.06.15.06.15-.02.18.08.1.27zm12.76-2.6c.07-.14.13-.1.17.1.14.76 1.71-.47.47-2.09-.41-.53-.5-1.44-.7-1.33-.18.11-.81-.62-.56-.62.29 0-.04-.43-.4-.52-.21-.05-.27-.14-.24-.32l-1.43.86c1.05 2.29 2.3 4.68 2.69 3.92zm4.24-4.36c.08-.15.68 1.36.95.6.1-.27.13-.29.13-.09 0 .38.78-.07.46-.33-.12-.1-.18-.22-.12-.26.43-.26-.21-2.18-1.11-3.83l-1.91 1.15c.41 1.03 1.34 3.25 1.6 2.76zM86.9 24.24c.33.78.59.15.59.47-.01.66 2.24.74 1.68-.44-.84-1.8-1.45-3.02-1.89-3.86l-1.84 1.1c.36.92.7 1.76.74 1.84.47.84.44.24.72.89zm14.74.17c.12-.07.16-.01.14.2-.06.43.38.99.79 1.02.29.02.29.04-.02.11-.32.08-.31.14.05.58.24.28 2.89 5.53 3.94 3.78.41-.67.48-1.53.15-1.61-.33-.08-.5-.34-.22-.33.7.01-1.8-3.36-1.67-3.61.17-.32-1.99-3.02-2.34-2.95-.18.03-.31-.02-.31-.12.01-.32-.59-.28-.78.05-.29.5-.84.26-.44.46.19.1.17.15-.09.2-.29.05-.28.15.02.56.56.76.36 1.91.78 1.66zm-4.2 3.55c-.48.63.08.11.22.86.14.72.47.58.3.89-.21.38.48 0 .43.52-.08.84.72.62.68 1.17-.03.36.72 1.58.9 1.25.06-.11.13-.06.16.11.04.22.14.25.35.13.19-.12.26-.09.18.07-.08.18.01.24.33.25.63 0 .01-.09.17-.4.06-.12.14-.13.2-.03.05.09.18.05.3-.09.31-.39-.35-.59-.58-1.5-.16-.63-.98-1.02-.98-1.74 0-.13-.09-.24-.2-.24-.11 0-.32-.28-.46-.63-.39-.98-1.07-.54-.65-.79.5-.3-.78-.09-.55-.76.16-.46-1.05-2.06-1.18-1.8-.06.11-.17.04-.27-.18-.23-.49-.71-.37-.5-.02.04-.02.12.26-.04.26-.31 0-.26.43.14 1.19.41.78.68 1.76.89 1.14.14-.46.61-.24.16.34zm19.52-13.71c.16-.13.29.19.17.42-.16.31 2.38 4.71 2.64 4.48.2-.18.5.28.14.35-.36.07.01.66.19.35.1-.18.12-.16.07.09-.05.26.03.34.45.42.61.11.58.14.78-.63.13-.51.1-.69-.14-.77-.49-.17.14-.22-.22-.89-.31-.59-.3-.07-.5-.42-.08-.13-.06-.23.05-.23.1 0 .01-.29-.21-.66-.57-.95-.43-.22-.78-.39-.31-.16-.74.67-.5.1.19-.46.66-.12.73-.41.06-.25-.88-1.72-1.04-1.62-.07.04-.22-.15-.35-.45-.33-.8-.4-.11-.73-.72-.68-1.21-1.96 1.99-.75.98zm-2.57 4.57c.85-.21-.87.66-.87.46 0-.1-.06-.13-.14-.08-.22.14.03.91.33.98.38.1.54.47.23.52-.22.04-.13.27.47 1.2 1.54 2.38 1.8 1.4 1.63 1.31-.32-.17.32.07.42-.81.05-.42 0-.58-.17-.54-.19.05-.23-.02-.18-.33.04-.29.02-.32-.07-.15-.17.33-.24.2-.28-.52-.06-1-1.25-2.57-1.58-3.13-.55-.91-1.01-.6-.7-.78.22-.13-.06-.94-.47-.53-.19.19-.28.18-.32-.04-.04-.22-.1-.23-.21-.06-.09.14-.1.08-.02-.15.13-.38.12-.39-.27-.16-.72.43-.21 1.15.23 1.94.59 1.11.76 1.18 1.97.87zm-7.84.15c.23.01.23.06 0 .22-.17.11-.2.19-.06.17.48-.08.06.9.52.63.55-.33.47.66.06.35-.26-.2.45 1.09.77 1.73 2.05 4.27 3.78 5.04 3.5 4.54-.15-.26.31-.34.43.16.22.94.6-.57.19-.79-.26-.13.25-.26-.06-.51-.33-.27.18-.2-.2-.81-.05-.08-3.73-6.82-4.35-6.24-.1.09-.18.07-.18-.05 0-.4-.75-.2-.84.22-.08.32-.05.37.22.38zm3.89 5.05c.12.2-.48.29-.53.2-.12-.2.75-.32.53-.2zm8.78 28.17c-.26-.13.25-.26-.06-.51-.33-.27.18-.2-.2-.81-.05-.08-3.73-6.82-4.35-6.24-.1.09-.18.07-.18-.05 0-.4-.75-.2-.84.22-.07.33-.04.38.23.38.23.01.23.06 0 .22-.17.12-.2.19-.06.17.48-.08.06.9.52.63.55-.33.47.66.06.35-.26-.2.45 1.09.77 1.73 2.05 4.27 3.78 5.04 3.5 4.54-.15-.26.31-.34.43.16.22.94.6-.57.18-.79zm-1.5-1.95c.12.2-.48.29-.53.2-.13-.2.74-.32.53-.2zM91.91 29.25c0-.31-.62-1.54-.82-1.63-.8-.34-.83 1.32-.02.58.08-.08.12-.05.09.08-.18.74-1.26-.09.14 2.45.15.27.43 2.09.93 1.5.18-.21.19-.18.05.18-.27.7 1.27 2.93 1.53 2.95.17.01.19.05.04.14-.27.16.14.77.47.71.41-.07.4.73.68.56.1-.06.18-.02.18.09-.01.46 1.37-.17 1.39-.64.02-.68-2.45-4.02-3.1-5.07-1.6-2.58-1.57-1.54-1.56-1.9zm-.72 1.15c-.27-.45.33-.76.17-.15.05-.02-.08.3-.17.15zm4.43 5.55c.13-.08-.1.56-.32.19-.13-.21.19-.4.32-.19zm14.75 3.48c-.23.14.4.94.86 1.1.16.06.28.18.26.26-.05.2.88.63 1 .47.86-1.22-.55-1.65-.05-1.64.2 0 .13-.54-.07-.6-.23-.06-.62-.64-.43-.64.21 0-.62-1.47-.66-.99-.02.21-.07.16-.15-.16-.25-.97-1.83-3.25-2.4-3.45-.23-.08-.28-.16-.18-.28.19-.21-.55-.6-.75-.18.04-.02-.16.29-.32.29-.23 0 .06.88.36 1.12.14.11.16.2.04.2-.28 0 .2.86.47.7.14-.09.16-.04.06.16-.22.45.67.93.44 1.07-.19.11.26.8.54.82.16.01.16.07.02.16-.17.1-.1.15.22.19.28.03.35.08.17.11-.36.08-.02.91.44 1.07.23.07.27.14.13.22zm1.85 1.08c.04-.02.17.11-.1.15-.66.11-.25-.34.1-.15zm-2.05-4.21c-.66-.08-.6-.35.04-.1.04-.03.54.17-.04.1zm18.03-15.28c-.05.47.08.96.27 1.43.01-.35.01-.72 0-1.1-.01.01-.02.01-.04.01-.22-.06-.1-.75.02-.47 0-.1-.01-.19-.01-.29-.13.11-.22.25-.24.42zm-23.96 19.14c.1-.2.12-.18.09.08-.07.5.66 2.06.83 1.77.1-.17.11-.15.07.08-.13.62 1.25 1.75 1.45 2.05.29.42.3-.01.65.17.57.29.38-1.5.06-1.3-.13.08-.15.02-.06-.16.19-.38-.03-.88-.36-.82-.33.06-.59-.73-.08-.35.59.44-.41-1.26-.98-1.48-.27-.1-.27-.13-.04-.13.24 0 .15-.22-.44-1.09-1.02-1.52-.3-.92-.5-1.26-.17-.28-.3.2-.53-.43-.26-.71-.7-.18-.61-.76.08-.5-1.09-.81-1.04.09.07-.04-.1.85.35.3.17-.21.18-.17.05.19-.09.25-.1.42-.03.38.08-.04.12.08.09.27-.08.5.28.31.41 1.05.06.36.14.48.27.41.3-.2-.03 1.67.35.94zm18.99-16.2v.02c.09-.05.04-.12 0-.02z"/><path d="M123.23 23.96c.03-.1.09-.04 0 .02v-.02c-.06.19-.05.93 1.1 3.35.65 1.38 1.78 4.29 3.04 4.84.16.07.3.11.43.13-.54-1.32-.46-2.45-.2-3.79-1.48-2.5-3.95-6.87-4.37-4.53zm1.31 1.68c.04-.02-.04.26-.32.19-.36-.09.41-.55.32-.19zm-3.5 4.26c-.12-.06-.15-.19-.08-.28.25-.31-1.42-.51-1.14-.86.28-.34-.41-.23-.54-.58-.19-.49-2.52.6 1.08 5.23.21.27 1.21.49 1.31.29.05-.09.11-.04.14.12.11.69 1.34-.85.89-1.08-.1-.05-.1-.14 0-.2.19-.11-1.27-2.44-1.66-2.64zm-1.63.91c-.36-.36-.05-.55.21-.13.03-.02.39.74-.21.13zm-16.58 16.17c-.33-.26.22-.04.09-.55-.21-.84-.83-.97-1.7-2.49-.98-1.71-.94-.83-.94-1.16.01-.4-.82-1.93-.98-1.84-.17.1-.69-.3-.4-.3.26 0 .06-.52-.4-.39-.32.09-.32.09-.05-.09.41-.28-.4-1.31-.55-1.22-.25.15-.81.14-.68.36.15.25.74-.02.23.32-.4.26 1.94 6.25 2.15 5.85.06-.12.16-.14.21-.04.2.33-.41-.03.36 1.15.85 1.3.93 1.39 1.05 1.16.09-.16.14-.12.19.13.06.36.07.35.21-.1.21-.68.64-.23.36-.23-.13 0-.21.07-.17.14.16.25 1.65-.2 1.02-.7zm17.39-4.67c-.08.15-.14.12-.18-.1-.1-.52-1.01.37-1.1.54.1-.06-.25.08.28.61.29.29.3.35.07.25-.72-.32 3.36 5.91 3.67 5.51.19-.24.2-.21.05.16-.34.89 3.6.59-2.59-7.08-.04-.06-.14-.01-.2.11zm3.18 5.77c.04-.02-.03.15-.35.07-.51-.12.39-.25.35-.07zm-.84-1.24c.04-.02-.18.19-.44.12-.41-.1.66-.37.44-.12zm-8.62-16.2c-.05-.06-.15-.01-.21.11-.08.15-.14.12-.18-.1-.1-.52-1.01.37-1.1.54.1-.06-.25.08.28.61.29.29.3.35.07.25-.72-.32 3.36 5.91 3.67 5.51.19-.24.2-.21.05.16-.33.89 3.61.59-2.58-7.08zm1.69 4.76c-.41-.1.66-.37.44-.12.04-.03-.18.19-.44.12zm.94 1.19c-.51-.13.39-.25.35-.07.04-.03-.04.15-.35.07zm13.33-.29c-.2.12.37.94.67.97.14.01.12.09-.04.18-.27.16-.04.69.35.8.06.01 1.3 2.58 1.24 2.62-.12.07.06.14.25.31-.22-2.65-1.04-3.74-2.48-5.65-.04.06-.09.11-.13.19-.19.39.39.43.14.58zm-7.36-23.73c.06.01 1.3 2.58 1.24 2.62-.18.11.32.19.5.66.18.48.81.3.55.46-.24.14.43.87.53.65.12-.25.74.61.88.35.14-.27.11.16.58.08.18-.03.23-.1.11-.16-.11-.06-.09-.17.06-.25.16-.1.16-.37.06-.72-1.23-1.75-3.1-2.68-4.93-4.06.07.16.23.32.42.37zm2.35 27.14c.26-.16.13.32.11.4-.19.57.85 3.39 1.23 2.92.12-.15.12-.03.01.28-.19.49-.17.56.2.69.32.12.34.15.11.15-.54 0 .45.3.38.58-.06.24.88 1.17.98.98.2-.39.26.93 1.11-.22.35-.47.35-.57.02-.76-.26-.15-.32-.26-.21-.32.1-.06.11-.21.02-.35-.24-.39.34-.47-.12-1.2-.51-.83-.82-1.87-1.4-2.39-.62-.57.04-.29-.52-.98-.25-.31-.42-.38-.54-.23-.1.12-.22.14-.28.05-.13-.22-.47.16-.26.39.21.23-.28.23-.28 0 0-.41-1.19.12-.56.01zm1.42.3c.26.14-.32.48-.32.19 0-.43.36-.21.32-.19zm-12.98 13.11c-.13.08-.15.04-.06-.13.2-.41-2.72-4.32-2.95-4.18-.22.13-.89-.25-.98-.57-.11-.37-.39.34-.43.37-.16.42.34 1.61.61 1.45.27-.16.57.01.37-.01-.22-.02-.43.85-.23.95.34.18-.05.8.51.96.24.07.26.09.05.1-.16 0-.22.1-.14.22.21.35 1.02.4.51.41-.39.01-.03.13.19.93.22.82.97.92.87 1.32-.1.39.75.35.68.59-.04.15.89.51.64.1-.09-.14-.2-.22-.28-.17-.17.1-.49-.49-.42-.77.11-.45.15.71.75.38.39-.21-.1.13.16.56.4.66.75-.4 1-1.06l-.8.48c.76-1.2.21-2.08-.05-1.93zm-5.8 3.62c-.18.21-.19.2-.07-.08.18-.42.28-.47.75-.36.9.21-.79-1.3-.95-1.86-.28-.98-1.78-2.59-2.71-3.76-.08-.1-.73 0-.27.6.04-.02.27.43.13.48-.22.08 1.92 4.13 1.9 4.23-.06.23.81.41.44.63-.15.09-.13.13.09.13.15 0 .26.09.21.18-.24.47 1.39 1.93 1.42 1.96.1.12.61.24.31.06s-.05-.58.1-.32c.17.29.46-.92.08-1.6-.31-.52-1.08-.69-1.43-.29zm-1.78-3.75c-.26-.06-.05-.98.07-.26.05-.03.03.28-.07.26zm.64 1.06c-.11-.09-.25-.06-.31.05-.06.12-.1.1-.1-.06 0-.3.36-.33.51-.04.04-.02.12.22-.1.05zM92.27 21.04c.32-.19.52.19.22.19-.29 0 .24.44.35.22.04-.09.16-.09.27 0 .15.12.25.07.45-.28.25-.42.25-.43-.06-.15-.43.4-.54.03-.28-.13s.15-1.14-.12-1.15c-.14 0-.2-.15-.17-.38.05-.33.02-.34-.16-.11-.29.37-.49.02-.15-.18.24-.14-.21-.9-.65-1.49l-1.59.96c.11.25.27.55.52.92.94 1.36 1.07 1.76 1.37 1.58zm10.97-5.94c.16-.3.95.31.9-.12-.12-.96.61-.35-.8-2.47-.47-.7-.76-1.03-.96-1.18l-1.47.88c.89 1.7 2.08 3.37 2.33 2.89zm14.25-11.55c-.09-.37-.19-.73-.31-1.1l-.26.15c-.12.26.32 1.11.57.95zm4.91 55.86c-.19.43.52.7.18.7-.29 0-.04.34.13.78.21.55 1.05.6.54.6-.73 0 .86 1.08 1.29.82.22-.14.22-.15-.09-.17-.18-.01-.26-.06-.17-.12.33-.2.89.24.62-.22-.25-.41.78-.56-.38-2.43-.14-.23-.4-.78-.68-1.3l-1.69 1.01c.05.04.1.06.15.06.15-.01.18.08.1.27zm-9.16 8.65c.33.78.59.15.59.47-.01.66 2.24.74 1.68-.44-.84-1.8-1.45-3.02-1.89-3.86l-1.84 1.1c.36.92.7 1.76.74 1.84.46.85.44.25.72.89zm13.73-1.84c.07-.07.13-.14.2-.2-.17.03-.24.08-.2.2zm.73-.86c-.29.5-.84.26-.44.46.03.01.04.03.06.04.2-.22.39-.45.57-.68a.54.54 0 0 0-.19.18zm-5.28 3.82.15-.06a.153.153 0 0 0-.15.06zm.18-.33c.03-.02.09.16.02.23.15-.07.31-.14.48-.22-.22-.49-.71-.36-.5-.01zm-5.18 2.6c-.8-.34-.83 1.32-.02.58.08-.08.12-.05.09.08-.16.63-.97.12-.31 1.57l.96-.95c-.17-.48-.56-1.22-.72-1.28zm1.18-6.58c.32-.19.52.19.22.19-.29 0 .24.44.35.22.04-.09.16-.09.27 0 .15.12.25.07.45-.28.25-.42.25-.43-.06-.15-.43.4-.54.03-.28-.13s.15-1.14-.12-1.15c-.14 0-.2-.15-.17-.38.05-.33.02-.34-.16-.11-.29.37-.49.02-.15-.18.24-.14-.21-.9-.65-1.49l-1.6.96c.11.25.27.55.52.92.95 1.36 1.08 1.76 1.38 1.58zm8.64-8.83c.6 1.14 1.33 2.27 1.83 2.74-.06-.2-.12-.41-.19-.62-.31-.88-.26-1.84-.01-2.86-.06-.06-.12-.11-.16-.15l-1.47.89zm-83.56-11c-.05.1-.12.04-.15-.14-.05-.27-.3-.27-.63.02 0 .06-.01.11-.01.17-.02.7.02 1.33.1 1.92l1.6-.96c-.36-.69-.75-1.32-.91-1.01zm-.72-.94c-.02.17-.03.34-.04.52.04-.03.09-.05.15-.06.29-.05.13-.29-.11-.46zm11.71-4.16c.09-.36-.71-1.8-.85-1.52-.06.12-.15-.05-.23-.39-.21-1-.8-.62-.7-.96.13-.45-1.38-.65-1.27.14.02-.01.75 1.79 1.61 3.66l1.43-.87c0-.02 0-.03.01-.06zm-1.58-.19c-.26-.39.09-.31.15.04.05-.02.07.28-.15-.04zm5.39-5.63c-.82-.31-1.04.65-1.08.67.03.53.9.52.39.53-.37.01-.01.61.17.29.19-.32-.2.46.41 1.55 0 .01.08.21.2.5l1.91-1.15c-.63-1.14-1.38-2.15-2-2.39zm11.06-5.87c-.16.03-.28-.04-.27-.15.01-.4-.82.46-.86.49-.18.35.51 1.62.61 2.03.09.37.33-.16.41.51l1.79-1.08c-.63-.89-1.46-1.84-1.68-1.8zm6.01-3.31c-.49-.05-.42-.88-.66-.74-.35.21-.02-.71-1.1-.06-.41.36.15 2.1.94 3.81l1.85-1.11c-1.31-2.15-.6-1.85-1.03-1.9zm-1.67-.38c0-.37.33-.2.29-.17.22.11-.28.41-.29.17zm6.61-1.97c.16-.1.01-.39-.52-1.01-.03-.04-.07.09-.09.27-.02.26-.07.21-.19-.17-.29-.9-1.89-1.66-1.9-.91.04-.02.05 1.35 1.02 1.71.2.07.24.12.09.12-.23 0 .5 1.36 1.08 2.2l1.73-1.04c-1.01-1.4-1.5-.99-1.22-1.17zM49.13 42.95c0-.12.1-.22.23-.22.33 0-1.26-1.89-1.46-1.52-.08.15-.1.1-.07-.13.14-.96-.72-.05-.76-.03-.25.34.25 1.65.93 2.95l1.47-.88c-.37-.29-.34.08-.34-.17zm16.48-9.77c-.31-.44-1.16-.15-.62-.49.62-.39-.78-.83-.61-.53.16.27-.22.26-.15-.2.06-.42-.42-.82-.64-.53-.09.11-.25.14-.35.06-.14-.11-.16-.09-.08.06.21.42-.7.32-.38.85.09.14.2.15.28.01.1-.18.12-.16.06.09-.08.4.72 1.84.87 1.56.13-.26.38.09.07.28-.02.01-.04.04-.05.06l1.72-1.03c-.04-.08-.08-.13-.12-.19zm7.91-20.51c.08-.12.09-.06.01.15-.15.44.24 1.5.54 1.45.14-.02.17.07.09.26-.19.43.52.7.18.7-.29 0-.04.34.13.78.21.55 1.05.6.54.6-.73 0 .86 1.08 1.29.82.22-.13.22-.15-.09-.17-.18-.01-.26-.06-.17-.12.33-.2.89.23.62-.22-.25-.41.78-.56-.38-2.43-.33-.53-1.33-2.84-1.61-2.3-.05.1-.12.04-.15-.14-.05-.28-.3-.27-.63.02-.15.13-.19-.31.16-.36.52-.08-.39-.78-.7-.6-.18.11.05.19.03.2.34.18-.96 0-.25 1.2.17.25.3.3.39.16zm-20.5 3.63c.49.07.57.59.71.34.13-.25.43.28.88.01.35-.21.42-.99.1-1.15-.12-.06-.13-.14-.03-.2.11-.07-.07-.64-.37-1.33-.66.47-1.39.89-2.17 1.36.32.52.66.94.88.97zm4-5.5c-.18 0-.1.23.3.83 1.28 1.93 1.81 1 2.19 1.62.34.56.77-2.13-.07-2.15-.19-.01-.2-.03-.06-.12.13-.08-.12-.58-.89-1.8-.28-.44-.52-.8-.72-1.1-.21.64-.39 1.27-.57 1.89-.07.25-.15.48-.23.71.01 0 .01.01.01.01.21.08.22.11.04.11zm-8.89 9.32c1.37.59 1.35-.81 1.21-.73-.06.04-.05-.16.01-.47.09-.41.04-.66-.34-1.34-.58.52-1.16 1.12-1.74 1.82.28.33.57.59.86.72zM60.71 5.16c.08-.12.08-.05 0 .18-.18.48-.14.16 1.02 1.84 2.1 3.05 3.19 2.88 3.08 2.41-.03-.12.11-.14.32-.05 1.6.69-2.43-5.77-2.76-5.15-.14.26-.33-.04-.14-.33.11-.17.09-.21-.1-.19-.36.04-.26-.6-.53-.43-.11.07-.22-.04-.28-.29-.03-.11-.41-.55-.8-.63-.28.36-.54.74-.78 1.12.02.21.1.53.37.98.33.56.49.7.6.54zm3.22 3.71c-.14-.01-.17-.1-.08-.28.31-.59.38.29.08.28zm.2-.92c.04-.02-.17.2-.4.24-.33.06.61-.51.4-.24zm-1.82-1.13c.1-.06-.05.49-.36.24-.37-.28.33-.28.36-.24zm7.44.3c.22-.41.13.5.78.38.2-.04.24-.1.11-.16-.12-.06-.07-.16.12-.24 1.18-.47-3.11-7.23-4.39-8.29-.53.12-1.02.26-1.49.44.01.03.03.06.07.08.03.03 4.23 8.84 4.8 7.79zm-.37-2.69c.04-.02.06.28-.15-.04-.27-.39.09-.3.15.04zM66.59-.48c.04-.02-.03.22-.2.31-.15.07-.16.04-.05-.1.09-.11.06-.25-.05-.31-.29-.15.3-.17.3.1zM54.24 27.06c-.21.39.14-.67-.25-.59-.14.03-.24-.07-.24-.22.01-.46-.55-1.33-.77-1.2-.27.16-1.2-.23-.64-.12 1.12.22.09-1.17-.06-.88-.04.08-.15-.05-.24-.3-.27-.75-1.14-.8-1.51-.07-.2.4.38.45.14.59-.2.12.37.94.67.97.14.01.12.09-.04.18-.27.16-.04.69.35.8.06.01 1.3 2.58 1.24 2.62-.18.11.32.19.5.66.18.48.81.3.55.46-.24.14.43.87.53.65.12-.25.74.61.88.35.14-.27.11.16.58.08.18-.03.23-.1.11-.16-.11-.06-.09-.17.06-.25.68-.43-1.62-4.02-1.86-3.57zm7.59-.97c.22-.13-.25-.88-.55-.89-.13 0-.21-.12-.19-.28.08-.68-3.04-4.93-3.83-4.94-.18 0-.19.04-.01.13.62.32-1.37.1-.81.55.34.27.03.71.03.38 0-.32-.94-.43.57 2.4 1.03 1.93.81 1.93 1.04 1.93.27 0 .65 1.05.85.93.19-.11.32.8.65.8.19 0 .81.87 1.02.06.15-.59.33-.59.22 0-.14.75.05.04.35.2.28.15.83-.99.64-1.08-.08-.05-.07-.14.02-.19zm-2.14-.21c-.51-.13.39-.25.35-.07.04-.02-.03.15-.35.07zM46.99 31c.12-.15.12-.03 0 .28-.19.49-.17.56.2.69.32.12.34.15.11.15-.54 0 .45.3.38.58-.06.24.88 1.17.98.98.2-.39.26.93 1.11-.22.35-.47.35-.57.02-.76-.26-.15-.32-.26-.21-.32.1-.06.11-.21.02-.35-.24-.4.34-.47-.12-1.2-.51-.83-.82-1.87-1.4-2.39-.62-.57.04-.29-.52-.98-.25-.31-.42-.38-.54-.23-.1.12-.22.14-.28.05-.13-.22-.47.16-.26.39.21.23-.28.23-.28 0 0-.21-.33-.15-.55-.08 0 .03.01.07.01.1.22-.11.11.34.08.41-.01.03-.01.06-.02.09l.15.97c.29.95.86 2.15 1.12 1.84zm.08-3.03c.26.14-.32.48-.32.19 0-.42.36-.21.32-.19zm20.06-3.91c.91-.35-.65-2.88-.82-2.56-.11.21-.33-.15-.14-.27.15-.09-1.3-2.64-1.6-2.36-.14.13-.18.1-.15-.13.05-.45-.78-1.89-1.01-1.75-.3.18-.4-1-.58-.65-.06.12-.2.05-.32-.16-.17-.29-.23-.3-.29-.05-.1.39-.35.57-.35.25.01-.62-.2.38-.24.41-.21.98.37.48.56 1.24.05.23.13.28.2.14.15-.31.28.4.02.39-.26 0 .09.57.59.97.3.24.34.33.18.39-.3.11.4 1.44.53 1.17.05-.11.12.06.14.38.06.8.26.36.93 1.59 1.12 2.04 2.07 1.48 2.25 1.64.44.37.4-.96.13-.46-.15.25-.63.05-.03-.18zm-1.48-.21c-.16-.27.39-.33.43-.26.08-.04-.25.56-.43.26zm3.69-9.44c-.11.21-.13.19-.09-.1.08-.6-1.34-1.92-1.64-1.53-.09.12-.24.11-.32-.02-.19-.31-.44-.13-.36.26.08.45.48.48.2.57-.26.09.35 1.48.53 1.12.02-.05 3.03 7.5 3.74 7.07.1-.06.22.02.25.18.07.38.7.34 1.02-.07.31-.39.2-2.13-.15-2.4-.14-.11-.19-.24-.1-.29.41-.25-2.91-5.12-3.08-4.79zM81 83.77c.09-.36-.71-1.8-.85-1.52-.06.12-.15-.05-.23-.39-.21-1-.8-.62-.7-.96.13-.45-1.38-.65-1.27.14.02-.01.52 1.21 1.17 2.69.4.16.78.33 1.16.53l.71-.42c.01-.03.01-.05.01-.07zm-1.57-.19c-.26-.39.09-.31.15.04.04-.03.06.28-.15-.04zm5.38-5.63c-.82-.31-1.04.65-1.08.67.03.53.9.52.39.53-.37.01-.01.61.17.29.19-.32-.2.46.41 1.55 0 .01.08.21.2.5l1.91-1.15c-.63-1.14-1.38-2.16-2-2.39zm11.07-5.88c-.16.03-.28-.04-.27-.15.01-.4-.82.46-.86.49-.18.35.51 1.62.61 2.03.09.37.33-.16.41.51l1.79-1.08c-.64-.88-1.47-1.84-1.68-1.8zm6-3.3c-.49-.05-.42-.88-.66-.74-.35.21-.02-.71-1.1-.06-.41.36.15 2.1.94 3.81l1.85-1.11c-1.31-2.15-.6-1.86-1.03-1.9zm-1.66-.39c0-.37.33-.2.29-.17.22.12-.29.42-.29.17zm6.61-1.97c.16-.1.01-.39-.52-1.01-.03-.04-.07.09-.09.27-.02.26-.07.21-.19-.17-.29-.9-1.89-1.66-1.9-.91.04-.02.05 1.35 1.02 1.71.2.07.24.12.09.12-.23 0 .5 1.36 1.08 2.2l1.73-1.04c-1.02-1.39-1.51-.98-1.22-1.17zM91.32 76.52c.62-.39-.78-.83-.61-.53.16.27-.22.26-.15-.2.06-.42-.42-.82-.64-.53-.09.11-.25.14-.35.06-.14-.11-.16-.09-.08.06.21.42-.7.32-.38.85.09.14.2.15.28.01.1-.18.12-.16.06.09-.08.4.72 1.84.87 1.55.13-.26.38.09.07.28-.02.01-.04.04-.05.06l1.72-1.03c-.04-.06-.08-.11-.12-.18-.31-.45-1.16-.15-.62-.49z"/><path d="M44.01 49.45c-.73 0 .86 1.08 1.29.82.22-.14.22-.15-.09-.17-.18-.01-.26-.06-.17-.12.33-.2.89.24.62-.22-.25-.41.78-.56-.38-2.44-.14-.23-.4-.78-.68-1.29l-1.6.98c0 .03.01.07.01.1.02 0 .04.01.05 0 .14-.02.17.07.09.26-.19.43.52.7.18.7-.06 0-.1.02-.11.05l.15.51c.03.07.06.15.1.23.21.55 1.05.6.54.59zm55.85 7.05c.08-.12.09-.06.01.15-.15.44.24 1.5.54 1.45.14-.02.17.07.09.26-.19.43.52.7.18.7-.29 0-.04.34.13.78.21.55 1.05.6.54.6-.73 0 .86 1.08 1.29.82.22-.14.22-.15-.09-.17-.18-.01-.26-.06-.17-.12.33-.2.89.23.62-.22-.25-.41.78-.56-.38-2.43-.33-.53-1.33-2.84-1.61-2.3-.05.1-.12.04-.15-.14-.05-.28-.3-.27-.63.02-.15.13-.19-.31.16-.36.52-.08-.39-.78-.7-.6-.18.11.05.19.03.2.34.18-.96 0-.25 1.2.17.25.29.3.39.16zM55.92 44.78c.07-.14.13-.1.17.1.14.76 1.71-.47.47-2.09-.41-.53-.5-1.44-.7-1.33-.18.11-.81-.62-.56-.62.29 0-.04-.43-.4-.52-.21-.05-.27-.14-.24-.32l-1.43.86c1.06 2.29 2.31 4.68 2.69 3.92zm4.24-4.36c.08-.15.68 1.36.95.6.1-.27.13-.29.13-.09 0 .38.78-.07.46-.33-.12-.1-.18-.22-.12-.26.43-.26-.21-2.18-1.11-3.83l-1.91 1.15c.41 1.03 1.34 3.25 1.6 2.76zm9.93-7.95c.03.99.54.6.61 1 .06.32.76.43 1.43.57.94-3.2-.72-2.19-.15-2.53.14-.08-.25-.75-.76-1.46l-1.79 1.08c0 .03.01.07.01.11.06.86.65.94.65 1.23zm2.26.24c.07-.04-.25.56-.43.26-.17-.28.41-.31.43-.26zm4.6-1.27c1.82 1.19 1.6-2.23 1.08-1.92-.2.12.06-.24-1.36-2.54-.03-.06-.06-.1-.09-.15l-1.85 1.11c.73 1.59 1.66 3.13 2.22 3.5zm1.1-.35c.04-.02.06.28-.15-.04-.27-.39.09-.31.15.04zM49.64 57.53c-.32.08-.31.14.05.58.24.28 2.89 5.53 3.94 3.78.41-.67.48-1.53.15-1.61-.33-.08-.5-.34-.22-.33.7.01-1.8-3.36-1.67-3.61.17-.32-1.99-3.02-2.34-2.95-.18.03-.31-.02-.31-.12.01-.32-.59-.28-.78.05-.29.5-.84.26-.44.46.19.1.17.15-.09.2-.05.01-.09.02-.12.03.96.88 1.62 1.76 1.42 3.12 0 .02-.01.04-.01.07.13.12.29.2.44.22.29.02.28.04-.02.11zm24.37-17.92c.06.09.16.06.23-.07.08-.14.1-.06.07.2-.1.74.31.15.52.5.05.08-.03.15-.16.15-.11 0 2.19 5.1 2.44 4.65.32-.56-.44.97.85 1.21 1.45.28 1.21-1.42.96-.93-.06.11-.07-.12-.04-.51.14-1.41-1.9-3.64-2.96-5.11-1.35-1.87-2.2-1.08-1.78-.56.14.17-.29.21-.13.47zm3.92 6.15c.19-.11-.24.63-.24.14-.01-.3.12-.33.24-.14zm-3.12-6.99c.05-.03-.06.32-.11.45-.27.68-.06-.74.11-.45zm-10.76 7.27c.16-.13.29.19.17.42-.16.31 2.38 4.71 2.64 4.48.2-.18.5.28.14.35-.36.07.01.66.19.35.1-.18.12-.16.07.09-.05.26.03.34.45.42.61.11.58.14.78-.63.13-.51.1-.69-.14-.77-.49-.17.14-.22-.22-.89-.31-.59-.3-.07-.5-.42-.08-.13-.06-.23.05-.23.1 0 .01-.29-.21-.66-.57-.95-.43-.22-.78-.39-.31-.16-.74.67-.5.1.19-.46.66-.12.73-.41.06-.25-.88-1.72-1.04-1.62-.07.04-.22-.15-.35-.45-.33-.8-.4-.11-.73-.72-.67-1.21-1.95 1.99-.75.98zm-2.56 4.57c.85-.21-.87.66-.87.46 0-.1-.06-.13-.14-.08-.22.13.03.91.33.98.38.1.54.47.23.52-.22.04-.13.27.47 1.2 1.54 2.38 1.8 1.4 1.63 1.31-.32-.17.32.07.42-.81.05-.42 0-.58-.17-.54-.19.05-.23-.02-.18-.33.04-.29.02-.32-.07-.15-.17.33-.24.2-.28-.52-.06-1-1.25-2.57-1.58-3.13-.55-.91-1.01-.6-.7-.78.22-.13-.06-.94-.47-.53-.19.19-.28.18-.32-.04-.04-.22-.1-.23-.21-.06-.09.14-.1.08-.02-.15.13-.38.12-.39-.27-.16-.72.43-.21 1.15.23 1.94.58 1.11.75 1.18 1.97.87zm-2.45 7.15c-.26-.13.25-.26-.06-.51-.33-.27.18-.2-.2-.81-.05-.08-3.73-6.82-4.35-6.24-.1.09-.18.07-.18-.05.01-.4-.75-.2-.84.22-.07.33-.04.38.23.38.23.01.23.06 0 .22-.17.11-.2.19-.06.17.48-.08.06.9.52.63.55-.33.47.66.06.35-.26-.2.45 1.09.77 1.73 2.05 4.27 3.78 5.04 3.5 4.54-.15-.26.31-.34.43.16.22.94.59-.57.18-.79zm-1.5-1.95c.12.2-.48.29-.53.2-.13-.2.74-.32.53-.2zm25.34-12.87c.46.7.87-.29.87.2 0 .46 2.98.72-1.18-4.86-.93-1.25-1.58-2.35-2.22-2.55-.34-.1-.39-.15-.17-.16.29-.01.28-.03-.1-.17-.25-.09-.31-.16-.15-.16.5 0-.12-.72-.37-.01-.1.28-.13.28-.18.03-.08-.43-.46-.08-.48.01.03.1.24.74 1.54 3.95.64 1.59 1.3 2 2.44 3.72zm-3.99-7.69s0-.01 0 0zm0 .01v.01-.01zm0 0v-.01.01zm9.22 3.46c.09-.06.16 0 .16.13 0 .32.71.44.56.53-.06.04.17.18.52.34.77.34.97.24 1.26-.62.41-1.23-.69-1.25-.32-1.47.21-.13-.45-.86-.78-.86-.24-.01-.26-.04-.09-.14.32-.19-.38-.79-.77-1.35-.05-.07-.14-.03-.2.09-.08.15-.12.09-.14-.22-.02-.51-.28-1.04-.44-.74-.22.4-.01-.77-.33-.58-.31.19-.11-.97-.33-.58-.32.59-.11-.78-.51-.79-.17 0-.22-.1-.18-.34.06-.37-.45-.91-.71-.75-.1.06-.16.03-.16-.08.01-.28-.45.05-.63.45-.37.92 2.7 7.22 3.09 6.98zM59.54 71.4c.2 0 .13-.54-.07-.6-.23-.06-.62-.64-.43-.64.21 0-.62-1.47-.66-.99-.02.21-.07.16-.15-.16-.25-.97-1.83-3.25-2.4-3.45-.23-.08-.28-.16-.18-.28.19-.21-.55-.6-.75-.18.04-.02-.16.29-.32.29-.23 0 .06.88.36 1.12.14.11.16.2.04.2-.28 0 .2.86.47.7.14-.09.16-.04.06.16-.22.45.67.93.44 1.07-.19.11.26.8.54.82.16.01.16.07.02.16-.17.1-.1.15.22.19.28.03.35.08.17.11-.12.03-.16.14-.14.29 1.13.72 2.15 1.48 3.06 2.39.27-.88-.72-1.2-.28-1.2zm-2.28-3.31c-.66-.08-.6-.35.04-.1.04-.03.54.17-.04.1zm20.01-10.87c.07-.04 1.5 2.82 2.09 2.91.49.07.57.59.71.34.13-.25.43.28.88.01.35-.21.42-.99.1-1.15-.12-.06-.13-.14-.03-.2.3-.18-1.56-3.97-1.95-3.98-.13 0-.2-.14-.17-.33.07-.43-.23-.31-.89-1.31-1.11-1.69-2.61-1.49-2.7-.69-.18 1.71 1.94 3.77 1.66 3.94-.15.07.14.55.3.46zm-1.74-4.07c-.26-.06-.06-.98.08-.26.04-.03.02.29-.08.26zm2.96-5.05c-.13-.22-.5.01-.24.14.04-.02.46.22.24-.14zm4.07 2.43c-.27-.45.27-.32-.12-.75-.31-.34-.96-.72-.83-.48.05.09-.04.1-.18.03-.33-.17-.24.1-.28.12-.03.76-1.23-.57.64 2.53.81 1.35.76 2.19 1.51 2.52.21.09.22.13.04.13s-.1.23.3.83c1.28 1.93 1.81 1 2.19 1.62.34.56.77-2.13-.07-2.15-.19-.01-.2-.03-.06-.12.13-.08-.12-.58-.89-1.8-2.71-4.28-1.82-1.77-2.25-2.48zm-8.1 13.41c1.37.59 1.35-.81 1.21-.73-.06.04-.05-.16.01-.47.11-.5.02-.76-.65-1.88-1.39-2.32-4.26-7.65-4.71-5.11.03-.1.09-.04 0 .02v-.02c-.06.19-.05.93 1.1 3.35.65 1.38 1.78 4.3 3.04 4.84zm-3.14-6.32c-.36-.09.41-.55.32-.19.04-.03-.04.26-.32.19z"/><path d="M70.33 55.75v.02c.08-.05.03-.12 0-.02zm-1.57 9.74c.05-.09.11-.04.14.12.11.69 1.34-.85.89-1.08-.1-.05-.1-.14 0-.2.19-.12-1.27-2.45-1.66-2.65-.12-.06-.15-.19-.08-.28.25-.31-1.42-.51-1.14-.86.28-.34-.41-.23-.54-.58-.19-.49-2.52.6 1.08 5.23.2.28 1.21.5 1.31.3zM66.5 62.6c-.36-.36-.05-.55.21-.13.04-.02.4.74-.21.13zm19.94-14.16c.34.56.5.71.6.55.08-.12.08-.05 0 .18-.18.48-.14.16 1.02 1.84 2.1 3.05 3.19 2.88 3.08 2.41-.03-.12.11-.14.32-.05 1.6.69-2.43-5.77-2.76-5.15-.14.26-.33-.04-.14-.33.11-.17.09-.21-.1-.19-.36.04-.26-.6-.53-.43-.11.07-.22-.04-.28-.29-.05-.2-1.21-1.41-1.54.14.18-.13-.39.12.33 1.32zm3.82 4.26c-.14-.01-.17-.1-.08-.28.32-.6.38.29.08.28zm.21-.92c.04-.02-.17.2-.4.24-.34.06.6-.51.4-.24zm-1.83-1.13c.1-.06-.05.49-.36.24-.36-.28.34-.28.36-.24zm7.44.29c.22-.41.13.5.78.38.2-.04.24-.1.11-.16-.12-.06-.07-.16.12-.24 1.31-.52-4.18-8.89-4.71-8.41-.23.21-.44-.12-.18-.28.25-.15-.29-.45-.87.37.04-.03-.3.36-.06.55.04.04 4.25 8.85 4.81 7.79zm-.37-2.68c.04-.02.06.28-.15-.04-.27-.39.09-.31.15.04zm-2.79-4.91c.04-.02-.03.22-.2.31-.15.07-.16.04-.05-.1.09-.11.06-.25-.05-.31-.28-.15.3-.17.3.1zM67.31 74.1c-.08.15-.14.12-.18-.1-.1-.52-1.01.37-1.1.54.1-.06-.25.08.28.61.29.29.3.35.07.25-.72-.32 3.36 5.91 3.67 5.51.19-.24.2-.21.05.16-.34.89 3.6.59-2.59-7.08-.04-.06-.14-.01-.2.11zm3.19 5.77c.04-.02-.03.15-.35.07-.51-.12.38-.25.35-.07zm-.85-1.24c.04-.02-.18.19-.44.12-.4-.1.66-.37.44-.12zm-8.83-16.1c-.08.15-.14.12-.18-.1-.1-.52-1.01.37-1.1.54.1-.06-.25.08.28.61.29.29.3.35.07.25-.72-.32 3.36 5.91 3.67 5.51.19-.24.2-.21.05.16-.34.89 3.6.59-2.59-7.08-.03-.05-.13 0-.2.11zm3.19 5.78c.04-.02-.03.15-.35.07-.51-.13.39-.25.35-.07zm-.84-1.24c.04-.02-.18.19-.44.12-.41-.1.66-.37.44-.12zm16.05 5.58c-.18.11.32.19.5.66.18.48.81.3.55.46-.24.14.43.87.53.65.12-.25.74.61.88.35.14-.27.11.16.58.08.18-.03.23-.1.11-.16-.11-.06-.09-.17.06-.25.69-.42-1.61-4.01-1.85-3.55-.21.39.14-.67-.25-.59-.14.03-.24-.07-.24-.22.01-.46-.55-1.33-.77-1.2-.27.16-1.2-.23-.64-.12 1.12.22.09-1.17-.06-.88-.04.08-.15-.05-.24-.3-.27-.75-1.14-.8-1.5-.07-.2.4.38.45.14.59-.2.12.37.94.67.97.14.01.12.09-.04.18-.27.16-.04.69.35.79.03.01 1.28 2.58 1.22 2.61zM68.66 42.41c-.2.12.37.94.67.97.14.01.12.09-.04.18-.27.16-.04.69.35.8.06.01 1.3 2.58 1.24 2.62-.18.11.32.19.5.66.18.48.81.3.55.46-.24.14.43.87.53.65.12-.25.74.61.88.35.14-.27.11.16.58.08.18-.03.23-.1.11-.16-.11-.06-.09-.17.06-.25.69-.42-1.61-4.01-1.85-3.55-.21.39.14-.67-.25-.59-.14.03-.24-.07-.24-.22.01-.46-.55-1.33-.77-1.2-.27.16-1.2-.23-.64-.12 1.12.22.09-1.17-.06-.88-.04.08-.15-.05-.24-.3-.27-.75-1.14-.8-1.51-.07-.21.38.37.43.13.57zm19.51 27.5c.22-.13-.25-.88-.55-.89-.13 0-.21-.12-.19-.28.08-.68-3.04-4.93-3.83-4.94-.18 0-.19.04-.01.13.62.32-1.37.1-.81.55.34.27.03.71.03.38 0-.32-.94-.43.57 2.4 1.03 1.93.81 1.93 1.04 1.93.27 0 .65 1.05.85.93.19-.11.32.8.65.8.19 0 .81.87 1.02.06.15-.59.33-.59.22 0-.14.75.05.04.35.2.28.15.83-.99.64-1.08-.09-.04-.08-.13.02-.19zm-2.15-.2c-.51-.13.39-.25.35-.07.04-.03-.03.14-.35.07zm-9.89 6.8c-.26-.15-.32-.26-.21-.32.1-.06.11-.21.02-.35-.24-.39.34-.47-.12-1.2-.51-.83-.82-1.87-1.4-2.39-.62-.57.04-.29-.52-.98-.25-.31-.42-.38-.54-.23-.1.12-.22.14-.28.05-.13-.22-.47.16-.26.39.21.23-.28.23-.28 0 0-.39-1.19.14-.56.03.26-.16.13.32.11.4-.19.57.85 3.39 1.23 2.92.12-.15.12-.03 0 .28-.19.49-.17.56.2.69.32.12.34.15.11.15-.54 0 .45.3.38.58-.06.24.88 1.17.98.98.2-.39.26.93 1.11-.22.35-.49.36-.58.03-.78zm-3.05-4.52c0-.43.36-.22.32-.19.26.14-.32.49-.32.19zm20.38-4.1c.91-.35-.65-2.88-.82-2.56-.11.21-.33-.15-.14-.27.15-.09-1.3-2.64-1.6-2.36-.14.13-.18.1-.15-.13.05-.45-.78-1.89-1.01-1.75-.3.18-.4-1-.58-.65-.06.12-.2.05-.32-.16-.17-.29-.23-.3-.29-.05-.1.39-.35.57-.35.25.01-.62-.2.38-.24.41-.21.98.37.48.56 1.24.05.23.13.28.2.14.15-.31.28.4.02.39-.26 0 .09.57.59.97.3.24.34.33.18.39-.3.11.4 1.44.53 1.17.05-.11.12.06.14.38.06.8.26.36.93 1.59 1.12 2.04 2.07 1.48 2.25 1.64.44.37.4-.96.13-.46-.14.25-.63.05-.03-.18zm-1.48-.21c-.16-.27.39-.33.43-.26.08-.05-.25.56-.43.26zm3.69-9.45c-.11.21-.13.19-.09-.1.08-.6-1.34-1.92-1.64-1.53-.09.12-.24.11-.32-.02-.19-.31-.44-.13-.36.26.08.45.47.48.2.57-.26.09.35 1.48.53 1.12.02-.05 3.03 7.5 3.74 7.07.1-.06.22.02.25.18.07.38.7.34 1.02-.07.31-.39.2-2.13-.15-2.4-.14-.11-.19-.24-.1-.29.41-.24-2.9-5.11-3.08-4.79zM80.59 25.42c.08-.16.11-.13.08.11-.11.92.84 1.7 1.26 2.37.93 1.47.98 1.52 1.45 1.49.68-.03.55-.71.79-1.08.17-.26-1.25-2.89-1.57-2.91-.33-.02.33.19-.73-1.41-.06-.09-.11-.17-.17-.24l-1.73 1.04c.3.44.56.74.62.63zm3.08 2.2c.22.12-.29.42-.29.17 0-.37.33-.19.29-.17zM50.33 46.89c.16-.3.95.31.9-.12-.12-.96.61-.35-.8-2.47-.47-.7-.76-1.03-.96-1.18L48 44c.89 1.7 2.08 3.37 2.33 2.89zm14.34-11.68c.1-.27.12-.23.05.15-.15.88 1.07 2.19 1.89 2.03.23-.05.39-.13.35-.19-.99-1.2 2.84 1.96-1.23-3.86l-1.72 1.03c-.13.32.46 1.37.66.84zm17.52 50.08c-.18.11-.81-.62-.56-.62.29 0-.04-.43-.4-.52-.21-.05-.27-.14-.24-.32l-.71.42c.73.38 1.43.83 2.11 1.31-.06-.19-.12-.32-.2-.27zm4.3-1.05c.08-.15.68 1.36.95.6.1-.27.13-.29.13-.09 0 .38.78-.07.46-.33-.12-.1-.18-.22-.12-.26.43-.26-.21-2.18-1.11-3.83l-1.91 1.15c.41 1.03 1.34 3.26 1.6 2.76zm9.28-9.17c.06.86.65.94.66 1.23.03.99.54.6.61 1 .06.32.76.43 1.43.57.94-3.2-.72-2.19-.15-2.53.14-.08-.25-.75-.76-1.46l-1.79 1.08v.11zm2.92 1.47c.07-.04-.25.56-.43.26-.18-.29.4-.31.43-.26zm4.59-1.27c1.82 1.19 1.6-2.23 1.08-1.92-.2.12.06-.24-1.36-2.54-.03-.06-.06-.1-.09-.15l-1.85 1.11c.73 1.59 1.66 3.13 2.22 3.5zm1.1-.36c.04-.02.06.28-.15-.04-.27-.39.09-.3.15.04zm-3.91 8.05c.14.18-.29.22-.13.47.06.09.16.06.23-.07.08-.14.1-.06.07.2-.1.74.31.15.52.5.05.08-.03.15-.16.15-.04 0 .28.78.71 1.7.61-.27 1.22-.53 1.8-.76-.45-.59-.9-1.15-1.24-1.63-1.37-1.87-2.22-1.08-1.8-.56zm.56.08c-.27.69-.06-.74.11-.45.05-.03-.06.32-.11.45zm-9.9 5.85c-.37-.67-.92 0-1.14.57.62.09 1.24.13 1.86.13-.32-.77-.39-.1-.72-.7zm14.09-9.82zm0 .02v-.02.02zm1.46.46c-.34-.1-.39-.15-.17-.16.29-.01.28-.03-.1-.17-.25-.09-.31-.16-.15-.16.5 0-.12-.72-.37-.01-.1.28-.13.28-.18.03-.08-.43-.46-.08-.48.01.03.1.24.74 1.54 3.95.1.24.19.44.29.64l1.74-1.72c-.88-1.2-1.5-2.22-2.12-2.41zm-1.46-.46v.01-.01zm8.34-2.02c-.32.59-.11-.78-.51-.79-.17 0-.22-.1-.18-.34.06-.37-.45-.91-.71-.75-.1.06-.16.03-.16-.08.01-.28-.45.05-.62.45-.16.38.25 1.66.83 3.03l1.46-1.44c-.01-.15-.03-.24-.11-.08zm-16.25 9.96c-.27.16-1.2-.23-.64-.12 1.12.22.09-1.17-.06-.88-.04.08-.15-.05-.24-.3-.27-.75-1.14-.8-1.51-.07-.2.4.38.45.14.59-.2.12.37.94.67.97.14.01.12.09-.04.18-.27.16-.04.69.35.8.02 0 .15.26.33.62.41-.18.79-.38 1.13-.62.17-.12.36-.25.56-.37-.18-.45-.53-.89-.69-.8zm9.61-17.78c.08-.16.11-.13.08.11-.11.92.84 1.7 1.26 2.37.93 1.47.98 1.52 1.45 1.49.68-.03.55-.71.79-1.08.17-.26-1.25-2.89-1.57-2.91-.33-.02.33.19-.73-1.41-.06-.09-.11-.17-.17-.24l-1.73 1.04c.31.44.57.74.62.63zm3.08 2.2c.22.12-.29.42-.29.17 0-.37.33-.19.29-.17zm-19 7.59c.1-.27.12-.23.05.15-.15.88 1.07 2.19 1.89 2.03.23-.05.39-.13.35-.19-.99-1.2 2.84 1.96-1.23-3.86l-1.72 1.03c-.13.32.46 1.37.66.84z"/><path d="M138.89 65.51c-6.54-1.23-18.18-.61-26.96 7.76-8.78 8.37-15.73 22.47-9.39 40.03 6.33 17.56 34.52 20.01 34.52 20.01l1.83-67.8z"/><path d="M138.89 65.51s18.59 2.25 27.37 19.61c7.65 15.13 8.58 33.09 2.86 44.93s-16.13 11.23-16.13 11.23-2.45 18.79-2.45 27.57c0 8.78 1.02 18.59 2.45 22.47 0 0-11.64 34.52-17.36 49.02-5.72 14.5-8.78 20.63-8.78 20.63s-3.68-17.77-8.37-27.98c-4.7-10.21-8.78-16.13-8.78-16.13s-6.74-25.94-7.76-30.43c0 0 4.29-5.72 6.54-26.14s2.04-28.8 2.04-28.8-10.62-3.68-10.01-12.87 6.33-11.44 10.01-11.85c3.68-.41 7.56 1.23 7.56 1.23s-.82-12.66 2.25-22.47 4.08-10.82 4.08-10.82 3.68-3.27 6.94-5.11c3.25-1.84 7.54-4.09 7.54-4.09z" fill="#ef9b60"/><path d="M143.42 100.31c.46 1.26.21 2.07-.72 2.41s-1.64-.13-2.1-1.39c-.46-1.26-.21-2.07.72-2.41.94-.34 1.64.13 2.1 1.39zm23.28-9.3c.46 1.26.21 2.07-.72 2.41-.93.34-1.64-.13-2.1-1.39-.46-1.26-.21-2.07.72-2.41.94-.34 1.65.13 2.1 1.39z"/><path d="M141.56 124.7c-3.49 1.58-6.45-.22-8.77-5.34-2.31-5.12-1.71-8.53 1.78-10.11s6.45.22 8.77 5.34c2.32 5.12 1.72 8.53-1.78 10.11z" fill="#f49a86" opacity=".47"/><path d="M155.23 91.55c1.43 2.35 5.82 5.21 8.17 6.13 2.35.92 5.72 1.12 5.51 3.06-.2 1.94-7.76 7.05-7.76 7.05" fill="none" stroke="#c4513d" stroke-linecap="round" stroke-linejoin="round" stroke-miterlimit="10" stroke-width=".86"/><path d="M131.23 93.8c1.84-3.06 6.33-5.92 11.74-6.94m13.48-4.8c2.04-1.74 6.33-1.63 6.33-1.63" fill="none" stroke="#000" stroke-linecap="round" stroke-linejoin="round" stroke-miterlimit="10" stroke-width="2.15"/><path d="M109.38 116.27c2.66 1.63 7.97 6.74 7.97 6.74m.71-15.02c3.06 1.43 5 4.19 5 4.19m-12.56 19.3c5.21 1.23 10.93-.1 13.79-4.29" fill="none" stroke="#c4513d" stroke-linecap="round" stroke-linejoin="round" stroke-miterlimit="10" stroke-width=".86"/><path d="M169.73 108.2c-2.96 1.94-4.6 3.27-9.39 3.98-4.8.71-8.78-.31-9.5 1.43s2.86 3.88 6.13 4.8c3.27.92 10.31.41 11.74-.92 1.43-1.33 1.02-9.29 1.02-9.29z" fill="#fff" stroke="#c4513d" stroke-linecap="round" stroke-linejoin="round" stroke-miterlimit="10" stroke-width="1.72"/><path d="M152.98 141.28c-5.41.41-13.68-2.45-15.52-3.57" fill="none" stroke="#c4513d" stroke-linecap="round" stroke-linejoin="round" stroke-miterlimit="10" stroke-width=".86"/><path d="M77.47 203.07c-1.38 7.66-5.21 47.79-5.21 57.13v10.42l-5.36 20.22s-7.2-27.57-11.33-39.37C51.43 239.67 43 223.59 43 223.59s9.5-8.42 17-12.87c7.51-4.44 17.47-7.65 17.47-7.65zm100.63 3.06s-4.9 15.47-7.66 33.09c-2.76 17.62-.92 37.99 2.45 48.1 0 0 5.97-19.91 11.03-32.78 5.05-12.87 16.7-32.47 16.7-32.47s-2.3-4.44-10.26-9.96c-7.97-5.52-12.26-5.98-12.26-5.98z" fill="#1e8795"/><path d="M85.28 198.93c-2.14 11.49-1.23 21.29-1.23 21.29s9.8-5.82 14.7-7.97c4.9-2.14 10.93 4.6 10.93 4.6m36.87-6.43c5.82-3.98 8.58-2.76 10.72.31 2.14 3.06 4.9 9.5 6.13 9.5 1.23 0 3.98-13.79 4.6-22.21m-41.16 62.95c1.94 13.17.71 46.87.41 54.22m58.82 30.94c8.88.92 21.14 12.56 27.57 20.22m-34.62-18.69c6.13 3.06 16.24 15.93 18.38 23.9M30.44 349.2c-5.82 5.21-14.09 15.93-16.54 22.06m9.29-23.29c-13.28 3.68-19.1 13.79-19.1 13.79m62.81-70.92c-2.45 9.04-3.68 14.86-3.68 14.86m109.67-18.39c.31 14.4 4.6 26.65 4.6 26.65m-97.73-62.8c-3.37 7.35-7.51 19.45-7.51 19.45M57.4 236.76c3.37 11.95 11.95 41.97 11.95 41.97m-2.45-49.01c.31 8.58 1.53 28.49 2.45 34.92m108.14-26.04c-3.37 9.19-6.74 27.88-6.74 36.15m15.32-36.76c-4.9 10.72-11.64 30.94-13.79 44.42M96 323.46c12.87-4.29 21.44-5.82 26.96-7.35m23.59 46.87c-5.21 3.98-12.56 6.43-12.56 6.43" fill="none" stroke="#000" stroke-linecap="round" stroke-linejoin="round" stroke-miterlimit="10" stroke-width=".86"/><path d="M122.65 265.26c0 1.18-.96 2.14-2.14 2.14-1.18 0-2.14-.96-2.14-2.14 0-1.18.96-2.14 2.14-2.14a2.13 2.13 0 0 1 2.14 2.14z" fill="#fff"/><circle fill="#fff" cx="121.43" cy="295.89" r="2.14"/></g></svg>