<svg xmlns="http://www.w3.org/2000/svg" xmlns:xlink="http://www.w3.org/1999/xlink" xml:space="preserve" x="0" y="0" version="1.1" viewBox="0 0 263.73 263.73"><defs><circle id="a" cx="749.04" cy="-1537.37" r="129"/></defs><use xlink:href="#a" fill="#9fccd2" overflow="visible"/><clipPath id="b"><use xlink:href="#a" overflow="visible"/></clipPath><g clip-path="url(#b)"><ellipse cx="768.54" cy="-1564.13" rx="1.72" ry="2.33"/></g><defs><circle id="c" cx="795.14" cy="-5301.13" r="129"/></defs><use xlink:href="#c" fill="#eadbcb" overflow="visible"/><defs><circle id="d" cx="1096.14" cy="-5301.13" r="129"/></defs><use xlink:href="#d" fill="#e5e4d5" overflow="visible"/><clipPath id="e"><use xlink:href="#d" overflow="visible"/></clipPath><g clip-path="url(#e)"><ellipse fill="#f49a86" cx="1103.17" cy="-5330.81" opacity=".76" rx="5.66" ry="3.86" transform="rotate(-70.719 1103.242 -5330.76)"/><circle fill="#153745" cx="1121.14" cy="-5181.25" r="3.72"/><circle fill="#153745" cx="1048.96" cy="-5190.32" r="3.72"/></g><defs><circle id="f" cx="749.04" cy="-3263.23" r="129"/></defs><use xlink:href="#f" fill="#e5e4d5" overflow="visible"/><clipPath id="g"><use xlink:href="#f" overflow="visible"/></clipPath><g clip-path="url(#g)"><ellipse fill="#f49a86" cx="756.07" cy="-3292.91" opacity=".76" rx="5.66" ry="3.86" transform="rotate(-70.719 756.12 -3292.882)"/><circle fill="#153745" cx="774.05" cy="-3143.35" r="3.72"/><circle fill="#153745" cx="701.86" cy="-3152.43" r="3.72"/></g><defs><circle id="h" cx="2601.14" cy="-5301.13" r="129"/></defs><use xlink:href="#h" fill="#fdc83d" overflow="visible"/><defs><circle id="i" cx="1897.77" cy="-962.16" r="129"/></defs><use xlink:href="#i" fill="#fdc83d" overflow="visible"/><defs><circle id="j" cx="2902.14" cy="-5301.13" r="129"/></defs><use xlink:href="#j" fill="#e17765" overflow="visible"/><clipPath id="k"><use xlink:href="#j" overflow="visible"/></clipPath><g clip-path="url(#k)"><circle fill="#314f5b" cx="2903.47" cy="-5310.75" r="26.88"/><circle cx="2903.47" cy="-5310.75" r="18.24" transform="rotate(-76.714 2903.526 -5311.227)"/></g><defs><circle id="l" cx="3203.14" cy="-5301.13" r="129"/></defs><use xlink:href="#l" fill="#027888" overflow="visible"/><defs><circle id="m" cx="3504.14" cy="-5301.13" r="129"/></defs><use xlink:href="#m" fill="#df6d59" overflow="visible"/><defs><circle id="n" cx="3805.14" cy="-5301.13" r="129"/></defs><use xlink:href="#n" fill="#bab891" overflow="visible"/><clipPath id="o"><use xlink:href="#n" overflow="visible"/></clipPath><g clip-path="url(#o)"><ellipse cx="3794.71" cy="-5336.94" rx="1.43" ry="1.93"/></g><defs><circle id="p" cx="4106.14" cy="-5301.13" r="129"/></defs><use xlink:href="#p" fill="#9fccd2" overflow="visible"/><clipPath id="q"><use xlink:href="#p" overflow="visible"/></clipPath><g clip-path="url(#q)"><ellipse cx="4125.61" cy="-5333.35" rx="1.54" ry="2.08"/></g><defs><circle id="r" cx="2472.14" cy="-2687.8" r="129"/></defs><use xlink:href="#r" fill="#bab891" overflow="visible"/><clipPath id="s"><use xlink:href="#r" overflow="visible"/></clipPath><g clip-path="url(#s)"><ellipse cx="2461.71" cy="-2723.61" rx="1.43" ry="1.93"/></g><defs><circle id="t" cx="1323.41" cy="-1537.37" r="129"/></defs><use xlink:href="#t" fill="#9fccd2" overflow="visible"/><clipPath id="u"><use xlink:href="#t" overflow="visible"/></clipPath><g clip-path="url(#u)"><ellipse cx="1342.88" cy="-1569.59" rx="1.54" ry="2.08"/></g><defs><circle id="v" cx="795.14" cy="-4982.99" r="129"/></defs><use xlink:href="#v" fill="#027888" overflow="visible"/><clipPath id="w"><use xlink:href="#v" overflow="visible"/></clipPath><g clip-path="url(#w)"><ellipse cx="816.17" cy="-5019.92" rx="1.88" ry="2.54"/><ellipse fill="#f49a86" cx="821.57" cy="-5004.67" opacity=".51" rx="7.41" ry="5.06" transform="rotate(-79.216 821.528 -5005.004)"/></g><defs><circle id="x" cx="749.04" cy="-2687.8" r="129"/></defs><use xlink:href="#x" fill="#027888" overflow="visible"/><clipPath id="y"><use xlink:href="#x" overflow="visible"/></clipPath><g clip-path="url(#y)"><ellipse cx="770.08" cy="-2724.74" rx="1.88" ry="2.54"/><ellipse fill="#f49a86" cx="775.48" cy="-2709.48" opacity=".51" rx="7.41" ry="5.06" transform="rotate(-79.216 775.476 -2709.671)"/></g><defs><circle id="z" cx="1397.14" cy="-4982.99" r="129"/></defs><use xlink:href="#z" fill="#027888" overflow="visible"/><clipPath id="A"><use xlink:href="#z" overflow="visible"/></clipPath><g clip-path="url(#A)"><ellipse fill="#f49a86" cx="1419.83" cy="-5002.68" opacity=".44" rx="7.97" ry="5.44" transform="rotate(-65.669 1419.805 -5002.53)"/></g><defs><circle id="B" cx="2472.14" cy="-962.16" r="129"/></defs><use xlink:href="#B" fill="#027888" overflow="visible"/><clipPath id="C"><use xlink:href="#B" overflow="visible"/></clipPath><g clip-path="url(#C)"><ellipse fill="#f49a86" cx="2494.83" cy="-981.85" opacity=".44" rx="7.97" ry="5.44" transform="rotate(-65.669 2494.764 -981.814)"/></g><defs><circle id="D" cx="1698.14" cy="-4982.99" r="129"/></defs><use xlink:href="#D" fill="#e89789" overflow="visible"/><defs><circle id="E" cx="174.46" cy="-962.16" r="129"/></defs><use xlink:href="#E" fill="#e89789" overflow="visible"/><defs><circle id="F" cx="2300.14" cy="-4982.99" r="129"/></defs><use xlink:href="#F" fill="#eadbcb" overflow="visible"/><clipPath id="G"><use xlink:href="#F" overflow="visible"/></clipPath><g clip-path="url(#G)"><ellipse fill="#f49a86" cx="2308.91" cy="-4984.41" opacity=".52" rx="7.36" ry="5.03" transform="rotate(-76.944 2309.028 -4984.617)"/></g><defs><circle id="H" cx="174.46" cy="-2112.59" r="129"/></defs><use xlink:href="#H" fill="#eadbcb" overflow="visible"/><clipPath id="I"><use xlink:href="#H" overflow="visible"/></clipPath><g clip-path="url(#I)"><ellipse fill="#f49a86" cx="183.23" cy="-2114.01" opacity=".52" rx="7.36" ry="5.03" transform="rotate(-76.944 183.25 -2114.102)"/></g><defs><circle id="J" cx="2601.14" cy="-4982.99" r="129"/></defs><use xlink:href="#J" fill="#9fccd2" overflow="visible"/><defs><circle id="K" cx="1323.41" cy="-962.16" r="129"/></defs><use xlink:href="#K" fill="#9fccd2" overflow="visible"/><defs><circle id="L" cx="2902.14" cy="-4982.99" r="129"/></defs><use xlink:href="#L" fill="#fdcf58" overflow="visible"/><clipPath id="M"><use xlink:href="#L" overflow="visible"/></clipPath><g clip-path="url(#M)"><circle fill="#bab891" cx="2901.26" cy="-4861.93" r="32.17" transform="rotate(-22.5 2901.147 -4861.71)"/></g><defs><circle id="N" cx="174.83" cy="-1537.37" r="129"/></defs><use xlink:href="#N" fill="#fdcf58" overflow="visible"/><clipPath id="O"><use xlink:href="#N" overflow="visible"/></clipPath><g clip-path="url(#O)"><circle fill="#bab891" cx="173.95" cy="-1416.32" r="32.17" transform="rotate(-22.5 173.947 -1416.255)"/></g><defs><circle id="P" cx="3203.14" cy="-4982.99" r="129"/></defs><use xlink:href="#P" fill="#153745" overflow="visible"/><clipPath id="Q"><use xlink:href="#P" overflow="visible"/></clipPath><g clip-path="url(#Q)"><ellipse fill="#f49a86" cx="3184.92" cy="-4996.98" opacity=".41" rx="5.13" ry="7.51" transform="rotate(-14.805 3184.908 -4997.875)"/><circle fill="#fdc023" cx="3224.78" cy="-4806.81" r="9.65" transform="rotate(-22.5 3224.656 -4806.593)"/></g><defs><circle id="R" cx="749.04" cy="-962.16" r="129"/></defs><use xlink:href="#R" fill="#153745" overflow="visible"/><clipPath id="S"><use xlink:href="#R" overflow="visible"/></clipPath><g clip-path="url(#S)"><ellipse fill="#f49a86" cx="730.82" cy="-976.15" opacity=".41" rx="5.13" ry="7.51" transform="rotate(-14.805 730.834 -976.335)"/><circle fill="#fdc023" cx="770.68" cy="-785.98" r="9.65" transform="rotate(-22.5 770.653 -785.943)"/></g><defs><circle id="T" cx="3504.14" cy="-4982.99" r="129"/></defs><use xlink:href="#T" fill="#9fccd2" overflow="visible"/><clipPath id="U"><use xlink:href="#T" overflow="visible"/></clipPath><g clip-path="url(#U)"><ellipse cx="3523.63" cy="-5009.75" rx="1.72" ry="2.33"/></g><defs><circle id="V" cx="3805.14" cy="-4982.99" r="129"/></defs><use xlink:href="#V" fill="#fdc432" overflow="visible"/><clipPath id="W"><use xlink:href="#V" overflow="visible"/></clipPath><g clip-path="url(#W)"><circle fill="#fff" cx="3794.7" cy="-4818.96" r="2.14"/></g><defs><circle id="X" cx="1323.41" cy="-3263.23" r="129"/></defs><use xlink:href="#X" fill="#fdc432" overflow="visible"/><clipPath id="Y"><use xlink:href="#X" overflow="visible"/></clipPath><g clip-path="url(#Y)"><circle fill="#fff" cx="1312.97" cy="-3099.21" r="2.14"/></g><defs><circle id="Z" cx="4106.14" cy="-4982.99" r="129"/></defs><use xlink:href="#Z" fill="#df6d59" overflow="visible"/><clipPath id="aa"><use xlink:href="#Z" overflow="visible"/></clipPath><g clip-path="url(#aa)"><ellipse fill="#f49a86" cx="4094.75" cy="-5006.59" opacity=".36" rx="7.27" ry="4.96" transform="matrix(.0091 -1 1 .0091 9063.883 -866.46)"/></g><defs><circle id="ab" cx="2472.14" cy="-2112.59" r="129"/></defs><use xlink:href="#ab" fill="#df6d59" overflow="visible"/><clipPath id="ac"><use xlink:href="#ab" overflow="visible"/></clipPath><g clip-path="url(#ac)"><ellipse fill="#f49a86" cx="2460.75" cy="-2136.19" opacity=".36" rx="7.27" ry="4.96" transform="matrix(.0091 -1 1 .0091 4574.466 343.896)"/></g><defs><circle id="ad" cx="1999.14" cy="-5301.13" r="129"/></defs><use xlink:href="#ad" fill="#9fccd2" overflow="visible"/><clipPath id="ae"><use xlink:href="#ad" overflow="visible"/></clipPath><g fill="#1d1d1b" clip-path="url(#ae)"><circle cx="2008.98" cy="-5251.24" r=".59"/><circle cx="2020.76" cy="-5204.12" r=".59"/><circle cx="2014.87" cy="-5198.23" r=".59"/><circle cx="2008.98" cy="-5204.12" r=".59"/><circle cx="1973.64" cy="-5298.36" r=".59"/><circle cx="1961.86" cy="-5298.36" r=".59"/><circle cx="1973.64" cy="-5251.24" r=".59"/><circle cx="1961.86" cy="-5251.24" r=".59"/><circle cx="1973.64" cy="-5204.12" r=".59"/><circle cx="1979.53" cy="-5198.23" r=".59"/><circle cx="1967.75" cy="-5198.23" r=".59"/><circle cx="1961.86" cy="-5204.12" r=".59"/><circle cx="1973.64" cy="-5168.78" r=".59"/><circle cx="1961.86" cy="-5168.78" r=".59"/><circle cx="1967.75" cy="-5151.11" r=".59"/><circle cx="1967.75" cy="-5162.89" r=".59"/><circle cx="1961.86" cy="-5157" r=".59"/><circle cx="1955.97" cy="-5198.23" r=".59"/><circle cx="1955.97" cy="-5151.11" r=".59"/><circle cx="1955.97" cy="-5162.89" r=".59"/><circle cx="1926.52" cy="-5251.24" r=".59"/><circle cx="1914.74" cy="-5251.24" r=".59"/><circle cx="1926.52" cy="-5204.12" r=".59"/><circle cx="1932.41" cy="-5198.23" r=".59"/><circle cx="1920.63" cy="-5198.23" r=".59"/><circle cx="1914.74" cy="-5204.12" r=".59"/><circle cx="1926.52" cy="-5168.78" r=".59"/><circle cx="1914.74" cy="-5168.78" r=".59"/><circle cx="1926.52" cy="-5157" r=".59"/><circle cx="1932.41" cy="-5151.11" r=".59"/><circle cx="1920.63" cy="-5151.11" r=".59"/><circle cx="1932.41" cy="-5162.89" r=".59"/><circle cx="1920.63" cy="-5162.89" r=".59"/><circle cx="1914.74" cy="-5157" r=".59"/><circle cx="1932.41" cy="-5127.54" r=".59"/><circle cx="1908.85" cy="-5198.23" r=".59"/><circle cx="1908.85" cy="-5151.11" r=".59"/><circle cx="1908.85" cy="-5162.89" r=".59"/><circle cx="2032.54" cy="-5251.24" r=".59"/><circle cx="2032.54" cy="-5204.12" r=".59"/><circle cx="2020.76" cy="-5251.24" r=".59"/><circle cx="2008.98" cy="-5251.24" r=".59"/><circle cx="2020.76" cy="-5204.12" r=".59"/><circle cx="2026.65" cy="-5198.23" r=".59"/><circle cx="2014.87" cy="-5198.23" r=".59"/></g><defs><circle id="af" cx="1999.14" cy="-5301.13" r="129"/></defs><clipPath id="ag"><use xlink:href="#af" overflow="visible"/></clipPath><g fill="#1d1d1b" clip-path="url(#ag)"><circle cx="2008.98" cy="-5251.24" r=".59"/><circle cx="2020.76" cy="-5204.12" r=".59"/><circle cx="2014.87" cy="-5198.23" r=".59"/><circle cx="2008.98" cy="-5204.12" r=".59"/><circle cx="1973.64" cy="-5298.36" r=".59"/><circle cx="1961.86" cy="-5298.36" r=".59"/><circle cx="1973.64" cy="-5251.24" r=".59"/><circle cx="1961.86" cy="-5251.24" r=".59"/><circle cx="1973.64" cy="-5204.12" r=".59"/><circle cx="1979.53" cy="-5198.23" r=".59"/><circle cx="1967.75" cy="-5198.23" r=".59"/><circle cx="1961.86" cy="-5204.12" r=".59"/><circle cx="1973.64" cy="-5168.78" r=".59"/><circle cx="1961.86" cy="-5168.78" r=".59"/><circle cx="1967.75" cy="-5151.11" r=".59"/><circle cx="1967.75" cy="-5162.89" r=".59"/><circle cx="1961.86" cy="-5157" r=".59"/><circle cx="1955.97" cy="-5198.23" r=".59"/><circle cx="1955.97" cy="-5151.11" r=".59"/><circle cx="1955.97" cy="-5162.89" r=".59"/><circle cx="1926.52" cy="-5251.24" r=".59"/><circle cx="1914.74" cy="-5251.24" r=".59"/><circle cx="1926.52" cy="-5204.12" r=".59"/><circle cx="1932.41" cy="-5198.23" r=".59"/><circle cx="1920.63" cy="-5198.23" r=".59"/><circle cx="1914.74" cy="-5204.12" r=".59"/><circle cx="1926.52" cy="-5168.78" r=".59"/><circle cx="1914.74" cy="-5168.78" r=".59"/><circle cx="1926.52" cy="-5157" r=".59"/><circle cx="1932.41" cy="-5151.11" r=".59"/><circle cx="1920.63" cy="-5151.11" r=".59"/><circle cx="1932.41" cy="-5162.89" r=".59"/><circle cx="1920.63" cy="-5162.89" r=".59"/><circle cx="1914.74" cy="-5157" r=".59"/><circle cx="1932.41" cy="-5127.54" r=".59"/><circle cx="1908.85" cy="-5198.23" r=".59"/><circle cx="1908.85" cy="-5151.11" r=".59"/><circle cx="1908.85" cy="-5162.89" r=".59"/><circle cx="2032.54" cy="-5251.24" r=".59"/><circle cx="2032.54" cy="-5204.12" r=".59"/><circle cx="2020.76" cy="-5251.24" r=".59"/><circle cx="2008.98" cy="-5251.24" r=".59"/><circle cx="2020.76" cy="-5204.12" r=".59"/><circle cx="2026.65" cy="-5198.23" r=".59"/><circle cx="2014.87" cy="-5198.23" r=".59"/></g><defs><circle id="ah" cx="1897.77" cy="-3263.23" r="129"/></defs><use xlink:href="#ah" fill="#9fccd2" overflow="visible"/><clipPath id="ai"><use xlink:href="#ah" overflow="visible"/></clipPath><g fill="#1d1d1b" clip-path="url(#ai)"><circle cx="1907.62" cy="-3213.35" r=".59"/><circle cx="1919.4" cy="-3166.22" r=".59"/><circle cx="1913.51" cy="-3160.33" r=".59"/><circle cx="1907.62" cy="-3166.22" r=".59"/><circle cx="1872.28" cy="-3260.47" r=".59"/><circle cx="1860.5" cy="-3260.47" r=".59"/><circle cx="1872.28" cy="-3213.35" r=".59"/><circle cx="1860.5" cy="-3213.35" r=".59"/><circle cx="1872.28" cy="-3166.22" r=".59"/><circle cx="1878.17" cy="-3160.33" r=".59"/><circle cx="1866.39" cy="-3160.33" r=".59"/><circle cx="1860.5" cy="-3166.22" r=".59"/><circle cx="1872.28" cy="-3130.88" r=".59"/><circle cx="1860.5" cy="-3130.88" r=".59"/><circle cx="1866.39" cy="-3113.21" r=".59"/><circle cx="1866.39" cy="-3124.99" r=".59"/><circle cx="1860.5" cy="-3119.1" r=".59"/><circle cx="1854.6" cy="-3160.33" r=".59"/><circle cx="1854.6" cy="-3113.21" r=".59"/><circle cx="1854.6" cy="-3124.99" r=".59"/><circle cx="1825.15" cy="-3213.35" r=".59"/><circle cx="1813.37" cy="-3213.35" r=".59"/><circle cx="1825.15" cy="-3166.22" r=".59"/><circle cx="1831.04" cy="-3160.33" r=".59"/><circle cx="1819.26" cy="-3160.33" r=".59"/><circle cx="1813.37" cy="-3166.22" r=".59"/><circle cx="1825.15" cy="-3130.88" r=".59"/><circle cx="1813.37" cy="-3130.88" r=".59"/><circle cx="1825.15" cy="-3119.1" r=".59"/><circle cx="1831.04" cy="-3113.21" r=".59"/><circle cx="1819.26" cy="-3113.21" r=".59"/><circle cx="1831.04" cy="-3124.99" r=".59"/><circle cx="1819.26" cy="-3124.99" r=".59"/><circle cx="1813.37" cy="-3119.1" r=".59"/><circle cx="1831.04" cy="-3089.65" r=".59"/><circle cx="1807.48" cy="-3160.33" r=".59"/><circle cx="1807.48" cy="-3113.21" r=".59"/><circle cx="1807.48" cy="-3124.99" r=".59"/><circle cx="1931.18" cy="-3213.35" r=".59"/><circle cx="1931.18" cy="-3166.22" r=".59"/><circle cx="1919.4" cy="-3213.35" r=".59"/><circle cx="1907.62" cy="-3213.35" r=".59"/><circle cx="1919.4" cy="-3166.22" r=".59"/><circle cx="1925.29" cy="-3160.33" r=".59"/><circle cx="1913.51" cy="-3160.33" r=".59"/></g><defs><circle id="aj" cx="1897.77" cy="-3263.23" r="129"/></defs><clipPath id="ak"><use xlink:href="#aj" overflow="visible"/></clipPath><g fill="#1d1d1b" clip-path="url(#ak)"><circle cx="1907.62" cy="-3213.35" r=".59"/><circle cx="1919.4" cy="-3166.22" r=".59"/><circle cx="1913.51" cy="-3160.33" r=".59"/><circle cx="1907.62" cy="-3166.22" r=".59"/><circle cx="1872.28" cy="-3260.47" r=".59"/><circle cx="1860.5" cy="-3260.47" r=".59"/><circle cx="1872.28" cy="-3213.35" r=".59"/><circle cx="1860.5" cy="-3213.35" r=".59"/><circle cx="1872.28" cy="-3166.22" r=".59"/><circle cx="1878.17" cy="-3160.33" r=".59"/><circle cx="1866.39" cy="-3160.33" r=".59"/><circle cx="1860.5" cy="-3166.22" r=".59"/><circle cx="1872.28" cy="-3130.88" r=".59"/><circle cx="1860.5" cy="-3130.88" r=".59"/><circle cx="1866.39" cy="-3113.21" r=".59"/><circle cx="1866.39" cy="-3124.99" r=".59"/><circle cx="1860.5" cy="-3119.1" r=".59"/><circle cx="1854.6" cy="-3160.33" r=".59"/><circle cx="1854.6" cy="-3113.21" r=".59"/><circle cx="1854.6" cy="-3124.99" r=".59"/><circle cx="1825.15" cy="-3213.35" r=".59"/><circle cx="1813.37" cy="-3213.35" r=".59"/><circle cx="1825.15" cy="-3166.22" r=".59"/><circle cx="1831.04" cy="-3160.33" r=".59"/><circle cx="1819.26" cy="-3160.33" r=".59"/><circle cx="1813.37" cy="-3166.22" r=".59"/><circle cx="1825.15" cy="-3130.88" r=".59"/><circle cx="1813.37" cy="-3130.88" r=".59"/><circle cx="1825.15" cy="-3119.1" r=".59"/><circle cx="1831.04" cy="-3113.21" r=".59"/><circle cx="1819.26" cy="-3113.21" r=".59"/><circle cx="1831.04" cy="-3124.99" r=".59"/><circle cx="1819.26" cy="-3124.99" r=".59"/><circle cx="1813.37" cy="-3119.1" r=".59"/><circle cx="1831.04" cy="-3089.65" r=".59"/><circle cx="1807.48" cy="-3160.33" r=".59"/><circle cx="1807.48" cy="-3113.21" r=".59"/><circle cx="1807.48" cy="-3124.99" r=".59"/><circle cx="1931.18" cy="-3213.35" r=".59"/><circle cx="1931.18" cy="-3166.22" r=".59"/><circle cx="1919.4" cy="-3213.35" r=".59"/><circle cx="1907.62" cy="-3213.35" r=".59"/><circle cx="1919.4" cy="-3166.22" r=".59"/><circle cx="1925.29" cy="-3160.33" r=".59"/><circle cx="1913.51" cy="-3160.33" r=".59"/></g><defs><circle id="al" cx="795.14" cy="-4662.35" r="129"/></defs><use xlink:href="#al" fill="#11808f" overflow="visible"/><defs><circle id="am" cx="1096.14" cy="-4662.35" r="129"/></defs><use xlink:href="#am" fill="#fdd8d3" overflow="visible"/><defs><circle id="an" cx="2472.14" cy="-1537.37" r="129"/></defs><use xlink:href="#an" fill="#fdd8d3" overflow="visible"/><defs><circle id="ao" cx="1397.14" cy="-4662.35" r="129"/></defs><use xlink:href="#ao" fill="#eadbcb" overflow="visible"/><defs><circle id="ap" cx="2472.14" cy="-3263.23" r="129"/></defs><use xlink:href="#ap" fill="#eadbcb" overflow="visible"/><defs><circle id="aq" cx="1698.14" cy="-4662.35" r="129"/></defs><use xlink:href="#aq" fill="#fdc023" overflow="visible"/><defs><circle id="ar" cx="749.04" cy="-2112.59" r="129"/></defs><use xlink:href="#ar" fill="#fdc023" overflow="visible"/><defs><circle id="as" cx="1999.14" cy="-4662.35" r="129"/></defs><use xlink:href="#as" fill="#027888" overflow="visible"/><clipPath id="at"><use xlink:href="#as" overflow="visible"/></clipPath><g clip-path="url(#at)"><ellipse fill="#f49a86" cx="2045.59" cy="-4690.86" rx="6.14" ry="9" transform="rotate(-7.022 2046.958 -4692.457)"/></g><defs><circle id="au" cx="174.46" cy="-2687.8" r="129"/></defs><use xlink:href="#au" fill="#027888" overflow="visible"/><clipPath id="av"><use xlink:href="#au" overflow="visible"/></clipPath><g clip-path="url(#av)"><ellipse fill="#f49a86" cx="220.92" cy="-2716.31" rx="6.14" ry="9" transform="rotate(-7.022 221.33 -2717.35)"/></g><defs><circle id="aw" cx="2601.14" cy="-4662.35" r="129"/></defs><use xlink:href="#aw" fill="#fdce53" overflow="visible"/><clipPath id="ax"><use xlink:href="#aw" overflow="visible"/></clipPath><g clip-path="url(#ax)"><ellipse fill="#f49a86" cx="2593.98" cy="-4666.47" opacity=".55" rx="9.36" ry="6.39" transform="rotate(-64.004 2594.043 -4666.73)"/></g><defs><circle id="ay" cx="1323.41" cy="-2112.59" r="129"/></defs><use xlink:href="#ay" fill="#fdce53" overflow="visible"/><clipPath id="az"><use xlink:href="#ay" overflow="visible"/></clipPath><g clip-path="url(#az)"><ellipse fill="#f49a86" cx="1316.25" cy="-2116.7" opacity=".55" rx="9.36" ry="6.39" transform="rotate(-64.004 1316.289 -2116.822)"/></g><defs><circle id="aA" cx="2902.14" cy="-4662.35" r="129"/></defs><use xlink:href="#aA" fill="#df6d59" overflow="visible"/><defs><circle id="aB" cx="3203.14" cy="-4662.35" r="129"/></defs><use xlink:href="#aB" fill="#fdc023" overflow="visible"/><defs><circle id="aC" cx="3504.14" cy="-4662.35" r="129"/></defs><use xlink:href="#aC" fill="#254552" overflow="visible"/><defs><circle id="aD" cx="1897.77" cy="-2112.59" r="129"/></defs><use xlink:href="#aD" fill="#254552" overflow="visible"/><defs><circle id="aE" cx="3805.14" cy="-4662.35" r="129"/></defs><use xlink:href="#aE" fill="#eadbcb" overflow="visible"/><defs><circle id="aF" cx="4106.14" cy="-4662.35" r="129"/></defs><use xlink:href="#aF" fill="#9fccd2" overflow="visible"/><clipPath id="aG"><use xlink:href="#aF" overflow="visible"/></clipPath><g clip-path="url(#aG)"><ellipse fill="#f49a86" cx="4132.07" cy="-4664.08" opacity=".56" rx="8.23" ry="5.62" transform="rotate(-82.484 4132.109 -4664.01)"/></g><defs><circle id="aH" cx="1897.77" cy="-2687.8" r="129"/></defs><use xlink:href="#aH" fill="#9fccd2" overflow="visible"/><clipPath id="aI"><use xlink:href="#aH" overflow="visible"/></clipPath><g clip-path="url(#aI)"><ellipse fill="#f49a86" cx="1923.7" cy="-2689.53" opacity=".56" rx="8.23" ry="5.62" transform="rotate(-82.484 1923.73 -2689.493)"/></g><circle fill="#eadbcb" cx="2303.27" cy="-4662.33" r="129.21"/><circle fill="none" cx="2303.27" cy="-4662.33" r="129.21"/><circle fill="#fdc023" cx="1397.16" cy="-5301.31" r="129.21"/><circle fill="none" cx="1397.16" cy="-5301.31" r="129.21"/><circle fill="#153745" cx="1698.16" cy="-5300.32" r="129.21"/><ellipse cx="1718.1" cy="-5337.72" rx="1.45" ry="1.95"/><circle fill="#e37d6b" cx="1701.1" cy="-5288.69" r="12.52" transform="rotate(-80.781 1701.016 -5288.728)"/><circle fill="none" cx="1698.16" cy="-5300.32" r="129.21"/><circle fill="#153745" cx="1323.19" cy="-2688.02" r="129.21"/><ellipse cx="1343.14" cy="-2725.41" rx="1.45" ry="1.95"/><circle fill="#e37d6b" cx="1326.13" cy="-2676.39" r="12.52" transform="rotate(-80.781 1326.09 -2676.413)"/><circle fill="none" cx="1323.19" cy="-2688.02" r="129.21"/><circle fill="#153745" cx="2299.54" cy="-5302.12" r="129.21"/><circle fill="#153745" cx="2299.54" cy="-5302.12" r="129.21"/><circle fill="#153745" cx="2299.54" cy="-5302.12" r="129.21"/><circle fill="#2c4b58" cx="2289.48" cy="-5342.61" r="20.59"/><circle cx="2289.48" cy="-5342.61" r="13.19" transform="rotate(-45.001 2289.548 -5342.607)"/><circle fill="none" cx="2299.54" cy="-5302.12" r="129.21"/><circle fill="#fdc023" cx="1096.14" cy="-4980.84" r="129.21"/><circle fill="none" cx="1096.14" cy="-4980.84" r="129.21"/><circle fill="#fdc023" cx="1897.56" cy="-1537.59" r="129.21"/><circle fill="none" cx="1897.56" cy="-1537.59" r="129.21"/><circle fill="#fdc023" cx="152.31" cy="-4976.75" r="450"/><ellipse fill="#f49a86" cx="101.88" cy="-4946.54" rx="15.32" ry="22.43" transform="rotate(-12.539 101.845 -4947.176)"/><circle fill="none" cx="152.31" cy="-4976.75" r="450"/><circle fill="#df6d59" cx="2006.68" cy="-4983.11" r="129.21"/><circle fill="none" cx="2006.68" cy="-4983.11" r="129.21"/><circle fill="#df6d59" cx="174.68" cy="-3263.02" r="129.21"/><circle fill="none" cx="174.68" cy="-3263.02" r="129.21"/><text font-family="Gotham-Book" font-size="22" transform="translate(45.463 -3083.017)">New experiences type</text><text font-family="Gotham-Book" font-size="22" transform="translate(675.528 -3083.017)">Selfie type</text><text font-family="Gotham-Book" font-size="22" transform="translate(620.042 -1934.982)">Always positive type</text><text font-family="Gotham-Book" font-size="22" transform="translate(107.95 -1934.982)">Stylish type</text><text font-family="Gotham-Book" font-size="22" transform="translate(1204.546 -1934.982)">Overthinker type</text><text font-family="Gotham-Book" font-size="22" transform="translate(1778.1 -1934.982)">Original thinker type</text><text font-family="Gotham-Book" font-size="22" transform="translate(2328.035 -1934.982)">Always at the phone type</text><text font-family="Gotham-Book" font-size="22" transform="translate(2397.546 -1360.305)">Strategy type</text><text font-family="Gotham-Book" font-size="22" transform="translate(1805.293 -1360.305)">Iluminations type</text><text font-family="Gotham-Book" font-size="22" transform="translate(1166.833 -1360.305)">What other will think type</text><text font-family="Gotham-Book" font-size="22" transform="translate(620.042 -1360.305)">Artist’s boyfriend type</text><text font-family="Gotham-Book" font-size="22" transform="translate(78.49 -782.985)">Music &amp; Life type</text><text font-family="Gotham-Book" font-size="22" transform="translate(608.152 -782.985)">Always on schedulle type</text><text font-family="Gotham-Book" font-size="22" transform="translate(1204.545 -782.985)">Pastele colors type</text><text font-family="Gotham-Book" font-size="22" transform="translate(1787.15 -782.985)">Nature Photos type</text><text font-family="Gotham-Book" font-size="22" transform="translate(2343.137 -782.985)">Can’t be defined type</text><text font-family="Gotham-Book" font-size="22" transform="translate(107.95 -1360.305)">Artist type</text><text font-family="Gotham-Book" font-size="22" transform="translate(1166.833 -2506.714)">Let me do a photo first type</text><text font-family="Gotham-Book" font-size="22" transform="translate(1837.664 -2506.714)">Zen type</text><text font-family="Gotham-Book" font-size="22" transform="translate(2378.29 -2506.714)">Jonny Bravo type</text><text font-family="Gotham-Book" font-size="22" transform="translate(2397.546 -3094.739)">What if type</text><text font-family="Gotham-Book" font-size="22" transform="translate(1815.446 -3094.739)">Melancolic type</text><text font-family="Gotham-Book" font-size="22" transform="translate(1252.719 -3094.739)">Dooer type</text><text font-family="Gotham-Book" font-size="22" transform="translate(98.11 -2506.715)">Harmony type</text><text font-family="Gotham-Book" font-size="22" transform="translate(662.927 -2506.715)">Cofident type</text><defs><circle id="aJ" cx="131.87" cy="131.87" r="129"/></defs><use xlink:href="#aJ" fill="#9fccd2" overflow="visible"/><clipPath id="aK"><use xlink:href="#aJ" overflow="visible"/></clipPath><g clip-path="url(#aK)"><path d="M261.13 364.28c-20.96 7.97-35.42-1.53-42.4-8.23l-2.21-33.24s-41.62 11.53-70.78 12.3c-32.6.86-89.94-8.87-89.94-8.87l-3.88 49.56c-4.72 1.99-11.27 3.71-18.57 2.63-14.6-2.14-30.9-12.87-31.75-42.03-.86-29.17 4.72-61.34 15.87-96.95 11.15-35.6 46.52-46.85 46.52-46.85-1.53-4.39-1.34-19.45 8.58-31.84 9.91-12.39 30.31-20.4 41.56-24.02l23.02 1.05s30.46-2.58 48.47 14.16c18.02 16.73 17.16 30.89 17.16 30.89s21.45 5.58 37.32 21.02c15.87 15.44 28.31 49.33 35.17 75.07 6.88 25.72 16.31 73.76-14.14 85.35z" fill="#153745"/><path d="M63.99 192.59c2.38 16.83 26.4 38.27 28.12 52m-25.74-5.14c2.14 10.72-.86 35.18-.86 35.18m10.73-29.18c0 5.15-2.14 21.88-2.14 21.88m189.31 33.75c9.29 10.01 15.73 19.88 16.16 25.88m-27.88-39.47c10.72 2.14 24.02 14.16 25.74 18.02m-251.38 6c-4.29 3.43-16.3 17.16-17.16 26.6m24.88-34.32c-7.29.43-18.88 6.01-23.59 13.3" fill="none" stroke="#000" stroke-linecap="round" stroke-linejoin="round" stroke-miterlimit="10" stroke-width=".86"/><path d="M111.46 126.62c.19 10.1.57 22.31-1.53 29.74-2.1 7.44-4.39 13.73-4.39 13.73l55.86-1.91s-4-13.16-4.39-24.02c-.38-10.87.19-17.54.19-17.54h-45.74z" fill="#e68f7f"/><path d="M102.31 88.49c-.67-10.96 6.29-23.74 6.29-23.74s-3.64-8.44 3.05-17.64c6.86-9.44 16.63-10.01 27.65-9.44 11.01.57 18.59 1.29 28.03 0 9.44-1.29 14.44-4.43 17.02-1.57 2.57 2.86-1 7.58-4.15 10.15 0 0 6.86-3.15 9.15-.57 2.29 2.57-1.29 6.72-6.15 9.72 0 0 5.72-3 7.86-.57 2.14 2.43-2 7.15-4 8.58 0 0 6.58-3 8.01-.86 1.43 2.14.96 5.56-7.05 10.01-11.58 6.43-25.4 5.86-25.4 5.86s4.43 10.3 2.43 20.16c-2 9.87-60.77 5-60.77 5l-2.86-12.01.89-3.08z" fill="#027888"/><path d="M122.14 65.42s-12.01 10.49-15.06 21.16c-3.05 10.68-2.48 14.87-2.48 14.87s-2.29-8.77-2.29-12.96c0 0-7.44-3.62-12.2 3.43-4.77 7.05-.95 16.4 4.58 20.21 5.53 3.81 11.06 3.24 11.06 3.24s3.24 14.68 14.68 21.73c11.44 7.05 25.36 4.58 32.98-2.67 7.63-7.24 10.3-21.54 10.3-21.54s10.68-4.19 12.2-12.96c1.53-8.77 0-13.16-5.15-14.68-5.15-1.53-6.1 10.87-6.1 10.87s-1.91-11.82-6.29-18.88c0 0-8.2 0-20.02-3.81-11.83-3.81-16.21-8.01-16.21-8.01z" fill="#eca79b"/><path d="M121.14 99.22c0 1.38-.52 2.08-1.54 2.08s-1.54-.7-1.54-2.08c0-1.38.52-2.08 1.54-2.08s1.54.7 1.54 2.08z"/><ellipse cx="151.34" cy="99.65" rx="1.54" ry="2.08"/><path d="M118.95 121.11c-2.75.41-4.46-1.42-5.06-5.45-.61-4.03.48-6.29 3.23-6.7 2.75-.41 4.46 1.42 5.06 5.45.61 4.03-.48 6.29-3.23 6.7zm33.35-.14c2.75.41 4.46-1.42 5.06-5.45.61-4.03-.48-6.29-3.23-6.7-2.75-.41-4.46 1.42-5.06 5.45-.61 4.03.48 6.29 3.23 6.7z" fill="#f49a86" opacity=".7"/><path d="M104.6 101.46c.38 6.43.48 10.82 1.14 13.92m58.91-19.26c.38 4.34-.71 13.77-.95 16.78M95.26 98.31c1.72 2.29 7.15 7.01 7.86 9.44m68.92-14.16c-3.29 3.57-7.44 11.3-7.44 11.3m-29.59-9.58c-.86 5-4.72 13.73-5.29 15.01-.57 1.29 1.43 2.29 4.72 2.14 3.29-.14 4.15-.14 4.15-.14" fill="none" stroke="#c4513d" stroke-linecap="round" stroke-linejoin="round" stroke-miterlimit="10" stroke-width=".86"/><path d="M127.43 120.33c4.43.57 11.58.43 16.02-.43" fill="none" stroke="#df6d59" stroke-linecap="round" stroke-linejoin="round" stroke-miterlimit="10" stroke-width="2.15"/><path d="M113.42 89.3c3.72-1.43 12.01-1.29 15.3-.86m13.29.58c6.01-1.43 12.01-.86 15.01-.29" fill="none" stroke="#000" stroke-linecap="round" stroke-linejoin="round" stroke-miterlimit="10" stroke-width="3.44"/><path d="M180.19 46.26c-4.77 3.43-18.4 6.01-28.41.48m31.42 8.67c-5.58 3.72-14.16 7.05-25.31 4.1s-14.39-9.44-14.39-9.44" fill="none" stroke="#000" stroke-linecap="round" stroke-linejoin="round" stroke-miterlimit="10" stroke-width=".86"/><path d="M187.06 63.42c-6.01 3.91-14.87 8.01-28.41 6.1-13.54-1.91-24.4-10.96-28.69-15.16" fill="none" stroke="#000" stroke-linecap="round" stroke-linejoin="round" stroke-miterlimit="10" stroke-width=".86"/><path d="M126.24 285.53c-6.37 8.97-22.97 33.28-29.84 43-7.82 11.06-28.6 37.37-33.55 40.04-4.96 2.67-12.96 3.43-21.74.38-8.77-3.05-16.21-9.15-20.97-19.44-4.77-10.29-4.58-27.07 6.86-40.8 11.44-13.73 40.99-40.8 49.76-49.95 2.2-2.3 4.1-4.36 5.77-6.26 2.55 19.55 13.99 27.46 22.73 31.42 6.23 2.82 15.43 2.3 20.98 1.61zm85.32-64.72c2.29 1.33 7.44 10.87 13.73 20.59s20.97 33.56 27.07 42.52c6.1 8.96 11.06 17.16 11.06 17.16s6.48 16.78-3.05 34.32c-9.53 17.54-19.45 20.78-28.22 21.73-8.77.95-16.4-3.81-16.4-3.81s-17.16-25.55-27.07-44.61c-9.91-19.07-18.68-43.47-19.26-46.33-.57-2.86 3.81-4.77 3.81-4.77l38.33-36.8z" fill="#9fccd2"/><path d="M148.43 172.82c-.96-4.33.55-11.4 7.08-12.99 6.53-1.59 10.12 6.69 10.74 8.17.62 1.46-17.82 4.82-17.82 4.82z" fill="#eca79b"/><path d="M168.88 217.19H90.64c-3.88 0-7.02-3.14-7.02-7.02v-35.15c0-3.88 3.14-7.02 7.02-7.02h78.24c3.88 0 7.02 3.14 7.02 7.02v35.15c0 3.87-3.14 7.02-7.02 7.02z" fill="#fdc023"/><path d="M99.95 210.9h-5.58c-2.25 0-4.07-1.82-4.07-4.07v-5.58c0-2.25 1.82-4.07 4.07-4.07h5.58c2.25 0 4.07 1.82 4.07 4.07v5.58c.01 2.24-1.82 4.07-4.07 4.07z" fill="#153745"/><path d="M128.57 180.68c.2-3.87 4.72-6.15 9.15-7.29 4.43-1.14 14.3-3.72 20.73-4.29 6.43-.57 13.73-1 19.88-.57 6.15.43 13.01 3.15 16.59 10.3 3.57 7.15 9.58 22.74 11.01 27.31 1.43 4.58 6.43 13.16 5.29 20.59-1.14 7.44-3 16.87-12.87 25.31-9.87 8.44-22.45 10.01-28.03 7.58 0 0-12.15-25.45-16.02-33.6-3.86-8.15-5.72-14.16-5.72-14.16s-15.59.43-19.45-2.43c-3.86-2.86-2.43-6.86-.86-8.15 1.57-1.29 3.86-1.72 3.86-1.72s-6.43.57-7.44-4.29c-1-4.86 3.57-7.58 7.29-8.29.02-.01-3.69-.87-3.41-6.3z" fill="#eca79b"/><path d="M183.91 219.66c-.57 4.58-7.25 14.49-7.25 14.49s.76 2.29-1.91 7.82-8.38 11.63-17.16 19.26c-8.77 7.63-24.02 14.49-24.02 14.49s-6.46 8.57-7.34 9.81c-5.55.69-14.75 1.22-20.98-1.61-8.74-3.97-20.18-11.87-22.73-31.42 5-5.69 8.01-10.06 11.19-15.66 6.67-11.73 15.16-19.54 15.16-19.54l10.78.09s7.43-2.67 16.97-8.01c9.53-5.34 21.35-16.21 27.64-15.63 6.11.55 5.38 5.78 5.34 6.09.06-.11.61-1.08 4-3.23 3.62-2.29 9.53-1.33 9.73 4.96.18 6.19-7.02 13.13-7.24 13.34 4.39-3.25 8.39.18 7.82 4.75z" fill="#e89789"/><path d="M169.61 199.82c-2.72 3.3-13.3 13.31-19.74 18.17-6.43 4.86-14.73 10.01-19.3 12.01" fill="none" stroke="#c4513d" stroke-linecap="round" stroke-linejoin="round" stroke-miterlimit="10" stroke-width=".86"/><path d="M161.18 194.4c-3.15 2.29-5 5.72-2.86 8.87s6.01 1.72 6.01 1.72m11.77 9.91c-5.49 5.67-16.21 16.11-23.36 20.97-7.15 4.86-13.16 8.29-16.73 9.87m38.32-49.05c-3.15 3.57-6.01 8.15-1.86 11.73 4.15 3.57 9.58-2.29 9.58-2.29m-5.38 28.03c-5.05 6.01-17.78 16.3-23.64 19.88l-5.86 3.57" fill="none" stroke="#c4513d" stroke-linecap="round" stroke-linejoin="round" stroke-miterlimit="10" stroke-width=".86"/><path d="M181.91 224.15c-2.14 1.86-5.58 3-8.72.43-3.15-2.57 1.14-7.86 1.14-7.86m-40.75 59c-6.29 1.19-19.59-.1-28.03-10.11-8.44-10.01-9.72-17.45-9.29-21.59M132 186.97c8.01-2.86 16.73-4.58 25.74-5.29s17.73-.14 17.73-.14M132 175.81c4.43-1.29 7.72-.43 8.44 3.15.71 3.57-.43 4.43-2.43 5.86m-5.86 14.73c5-1.14 20.88-2.86 24.02-2.86m-27.6-8.29c3.86-.86 9.15-.71 9.58 2.86s.43 5.86-4 7.72m-5.15 2.29c4.43-1.29 9.01-.86 10.01 1.57s.57 4.15-1.72 6.01m58.35-4.72c-.57 2.43-.43 4.86-2.29 10.15-1.92 5.46-5.29 9.58-8.58 12.15-3.29 2.57-6.72 4.29-6.72 4.29" fill="none" stroke="#c4513d" stroke-linecap="round" stroke-linejoin="round" stroke-miterlimit="10" stroke-width=".86"/></g></svg>