<svg xmlns="http://www.w3.org/2000/svg" xmlns:xlink="http://www.w3.org/1999/xlink" xml:space="preserve" x="0" y="0" version="1.1" viewBox="0 0 263.73 263.73"><defs><circle id="a" cx="749.04" cy="-1537.37" r="129"/></defs><use xlink:href="#a" fill="#9fccd2" overflow="visible"/><clipPath id="b"><use xlink:href="#a" overflow="visible"/></clipPath><g clip-path="url(#b)"><ellipse cx="768.54" cy="-1564.13" rx="1.72" ry="2.33"/></g><defs><circle id="c" cx="795.14" cy="-5301.13" r="129"/></defs><use xlink:href="#c" fill="#eadbcb" overflow="visible"/><defs><circle id="d" cx="1096.14" cy="-5301.13" r="129"/></defs><use xlink:href="#d" fill="#e5e4d5" overflow="visible"/><clipPath id="e"><use xlink:href="#d" overflow="visible"/></clipPath><g clip-path="url(#e)"><ellipse fill="#f49a86" cx="1103.17" cy="-5330.81" opacity=".76" rx="5.66" ry="3.86" transform="rotate(-70.719 1103.242 -5330.76)"/><circle fill="#153745" cx="1121.14" cy="-5181.25" r="3.72"/><circle fill="#153745" cx="1048.96" cy="-5190.32" r="3.72"/></g><defs><circle id="f" cx="749.04" cy="-3263.23" r="129"/></defs><use xlink:href="#f" fill="#e5e4d5" overflow="visible"/><clipPath id="g"><use xlink:href="#f" overflow="visible"/></clipPath><g clip-path="url(#g)"><ellipse fill="#f49a86" cx="756.07" cy="-3292.91" opacity=".76" rx="5.66" ry="3.86" transform="rotate(-70.719 756.12 -3292.882)"/><circle fill="#153745" cx="774.05" cy="-3143.35" r="3.72"/><circle fill="#153745" cx="701.86" cy="-3152.43" r="3.72"/></g><defs><circle id="h" cx="2601.14" cy="-5301.13" r="129"/></defs><use xlink:href="#h" fill="#fdc83d" overflow="visible"/><defs><circle id="i" cx="1897.77" cy="-962.16" r="129"/></defs><use xlink:href="#i" fill="#fdc83d" overflow="visible"/><defs><circle id="j" cx="2902.14" cy="-5301.13" r="129"/></defs><use xlink:href="#j" fill="#e17765" overflow="visible"/><clipPath id="k"><use xlink:href="#j" overflow="visible"/></clipPath><g clip-path="url(#k)"><circle fill="#314f5b" cx="2903.47" cy="-5310.75" r="26.88"/><circle cx="2903.47" cy="-5310.75" r="18.24" transform="rotate(-76.714 2903.526 -5311.227)"/></g><defs><circle id="l" cx="3203.14" cy="-5301.13" r="129"/></defs><use xlink:href="#l" fill="#027888" overflow="visible"/><defs><circle id="m" cx="3504.14" cy="-5301.13" r="129"/></defs><use xlink:href="#m" fill="#df6d59" overflow="visible"/><defs><circle id="n" cx="3805.14" cy="-5301.13" r="129"/></defs><use xlink:href="#n" fill="#bab891" overflow="visible"/><clipPath id="o"><use xlink:href="#n" overflow="visible"/></clipPath><g clip-path="url(#o)"><ellipse cx="3794.71" cy="-5336.94" rx="1.43" ry="1.93"/></g><defs><circle id="p" cx="4106.14" cy="-5301.13" r="129"/></defs><use xlink:href="#p" fill="#9fccd2" overflow="visible"/><clipPath id="q"><use xlink:href="#p" overflow="visible"/></clipPath><g clip-path="url(#q)"><ellipse cx="4125.61" cy="-5333.35" rx="1.54" ry="2.08"/></g><defs><circle id="r" cx="2472.14" cy="-2687.8" r="129"/></defs><use xlink:href="#r" fill="#bab891" overflow="visible"/><clipPath id="s"><use xlink:href="#r" overflow="visible"/></clipPath><g clip-path="url(#s)"><ellipse cx="2461.71" cy="-2723.61" rx="1.43" ry="1.93"/></g><defs><circle id="t" cx="1323.41" cy="-1537.37" r="129"/></defs><use xlink:href="#t" fill="#9fccd2" overflow="visible"/><clipPath id="u"><use xlink:href="#t" overflow="visible"/></clipPath><g clip-path="url(#u)"><ellipse cx="1342.88" cy="-1569.59" rx="1.54" ry="2.08"/></g><defs><circle id="v" cx="795.14" cy="-4982.99" r="129"/></defs><use xlink:href="#v" fill="#027888" overflow="visible"/><clipPath id="w"><use xlink:href="#v" overflow="visible"/></clipPath><g clip-path="url(#w)"><ellipse cx="816.17" cy="-5019.92" rx="1.88" ry="2.54"/><ellipse fill="#f49a86" cx="821.57" cy="-5004.67" opacity=".51" rx="7.41" ry="5.06" transform="rotate(-79.216 821.528 -5005.004)"/></g><defs><circle id="x" cx="749.04" cy="-2687.8" r="129"/></defs><use xlink:href="#x" fill="#027888" overflow="visible"/><clipPath id="y"><use xlink:href="#x" overflow="visible"/></clipPath><g clip-path="url(#y)"><ellipse cx="770.08" cy="-2724.74" rx="1.88" ry="2.54"/><ellipse fill="#f49a86" cx="775.48" cy="-2709.48" opacity=".51" rx="7.41" ry="5.06" transform="rotate(-79.216 775.476 -2709.671)"/></g><defs><circle id="z" cx="1397.14" cy="-4982.99" r="129"/></defs><use xlink:href="#z" fill="#027888" overflow="visible"/><clipPath id="A"><use xlink:href="#z" overflow="visible"/></clipPath><g clip-path="url(#A)"><ellipse fill="#f49a86" cx="1419.83" cy="-5002.68" opacity=".44" rx="7.97" ry="5.44" transform="rotate(-65.669 1419.805 -5002.53)"/></g><defs><circle id="B" cx="2472.14" cy="-962.16" r="129"/></defs><use xlink:href="#B" fill="#027888" overflow="visible"/><clipPath id="C"><use xlink:href="#B" overflow="visible"/></clipPath><g clip-path="url(#C)"><ellipse fill="#f49a86" cx="2494.83" cy="-981.85" opacity=".44" rx="7.97" ry="5.44" transform="rotate(-65.669 2494.764 -981.814)"/></g><defs><circle id="D" cx="1698.14" cy="-4982.99" r="129"/></defs><use xlink:href="#D" fill="#e89789" overflow="visible"/><defs><circle id="E" cx="174.46" cy="-962.16" r="129"/></defs><use xlink:href="#E" fill="#e89789" overflow="visible"/><defs><circle id="F" cx="2300.14" cy="-4982.99" r="129"/></defs><use xlink:href="#F" fill="#eadbcb" overflow="visible"/><clipPath id="G"><use xlink:href="#F" overflow="visible"/></clipPath><g clip-path="url(#G)"><ellipse fill="#f49a86" cx="2308.91" cy="-4984.41" opacity=".52" rx="7.36" ry="5.03" transform="rotate(-76.944 2309.028 -4984.617)"/></g><defs><circle id="H" cx="174.46" cy="-2112.59" r="129"/></defs><use xlink:href="#H" fill="#eadbcb" overflow="visible"/><clipPath id="I"><use xlink:href="#H" overflow="visible"/></clipPath><g clip-path="url(#I)"><ellipse fill="#f49a86" cx="183.23" cy="-2114.01" opacity=".52" rx="7.36" ry="5.03" transform="rotate(-76.944 183.25 -2114.102)"/></g><defs><circle id="J" cx="2601.14" cy="-4982.99" r="129"/></defs><use xlink:href="#J" fill="#9fccd2" overflow="visible"/><defs><circle id="K" cx="1323.41" cy="-962.16" r="129"/></defs><use xlink:href="#K" fill="#9fccd2" overflow="visible"/><defs><circle id="L" cx="2902.14" cy="-4982.99" r="129"/></defs><use xlink:href="#L" fill="#fdcf58" overflow="visible"/><clipPath id="M"><use xlink:href="#L" overflow="visible"/></clipPath><g clip-path="url(#M)"><circle fill="#bab891" cx="2901.26" cy="-4861.93" r="32.17" transform="rotate(-22.5 2901.147 -4861.71)"/></g><defs><circle id="N" cx="174.83" cy="-1537.37" r="129"/></defs><use xlink:href="#N" fill="#fdcf58" overflow="visible"/><clipPath id="O"><use xlink:href="#N" overflow="visible"/></clipPath><g clip-path="url(#O)"><circle fill="#bab891" cx="173.95" cy="-1416.32" r="32.17" transform="rotate(-22.5 173.947 -1416.255)"/></g><defs><circle id="P" cx="3203.14" cy="-4982.99" r="129"/></defs><use xlink:href="#P" fill="#153745" overflow="visible"/><clipPath id="Q"><use xlink:href="#P" overflow="visible"/></clipPath><g clip-path="url(#Q)"><ellipse fill="#f49a86" cx="3184.92" cy="-4996.98" opacity=".41" rx="5.13" ry="7.51" transform="rotate(-14.805 3184.908 -4997.875)"/><circle fill="#fdc023" cx="3224.78" cy="-4806.81" r="9.65" transform="rotate(-22.5 3224.656 -4806.593)"/></g><defs><circle id="R" cx="749.04" cy="-962.16" r="129"/></defs><use xlink:href="#R" fill="#153745" overflow="visible"/><clipPath id="S"><use xlink:href="#R" overflow="visible"/></clipPath><g clip-path="url(#S)"><ellipse fill="#f49a86" cx="730.82" cy="-976.15" opacity=".41" rx="5.13" ry="7.51" transform="rotate(-14.805 730.834 -976.335)"/><circle fill="#fdc023" cx="770.68" cy="-785.98" r="9.65" transform="rotate(-22.5 770.653 -785.943)"/></g><defs><circle id="T" cx="3504.14" cy="-4982.99" r="129"/></defs><use xlink:href="#T" fill="#9fccd2" overflow="visible"/><clipPath id="U"><use xlink:href="#T" overflow="visible"/></clipPath><g clip-path="url(#U)"><ellipse cx="3523.63" cy="-5009.75" rx="1.72" ry="2.33"/></g><defs><circle id="V" cx="3805.14" cy="-4982.99" r="129"/></defs><use xlink:href="#V" fill="#fdc432" overflow="visible"/><clipPath id="W"><use xlink:href="#V" overflow="visible"/></clipPath><g clip-path="url(#W)"><circle fill="#fff" cx="3794.7" cy="-4818.96" r="2.14"/></g><defs><circle id="X" cx="1323.41" cy="-3263.23" r="129"/></defs><use xlink:href="#X" fill="#fdc432" overflow="visible"/><clipPath id="Y"><use xlink:href="#X" overflow="visible"/></clipPath><g clip-path="url(#Y)"><circle fill="#fff" cx="1312.97" cy="-3099.21" r="2.14"/></g><defs><circle id="Z" cx="4106.14" cy="-4982.99" r="129"/></defs><use xlink:href="#Z" fill="#df6d59" overflow="visible"/><clipPath id="aa"><use xlink:href="#Z" overflow="visible"/></clipPath><g clip-path="url(#aa)"><ellipse fill="#f49a86" cx="4094.75" cy="-5006.59" opacity=".36" rx="7.27" ry="4.96" transform="matrix(.0091 -1 1 .0091 9063.883 -866.46)"/></g><defs><circle id="ab" cx="2472.14" cy="-2112.59" r="129"/></defs><use xlink:href="#ab" fill="#df6d59" overflow="visible"/><clipPath id="ac"><use xlink:href="#ab" overflow="visible"/></clipPath><g clip-path="url(#ac)"><ellipse fill="#f49a86" cx="2460.75" cy="-2136.19" opacity=".36" rx="7.27" ry="4.96" transform="matrix(.0091 -1 1 .0091 4574.466 343.896)"/></g><defs><circle id="ad" cx="1999.14" cy="-5301.13" r="129"/></defs><use xlink:href="#ad" fill="#9fccd2" overflow="visible"/><clipPath id="ae"><use xlink:href="#ad" overflow="visible"/></clipPath><g fill="#1d1d1b" clip-path="url(#ae)"><circle cx="2008.98" cy="-5251.24" r=".59"/><circle cx="2020.76" cy="-5204.12" r=".59"/><circle cx="2014.87" cy="-5198.23" r=".59"/><circle cx="2008.98" cy="-5204.12" r=".59"/><circle cx="1973.64" cy="-5298.36" r=".59"/><circle cx="1961.86" cy="-5298.36" r=".59"/><circle cx="1973.64" cy="-5251.24" r=".59"/><circle cx="1961.86" cy="-5251.24" r=".59"/><circle cx="1973.64" cy="-5204.12" r=".59"/><circle cx="1979.53" cy="-5198.23" r=".59"/><circle cx="1967.75" cy="-5198.23" r=".59"/><circle cx="1961.86" cy="-5204.12" r=".59"/><circle cx="1973.64" cy="-5168.78" r=".59"/><circle cx="1961.86" cy="-5168.78" r=".59"/><circle cx="1967.75" cy="-5151.11" r=".59"/><circle cx="1967.75" cy="-5162.89" r=".59"/><circle cx="1961.86" cy="-5157" r=".59"/><circle cx="1955.97" cy="-5198.23" r=".59"/><circle cx="1955.97" cy="-5151.11" r=".59"/><circle cx="1955.97" cy="-5162.89" r=".59"/><circle cx="1926.52" cy="-5251.24" r=".59"/><circle cx="1914.74" cy="-5251.24" r=".59"/><circle cx="1926.52" cy="-5204.12" r=".59"/><circle cx="1932.41" cy="-5198.23" r=".59"/><circle cx="1920.63" cy="-5198.23" r=".59"/><circle cx="1914.74" cy="-5204.12" r=".59"/><circle cx="1926.52" cy="-5168.78" r=".59"/><circle cx="1914.74" cy="-5168.78" r=".59"/><circle cx="1926.52" cy="-5157" r=".59"/><circle cx="1932.41" cy="-5151.11" r=".59"/><circle cx="1920.63" cy="-5151.11" r=".59"/><circle cx="1932.41" cy="-5162.89" r=".59"/><circle cx="1920.63" cy="-5162.89" r=".59"/><circle cx="1914.74" cy="-5157" r=".59"/><circle cx="1932.41" cy="-5127.54" r=".59"/><circle cx="1908.85" cy="-5198.23" r=".59"/><circle cx="1908.85" cy="-5151.11" r=".59"/><circle cx="1908.85" cy="-5162.89" r=".59"/><circle cx="2032.54" cy="-5251.24" r=".59"/><circle cx="2032.54" cy="-5204.12" r=".59"/><circle cx="2020.76" cy="-5251.24" r=".59"/><circle cx="2008.98" cy="-5251.24" r=".59"/><circle cx="2020.76" cy="-5204.12" r=".59"/><circle cx="2026.65" cy="-5198.23" r=".59"/><circle cx="2014.87" cy="-5198.23" r=".59"/></g><defs><circle id="af" cx="1999.14" cy="-5301.13" r="129"/></defs><clipPath id="ag"><use xlink:href="#af" overflow="visible"/></clipPath><g fill="#1d1d1b" clip-path="url(#ag)"><circle cx="2008.98" cy="-5251.24" r=".59"/><circle cx="2020.76" cy="-5204.12" r=".59"/><circle cx="2014.87" cy="-5198.23" r=".59"/><circle cx="2008.98" cy="-5204.12" r=".59"/><circle cx="1973.64" cy="-5298.36" r=".59"/><circle cx="1961.86" cy="-5298.36" r=".59"/><circle cx="1973.64" cy="-5251.24" r=".59"/><circle cx="1961.86" cy="-5251.24" r=".59"/><circle cx="1973.64" cy="-5204.12" r=".59"/><circle cx="1979.53" cy="-5198.23" r=".59"/><circle cx="1967.75" cy="-5198.23" r=".59"/><circle cx="1961.86" cy="-5204.12" r=".59"/><circle cx="1973.64" cy="-5168.78" r=".59"/><circle cx="1961.86" cy="-5168.78" r=".59"/><circle cx="1967.75" cy="-5151.11" r=".59"/><circle cx="1967.75" cy="-5162.89" r=".59"/><circle cx="1961.86" cy="-5157" r=".59"/><circle cx="1955.97" cy="-5198.23" r=".59"/><circle cx="1955.97" cy="-5151.11" r=".59"/><circle cx="1955.97" cy="-5162.89" r=".59"/><circle cx="1926.52" cy="-5251.24" r=".59"/><circle cx="1914.74" cy="-5251.24" r=".59"/><circle cx="1926.52" cy="-5204.12" r=".59"/><circle cx="1932.41" cy="-5198.23" r=".59"/><circle cx="1920.63" cy="-5198.23" r=".59"/><circle cx="1914.74" cy="-5204.12" r=".59"/><circle cx="1926.52" cy="-5168.78" r=".59"/><circle cx="1914.74" cy="-5168.78" r=".59"/><circle cx="1926.52" cy="-5157" r=".59"/><circle cx="1932.41" cy="-5151.11" r=".59"/><circle cx="1920.63" cy="-5151.11" r=".59"/><circle cx="1932.41" cy="-5162.89" r=".59"/><circle cx="1920.63" cy="-5162.89" r=".59"/><circle cx="1914.74" cy="-5157" r=".59"/><circle cx="1932.41" cy="-5127.54" r=".59"/><circle cx="1908.85" cy="-5198.23" r=".59"/><circle cx="1908.85" cy="-5151.11" r=".59"/><circle cx="1908.85" cy="-5162.89" r=".59"/><circle cx="2032.54" cy="-5251.24" r=".59"/><circle cx="2032.54" cy="-5204.12" r=".59"/><circle cx="2020.76" cy="-5251.24" r=".59"/><circle cx="2008.98" cy="-5251.24" r=".59"/><circle cx="2020.76" cy="-5204.12" r=".59"/><circle cx="2026.65" cy="-5198.23" r=".59"/><circle cx="2014.87" cy="-5198.23" r=".59"/></g><defs><circle id="ah" cx="1897.77" cy="-3263.23" r="129"/></defs><use xlink:href="#ah" fill="#9fccd2" overflow="visible"/><clipPath id="ai"><use xlink:href="#ah" overflow="visible"/></clipPath><g fill="#1d1d1b" clip-path="url(#ai)"><circle cx="1907.62" cy="-3213.35" r=".59"/><circle cx="1919.4" cy="-3166.22" r=".59"/><circle cx="1913.51" cy="-3160.33" r=".59"/><circle cx="1907.62" cy="-3166.22" r=".59"/><circle cx="1872.28" cy="-3260.47" r=".59"/><circle cx="1860.5" cy="-3260.47" r=".59"/><circle cx="1872.28" cy="-3213.35" r=".59"/><circle cx="1860.5" cy="-3213.35" r=".59"/><circle cx="1872.28" cy="-3166.22" r=".59"/><circle cx="1878.17" cy="-3160.33" r=".59"/><circle cx="1866.39" cy="-3160.33" r=".59"/><circle cx="1860.5" cy="-3166.22" r=".59"/><circle cx="1872.28" cy="-3130.88" r=".59"/><circle cx="1860.5" cy="-3130.88" r=".59"/><circle cx="1866.39" cy="-3113.21" r=".59"/><circle cx="1866.39" cy="-3124.99" r=".59"/><circle cx="1860.5" cy="-3119.1" r=".59"/><circle cx="1854.6" cy="-3160.33" r=".59"/><circle cx="1854.6" cy="-3113.21" r=".59"/><circle cx="1854.6" cy="-3124.99" r=".59"/><circle cx="1825.15" cy="-3213.35" r=".59"/><circle cx="1813.37" cy="-3213.35" r=".59"/><circle cx="1825.15" cy="-3166.22" r=".59"/><circle cx="1831.04" cy="-3160.33" r=".59"/><circle cx="1819.26" cy="-3160.33" r=".59"/><circle cx="1813.37" cy="-3166.22" r=".59"/><circle cx="1825.15" cy="-3130.88" r=".59"/><circle cx="1813.37" cy="-3130.88" r=".59"/><circle cx="1825.15" cy="-3119.1" r=".59"/><circle cx="1831.04" cy="-3113.21" r=".59"/><circle cx="1819.26" cy="-3113.21" r=".59"/><circle cx="1831.04" cy="-3124.99" r=".59"/><circle cx="1819.26" cy="-3124.99" r=".59"/><circle cx="1813.37" cy="-3119.1" r=".59"/><circle cx="1831.04" cy="-3089.65" r=".59"/><circle cx="1807.48" cy="-3160.33" r=".59"/><circle cx="1807.48" cy="-3113.21" r=".59"/><circle cx="1807.48" cy="-3124.99" r=".59"/><circle cx="1931.18" cy="-3213.35" r=".59"/><circle cx="1931.18" cy="-3166.22" r=".59"/><circle cx="1919.4" cy="-3213.35" r=".59"/><circle cx="1907.62" cy="-3213.35" r=".59"/><circle cx="1919.4" cy="-3166.22" r=".59"/><circle cx="1925.29" cy="-3160.33" r=".59"/><circle cx="1913.51" cy="-3160.33" r=".59"/></g><defs><circle id="aj" cx="1897.77" cy="-3263.23" r="129"/></defs><clipPath id="ak"><use xlink:href="#aj" overflow="visible"/></clipPath><g fill="#1d1d1b" clip-path="url(#ak)"><circle cx="1907.62" cy="-3213.35" r=".59"/><circle cx="1919.4" cy="-3166.22" r=".59"/><circle cx="1913.51" cy="-3160.33" r=".59"/><circle cx="1907.62" cy="-3166.22" r=".59"/><circle cx="1872.28" cy="-3260.47" r=".59"/><circle cx="1860.5" cy="-3260.47" r=".59"/><circle cx="1872.28" cy="-3213.35" r=".59"/><circle cx="1860.5" cy="-3213.35" r=".59"/><circle cx="1872.28" cy="-3166.22" r=".59"/><circle cx="1878.17" cy="-3160.33" r=".59"/><circle cx="1866.39" cy="-3160.33" r=".59"/><circle cx="1860.5" cy="-3166.22" r=".59"/><circle cx="1872.28" cy="-3130.88" r=".59"/><circle cx="1860.5" cy="-3130.88" r=".59"/><circle cx="1866.39" cy="-3113.21" r=".59"/><circle cx="1866.39" cy="-3124.99" r=".59"/><circle cx="1860.5" cy="-3119.1" r=".59"/><circle cx="1854.6" cy="-3160.33" r=".59"/><circle cx="1854.6" cy="-3113.21" r=".59"/><circle cx="1854.6" cy="-3124.99" r=".59"/><circle cx="1825.15" cy="-3213.35" r=".59"/><circle cx="1813.37" cy="-3213.35" r=".59"/><circle cx="1825.15" cy="-3166.22" r=".59"/><circle cx="1831.04" cy="-3160.33" r=".59"/><circle cx="1819.26" cy="-3160.33" r=".59"/><circle cx="1813.37" cy="-3166.22" r=".59"/><circle cx="1825.15" cy="-3130.88" r=".59"/><circle cx="1813.37" cy="-3130.88" r=".59"/><circle cx="1825.15" cy="-3119.1" r=".59"/><circle cx="1831.04" cy="-3113.21" r=".59"/><circle cx="1819.26" cy="-3113.21" r=".59"/><circle cx="1831.04" cy="-3124.99" r=".59"/><circle cx="1819.26" cy="-3124.99" r=".59"/><circle cx="1813.37" cy="-3119.1" r=".59"/><circle cx="1831.04" cy="-3089.65" r=".59"/><circle cx="1807.48" cy="-3160.33" r=".59"/><circle cx="1807.48" cy="-3113.21" r=".59"/><circle cx="1807.48" cy="-3124.99" r=".59"/><circle cx="1931.18" cy="-3213.35" r=".59"/><circle cx="1931.18" cy="-3166.22" r=".59"/><circle cx="1919.4" cy="-3213.35" r=".59"/><circle cx="1907.62" cy="-3213.35" r=".59"/><circle cx="1919.4" cy="-3166.22" r=".59"/><circle cx="1925.29" cy="-3160.33" r=".59"/><circle cx="1913.51" cy="-3160.33" r=".59"/></g><defs><circle id="al" cx="795.14" cy="-4662.35" r="129"/></defs><use xlink:href="#al" fill="#11808f" overflow="visible"/><defs><circle id="am" cx="1096.14" cy="-4662.35" r="129"/></defs><use xlink:href="#am" fill="#fdd8d3" overflow="visible"/><defs><circle id="an" cx="2472.14" cy="-1537.37" r="129"/></defs><use xlink:href="#an" fill="#fdd8d3" overflow="visible"/><defs><circle id="ao" cx="1397.14" cy="-4662.35" r="129"/></defs><use xlink:href="#ao" fill="#eadbcb" overflow="visible"/><defs><circle id="ap" cx="2472.14" cy="-3263.23" r="129"/></defs><use xlink:href="#ap" fill="#eadbcb" overflow="visible"/><defs><circle id="aq" cx="1698.14" cy="-4662.35" r="129"/></defs><use xlink:href="#aq" fill="#fdc023" overflow="visible"/><defs><circle id="ar" cx="749.04" cy="-2112.59" r="129"/></defs><use xlink:href="#ar" fill="#fdc023" overflow="visible"/><defs><circle id="as" cx="1999.14" cy="-4662.35" r="129"/></defs><use xlink:href="#as" fill="#027888" overflow="visible"/><clipPath id="at"><use xlink:href="#as" overflow="visible"/></clipPath><g clip-path="url(#at)"><ellipse fill="#f49a86" cx="2045.59" cy="-4690.86" rx="6.14" ry="9" transform="rotate(-7.022 2046.958 -4692.457)"/></g><defs><circle id="au" cx="174.46" cy="-2687.8" r="129"/></defs><use xlink:href="#au" fill="#027888" overflow="visible"/><clipPath id="av"><use xlink:href="#au" overflow="visible"/></clipPath><g clip-path="url(#av)"><ellipse fill="#f49a86" cx="220.92" cy="-2716.31" rx="6.14" ry="9" transform="rotate(-7.022 221.33 -2717.35)"/></g><defs><circle id="aw" cx="2601.14" cy="-4662.35" r="129"/></defs><use xlink:href="#aw" fill="#fdce53" overflow="visible"/><clipPath id="ax"><use xlink:href="#aw" overflow="visible"/></clipPath><g clip-path="url(#ax)"><ellipse fill="#f49a86" cx="2593.98" cy="-4666.47" opacity=".55" rx="9.36" ry="6.39" transform="rotate(-64.004 2594.043 -4666.73)"/></g><defs><circle id="ay" cx="1323.41" cy="-2112.59" r="129"/></defs><use xlink:href="#ay" fill="#fdce53" overflow="visible"/><clipPath id="az"><use xlink:href="#ay" overflow="visible"/></clipPath><g clip-path="url(#az)"><ellipse fill="#f49a86" cx="1316.25" cy="-2116.7" opacity=".55" rx="9.36" ry="6.39" transform="rotate(-64.004 1316.289 -2116.822)"/></g><defs><circle id="aA" cx="2902.14" cy="-4662.35" r="129"/></defs><use xlink:href="#aA" fill="#df6d59" overflow="visible"/><defs><circle id="aB" cx="3203.14" cy="-4662.35" r="129"/></defs><use xlink:href="#aB" fill="#fdc023" overflow="visible"/><defs><circle id="aC" cx="3504.14" cy="-4662.35" r="129"/></defs><use xlink:href="#aC" fill="#254552" overflow="visible"/><defs><circle id="aD" cx="1897.77" cy="-2112.59" r="129"/></defs><use xlink:href="#aD" fill="#254552" overflow="visible"/><defs><circle id="aE" cx="3805.14" cy="-4662.35" r="129"/></defs><use xlink:href="#aE" fill="#eadbcb" overflow="visible"/><defs><circle id="aF" cx="4106.14" cy="-4662.35" r="129"/></defs><use xlink:href="#aF" fill="#9fccd2" overflow="visible"/><clipPath id="aG"><use xlink:href="#aF" overflow="visible"/></clipPath><g clip-path="url(#aG)"><ellipse fill="#f49a86" cx="4132.07" cy="-4664.08" opacity=".56" rx="8.23" ry="5.62" transform="rotate(-82.484 4132.109 -4664.01)"/></g><defs><circle id="aH" cx="1897.77" cy="-2687.8" r="129"/></defs><use xlink:href="#aH" fill="#9fccd2" overflow="visible"/><clipPath id="aI"><use xlink:href="#aH" overflow="visible"/></clipPath><g clip-path="url(#aI)"><ellipse fill="#f49a86" cx="1923.7" cy="-2689.53" opacity=".56" rx="8.23" ry="5.62" transform="rotate(-82.484 1923.73 -2689.493)"/></g><circle fill="#eadbcb" cx="2303.27" cy="-4662.33" r="129.21"/><circle fill="none" cx="2303.27" cy="-4662.33" r="129.21"/><circle fill="#fdc023" cx="1397.16" cy="-5301.31" r="129.21"/><circle fill="none" cx="1397.16" cy="-5301.31" r="129.21"/><circle fill="#153745" cx="1698.16" cy="-5300.32" r="129.21"/><ellipse cx="1718.1" cy="-5337.72" rx="1.45" ry="1.95"/><circle fill="#e37d6b" cx="1701.1" cy="-5288.69" r="12.52" transform="rotate(-80.781 1701.016 -5288.728)"/><circle fill="none" cx="1698.16" cy="-5300.32" r="129.21"/><circle fill="#153745" cx="1323.19" cy="-2688.02" r="129.21"/><ellipse cx="1343.14" cy="-2725.41" rx="1.45" ry="1.95"/><circle fill="#e37d6b" cx="1326.13" cy="-2676.39" r="12.52" transform="rotate(-80.781 1326.09 -2676.413)"/><circle fill="none" cx="1323.19" cy="-2688.02" r="129.21"/><circle fill="#153745" cx="2299.54" cy="-5302.12" r="129.21"/><circle fill="#153745" cx="2299.54" cy="-5302.12" r="129.21"/><circle fill="#153745" cx="2299.54" cy="-5302.12" r="129.21"/><circle fill="#2c4b58" cx="2289.48" cy="-5342.61" r="20.59"/><circle cx="2289.48" cy="-5342.61" r="13.19" transform="rotate(-45.001 2289.548 -5342.607)"/><circle fill="none" cx="2299.54" cy="-5302.12" r="129.21"/><circle fill="#fdc023" cx="1096.14" cy="-4980.84" r="129.21"/><circle fill="none" cx="1096.14" cy="-4980.84" r="129.21"/><circle fill="#fdc023" cx="1897.56" cy="-1537.59" r="129.21"/><circle fill="none" cx="1897.56" cy="-1537.59" r="129.21"/><circle fill="#fdc023" cx="152.31" cy="-4976.75" r="450"/><ellipse fill="#f49a86" cx="101.88" cy="-4946.54" rx="15.32" ry="22.43" transform="rotate(-12.539 101.845 -4947.176)"/><circle fill="none" cx="152.31" cy="-4976.75" r="450"/><circle fill="#df6d59" cx="2006.68" cy="-4983.11" r="129.21"/><circle fill="none" cx="2006.68" cy="-4983.11" r="129.21"/><circle fill="#df6d59" cx="174.68" cy="-3263.02" r="129.21"/><circle fill="none" cx="174.68" cy="-3263.02" r="129.21"/><text font-family="Gotham-Book" font-size="22" transform="translate(45.463 -3083.017)">New experiences type</text><text font-family="Gotham-Book" font-size="22" transform="translate(675.528 -3083.017)">Selfie type</text><text font-family="Gotham-Book" font-size="22" transform="translate(620.042 -1934.982)">Always positive type</text><text font-family="Gotham-Book" font-size="22" transform="translate(107.95 -1934.982)">Stylish type</text><text font-family="Gotham-Book" font-size="22" transform="translate(1204.546 -1934.982)">Overthinker type</text><text font-family="Gotham-Book" font-size="22" transform="translate(1778.1 -1934.982)">Original thinker type</text><text font-family="Gotham-Book" font-size="22" transform="translate(2328.035 -1934.982)">Always at the phone type</text><text font-family="Gotham-Book" font-size="22" transform="translate(2397.546 -1360.305)">Strategy type</text><text font-family="Gotham-Book" font-size="22" transform="translate(1805.293 -1360.305)">Iluminations type</text><text font-family="Gotham-Book" font-size="22" transform="translate(1166.833 -1360.305)">What other will think type</text><text font-family="Gotham-Book" font-size="22" transform="translate(620.042 -1360.305)">Artist’s boyfriend type</text><text font-family="Gotham-Book" font-size="22" transform="translate(78.49 -782.985)">Music &amp; Life type</text><text font-family="Gotham-Book" font-size="22" transform="translate(608.152 -782.985)">Always on schedulle type</text><text font-family="Gotham-Book" font-size="22" transform="translate(1204.545 -782.985)">Pastele colors type</text><text font-family="Gotham-Book" font-size="22" transform="translate(1787.15 -782.985)">Nature Photos type</text><text font-family="Gotham-Book" font-size="22" transform="translate(2343.137 -782.985)">Can’t be defined type</text><text font-family="Gotham-Book" font-size="22" transform="translate(107.95 -1360.305)">Artist type</text><text font-family="Gotham-Book" font-size="22" transform="translate(1166.833 -2506.714)">Let me do a photo first type</text><text font-family="Gotham-Book" font-size="22" transform="translate(1837.664 -2506.714)">Zen type</text><text font-family="Gotham-Book" font-size="22" transform="translate(2378.29 -2506.714)">Jonny Bravo type</text><text font-family="Gotham-Book" font-size="22" transform="translate(2397.546 -3094.739)">What if type</text><text font-family="Gotham-Book" font-size="22" transform="translate(1815.446 -3094.739)">Melancolic type</text><text font-family="Gotham-Book" font-size="22" transform="translate(1252.719 -3094.739)">Dooer type</text><text font-family="Gotham-Book" font-size="22" transform="translate(98.11 -2506.715)">Harmony type</text><text font-family="Gotham-Book" font-size="22" transform="translate(662.927 -2506.715)">Cofident type</text><defs><circle id="aJ" cx="131.87" cy="131.87" r="129"/></defs><use xlink:href="#aJ" fill="#fdc83d" overflow="visible"/><clipPath id="aK"><use xlink:href="#aJ" overflow="visible"/></clipPath><g clip-path="url(#aK)"><path d="M85.25 178.1c7.15 10.3 30.03 57.48 34.6 70.92l30.6-14.87 51.48 17.45s-11.15 46.33-31.46 66.35c-20.3 20.02-38.32 26.31-59.77 22.59-21.45-3.72-48.05-67.49-48.05-67.49l16.3-92.09 6.3-2.86z" fill="#c25f4d"/><path d="m208.51 144.07 12.58-9.44c3.05-2.29 8.77-3.53 9.34 1.62.57 5.15-8.77 14.87-8.77 14.87l17.92 10.3s0 24.59-4.58 35.65c-4.58 11.06-7.44 12.39-13.16 14.11-5.72 1.72-7.44-.38-10.49 9.34s-9.44 31.08-9.44 31.08-6.01 1.53-14.39-.38c-8.39-1.91-11.44-3.81-11.44-3.81l8.77-74.17 23.66-29.17z" fill="#eadbcb"/><path d="M188.2 208.99h3.86v57.05h-3.86zm11.65 54.79-2.6.98a4.203 4.203 0 0 0-2.44 5.4l52.29 139.01h12.3l-54.16-142.96c-.81-2.15-3.22-3.24-5.39-2.43zm-19.53 0 2.6.98c2.16.82 3.25 3.24 2.44 5.4l-52.29 139.01h-12.3l54.16-142.96c.81-2.15 3.23-3.24 5.39-2.43zm32.67-120.66h2v3.62h-2z" fill="#153745"/><path d="M229.19 148.51v38.31l-17.92-1V149.5z" fill="#12232e"/><path d="M242.75 148.48c.84 13.15.88 25.96.01 38.38a1.859 1.859 0 0 1-1.96 1.72l-10.23-.57c-.98-.05-1.76-.87-1.76-1.86v-36.99c0-.99.77-1.8 1.76-1.86l10.21-.57c1.02-.04 1.9.74 1.97 1.75zm-40.43 62.8h-30.71v-81.36h30.6c5.95 0 10.93 4.56 11.41 10.49 1.67 20.74 1.8 40.92.11 60.43-.5 5.91-5.47 10.44-11.41 10.44z" fill="#153745"/><path d="M236.06 153.13c.48 6.86.29 25.83.38 29.93" fill="none" stroke="#000" stroke-linecap="round" stroke-linejoin="round" stroke-miterlimit="10" stroke-width=".86"/><path d="M115.08 40.54s9.53-7.63 20.97-3.24 15.44 10.68 17.92 17.35c2.48 6.67 5.77 10.32 8.58 12.96 3.24 3.05 6.29 3.05 6.67 5.15.38 2.1-16.21 12.39-28.98 15.25-12.77 2.86-64.44 30.12-63.87 30.7.57.57-13.3-7.53-13.3-7.53s-11.31 2.97-24.64-6.96C29.48 97.55 27 88.59 27 88.59s14.3-5.91 21.16-15.82c6.86-9.91 12.58-26.31 23.07-34.13 10.49-7.82 21.73-8.96 30.7-6.67s13.15 8.57 13.15 8.57z" fill="#d4af74"/><path d="M134.72 57.42s8.29 8.29 9.72 17.73-.29 14.44-.29 14.44 5.72 6.15 6.58 9.01c.58 1.94-9.15 2.86-9.15 2.86s-2.14 13.44-7.86 20.73-12.01 7.44-17.02 8.01c-5 .57-6.43-.43-9.01 2-2.57 2.43-28.31 35.32-28.31 35.32l-38.04-39.18s18.45-14.01 21.73-17.16c0 0 7.86.14 12.87-1.72 5-1.86 9.58-5.15 9.58-5.15s-6.15-5-3.29-13.87c2.86-8.87 10.44-10.87 15.16-10.3 4.72.57 8.58 6.43 8.58 8.01l3.38.24s.19-10.96 3.34-15.4c3.15-4.43 6.86-5.86 12.01-9.01 5.16-3.13 10.02-6.56 10.02-6.56z" fill="#fcebe0"/><path d="M134.98 89.07c-.26 1.42-.93 2.04-1.98 1.85-1.05-.19-1.45-1.01-1.19-2.43.26-1.42.93-2.04 1.98-1.85 1.05.19 1.45 1.01 1.19 2.43z"/><path d="M122.03 108.24c-3.09-.93-3.97-3.71-2.61-8.24 1.37-4.53 3.64-6.36 6.73-5.43 3.09.93 3.97 3.71 2.61 8.25-1.37 4.52-3.64 6.35-6.73 5.42z" fill="#f49a86" opacity=".64"/><path d="M139.49 107.56c-2.67-.67-5.53-2.19-5.53-2.19" fill="none" stroke="#e89789" stroke-linecap="round" stroke-linejoin="round" stroke-miterlimit="10" stroke-width="2.15"/><path d="M127.29 76.96c4.54-1.23 11.25.2 13.03 1.04" fill="none" stroke="#b39e7a" stroke-linecap="round" stroke-linejoin="round" stroke-miterlimit="10" stroke-width="2.58"/><path d="M85.53 104.32c3.34 3.15 9.82 4 13.06 1.81M92.2 90.4c1.72 2.38 4.1 7.91 4.1 7.91" fill="none" stroke="#eeb0a5" stroke-linecap="round" stroke-linejoin="round" stroke-miterlimit="10" stroke-width=".86"/><path d="M137.96 46.45c-.38 5.15-1.72 8.01-4 10.87" fill="none" stroke="#000" stroke-linecap="round" stroke-linejoin="round" stroke-miterlimit="10" stroke-width=".86"/><path d="M137.2 51.41c3.43 1.53 9.34 7.05 11.25 13.54 1.91 6.48 6.1 11.63 10.68 14.3m-50.15-29.36C101.74 47.6 84 47.6 76.19 57.13c-7.82 9.53-8.96 23.83-22.5 30.51s-20.78 4.58-24.59 3.81" fill="none" stroke="#000" stroke-linecap="round" stroke-linejoin="round" stroke-miterlimit="10" stroke-width=".86"/><path d="M100.59 61.32c-7.62-.95-16.58 3.06-24.59 17.74-8.01 14.68-26.5 25.55-40.61 21.74m65.01-26.7c-6.1-.38-14.68 3.43-21.54 16.59-6.86 13.16-21.54 20.59-32.22 17.73m59.1-68.26c-9.34-5.15-24.02-3.05-33.17 8.01-7.52 9.09-12.01 21.93-19.45 28.6-6.22 5.58-16.21 9.34-20.59 9.15" fill="none" stroke="#000" stroke-linecap="round" stroke-linejoin="round" stroke-miterlimit="10" stroke-width=".86"/><path d="M52.36 135.49c11.73 6.58 33.46 15.73 38.32 18.3 4.86 2.57 7.15 4.58 4.58 12.3-2.57 7.72-8.01 15.16-8.01 15.16L82.1 194.4l-34.6-53.19 4.86-5.72z" fill="#ccc191"/><path d="M-29.43 92.31c15.17-.65 30.89 6.58 44.33 13.16 13.44 6.58 27.74 20.88 37.46 30.03s28.88 36.03 36.61 57.77c7.72 21.73 19.16 68.92 19.16 68.92l2.86 6.01s6.86-24.88 10.87-37.75c4-12.87 9.44-24.88 9.44-24.88l51.48 16.59s-6.01 46.04-18.02 72.93c-12.01 26.88-22.88 54.62-62.92 53.19-40.04-1.43-61.49-30.89-65.49-37.46 0 0-18.02 22.59-26.6 43.18-6.46 15.49-16.59 36.44-19.73 40.73-3.15 4.29-45.19 7.72-75.5 7.15-30.31-.57-62.92-9.72-62.92-9.72s15.16-59.53 32.89-106.8c20.59-54.91 56.62-105.53 78.93-123.83 0 0-12.87 4-23.16-1.72-17.24-9.58-23.82-28.68-24.31-40.9-.58-14.31 27.73-25.46 54.62-26.6z" fill="#df6d59"/><path d="M42.63 149.79c26.88 23.45 37.18 62.92 45.19 100.09s21.73 65.78 30.31 65.78c8.58 0 11.44-12.01 20.59-11.44 9.15.57-.57-16.02 14.87-21.73 10.58-3.92 18.3-63.49 18.3-63.49" fill="none" stroke="#fdd8d3" stroke-linejoin="round" stroke-miterlimit="10" stroke-width="4.3"/><path d="M-61.46 119.48c15.73-5.15 36.32-8.01 54.62-4.29 15.42 3.13 42.61 17.45 55.77 27.45m-98.38-1.43c16.02-5.72 60.06-2.86 78.07.86m7.72 168.73C21.47 290.21 7.17 257.61 2.6 243.88" fill="none" stroke="#000" stroke-linecap="round" stroke-linejoin="round" stroke-miterlimit="10" stroke-width=".86"/><path d="M-3.41 253.32c4.86 8.87 16.3 16.3 16.3 16.3m122.62 45.14c-6.49-18.05-15.43-38.15-23.38-46.79m37.46 34.54c-8.01-11.44-30.14-34.44-37.18-37.75" fill="none" stroke="#000" stroke-linecap="round" stroke-linejoin="round" stroke-miterlimit="10" stroke-width=".86"/><path d="M131.29 205.56s9.72-32.89 16.87-48.05c7.15-15.16 16.87-25.74 24.59-31.46 7.72-5.72 23.45-8.87 28.88-6.86 5.43 2 6.58 5.43 3.72 8.29-2.86 2.86-12.58 4.29-12.58 4.29l-9.44 10.87s10.3-2.57 14.87 2.29c4.58 4.86 1.72 10.01 1.72 10.01s3.72 1.43 2 8.58c0 0 5.72 8.01 2 18.02-3.72 10.01-15.16 10.01-15.16 10.01s-4 21.73-6.01 30.6c0 0-9.15 5.43-27.45-.57-18.29-6.01-24.01-16.02-24.01-16.02z" fill="#fcebe0"/><path d="M183.34 142.64c-6.29 1.43-9.58 3.57-9.58 3.57m25.59 7.77c-4.19-3.24-11.58-4.05-16.59-1.91m19.17 11.45c-4.86-3.05-11.96-2.34-14.44-1.57m1.28 29.59c.67-5.15.57-9.15.57-9.15m-5.72 1.15c4.43-.71 10.3-2.57 14.59-4m-8.77 3.81c2.48 2.29 5.53 3.24 5.53 3.24m-1.53-67.88c2.29 5.15 10.49 6.48 12.39 6.67" fill="none" stroke="#eeb0a5" stroke-linecap="round" stroke-linejoin="round" stroke-miterlimit="10" stroke-width=".86"/><path d="M216.51 137.92c4.72 2.72 11.44-.57 13.3-2.72" fill="none" stroke="#ea9f91" stroke-linecap="round" stroke-linejoin="round" stroke-miterlimit="10" stroke-width=".86"/></g></svg>