<svg xmlns="http://www.w3.org/2000/svg" xmlns:xlink="http://www.w3.org/1999/xlink" xml:space="preserve" x="0" y="0" version="1.1" viewBox="0 0 263.73 263.73"><defs><circle id="a" cx="131.87" cy="131.87" r="129"/></defs><use xlink:href="#a" fill="#e5e4d5" overflow="visible"/><clipPath id="b"><use xlink:href="#a" overflow="visible"/></clipPath><g clip-path="url(#b)"><path d="M102.18 166.64c-12.25-.11-16.52-.44-27.35.22-10.83.66-14.88.22-14.88.22l-7.44 54.11s11.49 1.57 12.47 7.15c.98 5.58 2.63 42.88 1.97 71.76-.65 28.49-4.38 49.01-4.38 49.01s8.64 17.94 48.35 18.93c39.71.98 60.06-11.81 60.06-11.81s-.98-37.08 1.31-62.36c2.3-25.27 27.24-84.67 27.24-84.67s-4.59-10.83-14.11-18.05c-9.52-7.22-24.4-12.03-24.4-12.03l-58.84-12.48z" fill="#153745"/><path d="M102.18 166.64s-7.22 34.57-9.19 49.23c-1.97 14.66-3.72 19.25-1.97 19.91 1.75.66 25.38 4.16 38.73 5.47 13.35 1.31 22.1 2.19 23.63 1.09 1.53-1.09 12.69-61.48 12.69-61.48s2.63-.44 5.03.66c2.41 1.09 3.5 2.63 3.5 2.63s-10.28 50.98-10.72 64.54c-.44 13.56.44 32.16 4.59 42.23 4.16 10.06 3.28 16.19 3.28 16.19l1.86 58.31s-26.91 6.89-62.36 7.55c-33.07.61-57.43-3.28-57.43-3.28l4.38-61.92s13.35-8.31 14.44-26.91c1.09-18.6 13.93-79.19 15.53-91.24 1.75-13.13 4.59-23.41 4.59-23.41s2.84-.88 5.25-.88 4.17 1.31 4.17 1.31z" fill="#eadbcb"/><path d="m56.93 102.59-21.18-5.38c-4.4-1.12-7.07-5.6-5.95-10l13.56-53.39c1.12-4.4 5.6-7.07 10-5.95l21.18 5.38c4.4 1.12 7.07 5.6 5.95 10L66.93 96.64a8.225 8.225 0 0 1-10 5.95z" fill="#9fccd2"/><path d="m54.85 45.74-4.79-1.22a2.664 2.664 0 0 1-1.93-3.24l1.22-4.79a2.664 2.664 0 0 1 3.24-1.93l4.79 1.22c1.43.36 2.29 1.81 1.93 3.24l-1.22 4.79a2.664 2.664 0 0 1-3.24 1.93z" fill="#153745"/><path d="M172.85 125.73c-4.81 9.41-13.13 30.85-15.53 39.16-2.41 8.31-1.31 11.6 3.72 14.22 0 0-.66 29.76-12.25 41.57-11.6 11.81-39.38 7.88-45.51-7.88s-4.81-37.19-1.09-46.16c0 0 7.22.44 13.78-9.85 6.56-10.28 18.6-38.94 18.6-38.94l38.28 7.88z" fill="#f0a26a"/><path d="M231.77 29.82c-2.48-3.35-.29-5.83-2.63-8.75-2.33-2.92-8.13-3.35-11.78-3.21-3.65.15-7.07-4.89-11.16-4.16-4.08.73-6.42 3.97-9.63 6.02-3.21 2.04-13.24-2.63-15.32 7.44-.79 3.84-3.89 5.54-5.25 7.99-1.94 3.5-1.67 7.5 2.52 12.58 2.13 2.59-.31 4.37.55 7.33 1.04 3.6 5.14 8.17 5.14 8.17s-3.79-3.94-7-2.63-8.02-.29-11.23-2.33c-3.21-2.04-7.15-1.17-11.38 1.9-4.23 3.06-6.27 5.4-10.5 6.13-4.23.73-5.83 2.33-5.83 6.13 0 3.79-1.9 3.94-2.77 8.61-.88 4.67 2.48 4.81 1.9 8.75l24.07 39.67.88 2.41c7.22 2.41 17.07 3.5 21.66-5.47 1.26-2.47 5.18-11.96 5.18-11.96s10.06-6.42 13.57-12.25c3.5-5.83.29-11.09-1.17-14.59s.44-4.67 1.17-9.63c.73-4.96-8.31-7.44-7.73-10.5.58-3.06 6.13.33 9.19-.11 3.06-.44 4.67-3.06 6.27-5.4 1.6-2.33 7.37.58 11.16-.88s6.96-5.21 6.93-8.9c-.04-4.23.71-5.78 4.45-9.26 4.8-4.49 1.22-9.74-1.26-13.1z" fill="#fdc023"/><path d="M230.99 28.64c.06.1-.19.21-.19.37 0 .15-.12.03-.2.32-.08.29-.01.33-.11.33-.16 0 .04.24-.24.62-.09.12-.14.26-.11.31.03.05.02.09-.02.09-.28 0-.59 5.04-.44 5.54.06.19.27.02.11.15-.09.08-.2 4.5.02 4.5.19 0-.15.09-.07.21.02.03.05.56.1 1.33.06 1.03.13 2.5.18 3.77.25-.37.55-.74.89-1.13-.01-.78-.02-1.65-.05-2.65-.04-1.35-.1-2.91-.18-4.71-.06-1.19-.27-.89-.16-1.01.03-.03.05-.01.05.04 0 .31.31-.31.04-.77-.06-.1.1.14.1-.47.04-4.58.71-4.9.47-5-.22-.09.28.15.44-.7.01-.05.03-.1.05-.14-.25-.35-.45-.7-.6-1.03-.08-.01-.11 0-.08.03zm-.78 14.48c-.04 0-.15-.13 0-.13.19 0-.02.13 0 .13zm-.08 1.41c-.09 0 .03-.11.11-.17.25-.2-.15.17-.11.17zm.26-12.02c.09-.05.08.19.04.19-.03 0-.12-.14-.04-.19zm.11 9.56c.26-.22-.04.08.02.14.02.02-.02.04-.08.04-.15 0-.15 0 .06-.18zm-.02-11.32c-.08 0-.13-.04 0-.12.11-.06.11.12 0 .12zm4.46 7.49c.17-.17-.11-.16-.04-.39.03-.09.01-.1-.07-.05-.09.05-.09.04-.01-.05.17-.2-.19-.3 0-.3.14 0 .07-.44.05-.61-.05-.36-.18-.11-.18-.25 0-.15.14.06.12-.38-.01-.22-.02-.79-.03-1.36-.26-.67-.58-1.32-.93-1.94-.04.54-.11 1.29.08 1.03.12-.17.04 0-.05.36-.07.27.06.35.09.6.02.22-.1 3.18.12 3.05.06-.04.06-.01 0 .1-.12.22-.15 2.87-.17 3.91.44-.55.78-1.11 1.01-1.68-.01-.1-.01-.16-.01-.16.14.09.06-1.74 0-1.7-.09.05-.12-.05.02-.18zm-7.84-12.4c.06.09-.17.29-.37.54-.21.26.02.19-.22.44-.21.23-.09.35.02.29.12-.07 0 .14-.09.09-.53-.31-.15 8.95 0 8.88.17-.08-.13.03-.11.42.12 2.89.6 2.85.7 1.84 0-.03.15-1.8.01-1.71-.16.09.11-.06.09-.45-.02-.39.13-.62.02-.62-.1 0 .04-.44.05-.58 0-.09-.09-.24-.19-.24.07-.17.21-.99.21-4.47 0-.11-.23-.04-.23-.15 0-.15.15.1.14-.92-.01-.98.01-.62.05-1.14.09-1.07 1.5-2.93 3.05-4.71-.08-.39-.2-.78-.38-1.18-.36.41-.77.89-1.23 1.45-.03.03-1.08 1.51-1.19 1.54-.15.06-.39.59-.33.68zm-.12 6.39c-.08 0-.13-.04 0-.12.11-.06.11.12 0 .12zm-1.61 26.09c.06.06-.19.3-.29.3-.12 0-.03.29-.12.23-.08-.05-.78.6-.78.74 0 .13-.05-.02-.21.1-.16.12-.36.3-.59.51 1.34-.81 2.52-1.88 3.42-3.11-.01 0-.02.01-.04.01-.07 0-.11-.04-.07-.13-.62.65-1.11 1.17-1.11 1.18 0 .2-.3.07-.21.17zm1.48-1.44c-.1.13-.04.19-.04.21.18-.25.35-.5.51-.76-.17.18-.34.35-.51.52.11-.08.12-.07.04.03z"/><path d="m226.69 56.98.12-.12c-.06.05-.1.09-.12.12zm-3.12.11c-.09-.11.17.46-.11-5.06-.02-.31-.14-.39-.07-.46.05-.06.06-1.48-.11-1.41-.06.03.03-.72-.05-2.53-.06-1.4-.39-1.04-.2-1.17.1-.06.09-.08-.06-.08h-.05c-.13 0-.01-.06-.31-.67-.32-.66-1.52-1.94-2.89-3.31-2.34-2.34-5.2-4.92-5.14-5.02.1-.15-1.51-1.64-1.68-1.53-.09.05-.01-.08-.17-.24-.15-.15-.24.03-.18-.09.1-.19-.57-.58-.52-.67.04-.06 0-.08-.11-.05-.09.02-3.28-3.39-3.48-3.32-.16.06-.13-.13-.04-.13.1 0-.17-.32-.25-.27-.12.07.02-.13-.45-.5-.38-.3-.43-.11-.37-.22.15-.27-2.28-2.04-2.53-3.37-.11-.59-.07-1.23-.23-1.33-.09-.06-.09-.07.01-.07.1 0 .1-.01 0-.08-.09-.06-.09-.08-.01-.08.21 0-.21-1.95-.14-1.9.09.06.09-.2 0-.2-.11 0 .04-.54-.1-.54-.07 0-.07-.02 0-.11s.06-.12-.05-.16c-.13-.05.07-4.63-.24-4.63-.2 0 .05-.02.11-.38.03-.17.01-.25-.06-.25-.08 0-.08-.01.01-.07.2-.13-.15-.24-.15-.37 0-.09.17.23.11-.35-.06-.58-.28-.67-.14-.59.13.07.22-.1.09-.1-.03 0 .04-.97-.08-1.39-.36.16-.7.34-1.04.54 0 .04.01.09.01.14 0 .03.31 3.43.34 3.43.05 0 .05.05-.01.16-.07.12-.07.15.01.11.22-.13-.29.49.11 1.3.08.16.08.22.02.25-.07.02-.06.07.01.2.14.24-.06.03-.02.5.02.21.14.77.03.71-.17-.1.08.23.11.44.05.35-.1.21-.1.51 0 .11.03.18.06.16.2-.13-.24 3.37.15 3.25.27-.08-.17.01-.09.39.25 1.2.57 1.36.52 1.33-.13-.06-.04.19.11.19.2 0-.07.18.23.51.5.54 7.37 8.19 7.99 7.9.17-.08.17-.08.02.04-.26.2.37.58.42.55.11-.07.8 1.04 1.07.93.08-.03.1-.01.06.09-.03.09 1.67 1.91 1.4 1.43.12.2.59.93.8.93.01 0 .93.92 2.04 2.01 1.69 1.68 3.82 3.77 3.77 3.61-.16-.48.43.68.39 2.51 0 .03.45 8.76.35 8.71-.09-.05-.09.41.01.47.11.07-.06.24.06.17.08-.05.11.02.13.05l.01.01c.2.33.98-.47.67-.83zm-7.35-17c-.03 0-.03-.32.05-.26.12.08-.09.26-.05.26zm4.79 3.89c-.1 0-.21-.17-.05-.11.16.06.14.11.05.11zm1.44 4.98c-.04 0 .04-.26.09-.2.09.09-.13.2-.09.2zm.52-1.94c-.01 0-.03 0-.06-.01-.09-.03-.23-.1-.08-.22.03-.03.06-.04.08-.05.1-.04.14.05.05.05-.02 0-.04.01-.05.01-.05.03-.05.12 0 .11.01 0 .02 0 .04-.01.11-.06.1.12.02.12z"/><path d="M226.41 42.7c-.17-.17-.3 0-.39-.13-.04-.07-.03-.08.05-.03s.01-.02-.08-.13c-.1-.12-.24-.3-.24-.46 0-.24-2.41-2.55-2.84-2.85-.03-.02-.05-.03-.06-.03-.05 0-.06-.02-.04-.05.14-.14-.43-.31-.47-.36-.1-.13-.05-.2-.21-.39-.17-.2-.27.01-.27-.17 0-.17-.19-.08-.11-.21.09-.14-.28.03-.27-.05.01-.15.04-.19-.63-.87-.76-.77-.58-.77-.84-.73-.34.06.08 0-.14-.3-.2-.26-.37-.1-.3-.21.06-.09-1.34-1.3-1.32-1.32.03-.04-.01-.08-.08-.08-.18 0 .05-.12-.23-.23-.27-.11-.22-.17-.11-.11.12.07.02-.12-.14-.12-.07 0-.09.04-.06.1.06.11-.09.04-.12-.25-.01-.11-.2-.01-.32-.24-.06-.11-.37-.55-.47-.49-.1.06.04.19-.02.19-.04 0-.29-.37-.11-.26.43.26-1.41-1.55-1.44-1.59-.33-.37-.61-.12-.44-.24.14-.09-2.36-2.06-2.61-2.56-.18-.37-.34-.15-.53-.44-.42-.65-1.06-.9-1.06-1.01 0-.15-.61-.77-.7-.71-.04.02-.08-.02-.1-.1-.05-.2-.52-.33-.53-.44-.01-.13.03-.19-.07-.19-.44 0-.57-4.11-.72-3.88-.1.15-.09-.07.01-.13.12-.07-.51-4.5-.54-4.49-.21.06.19-.16.11-.23 0 0-.06-1.23-.16-1.41-.08-.16-.08-.19 0-.16.07.03.08-.72.06-1.6a5.15 5.15 0 0 0-1.04-.07c.03 5.91.62 10.53.63 10.56 0 .09.02.09.14 0 .12-.1.13-.09.04.03-.15.19.01.96.16.87.05-.03.06-.02.02.05-.09.15.23.75.34.88.15.18.25.02.2.16-.04.13.13.38.3.4.18.02.3.4.42.38.05-.01.07-.02.08-.02-.02.01-.18.16.51.82.03.03 3.98 3.54 3.21 2.93-.3-.24-.03.32.19.18.03-.02 1.42 1.41 1.56 1.32.09-.06.08.13.46.51.38.39.63.44.63.55 0 .21.67.77.77.75.21-.06.03.22.35.53.52.48.69.54.73.55l-.01.01c-.06.1.83.99.95.93.11-.07-.01.01.23.28.24.27.32.1.32.21 0 .09.55.72.63.67.09-.05-.02.06.29.36.27.27.32.12.32.22 0 .05.04.07.09.04.05-.03.07-.02.04.03-.1.17.5.48.45.56-.07.12.3.13.23.24-.02.04.01.07.08.07.17 0 .08.19.21.11.12-.07-.03.04.09.21.04.06.79.76 1.41 1.35.46.43.85.79.86.8.14.13.19-.04.19.08 0 .08.65.71 1.07 1.17.2.22.34.4.35.47.03.23.3.44.13.21-.23-.31.24.15.24.17 0 .05-.16-.1-.16 0 0 .08.44.57.5.51.05-.05.1.17-.08.1s-.04.06.03.48c.03.19.07.25.16.21.01 0-.03 5.08 0 5.06.12-.08.12.21 0 .14-.17-.1.17.28-.01.28-.13 0 .05-.13.05.86 0 1 .28.94.12.91-.1-.02-.2 2.43.39 2.43 1.14 0 .55-10.44-.11-10.97-.14-.17-.05-.45-.22-.62zm-19.38-25.05c-.06-.06.03-.31.04-.1.01.16-.07.1-.04.1zm.48 6.02c-.03 0-.04-.24.04-.19.14.08-.07.19-.04.19zm.3-4.93c-.11 0-.17-.01-.04-.09.1-.06.19.09.04.09zm6.1 12.79c-.11 0 .1-.24.15-.2.11.11-.18.2-.15.2zm1.06-.08c-.04 0-.15-.13 0-.13.19 0-.02.13 0 .13zm7.79 7.86c-.03 0-.3-.26-.1-.19.25.09.07.19.1.19zm.6 1.32c-.05 0-.39-.16-.16-.16.17.01.24.16.16.16zm1.43.47c-.04 0-.13-.33-.04-.27.15.1 0 .27.04.27zm.23 1.08c-.2.01-.09-.1.05-.05.06.03.04.05-.05.05zm.83.99c-.04 0 .01-.2.15-.2.11 0-.11.24-.15.2zm.75 3.01c-.11 0-.05-.31.05-.04.03.11.02.11-.05.04zM191.73 26.4c0 .03-.01.07-.02.12-.02.07.03.04.1-.01a.155.155 0 0 0-.08-.11z"/><path d="M191.68 26.41c.02-.01.03-.01.05 0 .03-.26-.23.1-.05 0zm30.85 6.52c.02.35.37.33.14.42-.16.06-.04.18-.04.88 0 .49.17.57.28.62.06.03.1.05.1.12 0 .06-.05.05-.1.04-.07-.01-.15-.04-.11.05.01.04.06.07.11.09.11.04.24.03.19-.1-.04-.11-.03-.11.09-.02.3.24.54-11.28.67-11.55.19-.42.33-.17.28-.42-.05-.26.06.08.46-.33.84-.87.43-.99.58-.89.04.03.12-.02.16-.09.1-.2-.06-.29.05-.23.13.07.39-.3.44-.44.08-.2.21-.01.32-.26.12-.26.41-.19.33-.37-.06-.15.28-.41.11-.16-.13.19.38-.35.33-.44-.05-.09.01.03.34-.29-.35-.2-.72-.37-1.11-.53-.02.02-.03.03-.05.06-.99 1.3-2.93 3.25-2.96 3.28-.09.1-.17.2-.24.31-.43.71-.29 1.66-.28 5.43.03 5.07-.14 3.98-.09 4.82zm.95-10c.1.06.01.21-.09.15-.07 0-.03-.22.09-.15zm-.77 10.05c.13.08-.08.19-.04.19-.03-.01-.04-.24.04-.19zm-4.23-6.41c-.08.03-.08.04 0 .05.17.01-.09.3.02.48.09.15-.04.15-.04.52 0 .34.2.23.05.32-.17.11.01.56 0 .84-.04 1.04.2.59.19 1.17 0 .19.02.24.11.21s.1-.02.02.05c-.12.12-.14.49-.01.41.13-.08-.05.07.06.27.51.97.74-1.47.56-1.36-.03.02-.06-.02-.06-.08 0-.16.11-.03.11-.33.01-.47-.37-.74-.14-.61.08.05.1.03.06-.06-.03-.07-.01-.13.03-.13.44 0-.7-6.44 1.5-8.76.07-.08.41-.12.31-.28-.03-.05-.02-.06.04-.03.14.08.33-.49 1.07-1.18-.41-.06-.81-.1-1.22-.14l-.57.57c-.07.25-.39.29-.31.42.03.05.02.06-.04.03-.11-.07-.47.53-.43.59 0 0-.36.12-.75 1-.16.36-.33.64-.22.71.12.08-.1.04-.14.26-.08.47-.35 1.82-.11 1.82.2 0-.09.03-.09.32 0 .26.09.47 0 .6-.11.14.17.38.06.32-.1-.06-.13.89-.01.81.13-.07-.15.14-.04.36.16.3-.18.44 0 .66.07.11.07.14-.01.17zm-22.97 3.64c-.01 0 .01-.02.03-.04v-.06c-.06.05-.09.1-.03.1z"/><path d="M186.32 27.14c.15.15-1.33 1.16-1.24 1.4.04.09.02.11-.07.08-.07-.03-.1-.02-.08.02.06.1-.19.21-.19.37 0 .15-.12.03-.2.32-.08.29-.01.33-.11.33-.16 0 .04.24-.24.62-.09.12-.14.26-.11.31.03.05.02.09-.02.09-.28 0-.59 5.04-.44 5.54.06.19.27.02.11.15-.09.08-.2 4.5.02 4.5.19 0-.15.09-.07.21.02.03.05.56.1 1.33.12 2.22.3 6.45.29 6.45-.59-.34 1.1 6.92.73-6.45-.04-1.35-.1-2.91-.18-4.71-.06-1.19-.27-.89-.16-1.01.03-.03.05-.01.05.04 0 .31.31-.31.04-.77-.06-.1.1.14.1-.47.04-4.58.71-4.9.47-5-.22-.09.28.15.44-.7.06-.32.31-.37.24-.62-.03-.12-.03-.14.02-.06.16.24.1-.3.19-.3.11 0 .68-.45.74-.84.03-.19.16-.39.53-.75.27-.27.47-.52.45-.54-.08-.08.04.09.56-.38 2.72-2.46 2.88-2.94 2.92-2.93.21.04.84-.78.83-.83-.05-.13.18-.11.14-.03-.09.15 1.42-1.44 2.3-2.22-.48.04-.99.05-1.53.05-.26.29-.45.53-.52.48-.11-.07.05.22-.05.19s.03.1-.22.18c-.26.09-.13.34-.25.26-.16-.09-1.01.96-.97.95.09-.04.16.51.02.2-.11-.24-.19-.21-.35-.01-.21.25-1.35 1.32-1.31 1.45.05.14-.08-.08-.37.25-.27.3-.08.35-.19.3-.15-.09-1.27 1.09-1.27 1.25 0 .16-.23-.06-.23.14 0 .18-.19.08-.11.21.03.05.02.07-.02.04-.04-.03-.14.02-.21.1-.18.2 0 .33-.14.28-.15-.07-.5.47-.44.53zm-2.16 15.98c-.03 0-.15-.13 0-.13.18 0-.02.13 0 .13zm-.09 1.41c-.09 0 .03-.11.11-.17.25-.2-.14.17-.11.17zm.27-12.02c.09-.05.08.19.04.19s-.12-.14-.04-.19zm.11 9.56c.26-.22-.04.08.02.14.02.02-.02.04-.08.04-.16 0-.16 0 .06-.18zm-.02-11.32c-.08 0-.13-.04 0-.12.1-.06.1.12 0 .12zm8.45-9.37c.17-.06.05.11-.05.11-.06 0-.15-.03.05-.11zm-2.79 2.28c.13-.1.13-.1.02.04s-.1.14.08.09c.35-.1-.13.11-.09.11-.09 0-.18-.11-.01-.24zm-1.77 1.45c.1.06.14-.23.13.02-.01.13-.03.15-.11.09-.05-.04-.1-.05-.11-.02-.01.11.03.21-.07.14-.12 0 .06-.3.16-.23z"/><path d="M187.64 30.79c-.12.13.15-.04.06.42-.03.17-.11 1.34.09 1.21.1-.06-.22 1.92.07 1.53.12-.17.04 0-.05.36-.07.27.06.35.09.6.02.22-.1 3.18.12 3.05.06-.04.06-.01 0 .1-.15.27-.16 4.31-.19 4.32-.03.01-.04.02-.05.04-.03.07.19.19.1.27-.05.04-.14.72.04.94.01.01.01.02.02.02-.08.01-.24.28-.06 2.25.09 1 .56.5.59.5.11 0-.03.16.02.16.44 0 .3-3.22.43-3.69.03-.12.05-.27.06-.45.04-.88-.16-2.31-.13-2.29.14.09.06-1.74 0-1.7-.07.05-.1-.05.03-.19.17-.17-.11-.16-.03-.39.03-.09.01-.1-.07-.05-.09.05-.09.04-.01-.05.17-.2-.19-.3 0-.3.14 0 .07-.44.05-.61-.05-.36-.18-.11-.18-.25 0-.15.14.06.12-.38-.03-.51-.02-2.9-.2-2.9-.18 0 .25-.17.09-.27-.17-.1.14-.12.04-.27-.08-.12-.09-1.37-.16-1.49-.08-.12.18-.31.06-.31-.04 0-.06-.06-.04-.14.05-.19-.39-.52-.21-.31.09.12.09.13-.02.09-.17-.06-.38.12-.32.21.05.13-.27-.13-.36-.03zm.56 15.68c-.04 0-.13-.14-.04-.19.08-.05.07.19.04.19zm.12-4.78c.1-.06.19.09.04.09-.11 0-.17-.02-.04-.09zm-8.04-5.18c.12 2.89.6 2.85.7 1.84 0-.03.15-1.8.01-1.71-.16.09.11-.06.09-.45-.02-.39.13-.62.02-.62-.1 0 .04-.44.05-.58 0-.09-.09-.24-.19-.24.07-.17.21-.99.21-4.47 0-.11-.23-.04-.23-.15 0-.15.15.1.14-.92-.01-.98.01-.62.05-1.14.14-1.61 3.26-5 5.33-7.23-2.35.72-4.37 2.4-5.18 6.32-.23 1.1-.65 2.02-1.16 2.83 0 2.62.18 6.14.28 6.09.16-.07-.14.04-.12.43zm.65-4.4c.1-.06.1.12 0 .12-.08 0-.13-.04 0-.12zm41.52 6.58c.04 0 .06-.16-.05-.16s0 .16.05.16z"/><path d="M187.88 30.69c.06.14.08-.08-.02-.13-.1-.06-.21.16-.1.09.09-.06.08.04.12.04zm27.72-11.98c0-.01-.01-.01-.01-.02-.02.04-.05.13-.08.29.26-.02.52-.04.77-.05.01-.08.09-.24.1-.75 0-.22 0-.34-.02-.42-.3-.06-.61-.15-.91-.26-.03.47-.01.92.13 1.18.08-.13.11.19.02.03zm-23.87 52.1c0 .03-.01.07-.02.12-.02.07.03.04.1-.01a.155.155 0 0 0-.08-.11z"/><path d="M192.48 76.9c.09.03.12.01.09-.06-.07-.18-.31.02-.13-.2.07-.09.07-.11.01-.08-.05.03-.1.03-.1-.02 0-.12.27-.15.09-.16-.19-.01.19-.15.09-.42-.1-.29.03-3.39-.15-3.28-.17.1.22-.44.02-.44-.14 0 .13-.53-.12-.32-.25.21.03-.17.03-.38 0-.11-.28-.31-.16-.31.11 0 .11-.29 0-.35-.13-.08.1-.26-.14-.12-.06.04-.15.11-.21.16.01.04-.01.08-.07.08-.18 0-.02.54-.13.54-.13 0 .2.31.05.37-.12.04-.03.83.08.9.14.1-.11.01-.11.13 0 .13.39.14.14.15-.22.01-.11.79-.06.79.07 0-.02.48-.15.45-.13-.03-.07.47-.04.91.03.34.22.35.09.35s-.08 2.28.13 2.55c.1.12.09.13-.02.03-.36-.29-.15.62-.04.7.13.09-.15-.03-.17.25-.03.32.19.5.06.75-.06.11-.06.19 0 .26.04.05.06.12.03.15-.09.09.23.26.07.35-.11.06-.11 3.98-.15 6.17-.01.65-.03 1.15-.05 1.35-.07.68-.23.93-.17 1.09.05.14-.04 0-.17.48-.37 1.39-2.78 3.1-2.4 3.52.18.2-.08-.1-.28-.03-.18.07-.1.31-.18.24-.07-.07-.41.25-.41.39s-.31.23-.44.41c-.13.18.03.29-.08.22-.16-.1-.62.71-.6.75.07.11 0-.07-.25.15-.24.21-.12.23-.4.51-.52.51-.55.72-.53.78-.01 0-.01-.01-.02-.02-.05-.03-.09-.02-.09.01 0 .17-.83.81-.89.87-.22.22-.09.34-.18.28-.11-.07-.8.58-.74.69.01.01.01.01.01.02-.03 0-.2.06-.8.63-.51.49-1.37 1.36-2.08 2.11.11-.09.12-.08.04.02-.14.18.04.23-.09.23-.07 0-.11-.04-.07-.13-.62.65-1.11 1.17-1.11 1.18 0 .18-.31.06-.21.16.06.06-.19.3-.29.3-.12 0-.03.29-.12.23-.08-.05-.78.6-.78.74 0 .13-.05-.02-.21.1-.26.21-.64.55-1.06.94-1.06.99-2.34 2.28-2.35 2.29-.08.25-.39.29-.31.42.03.05.02.06-.03.03-.11-.07-.47.53-.43.59 0 0-.36.12-.75 1-.16.36-.33.64-.22.71.12.08-.1.04-.14.26-.08.47-.35 1.82-.11 1.82.2 0-.09.03-.09.32 0 .26.1.47 0 .6-.11.14.17.38.06.32-.1-.06-.13.89-.01.81.13-.07-.15.14-.04.36.16.3-.18.44 0 .66.07.09.07.12-.01.15s-.08.04 0 .05c.17.01-.09.3.02.48.09.15-.04.15-.04.52 0 .34.2.23.05.32-.17.11.01.56 0 .84-.04 1.04.2.59.19 1.17 0 .19.02.24.11.21s.1-.02.02.05c-.12.12-.14.49-.01.41.13-.08-.05.07.06.27.51.97.74-1.47.56-1.36-.03.02-.06-.02-.06-.08 0-.16.11-.03.11-.33.01-.47-.37-.74-.14-.61.08.05.1.03.06-.06-.03-.07-.01-.13.03-.13.44 0-.7-6.44 1.5-8.76.07-.08.41-.12.31-.28-.03-.05-.02-.06.04-.03.17.1.42-.76 1.62-1.65.01-.01.02-.02.03-.02.37-.27-.04-.29.07-.32.65-.13 1.46-1.06 1.42-1.11l-.01-.01c.03 0 .21-.05.95-.75 1.82-1.73 2.18-2.59 2.31-2.51.11.07.03-.2.15-.2.09 0 1.19-1.03 1.11-1.12-.07-.08.04.1.33-.19.31-.32.03-.33.07-.25.07.11-.08.21-.13.05-.1-.28.06.15.92-.68.03-.03 2.11-1.95 2.21-2.14.1-.19-.05-.28.05-.22.11.07.38-.22.3-.35-.09-.14.02.13.37-.27.35-.39.2-.44.39-.52.21-.09.04-.33.18-.33.18 0 .73-.68.73-.79 0-.21-.07.13.44-.38.45-.45.3-.42.56-.62 1.12-.86.64-1.1.89-1 .15.06.43-.51.77-.84.33-.32.03-.49.25-.41.14.05.15-.07.13-.22-.02-.15-.01.3.59-.99.23-.49.37-1.81.46-3.41.2-3.71.1-8.97.05-9.06-.06-.09-.17-.5-.03-.3.22.33-.22-.63.06-.53zm-7.11 20.83c.05-.03.07-.02.04.03-.03.05-.01.1.05.12.2.08-.42.06-.09-.15zm6.08-7.96c-.03 0 .04-.16.16-.16.16 0-.18.16-.16.16zm.11-1.79c-.05 0 .04-.33.09-.28.09.1-.12.28-.09.28zm.45 1.16c-.04 0-.06-.16.05-.16.15.01-.06.16-.05.16zm-.33-18.32c.02-.01.03-.01.05 0 .03-.26-.23.1-.05 0zm3.83 3.8c-.01 0 .01-.02.03-.04v-.06c-.06.05-.09.1-.03.1z"/><path d="M195.54 74.58c.06 1.11.16 1.94.28 2.12 1.32 1.99-1.15-.37 5.64 6.24.12-.39.26-.8.4-1.25-.33-.27-.87-.65-1.09-.93-.45-.56-.34-.27-.6-.52-.22-.22-.47-.66-.58-.62-.12.04-.57-.48-.64-.59-.15-.21-.25-.07-.54-.42-2.24-2.67-1.66-1.12-1.78-7.42 0-.05-.04-.49-.07-1.06-.42-.36-.78-.72-1.04-1.08-.08 1.68-.06 3.86.02 5.47.03-.02.06-.05.08-.07.2-.16 0 .04-.08.13zm3.85-10.34c-.14-.08-.06.17.03.48.04.16-.23.05-.01.22.2.15-.01-.04-.02.5 0 .22.03.41.07.43.01.01 0 .35 0 .73l.93.24c-.14-2.57-.45-5.52-.48-4.34 0 .17-.01.17-.07.02-.08-.18 0-.1-.38.39.06-.36.09-.39-.09-.23-.15.13-.2.27 0 .37.1.05.1.05-.01.06-.33 0 .08 1.16.03 1.13zm3.02 13.4c0 .07.13.12.34.28.07-.49.04-.95-.07-1.39-.95-.94-1.99-2.12-2.03-2.88l-.01-.21c-.4-.38-.83-.74-1.27-1.09.15 1.45.88 3.5 2.3 4.47.38.26.21.33.36.42.13.08-.05-.09.08-.17.05-.03.07-.02.04.03-.09.12.26.31.26.54zm1.93-10.42c-.07 0-.07-.02 0-.11s.06-.12-.05-.16c-.13-.05.07-4.63-.24-4.63-.2 0 .05-.02.11-.38.03-.17.01-.25-.06-.25-.08 0-.08-.01.01-.07.2-.13-.15-.24-.15-.37 0-.09.17.23.11-.35-.06-.58-.28-.67-.14-.59.13.07.22-.1.09-.1-.03 0 .08-1.61-.23-1.58-.09.01-.11-.03-.09-.12.02-.07.02-.1-.02-.07-.12.11-.49-.2-.4.02.05.15-.02.1-.16.11-.11.01-.12.28.12.28.15 0 .22.05.14.18-.04.07.1-.13-.19-.11-.3.02-.32.07-.28.59 0 .03.31 3.43.34 3.43.05 0 .05.05-.01.16-.07.12-.07.15.01.11.22-.13-.29.49.11 1.3.08.16.08.22.02.25-.07.02-.06.07.01.2.14.24-.06.03-.02.5.02.21.14.77.03.71-.17-.1.08.23.11.44.05.35-.1.21-.1.51 0 .11.03.18.06.16.03-.02.04.03.05.11.24 0 .46-.01.68-.04.07-.01.13-.03.2-.04-.01-.05-.02-.09-.06-.09zm3.63-5.93s-.06-1.23-.16-1.41c-.08-.16-.08-.19 0-.16.18.07-.04-4.4-.01-4.4.15 0 .22-.33.11-.26s.02-.16.05-.56c.03-.38-.15-.3-.02-.49.16-.25-.14-.27-.02-.47.09-.14-.04-.32.08-.32.16 0-.12-.17-.02-.26.08-.07.1-.39-.01-.46-.06-.04-.05-.06.02-.06.18 0-.16-.38.01-.28.05.03.09.01.09-.03 0-.13-.19-.03-.11-.18.07-.12.11-2 .01-2-.04 0-.05.06-.02.14.04.1.03.12-.03.05-.17-.17.17-.25.13-1.2-.03-.73.07-.47.07-.66 0-.18-.13-.04-.13-.28 0-.46-.91-.71-.94-.28-.01.14.05.24-.11.18-.19-.07-.07.15.05.13.19-.04-.22.09-.11.42.12.38-.1 2.12.04 2.39.05.09.05.13 0 .1-.04-.02-.07 0-.07.07 0 .17.1-.01.17.12.07.11-.12-.01-.16.16-.17.87.13.9.19.89-.01 0-.04.01-.07.02-.36.13-.08.05-.15 3.64-.08 4.1.15 7.81.35 10.17.4-.33.78-.7 1.13-1.1-.15-1.33-.45-3.37-.47-3.36-.21.04.18-.19.11-.26zm-.94.77c-.06-.06.03-.31.04-.1.01.16-.07.1-.04.1zm.78 1.09c-.11 0-.17-.01-.04-.09.1-.05.19.09.04.09z"/><path d="M201.11 56.6c-.35.34-.2.48-.41.54-.15.04-1.83 1.7-1.76 1.82.08.14-.46.11-.91.81-.19.29-.55.34-.48.44.07.11-.12.01-.3.22-.13.15-.06.18-.27.4-.11.11-.16.14-.12.08.04-.06-.08.02-.26.19-.43.41-.09.35-.42.54-.57.32-.82.85-.79.9.07.11-.09 0-.37.18-.29.19-.13.24-.47.53-.74.63-.81.67-.68.77.18.13-.06-.13-.51.29-.47.44-.82.96-.92.9-.11-.07.05.22-.05.19s.03.1-.22.18c-.26.09-.13.34-.25.26-.16-.09-1.01.96-.97.95.09-.04.16.51.02.2-.11-.24-.19-.21-.35-.01-.21.25-1.35 1.32-1.31 1.45.05.14-.08-.08-.37.25-.27.3-.08.35-.19.3-.15-.09-1.27 1.09-1.27 1.25 0 .16-.23-.06-.23.14 0 .18-.19.08-.11.21.03.05.02.07-.02.04-.04-.03-.14.02-.21.1-.18.2 0 .33-.14.28-.14-.05-.49.49-.42.56.15.15-1.33 1.16-1.24 1.4.04.09.02.11-.07.08-.07-.03-.1-.02-.08.02.06.1-.19.21-.19.37 0 .15-.12.03-.2.32-.08.29-.01.33-.11.33-.16 0 .04.24-.24.62-.09.12-.14.26-.11.31.03.05.02.09-.02.09-.28 0-.59 5.04-.44 5.54.06.19.27.02.11.15-.09.08-.2 4.5.02 4.5.19 0-.15.09-.07.21.02.03.05.56.1 1.33.12 2.22.3 6.45.29 6.45-.59-.34 1.1 6.92.73-6.45-.04-1.35-.1-2.91-.18-4.71-.06-1.19-.27-.89-.16-1.01.03-.03.05-.01.05.04 0 .31.31-.31.04-.77-.06-.1.1.14.1-.47.04-4.58.71-4.9.47-5-.22-.09.28.15.44-.7.06-.32.31-.37.24-.62-.03-.12-.03-.14.02-.06.16.24.1-.3.19-.3.11 0 .68-.45.74-.84.03-.19.16-.39.53-.75.27-.27.47-.52.45-.54-.08-.08.04.09.56-.38 2.72-2.46 2.88-2.94 2.92-2.93.21.04.84-.78.83-.83-.05-.13.18-.11.14-.03-.1.16 1.67-1.7 2.49-2.39.29-.24.33-.31.25-.4-.07-.09-.07-.11 0-.06.15.09.04-.15.21-.21.16-.06.33.19.26.05-.04-.07 1.08-1.11 1.11-1.14.35-.38.26-.49.48-.55.1-.03.14-.08.1-.14-.03-.05-.02-.07.03-.04.11.06.63-.43.5-.48-.13-.04-.13-.16.04-.14.3.04 4.15-3.86 4.1-3.95-.07-.13-.01.1.33-.23s.28-.39.16-.32c-.15.09.07-.21.21-.16.25.1 1.56-2.17 1.59-2.2.24-.18-.18-.22.01-.46.08-.09.07-.12-.05-.12-.13 0-.12-.01.02-.07.31-.13.15-1.06.29-1.12.14-.06-.09.08-.05-.37.02-.23 0-.3-.07-.26-.12.07.14.01.1-1.05-.01-.37-.16-.1-.16-.29 0-.07.03-.1.08-.08.04.03.08-.02.08-.11 0-.22-.15-.19-.12-.34.02-.15.19-.34.07-.26-.11.07-.2-.2-.1-.14.09.05.12-.11-.02-.27-.08-.09-.08-.09 0-.05.15.08 0-.1 0-1.1 0-1.14-.27-.82-.14-1.03.09-.14.02-3.5-.08-3.76-.1-.26-.46-.22-.28-.09.16.12.12.42.07.28-.05-.14-.45-.55-.37-.4.06.1.05.1-.05.02-.78-.63-.09 6.1-.05 6.08.12-.07-.1.11-.04.6.06.51.05 1.7.13 1.84.08.14-.1.13-.1.26 0 .04.04.05.09.02.06-.04.07-.02.02.05-.09.15-.12.52-.06.4.06-.13.25-.15.08.04-.17.19-.15.42-.25.66-.08.21.23.44.06.34-.14-.09-.11.32-.1.37.01.04-1.36 1.91-1.36 1.92.01.11-.25.17-.61.52zm-16.95 30.94c-.03 0-.15-.13 0-.13.18-.01-.02.13 0 .13zm-.09 1.4c-.09 0 .03-.11.11-.17.25-.2-.14.17-.11.17zm.27-12.02c.09-.05.08.19.04.19s-.12-.14-.04-.19zm.11 9.56c.26-.22-.04.08.02.14.02.02-.02.04-.08.04-.16 0-.16 0 .06-.18zm-.02-11.32c-.08 0-.13-.04 0-.12.1-.06.1.12 0 .12zm4.02-5.63c-.01.13-.03.15-.11.09-.05-.04-.1-.05-.11-.02-.01.11.03.21-.07.14-.12 0 .06-.29.16-.23.1.07.14-.22.13.02zm1.64-1.22c-.09 0-.17-.11 0-.25.13-.1.13-.1.02.04s-.1.14.08.09c.35-.08-.13.12-.1.12zm2.74-2.41c-.06 0-.15-.03.05-.11.16-.06.05.11-.05.11zm6-5.84c-.08 0-.13-.04 0-.12.1-.06.1.12 0 .12zm.71-1.11c-.17.06.02-.04-.09-.17-.12-.14.16-.11.16-.03 0 .1.31.02.31.18 0 .3-.2-.04-.38.02zm4.39-14.22c.09 0-.18.31-.17.31-.05 0 .12-.31.17-.31z"/><path d="M187.64 75.2c-.12.13.15-.04.06.42-.03.17-.11 1.34.09 1.21.1-.06-.22 1.92.07 1.53.12-.17.04 0-.05.36-.07.27.06.35.09.6.02.22-.1 3.18.12 3.05.06-.04.06-.01 0 .1-.15.27-.16 4.31-.19 4.32-.03.01-.04.02-.05.04-.03.07.19.19.1.27-.05.04-.14.72.04.94.01.01.01.02.02.02-.08.01-.24.28-.06 2.25.09 1 .56.5.59.5.11 0-.03.16.02.16.44 0 .3-3.22.43-3.69.03-.12.05-.27.06-.45.04-.88-.16-2.31-.13-2.29.14.09.06-1.74 0-1.7-.07.05-.1-.05.03-.19.17-.17-.11-.16-.03-.39.03-.09.01-.1-.07-.05-.09.05-.09.04-.01-.05.17-.2-.19-.3 0-.3.14 0 .07-.44.05-.61-.05-.36-.18-.11-.18-.25 0-.15.14.06.12-.38-.03-.51-.02-2.89-.2-2.89-.18 0 .25-.17.09-.27-.17-.1.14-.12.04-.27-.08-.12-.09-1.37-.16-1.49-.08-.12.18-.31.06-.31-.04 0-.06-.06-.04-.14.05-.19-.39-.52-.21-.31.09.12.09.13-.02.09-.17-.06-.38.12-.32.21.05.12-.27-.14-.36-.04zm.56 15.68c-.04 0-.13-.14-.04-.19.08-.05.07.19.04.19zm.12-4.78c.1-.06.19.09.04.09-.11 0-.17-.02-.04-.09zm7.64-32.13c-.33.34-.22.51-.31.46-.14-.09-1.46 1.53-1.37 1.67.06.11-.07-.11-.42.26-.37.38-.09.52-.25.38-.19-.17-.12.09-1.96 1.87-.41.39-.18.58-.36.54-.24-.05-1.18.97-1.18 1.09 0 0-.25.09-.46.33-.32.37-.22.45-.31.39-.11-.07-.58.54-.66.65-.16.24-.04-.04-.44.35-.41.4-.26.47-.48.59-1.25.68-.7 1.21-.9.94-.13-.17-.47.3-.43.43.01.02.02.04.03.04-.13.02-.85.39-3.9 4.06-.03.03-1.08 1.51-1.19 1.54-.14.05-.38.58-.32.67.06.09-.17.29-.37.54-.21.26.02.19-.22.44-.21.23-.09.36.02.29.12-.07 0 .14-.09.09-.53-.31-.15 8.95 0 8.88.17-.08-.13.03-.11.42.12 2.89.6 2.85.7 1.84 0-.03.15-1.8.01-1.71-.16.09.11-.06.09-.45-.02-.39.13-.62.02-.62-.1 0 .04-.44.05-.58 0-.09-.09-.24-.19-.24.07-.17.21-.99.21-4.47 0-.11-.23-.04-.23-.15 0-.15.15.1.14-.92-.01-.98.01-.62.05-1.14.21-2.43 7.22-8.93 7.13-9.32.04.01.23-.05.93-.74.69-.69.74-.88.74-.92l.01.01c.11.07 1.26-1.07 1.26-1.18 0-.13-.05.11.61-.47 1.5-1.32.89-1.29 1.22-1.38.3-.08.81-.92 1.02-1 .18-.07-.04-.45.14-.29.15.13.29-.15.23-.15-.11 0 .46-.37.39-.49-.07-.1.06.09.28-.18.22-.27.04-.38.14-.32s.36-.13.3-.37c-.05-.22-.03.11.24-.14.33-.3.1-.38.25-.38.08 0 .87-.75.87-.86 0-.17-.03.1.44-.31.15-.13.24-.24.21-.24-.04 0 0-.04.07-.08.2-.11-.01-.28.11-.2.17.1 2.17-2.03 1.75-1.78-.05.03-.09.01-.09-.03 0-.12.2-.01.28-.26.32-.96.47-.98.3-1.04-.11-.04-.1-.05.01-.14.58-.42-.09-2.5.19-1.87.09.21.11-1.62-.12-1.79-.15-.11-.15-.11.01-.07.16.04.1-2.14-.07-4.08-.13-1.5-.33-2.87-.53-2.98-.25-.13-.24-.02-.26.51-.01.21-.12 1.35.05 1.25.17-.1-.17.28.01.28.07 0 .07.02 0 .07-.19.13.08-.04.1.42.02.4-.11.14-.09.37 0 .04.01.07.02.09.04.09.11.05.06.19-.07.17.29.38.14.3-.11-.06-.25.06-.19.29.06.24.28.07.2.27-.04.1-.06.1-.11.02-.1-.16-.15.68.06.84.21.16-.12-.01-.08.46.06.74.08 4.94.04 4.94-.1 0-.18.29-.07.36.12.07-.08.11-.25.44-.18.35.23.67-.02.46-.18-.15-.23.06-.18.14.06.09-2.11 2.09-2.08 2.23.04.2-.02-.13-.42.31-.15.16-.25.25-.22.18.02-.05-.07.01-.2.15zm-15.03 22.67c-.08 0-.13-.04 0-.12.1-.06.1.12 0 .12zm5.32-11.91c-.04 0-.06-.16.05-.16.15.01-.06.16-.05.16zm2.34-2.56c-.06.1-.27.08-.13.02.05-.02.08-.07.05-.12-.08-.12.13 0 .08.1zm.78-.71c-.05 0-.14-.13 0-.18.2-.08-.04.18 0 .18zm.86-.54c-.04 0 .04-.26.09-.2.09.09-.13.2-.09.2zm.79-.82c-.15 0-.13-.22.04-.05.08.08.07.09-.04.05zm1.27-1.75c-.08 0-.13-.04 0-.12.1-.06.1.12 0 .12zm.65-.72c-.06-.06.03-.31.04-.1.01.16-.07.1-.04.1zm6.51-16.48c.15 0-.06.16-.05.16-.04 0-.06-.16.05-.16zm-19.67 24.34c.08-.2.21-.01.32-.26.12-.26.41-.19.33-.37-.06-.15.28-.41.11-.16-.13.19.38-.35.33-.44-.06-.1.01.05.4-.34.37-.37.16-.44.25-.41.12.04.81-.65 1.48-1.34-.29-.22-.62-.46-.98-.68l-.63.59c-.52.48-.28.59-.4.52-.06-.04-.07-.02-.04.07.03.08.01.11-.05.09-.13-.05-.6.48-.53.56.07.07-.06-.12-.31.2-.99 1.3-2.93 3.25-2.96 3.28-.09.1-.17.2-.24.31-.43.71-.29 1.66-.28 5.43.01 5.08-.15 3.99-.1 4.83.02.35.37.33.14.42-.16.06-.04.18-.03.88 0 .49.17.57.28.62.06.03.1.05.1.12 0 .06-.05.05-.1.04-.07-.01-.15-.04-.11.05.01.04.06.07.11.09.11.04.24.03.19-.1-.04-.11-.03-.11.09-.02.3.24.54-11.28.67-11.55.19-.42.33-.17.28-.42-.05-.26.06.08.46-.33.84-.87.43-.99.58-.89.05.03.12-.02.16-.09.1-.2-.06-.29.05-.23.11.03.38-.34.43-.47zm-3.16 12.08c-.03 0-.04-.24.04-.19.13.08-.08.19-.04.19zm.72-10.08c-.08 0-.04-.22.09-.15.1.06.01.21-.09.15z"/><path d="M193.73 49.71c.05.09-.16.22-.09.09.06-.1.03-.22-.39.28-.4.48-.25.5-.34.45-.1-.06-.32.28-.65.58-.4.36-.09.47-.3.47-.11 0-.4.31-.35.44.01.03-2.92 2.63-2.84 3.09.02.09-.21-.04-.26.05-.32.49-2.83 2.93-6.05 5.91.25.34.49.64.71.91.61-.65 1.16-1.25 1.16-1.24.01.15.32-.15.27-.23-.01-.02.59-.37.59-.59 0-.06.85-.54.74-.72-.07-.11-.05.1.53-.48.74-.75.36-.73.58-.73.16 0 3.6-3.66 3.57-3.75-.08-.22.34.01.23-.18-.06-.1.01.03.46-.42.43-.42.23-.46.33-.4.25.15 1.26-1.44 1.33-1.4.07.05.3-.16.26-.38-.02-.12-.01-.13.05-.05.12.18.32-.46.48-.46.04 0 .08-.05.08-.12 0-.16.15-.05.37-.29.12-.13.33-.39.16-.35-.14.03.25-.1.25-.24 0-.05.04-.08.08-.06.04.03.08-.01.08-.08 0-.18.09.03.23-.23.95-1.76 1.28-5.01.94-4.88-.21.07.21-.03.16-.74-.02-.25-.25-.19-.25-.09s-.18.05.07-.18c.3-.27.03-.33.17-.54.04-.06.03-.13-.03-.16-.05-.04-.06-.06-.01-.06.05 0 .07-.25.06-.53-.01-.36-.07-.77-.13-.81-.03-.02.2-2.35-.07-2.19-.03.02.13-2.46-.09-2.46-.15 0 .12.01.08-.43-.02-.18-.14-.74-.25-.74-.07 0 .09.16-.02.16-.16 0-.02-.18-.3-.07-.42.16-.08 1.3-.16 1.35-.09.06-.05.39.01.48.14.22.09 2.8.06 4.72-.02 1.17-.03 2.09.01 2.09.09 0-.11.47-.03.47.07 0-.21.16-.09.16s.1.24.03.19c-.08-.05.01.84-.08.9-.09.06-.24 1.24-.26 1.35-.21 1.45-1.21 1.93-1.09 2.14zM182.71 61c-.1 0-.01-.16.09-.16.11 0 .01.16-.09.16zm5.41-4.77c-.11 0-.17-.01-.04-.09.1-.06.19.09.04.09zm7.35-20.26c.33.1.05.2.09.2-.13 0-.01-.16-.21-.16-.16.01-.1-.11.12-.04zm-.45 11.56c.15 0-.06.16-.05.16-.04 0-.06-.16.05-.16zm-.08.83c0 .21-.18.14-.14.14-.07-.04.14-.25.14-.14zm-14.3 8.62.12-.12c-.07.05-.1.09-.12.12z"/><path d="M180.75 56.86c.11-.09.12-.08.04.02-.14.18.04.23-.09.23-.07 0-.11-.04-.07-.13l-.5.53c.17.31.34.61.53.91.69-.79.88-1.17.97-1.12.11.07.03-.2.15-.2.09 0 1.19-1.04 1.11-1.12-.07-.08.04.1.33-.19.31-.32.03-.33.07-.25.07.11-.08.21-.13.05-.1-.28.06.15.92-.68.03-.03 2.11-1.95 2.21-2.14.1-.19-.05-.28.05-.22.11.07.38-.22.3-.35-.09-.14.02.13.37-.27.35-.39.2-.44.39-.52.21-.09.04-.33.18-.33.18 0 .73-.68.73-.79 0-.21-.07.13.44-.38.45-.45.3-.42.56-.62 1.12-.86.64-1.1.89-1 .15.06.43-.51.77-.84.33-.32.03-.49.25-.41.14.05.15-.07.13-.22-.02-.15-.01.3.59-.99.23-.49.37-1.81.46-3.41.2-3.71.1-8.97.05-9.06-.06-.09-.17-.5-.03-.3.21.3-.23-.67.05-.57.09.03.12.01.09-.06-.07-.18-.31.02-.13-.2.07-.09.07-.11.01-.08-.05.03-.1.03-.1-.02 0-.12.27-.15.09-.16-.19-.01.19-.15.09-.42-.1-.29.03-3.39-.15-3.28-.17.1.22-.44.02-.44-.14 0 .13-.53-.12-.32-.25.21.03-.17.03-.38 0-.11-.28-.31-.16-.31.11 0 .11-.29 0-.35-.13-.08.1-.26-.14-.12-.06.04-.15.11-.21.16.01.04-.01.08-.07.08-.18 0-.02.54-.13.54-.13 0 .2.31.05.37-.12.05-.03.83.08.9.14.1-.11.01-.11.13 0 .13.39.14.14.15-.22.01-.11.79-.06.79.07 0-.02.48-.15.45-.13-.03-.07.47-.04.91.03.34.22.35.09.35s-.08 2.28.13 2.55c.1.12.09.13-.02.04-.36-.29-.15.62-.04.7.13.09-.15-.03-.17.25-.03.32.19.5.06.75-.06.11-.06.19 0 .26.04.05.06.12.03.15-.09.09.23.26.07.35-.11.06-.11 3.98-.15 6.17-.01.65-.03 1.15-.05 1.35-.07.68-.23.93-.17 1.09.05.14-.04 0-.17.48-.37 1.39-2.78 3.1-2.4 3.52.18.2-.08-.1-.28-.03-.18.07-.1.31-.18.24-.07-.07-.41.25-.41.39s-.31.23-.44.41c-.13.18.03.29-.08.22-.16-.1-.62.71-.6.75.07.11 0-.07-.25.15-.24.21-.12.23-.4.51-.52.51-.55.72-.53.78-.01 0-.01-.01-.02-.02-.05-.03-.09-.02-.09.01 0 .17-.83.81-.89.87-.22.22-.09.34-.18.28-.11-.07-.8.58-.74.69.01.01.01.01.01.02-.03 0-.2.06-.8.63-.5.5-1.36 1.38-2.08 2.12zm10.81-13.29c-.05 0 .04-.33.09-.28.09.1-.12.28-.09.28zm.45 1.16c-.04 0-.06-.16.05-.16.15.01-.06.16-.05.16zm-.4.47c.16 0-.18.16-.16.16-.03 0 .04-.16.16-.16zm-6.24 8.12c.05-.03.07-.02.04.03-.03.05-.01.1.05.12.2.08-.42.06-.09-.15zm2.51 21.78c.06.14.08-.08-.02-.13-.1-.06-.21.16-.1.09.09-.06.08.04.12.04zm28.36-18.17c.05.03.1.03.1-.01 0-.12-.25-.25-.09-.25.13 0 .12-.57 0-.68-.07-.07-.07-.09 0-.09.11 0 .14-.43 0-.34-.08.05-.08.03 0-.06.12-.15-.28-2.63-.28-3.23 0-.78-1.5-2.44-2.04-2.94-.33-.31-.19-.41-.33-.3-.17.14-.03-.28-.26-.41-.15-.08-.74-.64-.74-.75 0-.14-.05.06-.36-.28-.28-.3-.04.05-.18.05-.11 0-.07-.07-.08-.23-.01-.13-.97-1.21-1.14-1.14-.14.05-2.79-2.96-3.78-3.86-.2-.19-.34-.28-.36-.24-.17.28.11-.15-.19-.42-.73-.64-1.48-1.71-2.27-2.16-.13-.08-.17-.11-.08-.09.29.08-.89-.81-.93-.89-.17-.32-.21-.25-.16-.16.06.1-.1.14-.13-.1-.04-.26-.13-.06-.21-.19-.27-.4-.94-.32-.61-.58.14-.11-1.01-.8-1.35-1.24-.45-.56-.34-.27-.6-.52-.22-.22-.47-.66-.58-.62-.12.04-.57-.48-.64-.59-.15-.21-.25-.07-.54-.42-2.24-2.67-1.66-1.12-1.78-7.42 0-.12-.24-2.53-.02-3.72.06-.3-.26-.49-.05-.36.17.11 0-.46-.1-.52-.11-.07-.39-.08-.14.02.23.09.17.31.12.18-.06-.14-.3-.06-.37-.18-.59-.98-.7 4.65-.53 7.92.03-.02.06-.05.08-.07.2-.16 0 .04-.08.13.06 1.11.16 1.94.28 2.12 1.52 2.3-2.03-1.22 9.62 10.12l7.83 7.64c.96.94 1.42.98 1.62 2.61.22 1.74.38 1.86.43 3.56.01.42.14.15.14.33 0 .2-.13-.05-.08.48.06.59.36.51.14.59-.19.07-.12.23.01.38.13.14.12.15-.01.09-.12-.05-.13-.03-.08.13.09.26.05 1.13.13 1.21.08.07.09.21-.02.15-.11-.07-.06.43.01.43.13 0 .04.55-.04 1.21.26.03.53.07.8.1.04-.56.15-4.04-.07-4.31-.07-.09-.07-.12-.01-.08zm-20.17-34.12c-.03 0-.04-.24.04-.19.14.08-.07.19-.04.19zm.31 0c-.05 0-.16-.16-.05-.16.16.01.03.16.05.16zm8.94 18.89c-.06-.06.03-.31.04-.1 0 .16-.08.1-.04.1zm1.73 1.99c-.13-.08.12-.08.06-.18-.05-.09.12-.18.12-.09 0 .36-.22.27-.18.27zm8.78 16.17c-.06.1-.27.08-.13.02.05-.02.08-.07.05-.12-.08-.11.13 0 .08.1z"/><path d="M220.06 56.87c-.11.07.25-.98-.05-.73-.1.08-.11.08-.06-.01.05-.08.03-.1-.07-.06-.08.03-.11.02-.09-.03.11-.18.26.15.25-.58 0-.3-.04-.48-.08-.46-.05.03-.06-.05-.03-.19.07-.35-.19-.31-.02-.32.17-.01.16-.22.02-.28-.15-.06 0-.12.02-.53.02-.44-.18-.34-.05-.49.12-.14 0-.85-.04-.99-.07-.24.13.21.08-1.05-.16-4.26-1.86-3.98-1.7-4.24.05-.09-.42-.67-.44-.71-.22-.29-.3-.09-.3-.22 0-.12-.62-.72-.62-.66 0 .26-.4-.74-.76-.74-.14 0 .03-.12-.14-.18s-.08-.28-.18-.28c-.12 0-.61-.57-.72-.5-.11.07.1-.02-.37-.51-.11-.11-.39-.38-.75-.72-1.22-1.13-3.44-3.15-3.8-3.56-.28-.33-.41-.11-.35-.21.06-.09-1.72-1.69-2.18-2.1-.38-.34-.45-.1-.52-.38-.03-.11-.08-.18-.12-.16-.11.07-.02-.15-.2-.09-.09.03-.11.01-.08-.07.07-.18-.31-.18-.24-.25.05-.05-.19-.32-.31-.28-.13.04-.14-.29-.3-.29-.06 0-.1-.03-.09-.07.04-.16-.84-.6-1.07-.82-.26-.26-.03-.29-.24-.26-.1.02-.15-.01-.13-.08.01-.07-.02-.09-.1-.06-.16.06-.15-.08-.02-.13.12-.05-3.48-2.94-3.56-4.38-.34-6.01-.25-5.52-.27-5.56-.11-.21.06-.07.03-.66-.12-2.68-.48-6.2-.51-4.93 0 .17-.01.17-.07.02-.08-.18 0-.1-.38.39.06-.36.09-.39-.09-.23-.15.13-.2.27 0 .37.1.05.1.05-.01.06-.34.01.07 1.17.02 1.14-.14-.08-.06.17.03.48.04.16-.23.05-.01.22.2.15-.01-.04-.02.5 0 .22.03.41.07.43.03.02-.07 1.87.09 1.77.16-.1-.1.09-.09.33.06 1.16-.36 2.95.12 2.79.12-.04.12-.03.03.03-.67.49-.11 4.54 2.06 6.02.38.26.21.33.36.42.13.08-.05-.09.08-.17.05-.03.07-.02.04.03-.08.13.26.32.26.54 0 .1.31.18.77.63 1.05 1.04.48.72.97 1.12.5.41.44.13.44.29 0 .13.39.48.53.43.14-.06-.02.09.09.16.04.03.08 0 .09-.05.01-.19.04.39.48.33.08-.01 0 .16-.12.1-.11-.07-.01.15.14.09.15-.06-.04.03.23.3.25.25.37.09.32.18-.15.25 2.03 1.84 2.08 1.92.09.14 1.37 1.43 1.45 1.5.45.39.58.22.51.33-.08.14 1.77 1.73 1.8 1.77l.09.09c.19.17.4.24.4.36 0 .13.24.23.35.2.11-.03-.1.04.13.28.01.01 3.76 3.32 3.8 3.33.22.07.01.16.21.32.08.06.11.11.08.11-.04 0-.02.06.03.12.13.16.3-.01.22.07-.07.08.41.59.49.54.12-.07-.12.14.16.28.3.16.36.36.46.72.15.55.23.35.23.69 0 .16.03.22.1.17.07-.04-.06 6.2.22 6.2.1 0-.42 4.78.14 5.69.16-.01.31-.01.46-.02.04-.1.05-.22.03-.27-.06-.17.1.14.1-.68 0-.83-.17-.53-.09-.66.09-.15.24.2.17-.33-.03-.21.12-1.44.14-1.64.03-.42-.15-.2-.04-.49.1-.16.15-.59.01-.5zm-6.68-14.17c-.2 0-.11-.12.04-.12s.17.12-.04.12zm-9.13 54.14c.02-.23 0-.3-.07-.26-.11.07.11.02.11-.86l-.03-.36c-.05-.09-.13.03-.13-.11 0-.07.03-.1.08-.08.01.01.02.01.03.01a3.98 3.98 0 0 0-.05-.34c-.02-.03-.04-.06-.03-.11 0-.01 0-.02.01-.03-.01-.09-.03-.18-.05-.27-.03-.04-.05-.11-.02-.12-.26-1.31-.7-2.55-1.17-3.68.08 1.63.27 3.38.28 3.37.12-.07-.1.11-.04.6.06.51.05 1.7.13 1.84.08.14-.1.13-.1.26 0 .04.04.05.09.02.06-.04.07-.02.02.05-.09.15-.12.52-.06.4.06-.13.25-.15.08.04-.17.19-.15.42-.25.66-.08.21.23.44.06.34-.14-.09-.11.32-.1.37.01.04-1.36 1.91-1.36 1.92.06.09-.2.16-.56.51-.35.34-.2.48-.41.54-.15.04-1.83 1.7-1.76 1.82.08.14-.46.11-.91.81-.19.29-.55.34-.48.44.07.11-.12.01-.3.22-.13.15-.06.18-.27.4-.11.11-.16.14-.12.08.04-.06-.08.02-.26.19-.43.41-.09.35-.42.54-.57.32-.82.85-.79.9.07.11-.09 0-.37.18-.29.19-.13.24-.47.53-.74.63-.81.67-.68.77.18.13-.06-.13-.51.29-.47.44-.82.96-.92.9-.11-.07.05.22-.05.19s.03.1-.22.18c-.26.09-.13.34-.25.26-.16-.09-1.01.96-.97.95.09-.04.16.51.02.2-.11-.24-.19-.21-.35-.01-.21.25-1.35 1.32-1.31 1.45.05.14-.08-.08-.37.25-.27.3-.08.35-.19.3-.15-.09-1.27 1.09-1.27 1.25 0 .16-.23-.06-.23.14 0 .18-.19.08-.11.21.03.05.02.07-.02.04-.04-.03-.14.02-.21.1-.18.2 0 .33-.14.28-.14-.05-.49.49-.42.56.15.15-1.33 1.16-1.24 1.4.04.09.02.11-.07.08-.07-.03-.1-.02-.08.02.06.1-.19.21-.19.37 0 .15-.12.03-.2.32-.08.29-.01.33-.11.33-.16 0 .04.24-.24.62-.09.12-.14.26-.11.31.03.05.02.09-.02.09-.28 0-.59 5.04-.44 5.54.06.19.27.02.11.15-.04.03-.08.91-.1 1.87.13-.22.25-.45.38-.68.17-.33.39-.79.63-1.33-.02-.09-.04-.18-.1-.27-.06-.1.1.14.1-.47.04-4.58.71-4.9.47-5-.22-.09.28.15.44-.7.06-.32.31-.37.24-.62-.03-.12-.03-.14.02-.06.16.24.1-.3.19-.3.11 0 .68-.45.74-.84.03-.19.16-.39.53-.75.27-.27.47-.52.45-.54-.08-.08.04.09.56-.38 2.72-2.46 2.88-2.94 2.92-2.93.21.04.84-.78.83-.82-.05-.13.18-.11.14-.03-.1.16 1.67-1.7 2.49-2.39.29-.24.33-.31.25-.4-.07-.09-.07-.11 0-.06.15.09.04-.15.21-.21.16-.06.33.19.26.05-.04-.07 1.08-1.11 1.11-1.14.35-.38.26-.49.48-.55.1-.03.14-.08.1-.14-.03-.05-.02-.07.03-.04.11.06.63-.43.5-.48-.13-.04-.13-.16.04-.14.3.04 4.15-3.86 4.1-3.95-.07-.13-.01.11.33-.23.34-.33.28-.39.16-.32-.15.09.07-.21.21-.16.25.1 1.56-2.17 1.59-2.2.02-.01.03-.03.04-.04.01-.04.02-.08.02-.12-.04-.08-.17-.15-.05-.3.08-.09.07-.12-.05-.12-.13 0-.12-.01.02-.07.31-.13.15-1.06.29-1.12h.01v-.04c-.08-.04-.12-.12-.1-.34zm-19.87 24.68c-.04 0-.13-.14-.04-.19.09-.05.08.19.04.19zm.05-1.95c-.08 0-.13-.04 0-.12.1-.06.1.12 0 .12zm4.02-5.62c-.01.13-.03.15-.11.09-.05-.04-.1-.05-.11-.02-.01.11.03.21-.07.14-.12 0 .06-.29.16-.23.1.06.14-.23.13.02zm1.64-1.23c-.09 0-.17-.11 0-.25.13-.1.13-.1.02.04s-.1.14.08.09c.35-.08-.13.12-.1.12zm2.74-2.41c-.06 0-.15-.03.05-.11.16-.06.05.11-.05.11zm6-5.84c-.08 0-.13-.04 0-.12.1-.05.1.12 0 .12zm.71-1.11c-.17.06.02-.04-.09-.17-.12-.14.16-.11.16-.03 0 .1.31.02.31.18 0 .3-.2-.04-.38.02z"/><path d="M180.93 118.95c0-.15.15.1.14-.92-.01-.98.01-.62.05-1.14.21-2.43 7.22-8.93 7.13-9.32.04.01.23-.05.93-.74.69-.69.74-.88.74-.92h.01c.11.07 1.26-1.07 1.26-1.18 0-.13-.05.11.61-.47 1.5-1.32.89-1.29 1.22-1.38.3-.08.81-.92 1.02-1 .18-.07-.04-.45.14-.29.15.13.29-.15.23-.15-.11 0 .46-.37.39-.49-.07-.1.06.09.28-.18.22-.27.04-.38.14-.32s.36-.13.3-.37c-.05-.22-.03.11.24-.14.33-.3.1-.38.25-.38.08 0 .87-.75.87-.86 0-.17-.03.1.44-.31.15-.13.24-.24.21-.24-.04 0 0-.04.07-.08.2-.11-.01-.28.11-.2.17.1 2.17-2.03 1.75-1.78-.05.03-.09.01-.09-.03 0-.12.2-.01.28-.26.32-.96.47-.98.3-1.04-.11-.04-.1-.05.01-.14.58-.42-.09-2.5.19-1.87.09.21.11-1.62-.12-1.79-.15-.11-.15-.11.01-.07.16.04.1-2.14-.07-4.08-.13-1.5-.33-2.87-.53-2.98-.25-.13-.24-.02-.26.51-.01.21-.12 1.35.05 1.25.17-.1-.17.28.01.28.07 0 .07.02 0 .07-.19.13.08-.04.1.42.02.4-.11.14-.09.37 0 .04.01.07.02.09.04.09.11.05.06.19-.07.17.29.38.14.3-.11-.06-.25.06-.19.29.06.24.28.07.2.27-.04.1-.06.1-.11.02-.1-.16-.15.68.06.84.21.16-.12-.01-.08.46.06.74.08 4.94.04 4.94-.1 0-.18.29-.07.36.12.07-.08.11-.25.44-.18.35.23.67-.02.46-.18-.15-.23.06-.18.14.06.09-2.11 2.09-2.08 2.23.04.19-.02-.13-.42.31-.15.16-.25.25-.22.18.03-.06-.05 0-.19.14-.33.34-.22.51-.31.46-.14-.08-1.46 1.53-1.37 1.67.06.11-.07-.11-.42.26-.37.38-.09.52-.25.38-.19-.17-.12.09-1.96 1.87-.41.39-.18.58-.36.54-.24-.05-1.18.97-1.18 1.09 0 0-.25.09-.46.33-.32.37-.22.45-.31.39-.11-.07-.58.54-.66.65-.16.24-.04-.04-.44.35-.41.4-.26.47-.48.59-1.25.68-.7 1.21-.9.94-.13-.17-.47.3-.43.43.01.02.02.04.03.04-.13.02-.85.39-3.9 4.06-.03.03-1.08 1.51-1.19 1.54-.14.05-.38.58-.32.67.06.09-.17.29-.37.54-.21.26.02.19-.22.44-.21.23-.09.36.02.29.12-.07 0 .14-.09.09-.53-.31-.15 8.95 0 8.88.17-.08-.13.03-.11.42.12 2.89.6 2.85.7 1.84 0-.03.15-1.8.01-1.71-.16.09.11-.06.09-.45-.02-.39.13-.62.02-.62-.1 0 .04-.44.05-.58 0-.09-.09-.24-.19-.24.07-.17.21-.99.21-4.47-.01-.09-.24-.02-.24-.13zm18.52-33.39c.15 0-.06.16-.05.16-.04 0-.06-.16.05-.16zm-6.47 16.38c.01.16-.07.1-.04.1-.06-.06.03-.32.04-.1zm-.69.71c.1-.06.1.12 0 .12-.08-.01-.13-.05 0-.12zm-1.23 1.81c.08.08.07.09-.04.05-.15 0-.13-.22.04-.05zm-.74.67c.09.09-.13.2-.09.2-.04 0 .04-.25.09-.2zm-.95.56c.2-.08-.03.18 0 .18-.05.01-.15-.12 0-.18zm-.91.91c.05-.02.08-.07.05-.12-.07-.11.14 0 .09.1-.07.1-.28.07-.14.02zm-2.16 2.39c.15 0-.06.16-.05.16-.04-.01-.06-.16.05-.16zm-5.37 12.06c-.08 0-.13-.04 0-.12.1-.06.1.12 0 .12z"/><path d="M180.44 109.27c-.06-.15.28-.41.11-.16-.13.19.38-.35.33-.44-.06-.1.01.05.4-.34.37-.37.16-.44.25-.41.25.08 2.81-2.8 2.82-2.76.01.15.32-.15.27-.23-.01-.02.59-.37.59-.59 0-.06.85-.54.74-.72-.07-.11-.05.1.53-.48.74-.75.36-.73.58-.73.16 0 3.6-3.66 3.57-3.75-.08-.22.34 0 .23-.18-.06-.1.01.03.46-.42.43-.42.23-.46.33-.4.25.15 1.26-1.44 1.33-1.4.07.05.3-.16.26-.38-.02-.12-.01-.13.05-.05.12.18.32-.46.48-.46.04 0 .08-.05.08-.12 0-.16.15-.05.37-.29.12-.13.33-.39.16-.35-.14.03.25-.1.25-.24 0-.05.04-.08.08-.06.04.03.08-.01.08-.08 0-.18.09.03.23-.23.95-1.76 1.28-5.01.94-4.88-.21.07.21-.03.16-.74-.02-.25-.25-.19-.25-.09s-.18.05.07-.18c.3-.27.03-.33.17-.54.04-.06.03-.13-.03-.16-.05-.04-.06-.06-.01-.06.05 0 .07-.25.06-.53-.01-.36-.07-.77-.13-.81-.03-.02.2-2.35-.07-2.19-.03.02.13-2.46-.09-2.46-.15 0 .12.01.08-.43-.02-.18-.14-.74-.25-.74-.07 0 .09.16-.02.16-.16 0-.02-.18-.3-.07-.42.16-.08 1.3-.16 1.35-.09.06-.05.38.01.48.14.22.09 2.8.06 4.72-.02 1.17-.03 2.09.01 2.09.09 0-.11.47-.03.47.07 0-.21.16-.09.16s.1.23.03.19c-.08-.05.01.84-.08.9-.09.06-.24 1.24-.26 1.35-.21 1.46-1.21 1.94-1.09 2.16.05.09-.16.22-.09.09.06-.1.03-.22-.39.28-.4.48-.25.5-.34.45-.1-.06-.32.28-.65.58-.4.36-.09.47-.3.47-.11 0-.4.31-.35.44.01.03-2.92 2.63-2.84 3.09.02.09-.21-.04-.26.05-.35.55-3.41 3.48-7.13 6.91-.52.48-.28.59-.4.52-.06-.04-.07-.02-.04.07.03.08.01.11-.05.09-.13-.05-.6.48-.53.56.07.07-.06-.12-.31.2-.99 1.3-2.93 3.25-2.96 3.28-.09.1-.17.2-.24.31-.43.71-.29 1.66-.28 5.43.01 5.08-.15 3.99-.1 4.83.02.35.37.33.14.42-.16.06-.04.18-.03.88 0 .49.17.57.28.62.06.03.1.05.1.12 0 .06-.05.05-.1.04-.07-.01-.15-.04-.11.05.01.04.06.07.11.09.11.04.24.03.19-.1-.04-.11-.03-.11.09-.02.3.24.54-11.28.67-11.55.19-.42.33-.17.28-.42-.05-.26.06.08.46-.33.84-.87.43-.99.58-.89.05.03.12-.02.16-.09.1-.2-.06-.29.05-.23.13.07.39-.3.44-.44.08-.2.21-.01.32-.26.1-.32.39-.24.32-.42zm15.03-28.89c.33.1.05.2.09.2-.13 0-.01-.16-.21-.16-.16.01-.1-.1.12-.04zm-.45 11.57c.15 0-.06.16-.05.16-.04-.01-.06-.16.05-.16zm-.08.82c0 .21-.18.14-.14.14-.07-.04.14-.25.14-.14zm-6.86 7.78c.1-.06.19.09.04.09-.1 0-.17-.02-.04-.09zm-5.28 4.7c.1 0 .01.16-.09.16-.1 0-.01-.16.09-.16zm-6.18 16.73c-.03 0-.04-.24.04-.19.13.09-.08.19-.04.19zm.72-10.08c-.08 0-.04-.22.09-.15.1.06.01.21-.09.15zm3.3-10.51.12-.12c-.07.05-.1.09-.12.12zm-3.78 26.54c-.03-.02-.05-.03-.06-.03-.05 0-.06-.02-.04-.05.14-.14-.43-.31-.47-.36-.1-.13-.05-.2-.21-.39-.17-.2-.27.01-.27-.17 0-.17-.19-.08-.11-.21.09-.14-.28.03-.27-.05.01-.15.04-.19-.63-.87-.76-.77-.58-.77-.84-.73-.34.06.08 0-.14-.3-.2-.26-.37-.1-.3-.21.06-.09-1.34-1.3-1.32-1.32.03-.04-.01-.08-.08-.08-.18 0 .05-.12-.23-.23-.27-.11-.22-.17-.11-.11.12.07.02-.12-.14-.12-.07 0-.1.04-.06.1.06.11-.09.04-.12-.25-.01-.11-.2-.01-.32-.24-.06-.11-.37-.55-.47-.49-.1.06.04.19-.02.19-.04 0-.29-.37-.11-.26.43.26-1.41-1.55-1.44-1.59-.33-.37-.61-.12-.44-.24.14-.09-2.36-2.06-2.61-2.56-.18-.37-.34-.15-.53-.44-.42-.65-1.06-.9-1.06-1.01 0-.15-.61-.77-.7-.71-.04.02-.08-.02-.1-.1-.05-.2-.52-.33-.53-.44-.01-.13.03-.19-.07-.19-.44 0-.57-4.11-.72-3.88-.1.15-.09-.07.01-.13.12-.07-.51-4.5-.54-4.49-.21.06.19-.16.11-.23 0 0-.06-1.23-.16-1.41-.08-.16-.08-.19 0-.16.18.07-.04-4.4-.01-4.4.15 0 .22-.33.11-.26s.02-.16.05-.56c.03-.38-.15-.3-.02-.49.16-.25-.14-.27-.02-.47.09-.14-.04-.32.08-.32.16 0-.12-.17-.02-.26.08-.07.1-.39-.01-.46-.06-.04-.05-.06.02-.06.18 0-.16-.38.01-.28.05.03.09.01.09-.03 0-.13-.19-.03-.1-.18.07-.12.11-2 .01-2-.04 0-.05.06-.02.14.04.1.03.12-.03.05-.17-.17.17-.25.13-1.2-.03-.73.07-.47.07-.66 0-.18-.13-.04-.13-.28 0-.46-.91-.71-.94-.28-.01.14.05.24-.11.18-.19-.07-.07.15.05.13.19-.04-.22.09-.11.42.12.38-.1 2.12.04 2.39.05.09.05.13 0 .1-.04-.02-.07 0-.07.07 0 .17.1-.01.17.12.07.11-.12-.01-.16.16-.17.87.13.9.19.89-.01 0-.04.01-.07.02-.36.13-.08.05-.15 3.64-.14 6.94.61 12.75.61 12.79 0 .09.02.09.14 0 .12-.1.13-.09.04.03-.15.19.01.96.16.87.05-.03.06-.02.02.05-.09.15.23.75.34.88.15.18.25.02.2.16-.04.13.13.38.3.4.18.02.3.4.42.38.05-.01.07-.02.08-.02-.02.01-.18.16.51.82.03.03 3.98 3.54 3.21 2.93-.3-.24-.03.32.19.18.03-.02 1.42 1.41 1.56 1.32.09-.06.08.13.46.51.38.39.63.44.63.55 0 .21.67.77.77.75.21-.06.03.22.35.53.52.48.69.54.73.55l-.01.01c-.06.1.83.99.95.93.11-.07-.01.01.23.28.24.27.32.1.32.21 0 .09.55.72.63.67.09-.05-.02.06.29.36.27.27.32.12.32.22 0 .05.04.07.09.04.05-.03.07-.02.04.03-.1.17.5.48.45.56-.07.12.3.13.23.24-.02.04.01.07.08.07.17 0 .08.19.21.11.12-.07-.03.04.09.21.04.06.79.76 1.41 1.35.46.43.85.79.86.8.14.13.19-.04.19.08 0 .08.65.71 1.07 1.17.14.16.25.29.31.38.2-.12.39-.25.59-.38.01-.01.02-.02.04-.03-.1-.12-.22-.29-.22-.43 0-.31-2.41-2.63-2.84-2.92zm-15.89-21.46c-.06-.06.03-.31.04-.1.01.16-.07.1-.04.1zm.49 6.02c-.03 0-.04-.24.04-.19.13.08-.08.19-.04.19zm.3-4.93c-.11 0-.17-.01-.04-.09.1-.05.18.09.04.09zm6.1 12.79c-.11 0 .1-.24.15-.2.1.11-.19.2-.15.2zm1.06-.08c-.04 0-.15-.13 0-.13.18 0-.02.13 0 .13zm7.79 7.86c-.03 0-.3-.26-.1-.19.24.09.07.19.1.19zm.6 1.33c-.05 0-.39-.16-.16-.16.17 0 .24.16.16.16zm1.42.46c-.04 0-.13-.33-.04-.27.16.1.01.27.04.27zm.24 1.08c-.2.01-.09-.1.05-.05.06.03.04.05-.05.05zm-2.11-96.16c.06.03.1.05.1.12 0 .06-.05.05-.1.04-.07-.01-.15-.04-.11.05.01.04.06.07.11.09.11.04.24.03.19-.1-.04-.11-.03-.11.09-.02.07.06.14-.62.21-1.67-.17.19-.33.39-.49.58-.09.12-.19.23-.27.35.01.44.16.51.27.56zm-1.8 3.78c-.02.04.01.07.08.07.17 0 .08.19.21.11.12-.07-.03.04.09.21.04.06.79.76 1.41 1.35.46.43.85.79.86.8.14.13.19-.04.19.08 0 .08.65.71 1.07 1.17.2.22.34.4.35.47.03.23.3.44.13.21-.23-.31.24.15.24.17 0 .05-.16-.1-.16 0 0 .08.43.57.5.51.05-.05.1.17-.08.1s-.04.06.03.48c.03.19.07.25.16.21.01 0-.03 5.08 0 5.06.12-.08.12.21 0 .14-.17-.1.17.28-.01.28-.13 0 .05-.13.05.86 0 1 .28.94.12.91-.1-.02-.2 2.43.39 2.43 1.14 0 .55-10.44-.11-10.97-.16-.13-.07-.41-.24-.58-.17-.17-.3 0-.39-.13-.04-.07-.03-.08.05-.03s.01-.02-.08-.13c-.1-.12-.24-.3-.24-.46 0-.24-2.41-2.55-2.84-2.85-.03-.02-.05-.03-.06-.03-.05 0-.06-.02-.04-.05.14-.14-.43-.31-.47-.36-.1-.13-.05-.2-.21-.39-.17-.2-.27.01-.27-.17 0-.17-.19-.08-.11-.21.09-.14-.28.03-.27-.05.01-.12.02-.17-.3-.52-.1.38-.17.77-.22 1.17.11.05.21.08.17.14zm5.53 7.52c.04.11.03.12-.05.04-.1 0-.05-.31.05-.04zm-.65-3.17c.11 0-.1.24-.15.2-.04 0 .02-.2.15-.2zm-.93-.83c.06.02.05.04-.05.05-.19 0-.08-.11.05-.05zm-.32-1.31c.15.09.01.27.04.27-.04 0-.13-.32-.04-.27zm-1.55-.35c.17 0 .24.16.16.16-.04-.01-.38-.16-.16-.16zm-.53-1.36c.24.09.06.19.1.19-.03 0-.3-.26-.1-.19z"/><path d="M176.39 38.69c.05 0 .06-.16-.05-.16-.1 0 .01.16.05.16zm-30.76 32.13c.02-.01.03-.01.05 0 .02-.26-.23.1-.05 0z"/><path d="M145.68 70.81c0 .03-.01.07-.02.12-.02.07.03.04.1-.01a.155.155 0 0 0-.08-.11zm26.75.17c-.08.03-.08.04 0 .05.17.01-.09.3.02.48.09.15-.04.15-.04.52 0 .34.2.23.05.32-.17.11.01.56 0 .84-.04 1.04.2.59.19 1.17 0 .19.02.24.11.21s.1-.02.02.05c-.12.12-.14.49-.01.41.13-.08-.05.07.06.27.51.97.74-1.47.56-1.36-.03.02-.06-.02-.06-.08 0-.16.11-.03.11-.33.01-.47-.37-.74-.14-.61.08.05.1.03.06-.06-.03-.07-.01-.13.03-.13.44 0-.7-6.44 1.5-8.76.07-.08.41-.12.31-.28-.03-.05-.02-.06.04-.03.17.1.42-.76 1.62-1.65.01-.01.02-.02.03-.02.37-.27-.04-.29.07-.32.65-.13 1.46-1.06 1.42-1.11l-.01-.01c.02 0 .1-.02.37-.23-.51-.01-1.02.06-1.52.27-.12.05-.24.08-.36.12-.05.02-.09.03-.14.05-1.03.97-2.21 2.15-2.21 2.16-.08.25-.39.29-.31.42.03.05.02.06-.03.03-.11-.07-.47.53-.43.59 0 0-.36.12-.75 1-.16.36-.33.64-.22.71.12.08-.1.04-.14.26-.08.47-.35 1.82-.11 1.82.2 0-.09.03-.09.32 0 .26.1.47 0 .6-.11.14.17.38.06.32-.1-.06-.13.89-.01.81.13-.07-.15.14-.04.36.16.3-.18.44 0 .66.07.1.07.13-.01.16zm-22.97 3.64c-.01 0 .01-.02.03-.04v-.06c-.06.05-.1.1-.03.1z"/><path d="M149.56 74.45c.2-.16 0 .04-.08.13.06 1.11.16 1.94.28 2.12 1.52 2.3-2.03-1.22 9.62 10.12l7.83 7.64c.96.94 1.42.98 1.62 2.61.22 1.74.38 1.86.43 3.56.01.42.14.15.14.33 0 .2-.13-.05-.08.48.06.59.36.51.14.59-.19.07-.12.23.01.38.13.14.12.15-.01.09-.12-.05-.13-.03-.08.13.09.26.05 1.13.13 1.21.08.07.09.21-.02.15-.11-.07-.06.43.01.43.27 0-.41 2.32.02 3.09.07-.15.1.17.01.02 0-.01-.01-.01-.01-.02-.02.04-.05.13-.08.29.26-.02.52-.04.77-.05.01-.08.09-.24.1-.75.02-.77-.13-.37-.1-.75.01-.15.05-.25.08-.23.03.02.06 0 .06-.05 0-.14-.21-.02-.1-.18.02-.03.17-4.1-.06-4.39-.07-.09-.07-.11-.01-.08.05.03.1.03.1-.01 0-.12-.25-.25-.09-.25.13 0 .12-.57 0-.68-.07-.07-.07-.09 0-.09.11 0 .14-.43 0-.34-.08.05-.08.03 0-.06.12-.15-.28-2.63-.28-3.23 0-.78-1.5-2.44-2.04-2.94-.33-.31-.19-.41-.33-.3-.17.14-.03-.28-.26-.41-.15-.08-.74-.64-.74-.75 0-.14-.05.06-.36-.28-.28-.3-.04.05-.18.05-.11 0-.07-.07-.08-.23-.01-.13-.97-1.21-1.14-1.14-.14.05-2.8-2.96-3.78-3.86-.2-.19-.34-.28-.36-.24-.17.29.11-.15-.19-.42-.73-.64-1.48-1.71-2.27-2.16-.13-.08-.17-.11-.08-.09.29.08-.89-.81-.93-.89-.17-.32-.21-.25-.16-.16.06.1-.1.14-.13-.1-.04-.26-.13-.06-.21-.19-.27-.4-.94-.32-.61-.58.14-.11-1.01-.8-1.35-1.24-.45-.56-.34-.27-.6-.52-.22-.22-.47-.66-.58-.62-.12.04-.57-.48-.64-.59-.15-.21-.25-.07-.54-.42-2.24-2.67-1.66-1.12-1.78-7.42 0-.12-.24-2.53-.02-3.72.06-.3-.26-.49-.05-.36.17.11 0-.46-.1-.52-.11-.08-.39-.08-.14.02.23.09.17.31.12.18-.06-.14-.3-.06-.37-.18-.59-.98-.7 4.65-.53 7.92.03-.01.06-.03.08-.05zm20.41 31.88c.1-.06.1.12 0 .12-.08 0-.13-.04 0-.12zm-.33-2.04c.05-.02.08-.08.05-.12-.07-.11.14 0 .09.1-.07.1-.28.08-.14.02zm-8.58-16.37c-.05-.09.12-.18.12-.09 0 .35-.22.27-.18.27-.14-.08.12-.08.06-.18zm-1.76-1.91c.01.16-.07.1-.04.1-.06-.06.03-.31.04-.1zm-9.02-18.94c.16 0 .03.16.05.16-.05-.01-.16-.16-.05-.16zm-.22-.03c.13.08-.08.19-.04.19-.04-.01-.05-.24.04-.19z"/><path d="M153.33 64.24c-.14-.08-.06.17.03.48.04.16-.23.05-.01.22.2.15-.01-.04-.02.5 0 .22.03.41.07.43.03.02-.07 1.87.09 1.77.16-.1-.1.09-.09.33.06 1.16-.36 2.95.12 2.79.12-.04.12-.03.03.03-.67.49-.11 4.54 2.06 6.02.38.26.21.33.36.42.13.08-.05-.09.08-.17.05-.03.07-.02.04.03-.08.13.26.32.26.54 0 .1.31.18.77.63 1.05 1.04.48.72.97 1.12.5.41.44.13.44.29 0 .13.39.48.53.43.14-.06-.02.08.09.16.04.03.08 0 .09-.05.01-.19.04.39.48.33.08-.01 0 .16-.12.1-.11-.07-.01.15.14.09.15-.06-.04.03.23.3.25.25.37.09.32.18-.15.25 2.03 1.84 2.08 1.92.09.14 1.37 1.43 1.45 1.5.45.39.58.22.51.33-.08.13 1.77 1.73 1.8 1.77l.09.09c.19.17.4.24.4.36 0 .13.24.23.35.2.11-.03-.1.04.13.28.01.01 3.76 3.32 3.8 3.33.22.07.01.16.21.32.08.06.11.11.08.11-.04 0-.02.06.03.12.13.16.3-.01.22.07-.07.08.41.59.49.54.12-.07-.12.14.16.28.3.16.36.36.46.72.15.55.23.35.23.69 0 .16.03.22.1.18.07-.04-.06 6.2.22 6.2.11 0-.54 5.84.36 5.84.26 0 .32-.34.28-.45-.06-.17.11.14.11-.68 0-.83-.17-.53-.09-.66.09-.15.24.2.17-.33-.03-.21.12-1.44.14-1.64.03-.42-.15-.2-.04-.49.08-.19.13-.62-.01-.53-.11.07.25-.98-.05-.73-.1.08-.11.08-.06-.01.05-.08.04-.1-.07-.06-.08.03-.11.02-.09-.03.11-.18.26.15.25-.58 0-.3-.04-.48-.08-.46-.05.03-.06-.05-.03-.19.07-.35-.19-.31-.02-.32.17-.01.16-.22.02-.28-.15-.06 0-.12.02-.53.02-.44-.18-.34-.05-.49.12-.14 0-.85-.04-.99-.07-.24.13.21.08-1.05-.16-4.26-1.86-3.98-1.7-4.24.05-.09-.42-.68-.44-.71-.22-.29-.3-.09-.3-.22 0-.12-.62-.72-.62-.66 0 .26-.4-.74-.76-.74-.14 0 .03-.12-.14-.18s-.08-.28-.18-.28c-.12 0-.61-.57-.72-.5-.11.07.1-.02-.37-.51-.11-.11-.39-.38-.75-.72-1.22-1.13-3.44-3.15-3.8-3.56-.28-.33-.41-.11-.35-.21.06-.09-1.72-1.69-2.18-2.1-.38-.34-.45-.1-.52-.38-.03-.11-.08-.18-.12-.16-.11.07-.02-.15-.2-.09-.09.03-.11.01-.08-.07.07-.18-.31-.18-.24-.25.05-.05-.19-.32-.31-.28-.13.04-.14-.29-.3-.29-.06 0-.1-.03-.09-.07.04-.16-.84-.6-1.07-.82-.26-.26-.03-.29-.24-.26-.1.02-.15-.01-.13-.08.02-.07-.02-.09-.1-.06-.16.06-.15-.08-.02-.13.12-.05-3.48-2.94-3.56-4.38-.34-6.01-.25-5.52-.27-5.56-.11-.21.06-.07.03-.66-.12-2.68-.48-6.2-.51-4.93 0 .17-.01.17-.07.02-.08-.18 0-.1-.38.39.06-.36.09-.39-.09-.23-.15.13-.2.27 0 .37.1.05.1.05-.01.06-.34.04.07 1.2.02 1.17zm14 22.87c-.2 0-.11-.12.04-.12s.16.12-.04.12z"/><path d="M157.21 62.94c.05 0 .05.05-.01.16-.07.12-.07.15.01.11.22-.13-.29.49.11 1.3.08.16.08.22.02.25-.07.02-.06.07.01.2.14.24-.06.03-.02.5.02.21.14.77.03.71-.17-.1.08.23.11.44.05.35-.1.21-.1.51 0 .11.03.18.06.16.2-.13-.24 3.37.15 3.25.27-.08-.17.01-.09.39.25 1.2.57 1.36.52 1.33-.13-.06-.04.19.11.19.2 0-.07.18.23.51.5.54 7.37 8.19 7.99 7.9.17-.08.17-.08.02.04-.26.2.37.58.42.55.11-.07.8 1.04 1.07.93.08-.03.1-.01.06.09-.03.09 1.67 1.91 1.4 1.43.12.2.59.93.8.93.01 0 .93.92 2.04 2.01 1.69 1.68 3.82 3.77 3.77 3.61-.16-.48.43.68.39 2.51 0 .03.45 8.76.35 8.71-.09-.05-.09.41.01.47.11.07-.06.24.06.17.08-.05.11.02.13.05l.01.01c.18.31.95-.49.65-.85-.09-.11.17.46-.11-5.06-.02-.31-.14-.39-.07-.46.05-.06.06-1.48-.11-1.41-.06.03.03-.72-.05-2.53-.06-1.4-.39-1.04-.2-1.17.1-.06.09-.08-.06-.08h-.05c-.13 0-.01-.06-.31-.67-.32-.66-1.52-1.94-2.89-3.31-2.34-2.34-5.2-4.92-5.14-5.02.1-.15-1.51-1.64-1.68-1.53-.09.05-.01-.08-.17-.24-.15-.15-.24.03-.18-.09.1-.19-.57-.58-.52-.67.04-.06 0-.08-.11-.05-.09.02-3.28-3.39-3.48-3.32-.16.06-.13-.13-.04-.13.1 0-.17-.32-.25-.27-.12.07.02-.13-.45-.5-.38-.3-.43-.11-.37-.22.15-.27-2.28-2.04-2.53-3.37-.11-.59-.07-1.23-.23-1.33-.09-.06-.09-.07.01-.07.1 0 .1-.01 0-.08-.09-.06-.09-.08-.01-.08.21 0-.21-1.95-.14-1.9.09.06.09-.2 0-.2-.11 0 .04-.54-.1-.54-.07 0-.07-.02 0-.11s.06-.12-.05-.16c-.13-.05.07-4.63-.24-4.63-.2 0 .05-.02.11-.38.03-.17.01-.25-.06-.25-.08 0-.08-.01.01-.07.2-.13-.15-.24-.15-.37 0-.09.17.23.11-.35-.06-.58-.28-.67-.14-.59.13.07.22-.1.09-.1-.03 0 .08-1.61-.23-1.58-.09.01-.11-.03-.09-.12.02-.07.02-.1-.02-.07-.05.04-.13.02-.22-.01l-.18.09c0 .05-.03.05-.1.05-.05.02-.09.05-.14.07-.02.08.02.21.18.21.15 0 .22.05.14.18-.04.07.1-.13-.19-.11-.3.02-.32.07-.28.59.04.04.35 3.44.38 3.44zm19.57 28.25c.03-.03.06-.04.08-.05.1-.04.14.05.05.05-.02 0-.04.01-.05.01-.05.03-.05.12 0 .11.01 0 .02 0 .04-.01.1-.06.1.12.02.12-.01 0-.03 0-.06-.01-.09-.02-.23-.1-.08-.22zm-.3 1.98c.09.09-.13.2-.09.2-.04 0 .04-.25.09-.2zm-1.57-4.89c.16.06.14.11.05.11-.11 0-.22-.17-.05-.11zm-4.7-4.04c.12.08-.09.26-.05.26-.03 0-.03-.32.05-.26z"/><path d="M161.55 68.61c.12-.1.13-.09.04.03-.15.19.01.96.16.87.05-.03.06-.02.02.05-.09.15.23.75.34.88.15.18.25.02.2.16-.04.13.13.38.3.4.18.02.3.4.42.38.05-.01.07-.02.08-.02-.02.01-.18.16.51.82.03.03 3.98 3.54 3.21 2.93-.3-.24-.03.32.19.18.03-.02 1.42 1.41 1.56 1.32.09-.06.08.13.46.51.38.39.63.44.63.55 0 .21.67.77.77.75.21-.06.03.22.35.53.52.48.69.54.73.55l-.01.01c-.06.1.83.99.95.93.11-.07-.01.01.23.28.24.27.32.1.32.21 0 .09.55.72.63.67.09-.05-.02.06.29.36.27.27.32.12.32.22 0 .05.04.07.09.04.05-.03.07-.02.04.03-.1.17.5.48.45.56-.07.12.3.13.23.24-.02.04.01.07.08.07.17 0 .08.19.21.11.12-.07-.03.04.09.21.04.06.79.76 1.41 1.35.46.43.85.79.86.8.14.13.19-.04.19.08 0 .08.65.71 1.07 1.17.2.22.34.4.35.47.03.23.3.44.13.21-.23-.31.24.15.24.17 0 .05-.16-.1-.16 0 0 .08.43.57.5.51.05-.05.1.17-.08.1s-.04.06.03.48c.03.19.07.25.16.21.01 0-.03 5.08 0 5.06.12-.08.12.21 0 .14-.17-.1.17.28-.01.28-.13 0 .05-.13.05.86 0 1 .28.94.12.91-.1-.02-.2 2.43.39 2.43 1.14 0 .55-10.44-.11-10.97-.16-.13-.07-.41-.24-.58-.17-.17-.3 0-.39-.13-.04-.07-.03-.08.05-.03.08.04.01-.02-.08-.13-.1-.12-.24-.3-.24-.46 0-.24-2.41-2.55-2.84-2.85-.03-.02-.05-.03-.06-.03-.05 0-.06-.02-.04-.05.14-.14-.43-.31-.47-.36-.1-.13-.05-.2-.21-.39-.17-.2-.27.01-.27-.17 0-.17-.19-.08-.11-.21.09-.14-.28.03-.27-.05.01-.15.04-.19-.63-.87-.76-.77-.58-.77-.84-.73-.34.06.08 0-.14-.3-.2-.26-.37-.1-.3-.21.06-.09-1.34-1.3-1.32-1.32.03-.04-.01-.08-.08-.08-.18 0 .05-.12-.23-.23-.27-.11-.22-.17-.11-.11.12.07.02-.12-.14-.12-.07 0-.1.04-.06.1.06.11-.09.04-.12-.25-.01-.11-.2-.01-.32-.24-.06-.11-.37-.55-.47-.49-.1.06.04.19-.02.19-.04 0-.29-.37-.11-.26.43.26-1.41-1.55-1.44-1.59-.33-.37-.61-.12-.44-.24.14-.09-2.36-2.06-2.61-2.56-.18-.37-.34-.15-.53-.44-.42-.65-1.06-.9-1.06-1.01 0-.15-.61-.77-.7-.71-.04.02-.08-.02-.1-.1-.05-.2-.52-.33-.53-.44-.01-.13.03-.19-.07-.19-.44 0-.57-4.11-.72-3.88-.1.15-.09-.07.01-.13.12-.07-.51-4.5-.54-4.49-.21.06.19-.16.11-.23 0 0-.06-1.23-.16-1.41-.08-.16-.08-.19 0-.16.1.04.08-1.32.04-2.54-.34.02-.68.05-1.02.11-.02 6.27.63 11.29.63 11.33.02.04.04.04.16-.05zm19.04 21.94c.04.11.03.12-.05.04-.1 0-.05-.31.05-.04zm-.65-3.17c.11 0-.1.24-.15.2-.04 0 .02-.2.15-.2zm-.93-.83c.06.02.05.04-.05.05-.19 0-.08-.11.05-.05zm-.32-1.31c.15.09.01.27.04.27-.04 0-.13-.32-.04-.27zm-1.55-.35c.17 0 .24.16.16.16-.04-.01-.38-.16-.16-.16zm-.53-1.36c.24.09.06.19.1.19-.03 0-.3-.26-.1-.19zm-7.69-7.8c.18 0-.02.13 0 .13-.04 0-.15-.13 0-.13zm-.92.01c.11.11-.18.2-.15.2-.11 0 .11-.24.15-.2zm-6.28-12.68c.1-.06.19.09.04.09-.11 0-.17-.01-.04-.09zm-.22 4.83c.13.08-.08.19-.04.19-.04 0-.05-.24.04-.19zm-.53-5.83c-.06-.06.03-.31.04-.1.01.16-.07.1-.04.1zm-19.3 9.02c-.08-.08.04.09.56-.38 2.72-2.46 2.88-2.94 2.92-2.93.21.04.84-.78.83-.83-.05-.13.18-.11.14-.03-.09.15 1.41-1.43 2.29-2.21-.78.46-1.59.84-2.49 1.14-.01.03-.02.05-.07.02-.04.01-.09.03-.13.04-.29.19-.87.91-.84.9.09-.04.16.51.02.2-.11-.24-.19-.21-.35-.01-.21.25-1.35 1.32-1.31 1.45.05.14-.08-.08-.37.25-.27.3-.08.35-.19.3-.15-.09-1.27 1.09-1.27 1.25 0 .16-.23-.06-.23.14 0 .18-.19.08-.11.21.03.05.02.07-.02.04-.04-.03-.14.02-.21.1-.18.2 0 .33-.14.28-.14-.05-.49.49-.42.56.15.15-1.33 1.16-1.24 1.4.04.09.02.11-.07.08-.07-.03-.1-.02-.08.02.06.1-.19.21-.19.37 0 .15-.12.03-.2.32-.08.29-.01.33-.11.33-.16 0 .04.24-.24.62-.09.12-.14.26-.11.31.03.05.02.09-.02.09-.28 0-.59 5.04-.44 5.54.06.19.27.02.11.15-.09.08-.2 4.5.02 4.5.19 0-.15.09-.07.21.02.03.05.56.1 1.33.06 1.03.13 2.49.18 3.77l.87 1.43c.04-1.22.03-2.91-.03-5.2-.04-1.35-.1-2.91-.18-4.71-.06-1.19-.27-.89-.16-1.01.03-.03.05-.01.05.04 0 .31.31-.31.04-.77-.06-.1.1.14.1-.47.04-4.58.71-4.9.47-5-.22-.09.28.15.44-.7.06-.32.31-.37.24-.62-.03-.12-.03-.14.02-.06.16.24.1-.3.19-.3.11 0 .68-.45.74-.84.03-.19.16-.39.53-.75.25-.3.45-.54.43-.57zm5.15-5.29c.17-.06.05.11-.05.11-.05 0-.15-.03.05-.11zm-2.78 2.28c.13-.1.13-.1.02.04s-.1.14.08.09c.35-.1-.13.11-.09.11-.1 0-.18-.11-.01-.24zm-1.78 1.45c.1.06.14-.23.13.02-.01.13-.03.15-.11.09-.05-.04-.1-.05-.11-.02-.01.11.03.21-.07.14-.12 0 .06-.3.16-.23zm-4.16 18.02c-.03 0-.15-.13 0-.13.19-.01-.02.13 0 .13zm-.08 1.4c-.09 0 .03-.11.11-.17.25-.2-.15.17-.11.17zm.26-12.02c.09-.05.08.19.04.19-.03 0-.12-.14-.04-.19zm.11 9.56c.26-.22-.04.08.02.14.02.02-.02.04-.08.04-.15 0-.15 0 .06-.18zm-.02-11.32c-.08 0-.13-.04 0-.12.11-.06.11.12 0 .12z"/><path d="M176.39 83.1c.05 0 .06-.16-.05-.16-.1 0 .01.16.05.16zm-34.57-8c.06.14.08-.08-.02-.13-.1-.06-.21.16-.1.09.09-.06.09.04.12.04zm27.71-11.99c.07-.15.1.17.01.02 0-.01 0-.02-.01-.02-.02.04-.05.13-.08.29.26-.02.52-.04.77-.05.01-.08.09-.24.1-.75.02-.77-.13-.37-.1-.75.01-.15.05-.25.08-.23.03.02.06 0 .06-.05 0-.14-.21-.02-.1-.18.01-.01.03-.47.05-1.08-.25-.08-.5-.17-.75-.27.13.27-.43 2.35-.03 3.07zm.44-1.19c.1-.06.1.12 0 .12-.08 0-.13-.04 0-.12zm3.48-.27c.26 0 .32-.34.28-.45-.04-.11.01-.02.06-.15-.24-.02-.48-.04-.72-.08.07.41.19.68.38.68zm-23.21 49.29.06.09c.14.07.15.19.12.2l.15.25c.02-.12-.1-.44-.17-.49-.04-.03-.1-.04-.16-.05zm4.09 1.55c-.11-.21.06-.07.03-.66-.12-2.68-.48-6.2-.51-4.93 0 .17-.01.17-.07.02-.08-.18 0-.1-.38.39.06-.36.09-.39-.09-.23-.15.13-.2.27 0 .37.1.05.1.06-.01.06-.34.01.07 1.17.02 1.14-.14-.08-.06.17.03.48.04.16-.23.05-.01.22.2.15-.01-.04-.02.5 0 .22.03.41.07.43.03.02-.07 1.87.09 1.77.16-.1-.1.09-.09.33.06 1.16-.36 2.95.12 2.79.12-.04.12-.03.03.04-.15.11-.23.39-.26.77l1.32 2.18a.36.36 0 0 1-.02-.11c-.32-6.01-.23-5.52-.25-5.56zm14.19 13.72c.1-.15-1.51-1.64-1.68-1.53-.09.05-.01-.08-.17-.24-.15-.15-.24.03-.18-.09.1-.19-.57-.58-.52-.67.04-.06 0-.08-.11-.05-.09.02-3.28-3.39-3.48-3.32-.16.06-.13-.13-.04-.13.1 0-.17-.32-.25-.27-.12.07.02-.13-.45-.5-.38-.3-.43-.11-.37-.22.15-.27-2.28-2.04-2.53-3.37-.11-.59-.07-1.23-.23-1.33-.09-.06-.09-.07.01-.07.1 0 .1-.01 0-.08-.09-.06-.09-.08-.01-.08.21 0-.21-1.95-.14-1.9.09.06.09-.2 0-.2-.11 0 .04-.54-.1-.54-.07 0-.07-.02 0-.11s.06-.12-.05-.16c-.13-.05.07-4.63-.24-4.63-.2 0 .05-.02.11-.38.03-.17.01-.25-.06-.25-.08 0-.08-.01.01-.07.2-.13-.15-.24-.15-.37 0-.09.17.23.11-.35-.06-.58-.28-.67-.14-.59.13.07.22-.1.09-.1-.03 0 .08-1.61-.23-1.58-.09.01-.11-.03-.09-.12.02-.07.02-.1-.02-.07-.12.11-.49-.2-.4.02.05.15-.02.1-.16.11-.11.01-.12.28.12.28.15 0 .22.05.14.18-.04.07.1-.13-.19-.11-.3.02-.32.07-.28.59 0 .03.31 3.43.34 3.43.05 0 .05.05-.01.16-.07.12-.07.15.01.11.22-.13-.29.49.11 1.3.08.16.08.22.02.25-.07.02-.06.07.01.2.14.24-.06.03-.02.5.02.21.14.77.03.71-.17-.1.08.23.11.44.05.35-.1.21-.1.51 0 .11.03.18.06.16.2-.13-.24 3.37.15 3.25.27-.08-.17.01-.09.39.25 1.2.57 1.36.52 1.33-.13-.06-.04.19.11.19.2 0-.07.18.23.51.5.54 7.37 8.19 7.99 7.9.17-.08.17-.08.02.04-.26.2.37.58.42.55.11-.07.8 1.04 1.07.93.08-.03.1-.01.06.09-.03.09 1.67 1.91 1.4 1.43.12.2.59.93.8.93.01 0 .93.92 2.04 2.01.71.7 1.49 1.48 2.16 2.13.4-.06.79-.13 1.18-.22-.51-.57-1.14-1.23-1.82-1.91-2.32-2.34-5.18-4.92-5.12-5.02zm1.64 2.7c-.03 0-.03-.32.05-.26.13.08-.08.26-.05.26zm4.75 3.78c.16.06.14.11.05.11-.11 0-.22-.17-.05-.11zm-18.89-31.03c.34-.33.28-.39.16-.32-.15.09.07-.21.21-.16.25.1 1.56-2.17 1.59-2.2.24-.18-.18-.22.01-.46.08-.09.07-.12-.05-.12-.13 0-.12-.01.02-.07.31-.13.15-1.06.29-1.12.14-.06-.09.08-.05-.37.02-.23 0-.3-.07-.26-.12.07.14.01.11-1.05-.01-.37-.16-.1-.16-.29 0-.07.03-.1.08-.08.04.03.08-.02.08-.11 0-.22-.15-.19-.12-.34.02-.15.19-.34.07-.26-.11.07-.2-.2-.1-.14.09.05.12-.11-.02-.27-.08-.09-.08-.09 0-.05.15.08 0-.1 0-1.11 0-1.14-.27-.82-.14-1.03.09-.14.02-3.5-.08-3.76-.1-.26-.46-.22-.28-.09.16.12.12.42.07.28-.05-.14-.45-.55-.37-.4.06.1.05.1-.05.02-.78-.63-.09 6.1-.05 6.08.12-.07-.1.11-.04.6.06.51.05 1.7.13 1.84.08.14-.1.13-.1.26 0 .04.04.05.09.02.06-.04.07-.02.02.05-.09.15-.12.52-.06.4.06-.13.25-.15.08.04-.17.19-.15.42-.25.66-.08.21.23.44.06.34-.14-.09-.11.32-.1.37.01.04-1.36 1.91-1.36 1.92.06.09-.2.16-.56.51-.35.34-.2.48-.41.54-.15.04-1.83 1.7-1.76 1.82.08.14-.46.11-.91.81-.19.29-.55.34-.48.44.07.11-.11.01-.3.22-.13.15-.06.18-.27.4-.11.11-.16.14-.12.08.04-.06-.08.02-.26.19-.43.41-.09.35-.42.54-.57.32-.82.85-.79.9.07.11-.09 0-.37.18-.29.19-.13.24-.47.53l-.13.11.54.88c.04-.06.03-.1-.01-.15-.07-.09-.07-.11 0-.06.15.09.04-.15.21-.21.16-.06.33.19.26.05-.04-.07 1.08-1.11 1.11-1.14.35-.38.26-.49.48-.55.1-.03.14-.08.1-.14-.03-.05-.02-.07.03-.04.11.06.63-.43.5-.48-.13-.04-.13-.16.04-.14.3.04 4.15-3.86 4.1-3.95-.14-.07-.08.17.27-.16zm1.86-12.52c.09 0-.18.31-.17.31-.06 0 .11-.31.17-.31zm-5.11 15.33c-.08 0-.13-.04 0-.12.1-.05.11.12 0 .12zm.72-1.11c-.17.06.02-.04-.09-.17-.12-.14.16-.11.16-.03 0 .1.31.02.31.18-.01.3-.21-.04-.38.02z"/><path d="M148.37 101.44c-.11 0 .46-.37.39-.49-.07-.1.06.09.28-.18.22-.27.04-.38.14-.32s.36-.13.3-.37c-.06-.22-.03.11.24-.14.33-.3.1-.38.25-.38.08 0 .87-.75.87-.86 0-.17-.03.1.44-.31.15-.13.24-.24.21-.24-.04 0 0-.04.07-.08.2-.11-.01-.28.11-.2.17.1 2.17-2.03 1.75-1.78-.05.03-.09.01-.09-.03 0-.12.2-.01.28-.26.32-.96.47-.98.3-1.04-.11-.04-.1-.05.01-.14.58-.42-.09-2.5.19-1.87.09.21.11-1.62-.12-1.79-.15-.11-.15-.11.01-.07.16.04.1-2.14-.07-4.08-.13-1.5-.33-2.87-.53-2.98-.25-.13-.24-.02-.26.51-.01.21-.12 1.35.05 1.25.17-.1-.17.28.01.28.07 0 .07.02 0 .07-.19.13.08-.04.1.42.02.4-.11.14-.09.37 0 .04.01.07.02.09.04.09.11.05.06.19-.07.17.29.38.14.3-.11-.06-.25.06-.19.29.06.24.28.07.2.27-.04.1-.06.1-.11.02-.1-.16-.15.68.06.84.21.16-.12-.01-.08.46.06.74.08 4.94.04 4.94-.1 0-.18.29-.07.36.12.07-.08.11-.25.44-.18.35.23.67-.02.46-.18-.15-.23.06-.18.14.06.09-2.11 2.09-2.08 2.23.04.19-.02-.13-.42.31-.15.16-.25.25-.22.18.03-.06-.05 0-.19.14-.33.34-.22.51-.31.46-.14-.08-1.46 1.53-1.37 1.67.06.11-.07-.11-.42.26-.37.38-.09.52-.25.38-.19-.17-.12.09-1.96 1.87-.04.04-.07.07-.09.1l.53.88c1.15-1.07.64-1.05.94-1.13.3-.08.81-.92 1.02-1 .18-.07-.04-.45.14-.29.14.13.28-.15.22-.15zm5.03-15.88c.15 0-.06.16-.05.16-.04 0-.06-.16.05-.16zm-7.17 17.2c-.08 0-.13-.04 0-.12.11-.06.11.12 0 .12zm.66-.72c-.06-.06.03-.31.04-.1 0 .16-.08.1-.04.1zm29.5 25.47c.05 0 .06-.16-.05-.16-.1 0 .01.16.05.16zm-30.8-29.85c.25.15 1.26-1.44 1.33-1.4.07.05.3-.16.26-.38-.02-.12-.01-.13.05-.05.12.18.32-.46.48-.46.04 0 .08-.05.08-.12 0-.16.15-.05.37-.29.12-.13.33-.39.16-.35-.14.03.25-.1.25-.24 0-.05.04-.08.08-.06.04.03.08-.01.08-.08 0-.18.09.03.23-.23.95-1.76 1.28-5.01.94-4.88-.21.07.21-.03.16-.74-.02-.25-.25-.19-.25-.09s-.18.05.07-.18c.3-.27.03-.33.17-.54.04-.06.03-.13-.03-.16-.05-.04-.06-.06-.01-.06.05 0 .07-.25.06-.53-.01-.36-.07-.77-.13-.81-.03-.02.2-2.35-.07-2.19-.03.02.13-2.46-.09-2.46-.15 0 .12.01.08-.43-.02-.18-.14-.74-.25-.74-.07 0 .09.16-.02.16-.16 0-.02-.18-.3-.07-.42.16-.08 1.3-.16 1.35-.09.06-.05.38.01.48.14.22.09 2.8.06 4.72-.02 1.17-.03 2.09.01 2.09.09 0-.11.47-.03.47.07 0-.21.16-.09.16s.1.23.03.19c-.08-.05.01.84-.08.9-.09.06-.24 1.24-.26 1.35-.21 1.46-1.21 1.94-1.09 2.16.05.09-.16.22-.09.09.06-.1.03-.22-.39.28-.4.48-.25.5-.34.45-.1-.06-.32.28-.65.58-.4.36-.09.47-.3.47-.11 0-.4.31-.35.44.01.03-1.84 1.68-2.56 2.58l.51.85c.6-.64 1.06-1.16 1.05-1.19-.08-.22.34 0 .23-.18-.06-.1.01.03.46-.42.43-.46.23-.5.33-.44zm3.83-17.28c.33.1.05.2.09.2-.13 0-.01-.16-.21-.16-.17.01-.11-.1.12-.04zm-.46 11.57c.15 0-.06.16-.05.16-.04-.01-.06-.16.05-.16zm-.08.82c0 .21-.18.14-.14.14-.06-.04.14-.25.14-.14z"/><path d="M143.27 93.7c1.12-.86.64-1.1.89-1 .15.06.43-.51.77-.84.33-.32.03-.49.25-.41.14.05.15-.07.13-.22-.02-.15-.01.3.59-.99.23-.49.37-1.81.46-3.41.2-3.71.1-8.97.05-9.06-.06-.09-.17-.5-.03-.3.21.3-.23-.67.05-.57.09.03.12.01.09-.06-.07-.18-.31.02-.13-.2.07-.09.07-.11.01-.08-.05.03-.1.03-.1-.02 0-.12.27-.15.09-.16-.19-.01.19-.15.09-.42-.1-.29.03-3.39-.15-3.28-.17.1.22-.44.02-.44-.14 0 .13-.53-.12-.32-.25.21.03-.17.03-.38 0-.11-.28-.31-.16-.31.11 0 .11-.29 0-.35-.13-.08.1-.26-.14-.12-.06.04-.15.11-.21.16.01.04-.01.08-.07.08-.18 0-.02.54-.13.54-.13 0 .2.31.05.37-.12.04-.03.83.08.9.14.1-.11.01-.11.13 0 .13.39.14.14.15-.22.01-.11.79-.06.79.07 0-.02.48-.15.45-.13-.03-.07.47-.04.91.03.34.22.35.09.35s-.08 2.28.13 2.55c.1.12.09.13-.02.03-.36-.29-.15.62-.04.7.13.09-.15-.03-.17.25-.03.32.19.5.06.75-.06.11-.06.19 0 .26.04.05.06.12.03.15-.09.09.23.26.07.35-.11.06-.11 3.98-.15 6.17-.01.65-.03 1.15-.05 1.35-.07.68-.23.93-.17 1.09.05.14-.04 0-.17.48-.37 1.39-2.78 3.1-2.4 3.52.18.2-.08-.1-.28-.03-.18.07-.1.31-.18.24-.07-.07-.41.25-.41.39s-.31.23-.44.41c-.13.18.03.29-.08.22-.14-.09-.51.53-.59.71l.5.82c.06-.11.05-.15.17-.2.21-.09.04-.33.18-.33.18 0 .73-.68.73-.79 0-.21-.07.13.44-.38.45-.43.3-.4.56-.6zm2.24-5.72c-.05 0 .04-.33.09-.28.08.1-.13.28-.09.28zm.45 1.16c-.05 0-.06-.16.05-.16.14.01-.07.16-.05.16zm-.4.47c.16 0-.18.16-.16.16-.04 0 .03-.16.16-.16z"/><path d="M142.45 90.96c.44 0 .3-3.22.43-3.69.03-.12.05-.27.06-.45.04-.88-.16-2.31-.13-2.29.14.09.06-1.74 0-1.7-.07.05-.1-.05.03-.19.17-.17-.11-.16-.04-.39.03-.09.01-.1-.07-.05-.09.05-.09.04-.01-.05.17-.2-.19-.3 0-.3.14 0 .07-.44.05-.61-.05-.36-.18-.11-.18-.25 0-.15.14.06.12-.38-.03-.51-.02-2.89-.2-2.89-.18 0 .25-.17.09-.27-.17-.1.14-.12.04-.27-.08-.12-.09-1.37-.16-1.49-.08-.12.18-.31.06-.31-.04 0-.06-.06-.04-.14.05-.19-.39-.52-.21-.31.09.12.09.13-.02.09-.17-.06-.38.12-.32.21.07.11-.25-.15-.33-.05-.12.13.15-.04.06.42-.03.17-.11 1.34.09 1.21.1-.06-.22 1.92.07 1.53.12-.17.04 0-.05.36-.07.27.06.35.09.6.02.22-.1 3.18.12 3.05.06-.04.06-.01 0 .1-.15.27-.16 4.31-.19 4.32-.03.01-.04.02-.05.04-.03.07.19.19.1.27-.05.04-.14.72.04.94.01.01.01.02.02.02-.08.01-.24.28-.06 2.25.09 1 .56.5.59.5.08.01-.06.17 0 .17zm-.19-4.86c.1-.06.19.09.04.09-.11 0-.17-.02-.04-.09zm-.12 4.78c-.04 0-.13-.14-.04-.19.08-.05.07.19.04.19zm27.79 42.36c-.17-.06-.08-.28-.18-.28-.12 0-.61-.57-.72-.5-.11.07.1-.02-.37-.51-.11-.11-.39-.38-.75-.72-1.22-1.13-3.44-3.15-3.8-3.56-.28-.33-.41-.11-.35-.21.06-.09-1.72-1.69-2.18-2.1-.38-.34-.45-.1-.52-.38-.03-.11-.08-.18-.12-.16-.11.07-.02-.15-.2-.09-.09.03-.11.01-.08-.07.07-.18-.31-.18-.24-.25.05-.05-.19-.32-.31-.28-.13.04-.14-.29-.3-.29-.06 0-.1-.03-.09-.07.04-.16-.84-.6-1.07-.82-.26-.26-.03-.29-.24-.26-.1.02-.15-.01-.13-.08.02-.07-.02-.09-.1-.06-.16.06-.15-.08-.02-.13.07-.03-1.37-1.23-2.44-2.46l2.28 3.76c.03.02.05.05.09.08.5.41.44.13.44.29 0 .13.39.48.53.43.14-.06-.02.08.09.16.04.03.08 0 .09-.05.01-.19.04.39.48.33.08-.01 0 .16-.12.1-.11-.07-.01.15.14.09.15-.06-.04.03.23.3.25.25.37.09.32.18-.15.25 2.03 1.84 2.08 1.92.09.14 1.37 1.43 1.45 1.5.45.39.58.22.51.33-.08.13 1.77 1.73 1.8 1.77l.09.09c.19.17.4.24.4.36 0 .13.24.23.35.2.11-.03-.1.04.13.28l1.42 1.25c.58.08 1.15.14 1.73.17-.06-.05-.12-.08-.18-.08-.15 0 .02-.12-.14-.18zm-2.6-1.71c-.2 0-.11-.12.04-.12.15-.01.16.12-.04.12z"/><path d="M154.03 78.14c5.19-1.32 22.1 2.63 26.91 10.17 5.99 9.39 2.84 18.23 1.68 23.05 0 0 4.96-3.5 10.5-1.6s6.56 8.17-.29 14.44c-6.86 6.27-14 4.38-17.36 1.17 0 0-11.6 13.05-27.24 9.01-14.04-3.63-15.64-10.94-16.52-18.34-.74-6.26 1.17-11.38 1.17-11.38s-3.21-10.06 1.02-14.88c4.23-4.81 6.27-.44 6.27-.44s5.25-9.01 13.86-11.2z" fill="#f2b080"/><path d="M146.3 94.69c-.59 1.11-1.3 1.45-2.12 1.01-.82-.44-.94-1.22-.35-2.33s1.3-1.45 2.12-1.01c.82.44.93 1.22.35 2.33zm23.95 8.42c-.59 1.11-1.3 1.45-2.12 1.01-.82-.44-.94-1.22-.35-2.33s1.3-1.45 2.12-1.01c.82.44.94 1.23.35 2.33z"/><path d="M146.15 85.4c4.38-.77 7.62 1.79 9.04 3.21m10.22 3.93c3.83-.22 8.31.69 10.94 5.4" fill="none" stroke="#000" stroke-linecap="round" stroke-linejoin="round" stroke-miterlimit="10" stroke-width="1.98"/><ellipse fill="#f49a86" cx="138.9" cy="102.18" opacity=".76" rx="5.66" ry="3.86" transform="rotate(-70.719 138.894 102.186)"/><path d="M162.04 117.46c-1.77-1.86-1.28-4.12 1.44-6.7 2.72-2.59 5-2.96 6.76-1.1 1.77 1.86 1.28 4.12-1.44 6.7-2.72 2.59-5 2.96-6.76 1.1z" fill="#f49a86" opacity=".76"/><path d="M182.62 111.36c-2.22 6.38-5.51 11.78-7.15 14m5.91-5.87c2.08-1.09 11.05-3.72 11.05-3.72m-52.26-26.44c-3.65 5.21-5.36 9.88-7.29 15.32m22.57-9.77c-3.06 3.06-7.99 4.81-8.64 6.67-.66 1.86 5.69 3.83 5.69 3.83" fill="none" stroke="#c4513d" stroke-linecap="round" stroke-linejoin="round" stroke-miterlimit="10" stroke-width=".792"/><path d="M140.46 108.77c.95-1.63 6.89 1.86 10.28 3.17 3.39 1.31 6.56 2.19 5.47 4.27-1.09 2.08-6.78 3.28-11.27.88-3.92-2.11-5.24-7.01-4.48-8.32z" fill="#fff" stroke="#c4513d" stroke-linecap="round" stroke-linejoin="round" stroke-miterlimit="10" stroke-width="1.98"/><path d="M36.76 37.99c3.8 0 5.11 5.4 3.79 10.06-1.31 4.67-3.94 12.25-3.94 12.25s5.4-1.17 13.56-.73c8.17.44 15.61 4.08 19.25 5.83 3.65 1.75 3.21 5.54 1.46 7s-6.13 1.17-11.23.29c0 0 9.19 2.48 12.25 4.52 3.06 2.04 1.77 6.32-.29 7.29-2.77 1.31-13.27-.58-13.27-.58s11.38 3.79 10.36 7.15c-1.02 3.35-2.33 3.5-9.04 2.92 0 0 7.73 1.46 6.42 5.83-1.31 4.38-6.56 2.77-10.06 2.33-3.5-.44-9.04-.73-9.04-.73s-4.81 4.81-9.04 7.73c-4.23 2.92-8.46 3.65-8.46 3.65s-3.21 17.28-6.82 29.76c-2.94 10.15-8.2 22.17-8.2 22.17s5.25.73 18.38 1.46c13.13.73 27.13.88 27.13.88s5.98 14.48 1.75 29.65c-4.23 15.17-9.19 24.47-9.19 24.47s-56.12 5.4-73.51-19.55c-17.39-24.94-8.2-54.81 1.64-77.12C-9.52 102.21 0 90.06 4.6 80.55s12.47-19.03 17.39-23.3 6.75-7.44 8.5-11.81 4.08-7.45 6.27-7.45z" fill="#f0a26a"/><path d="M29.6 47.5c5.56.92 9.08-4.18 10.24-7.76-.71-1.08-1.74-1.75-3.08-1.75-2.19 0-4.52 3.06-6.27 7.44-.29.72-.58 1.4-.89 2.07zm35.04 39.14c-2.19-.36-4.16-.17-4.84 1.97-.91 2.87 3.89 4.8 6.58 5.39 1.24-.39 1.81-1.27 2.32-2.91.47-1.53-1.63-3.15-4.06-4.45zm7.27-9.41c-.19-.12-.39-.25-.62-.37-3.81-.96-6.94-1.08-7.55 1.83-.55 2.64 2.81 4.95 5.99 6.24.78-.07 1.43-.19 1.88-.41 2.07-.98 3.36-5.25.3-7.29zM58.35 97.21c-1.01 2.22 3.3 4.03 6.05 4.93.75-.46 1.35-1.18 1.68-2.3.41-1.37-.06-2.45-.91-3.29-2.71-1.04-5.67-1.87-6.82.66zm3.79-29.46c-.6 2.42 2.68 4.48 5.79 5.63 1.29-.12 2.31-.42 2.97-.96 1.75-1.46 2.19-5.25-1.46-7-.49-.23-1.05-.5-1.66-.79-2.78-.11-5.04.71-5.64 3.12z" fill="#df6d59"/><path d="M36.61 60.31c-4.96.88-7.88 2.19-9.48 3.65m32.53 8.75c-7.44-2.04-13.71-3.21-18.23-2.19m16.92 13.42c-7.15-2.33-12.25-3.21-15.17-2.48M59.66 94c-4.52-2.19-12.98-3.5-15.9-2.48m-14.3 21.3c-4.96.88-8.31-.15-8.31-.15m-6.71 52.07c-5.25 12.29-10.17 21.15-10.17 21.15" fill="none" stroke="#c4513d" stroke-linecap="round" stroke-linejoin="round" stroke-miterlimit="10" stroke-width=".792"/><path d="M164.09 206.57s-5.58-5.25-2.63-11.81c2.95-6.56 11.38-9.08 18.27-11.38 6.89-2.3 14.88-.33 19.47 2.95 4.59 3.28 7.66 7.44 11.6 14.99 3.94 7.55 5.8 13.13 3.5 23.96s-4.27 11.81-1.64 19.03c2.63 7.22 14.77 57.1 13.46 73.51-1.31 16.41-5.91 30.52-23.3 30.85-17.39.33-29.54-16.08-32.49-36.76-2.95-20.68-3.28-44.3-1.97-59.07 1.31-14.77 1.97-22.64 1.97-22.64s-2.01-2.15-2.3-6.96c0 0-3.21-2.19-3.94-6.86s0-9.81 0-9.81z" fill="#f0a26a"/><path d="M186.3 235.78c-2.29-2.61-7.6-4.14-10.46-3.18.52 1.65 1.52 3.08 3.13 4.5 3.11 2.74 6.83 2.12 8.48.19-.31-.48-.68-.98-1.15-1.51z" fill="#df6d59"/><path d="M164.09 206.57c1.86-9.08 13.89-12.69 19.47-14.11m-15.53 30.77c.22-6.49 2.73-11.52 9.19-15.24 5.77-3.33 10.94-4.59 10.94-4.59m-17.83 26.8c1.64 1.2 5.14 1.31 5.14 1.31" fill="none" stroke="#c4513d" stroke-linecap="round" stroke-linejoin="round" stroke-miterlimit="10" stroke-width=".792"/><path d="M189.47 212.37c-3.94 1.53-12.47 5.91-13.56 12.03-1.09 6.13-.66 9.41 3.06 12.69 3.72 3.28 8.31 1.75 9.19-1.09.88-2.84-2.19-5.69-2.19-5.69" fill="none" stroke="#c4513d" stroke-linecap="round" stroke-linejoin="round" stroke-miterlimit="10" stroke-width=".792"/><path d="M200.85 224.18c-3.28 1.97-14 6.13-17.72 6.56m10.28-2.62c-1.97 6.13-3.28 16.41 5.69 20.13" fill="none" stroke="#c4513d" stroke-linecap="round" stroke-linejoin="round" stroke-miterlimit="10" stroke-width=".792"/><circle fill="#153745" cx="156.87" cy="251.75" r="3.72"/><circle fill="#153745" cx="84.69" cy="242.67" r="3.72"/><path d="M104.15 166.09s-1.53-.88-3.83-.98c-2.3-.11-5.14.44-5.14.44s-7.88 13.78-14.44 27.13-14 30.19-24.72 64.76c-10.72 34.57-12.69 61.48-12.69 61.48-3.72 5.03-15.53 6.13-15.53 9.19s9.41 40.91 9.41 40.91l16.63 1.09s1.53-30.63 2.63-37.63c1.09-7 1.31-15.53 1.31-15.53s-3.72 1.09-4.38-.22c1.53-20.57 9.63-53.17 15.75-73.95 6.11-20.79 35-76.69 35-76.69z" fill="#df6d59"/></g></svg>